<?xml version="1.0" encoding="UTF-8" standalone="no"?>
<!-- Created with Inkscape (http://www.inkscape.org/) -->

<svg
   xmlns:dc="http://purl.org/dc/elements/1.1/"
   xmlns:cc="http://creativecommons.org/ns#"
   xmlns:rdf="http://www.w3.org/1999/02/22-rdf-syntax-ns#"
   xmlns:svg="http://www.w3.org/2000/svg"
   xmlns="http://www.w3.org/2000/svg"
   xmlns:sodipodi="http://sodipodi.sourceforge.net/DTD/sodipodi-0.dtd"
   xmlns:inkscape="http://www.inkscape.org/namespaces/inkscape"
   width="47.449955mm"
   height="49.102272mm"
   viewBox="0 0 47.449954 49.102273"
   version="1.1"
   id="svg8"
   inkscape:version="0.92.4 5da689c313, 2019-01-14"
   sodipodi:docname="spinner.svg">
  <defs
     id="defs2" />
  <sodipodi:namedview
     id="base"
     pagecolor="#ffffff"
     bordercolor="#666666"
     borderopacity="1.0"
     inkscape:pageopacity="0.0"
     inkscape:pageshadow="2"
     inkscape:zoom="2"
     inkscape:cx="50.818188"
     inkscape:cy="117.61341"
     inkscape:document-units="mm"
     inkscape:current-layer="layer1"
     showgrid="false"
     inkscape:window-width="1366"
     inkscape:window-height="674"
     inkscape:window-x="0"
     inkscape:window-y="0"
     inkscape:window-maximized="1"
     showguides="true"
     inkscape:guide-bbox="true">
    <sodipodi:guide
       position="22.489584,2.2489584"
       orientation="1,0"
       id="guide6625"
       inkscape:locked="false" />
    <sodipodi:guide
       position="18.366099,24.170494"
       orientation="0,1"
       id="guide6627"
       inkscape:locked="false" />
  </sodipodi:namedview>
  <metadata
     id="metadata5">
    <rdf:RDF>
      <cc:Work
         rdf:about="">
        <dc:format>image/svg+xml</dc:format>
        <dc:type
           rdf:resource="http://purl.org/dc/dcmitype/StillImage" />
        <dc:title />
      </cc:Work>
    </rdf:RDF>
  </metadata>
  <g
     inkscape:label="Camada 1"
     inkscape:groupmode="layer"
     id="layer1"
     transform="translate(26.66752,-230.94769)">
    <g
       id="g4891"
       transform="matrix(1.1595795,0,0,1.1595795,0.46956946,-40.772367)">
      <path
         inkscape:connector-curvature="0"
         id="path4819"
         d="m -2.9350902,235.20865 c -0.014732,11.66845 -0.014904,11.7981 -0.014904,11.7981"
         style="fill:none;stroke:#000000;stroke-width:0.85752612;stroke-linecap:round;stroke-linejoin:miter;stroke-miterlimit:4;stroke-dasharray:none;stroke-opacity:1;paint-order:stroke fill markers"
         inkscape:transform-center-y="-83.910641"
         inkscape:transform-center-x="0.10599" />
      <path
         inkscape:transform-center-x="0.10599"
         inkscape:transform-center-y="-83.910641"
         style="fill:none;stroke:#ffffff;stroke-width:0.85752612;stroke-linecap:round;stroke-linejoin:miter;stroke-miterlimit:4;stroke-dasharray:none;stroke-opacity:1;paint-order:stroke fill markers"
         d="m -2.9350902,235.20865 c -0.014732,11.66845 -0.014904,11.7981 -0.014904,11.7981"
         id="path4821"
         inkscape:connector-curvature="0" />
      <path
         id="path5087"
         style="opacity:1;fill:none;stroke:#060606;stroke-width:0.85752612;stroke-linecap:round;stroke-linejoin:miter;stroke-miterlimit:4;stroke-dasharray:none;stroke-opacity:1;paint-order:stroke fill markers"
         d="m -2.9350902,235.20865 c -0.014732,11.66845 -0.014904,11.7981 -0.014904,11.7981"
         inkscape:connector-curvature="0" />
      <path
         inkscape:transform-center-y="-82.635914"
         inkscape:transform-center-x="-14.570939"
         id="path5089"
         style="opacity:1;fill:none;stroke:#ab9c00;stroke-width:0.85752612;stroke-linecap:round;stroke-linejoin:miter;stroke-miterlimit:4;stroke-dasharray:none;stroke-opacity:1;paint-order:stroke fill markers"
         d="m -6.4585552,235.51561 c 2.0116962,11.49374 2.0340416,11.62145 2.0340416,11.62145"
         inkscape:connector-curvature="0" />
      <path
         inkscape:transform-center-y="-78.850273"
         inkscape:transform-center-x="-28.699154"
         id="path5091"
         style="opacity:1;fill:none;stroke:#ab9c00;stroke-width:0.85752612;stroke-linecap:round;stroke-linejoin:miter;stroke-miterlimit:4;stroke-dasharray:none;stroke-opacity:1;paint-order:stroke fill markers"
         d="m -9.8751878,236.42975 c 3.9770002,10.96979 4.0211817,11.09168 4.0211817,11.09168"
         inkscape:connector-curvature="0" />
      <path
         inkscape:transform-center-y="-72.668801"
         inkscape:transform-center-x="-41.955349"
         id="path5093"
         style="opacity:1;fill:none;stroke:#ab9c00;stroke-width:0.85752612;stroke-linecap:round;stroke-linejoin:miter;stroke-miterlimit:4;stroke-dasharray:none;stroke-opacity:1;paint-order:stroke fill markers"
         d="m -13.081174,237.9233 c 5.8214631,10.11253 5.8861411,10.2249 5.8861411,10.2249"
         inkscape:connector-curvature="0" />
      <path
         inkscape:transform-center-y="-64.279333"
         inkscape:transform-center-x="-53.936759"
         id="path5095"
         style="opacity:1;fill:none;stroke:#ab9c00;stroke-width:0.85752612;stroke-linecap:round;stroke-linejoin:miter;stroke-miterlimit:4;stroke-dasharray:none;stroke-opacity:1;paint-order:stroke fill markers"
         d="m -15.979105,239.95086 c 7.4890465,8.94802 7.572254,9.04745 7.572254,9.04745"
         inkscape:connector-curvature="0" />
      <path
         inkscape:transform-center-y="-53.936762"
         inkscape:transform-center-x="-64.279334"
         id="path5097"
         style="opacity:1;fill:none;stroke:#ab9c00;stroke-width:0.85752612;stroke-linecap:round;stroke-linejoin:miter;stroke-miterlimit:4;stroke-dasharray:none;stroke-opacity:1;paint-order:stroke fill markers"
         d="m -18.480927,242.45085 c 8.9290797,7.51161 9.0282869,7.59508 9.0282869,7.59508"
         inkscape:connector-curvature="0" />
      <path
         inkscape:transform-center-y="-41.955356"
         inkscape:transform-center-x="-72.668804"
         id="path5099"
         style="opacity:1;fill:none;stroke:#ab9c00;stroke-width:0.85752612;stroke-linecap:round;stroke-linejoin:miter;stroke-miterlimit:4;stroke-dasharray:none;stroke-opacity:1;paint-order:stroke fill markers"
         d="m -20.510621,245.34729 c 10.097804,5.84698 10.209999,5.91195 10.209999,5.91195"
         inkscape:connector-curvature="0" />
      <path
         inkscape:transform-center-y="-28.699156"
         inkscape:transform-center-x="-78.850269"
         id="path5101"
         style="opacity:1;fill:none;stroke:#ab9c00;stroke-width:0.85752612;stroke-linecap:round;stroke-linejoin:miter;stroke-miterlimit:4;stroke-dasharray:none;stroke-opacity:1;paint-order:stroke fill markers"
         d="m -22.006519,248.55218 c 10.959714,4.00468 11.081488,4.04919 11.081488,4.04919"
         inkscape:connector-curvature="0" />
      <path
         inkscape:transform-center-y="-14.57094"
         inkscape:transform-center-x="-82.635914"
         id="path5103"
         style="opacity:1;fill:none;stroke:#ab9c00;stroke-width:0.85752612;stroke-linecap:round;stroke-linejoin:miter;stroke-miterlimit:4;stroke-dasharray:none;stroke-opacity:1;paint-order:stroke fill markers"
         d="m -22.923168,251.96814 c 11.488619,2.04071 11.61627,2.06339 11.61627,2.06339"
         inkscape:connector-curvature="0" />
      <path
         inkscape:transform-center-x="-83.910709"
         id="path5105"
         style="opacity:1;fill:none;stroke:#ab9c00;stroke-width:0.85752612;stroke-linecap:round;stroke-linejoin:miter;stroke-miterlimit:4;stroke-dasharray:none;stroke-opacity:1;paint-order:stroke fill markers"
         d="m -23.232716,255.49137 c 11.668447,0.0147 11.798098,0.0149 11.798098,0.0149"
         inkscape:connector-curvature="0" />
      <path
         inkscape:transform-center-y="14.570939"
         inkscape:transform-center-x="-82.635914"
         id="path5107"
         style="opacity:1;fill:none;stroke:#ab9c00;stroke-width:0.85752612;stroke-linecap:round;stroke-linejoin:miter;stroke-miterlimit:4;stroke-dasharray:none;stroke-opacity:1;paint-order:stroke fill markers"
         d="m -22.925756,259.01484 c 11.493735,-2.0117 11.621446,-2.03404 11.621446,-2.03404"
         inkscape:connector-curvature="0" />
      <path
         inkscape:transform-center-y="28.699155"
         inkscape:transform-center-x="-78.850274"
         id="path5109"
         style="opacity:1;fill:none;stroke:#ab9c00;stroke-width:0.85752612;stroke-linecap:round;stroke-linejoin:miter;stroke-miterlimit:4;stroke-dasharray:none;stroke-opacity:1;paint-order:stroke fill markers"
         d="m -22.011618,262.43147 c 10.969793,-3.977 11.091684,-4.02118 11.091684,-4.02118"
         inkscape:connector-curvature="0" />
      <path
         inkscape:transform-center-y="41.955349"
         inkscape:transform-center-x="-72.668804"
         id="path5111"
         style="opacity:1;fill:none;stroke:#ab9c00;stroke-width:0.85752612;stroke-linecap:round;stroke-linejoin:miter;stroke-miterlimit:4;stroke-dasharray:none;stroke-opacity:1;paint-order:stroke fill markers"
         d="m -20.518073,265.63746 c 10.112536,-5.82146 10.224903,-5.88614 10.224903,-5.88614"
         inkscape:connector-curvature="0" />
      <path
         inkscape:transform-center-y="53.93676"
         inkscape:transform-center-x="-64.279334"
         id="path5113"
         style="opacity:1;fill:none;stroke:#ab9c00;stroke-width:0.85752612;stroke-linecap:round;stroke-linejoin:miter;stroke-miterlimit:4;stroke-dasharray:none;stroke-opacity:1;paint-order:stroke fill markers"
         d="m -18.490507,268.53539 c 8.9480187,-7.48905 9.0474471,-7.57225 9.0474471,-7.57225"
         inkscape:connector-curvature="0" />
      <path
         inkscape:transform-center-y="64.27933"
         inkscape:transform-center-x="-53.936759"
         id="path5115"
         style="opacity:1;fill:none;stroke:#ab9c00;stroke-width:0.85752612;stroke-linecap:round;stroke-linejoin:miter;stroke-miterlimit:4;stroke-dasharray:none;stroke-opacity:1;paint-order:stroke fill markers"
         d="m -15.990522,271.03721 c 7.5116182,-8.92908 7.5950881,-9.02829 7.5950881,-9.02829"
         inkscape:connector-curvature="0" />
      <path
         inkscape:transform-center-y="72.668799"
         inkscape:transform-center-x="-41.955354"
         id="path5117"
         style="opacity:1;fill:none;stroke:#ab9c00;stroke-width:0.85752612;stroke-linecap:round;stroke-linejoin:miter;stroke-miterlimit:4;stroke-dasharray:none;stroke-opacity:1;paint-order:stroke fill markers"
         d="M -13.094082,273.06691 C -7.2471002,262.9691 -7.1821271,262.8569 -7.1821271,262.8569"
         inkscape:connector-curvature="0" />
      <path
         inkscape:transform-center-y="78.850269"
         inkscape:transform-center-x="-28.699154"
         id="path5119"
         style="opacity:1;fill:none;stroke:#ab9c00;stroke-width:0.85752612;stroke-linecap:round;stroke-linejoin:miter;stroke-miterlimit:4;stroke-dasharray:none;stroke-opacity:1;paint-order:stroke fill markers"
         d="m -9.889193,274.5628 c 4.0046881,-10.95971 4.049192,-11.08148 4.049192,-11.08148"
         inkscape:connector-curvature="0" />
      <path
         inkscape:transform-center-y="82.635914"
         inkscape:transform-center-x="-14.570944"
         id="path5121"
         style="opacity:1;fill:none;stroke:#ab9c00;stroke-width:0.85752612;stroke-linecap:round;stroke-linejoin:miter;stroke-miterlimit:4;stroke-dasharray:none;stroke-opacity:1;paint-order:stroke fill markers"
         d="m -6.4732326,275.47945 c 2.0407132,-11.48862 2.0633947,-11.61627 2.0633947,-11.61627"
         inkscape:connector-curvature="0" />
      <path
         inkscape:transform-center-y="83.910704"
         inkscape:transform-center-x="1.0650235e-06"
         id="path5123"
         style="opacity:1;fill:none;stroke:#ab9c00;stroke-width:0.85752612;stroke-linecap:round;stroke-linejoin:miter;stroke-miterlimit:4;stroke-dasharray:none;stroke-opacity:1;paint-order:stroke fill markers"
         d="m -2.949994,275.789 c 0.014732,-11.66845 0.014904,-11.7981 0.014904,-11.7981"
         inkscape:connector-curvature="0" />
      <path
         inkscape:transform-center-y="82.635914"
         inkscape:transform-center-x="14.57094"
         id="path5125"
         style="opacity:1;fill:none;stroke:#ab9c00;stroke-width:0.85752612;stroke-linecap:round;stroke-linejoin:miter;stroke-miterlimit:4;stroke-dasharray:none;stroke-opacity:1;paint-order:stroke fill markers"
         d="M 0.57347029,275.48204 C -1.4382256,263.98831 -1.4605703,263.86059 -1.4605703,263.86059"
         inkscape:connector-curvature="0" />
      <path
         inkscape:transform-center-y="78.850269"
         inkscape:transform-center-x="28.699151"
         id="path5127"
         style="opacity:1;fill:none;stroke:#ab9c00;stroke-width:0.85752612;stroke-linecap:round;stroke-linejoin:miter;stroke-miterlimit:4;stroke-dasharray:none;stroke-opacity:1;paint-order:stroke fill markers"
         d="M 3.9901028,274.5679 C 0.01310306,263.59811 -0.03107909,263.47622 -0.03107909,263.47622"
         inkscape:connector-curvature="0" />
      <path
         inkscape:transform-center-y="72.668805"
         inkscape:transform-center-x="41.955352"
         id="path5129"
         style="opacity:1;fill:none;stroke:#ab9c00;stroke-width:0.85752612;stroke-linecap:round;stroke-linejoin:miter;stroke-miterlimit:4;stroke-dasharray:none;stroke-opacity:1;paint-order:stroke fill markers"
         d="M 7.1960903,273.07436 C 1.3746259,262.96182 1.3099489,262.84945 1.3099489,262.84945"
         inkscape:connector-curvature="0" />
      <path
         inkscape:transform-center-y="64.279329"
         inkscape:transform-center-x="53.936761"
         id="path5131"
         style="opacity:1;fill:none;stroke:#ab9c00;stroke-width:0.85752612;stroke-linecap:round;stroke-linejoin:miter;stroke-miterlimit:4;stroke-dasharray:none;stroke-opacity:1;paint-order:stroke fill markers"
         d="M 10.094021,271.04679 C 2.6049736,262.09877 2.5217668,261.99934 2.5217668,261.99934"
         inkscape:connector-curvature="0" />
      <path
         inkscape:transform-center-y="53.936759"
         inkscape:transform-center-x="64.27933"
         id="path5133"
         style="opacity:1;fill:none;stroke:#ab9c00;stroke-width:0.85752612;stroke-linecap:round;stroke-linejoin:miter;stroke-miterlimit:4;stroke-dasharray:none;stroke-opacity:1;paint-order:stroke fill markers"
         d="M 12.595842,268.54681 C 3.666763,261.03519 3.5675547,260.95172 3.5675547,260.95172"
         inkscape:connector-curvature="0" />
      <path
         inkscape:transform-center-y="41.955354"
         inkscape:transform-center-x="72.668802"
         id="path5135"
         style="opacity:1;fill:none;stroke:#ab9c00;stroke-width:0.85752612;stroke-linecap:round;stroke-linejoin:miter;stroke-miterlimit:4;stroke-dasharray:none;stroke-opacity:1;paint-order:stroke fill markers"
         d="M 14.625537,265.65037 C 4.527732,259.80338 4.4155366,259.73841 4.4155366,259.73841"
         inkscape:connector-curvature="0" />
      <path
         inkscape:transform-center-y="28.699154"
         inkscape:transform-center-x="78.850271"
         id="path5137"
         style="opacity:1;fill:none;stroke:#ab9c00;stroke-width:0.85752612;stroke-linecap:round;stroke-linejoin:miter;stroke-miterlimit:4;stroke-dasharray:none;stroke-opacity:1;paint-order:stroke fill markers"
         d="M 16.121435,262.44548 C 5.1617205,258.44079 5.039947,258.39629 5.039947,258.39629"
         inkscape:connector-curvature="0" />
      <path
         inkscape:transform-center-y="14.570944"
         inkscape:transform-center-x="82.635914"
         id="path5139"
         style="opacity:1;fill:none;stroke:#ab9c00;stroke-width:0.85752612;stroke-linecap:round;stroke-linejoin:miter;stroke-miterlimit:4;stroke-dasharray:none;stroke-opacity:1;paint-order:stroke fill markers"
         d="M 17.038083,259.02952 C 5.5494649,256.9888 5.4218134,256.96612 5.4218134,256.96612"
         inkscape:connector-curvature="0" />
      <path
         inkscape:transform-center-x="83.910706"
         id="path5141"
         style="opacity:1;fill:none;stroke:#ab9c00;stroke-width:0.85752612;stroke-linecap:round;stroke-linejoin:miter;stroke-miterlimit:4;stroke-dasharray:none;stroke-opacity:1;paint-order:stroke fill markers"
         d="M 17.34763,255.50628 C 5.6791841,255.49155 5.549533,255.49137 5.549533,255.49137"
         inkscape:connector-curvature="0" />
      <path
         inkscape:transform-center-y="-14.57094"
         inkscape:transform-center-x="82.635914"
         id="path5143"
         style="opacity:1;fill:none;stroke:#ab9c00;stroke-width:0.85752612;stroke-linecap:round;stroke-linejoin:miter;stroke-miterlimit:4;stroke-dasharray:none;stroke-opacity:1;paint-order:stroke fill markers"
         d="m 17.040671,251.98281 c -11.4937344,2.0117 -11.6214456,2.03404 -11.6214456,2.03404"
         inkscape:connector-curvature="0" />
      <path
         inkscape:transform-center-y="-28.699151"
         inkscape:transform-center-x="78.850272"
         id="path5145"
         style="opacity:1;fill:none;stroke:#ab9c00;stroke-width:0.85752612;stroke-linecap:round;stroke-linejoin:miter;stroke-miterlimit:4;stroke-dasharray:none;stroke-opacity:1;paint-order:stroke fill markers"
         d="m 16.126532,248.56618 c -10.9697915,3.977 -11.0916824,4.02118 -11.0916824,4.02118"
         inkscape:connector-curvature="0" />
      <path
         inkscape:transform-center-y="-41.955351"
         inkscape:transform-center-x="72.668803"
         id="path5147"
         style="opacity:1;fill:none;stroke:#ab9c00;stroke-width:0.85752612;stroke-linecap:round;stroke-linejoin:miter;stroke-miterlimit:4;stroke-dasharray:none;stroke-opacity:1;paint-order:stroke fill markers"
         d="M 14.632989,245.36019 C 4.5204518,251.18166 4.4080848,251.24634 4.4080848,251.24634"
         inkscape:connector-curvature="0" />
      <path
         inkscape:transform-center-y="-53.936761"
         inkscape:transform-center-x="64.279331"
         id="path5149"
         style="opacity:1;fill:none;stroke:#ab9c00;stroke-width:0.85752612;stroke-linecap:round;stroke-linejoin:miter;stroke-miterlimit:4;stroke-dasharray:none;stroke-opacity:1;paint-order:stroke fill markers"
         d="m 12.605422,242.46226 c -8.9480182,7.48905 -9.047447,7.57226 -9.047447,7.57226"
         inkscape:connector-curvature="0" />
      <path
         inkscape:transform-center-y="-64.279328"
         inkscape:transform-center-x="53.936763"
         id="path5151"
         style="opacity:1;fill:none;stroke:#ab9c00;stroke-width:0.85752612;stroke-linecap:round;stroke-linejoin:miter;stroke-miterlimit:4;stroke-dasharray:none;stroke-opacity:1;paint-order:stroke fill markers"
         d="m 10.105438,239.96044 c -7.5116184,8.92908 -7.5950877,9.02829 -7.5950877,9.02829"
         inkscape:connector-curvature="0" />
      <path
         inkscape:transform-center-y="-72.6688"
         inkscape:transform-center-x="41.955354"
         id="path5153"
         style="opacity:1;fill:none;stroke:#ab9c00;stroke-width:0.85752612;stroke-linecap:round;stroke-linejoin:miter;stroke-miterlimit:4;stroke-dasharray:none;stroke-opacity:1;paint-order:stroke fill markers"
         d="m 7.2089978,237.93075 c -5.8469817,10.0978 -5.9119557,10.21 -5.9119557,10.21"
         inkscape:connector-curvature="0" />
      <path
         inkscape:transform-center-y="-78.850271"
         inkscape:transform-center-x="28.699153"
         id="path5155"
         style="opacity:1;fill:none;stroke:#ab9c00;stroke-width:0.85752612;stroke-linecap:round;stroke-linejoin:miter;stroke-miterlimit:4;stroke-dasharray:none;stroke-opacity:1;paint-order:stroke fill markers"
         d="m 4.0041082,236.43485 c -4.00468748727,10.95971 -4.04919189,11.08149 -4.04919189,11.08149"
         inkscape:connector-curvature="0" />
      <path
         inkscape:transform-center-y="-82.635914"
         inkscape:transform-center-x="14.570942"
         id="path5157"
         style="opacity:1;fill:none;stroke:#ab9c00;stroke-width:0.85752612;stroke-linecap:round;stroke-linejoin:miter;stroke-miterlimit:4;stroke-dasharray:none;stroke-opacity:1;paint-order:stroke fill markers"
         d="M 0.58814805,235.5182 C -1.4525648,247.00682 -1.4752474,247.13447 -1.4752474,247.13447"
         inkscape:connector-curvature="0" />
    </g>
    <g
       id="g4813">
      <path
         inkscape:transform-center-y="-19.864687"
         inkscape:transform-center-x="-5.5978811"
         id="path6876"
         style="opacity:1;fill:#000000;fill-opacity:1;stroke:none;stroke-width:2.86500001;stroke-linecap:round;stroke-linejoin:bevel;stroke-miterlimit:4;stroke-dasharray:none;paint-order:stroke fill markers"
         d="m -110.47462,188.25322 c -0.29665,-1.34935 -1.11852,-2.52178 -2.27935,-3.26156 -2.7e-4,-1.5e-4 -5.5e-4,-3.1e-4 -8.3e-4,-4.8e-4 -1.16066,-0.73938 -2.56813,-0.99057 -3.91717,-0.69405 -3.2e-4,9e-5 -6.3e-4,1.7e-4 -9.7e-4,2.7e-4 -1e-5,-1e-5 -2e-5,-2e-5 -2e-5,-1e-5 -4e-5,-3e-5 -8e-5,-6e-5 -1.2e-4,-8e-5 -2.8032,0.61942 -4.57384,3.39375 -3.95499,6.19718 9e-5,3.2e-4 1.7e-4,6.3e-4 2e-4,7.6e-4 0,1e-5 -1e-5,1e-5 -1e-5,2e-5 4e-5,1.7e-4 9e-5,3.3e-4 1.3e-4,4.8e-4 0.31034,1.39846 1.15668,2.54256 2.27937,3.26034 1.3e-4,7e-5 2.7e-4,1.5e-4 4e-4,2.3e-4 1.12277,0.71764 2.51856,1.00403 3.91721,0.69405 3e-5,-1e-5 6e-5,-2e-5 9e-5,-3e-5 4e-5,2e-5 8e-5,5e-5 1.2e-4,7e-5 6.2e-4,-1.7e-4 0.001,-3.4e-4 0.002,-1.6e-4 1.34555,-0.2976 2.51795,-1.11726 3.25947,-2.27888 2e-5,-4e-5 4e-5,-6e-5 6e-5,-1e-4 4e-5,-1e-5 8e-5,-2e-5 1.3e-4,-2e-5 3.1e-4,-5.6e-4 5e-4,-8.7e-4 7e-4,-10e-4 0.74102,-1.16189 0.99044,-2.57047 0.69339,-3.91621 0,0 0,0 0,0 0,0 0,0 0,0"
         inkscape:connector-curvature="0" />
      <path
         inkscape:transform-center-y="-14.405589"
         inkscape:transform-center-x="-14.780183"
         id="path7125"
         style="opacity:1;fill:#000000;fill-opacity:1;stroke:none;stroke-width:2.86500001;stroke-linecap:round;stroke-linejoin:bevel;stroke-miterlimit:4;stroke-dasharray:none;paint-order:stroke fill markers"
         d="m -121.16348,191.56778 c -0.86713,-0.94967 -2.07531,-1.51227 -3.35537,-1.56835 0,0 -1e-5,0 -2e-5,0 -2.8e-4,0 -5.8e-4,0 -8.7e-4,0 -3e-5,0 -6e-5,0 -1e-4,-1e-5 -1.2797,-0.0558 -2.53115,0.39674 -3.48061,1.26361 -1e-5,0 -1e-5,1e-5 -2e-5,1e-5 -2.1e-4,2.1e-4 -4.1e-4,4.2e-4 -6.3e-4,6.5e-4 0,0 0,0 0,0 0,0 0,1e-5 0,1e-5 -1e-5,-1e-5 -3e-5,-1e-5 -3e-5,0 -4e-5,-1e-5 -8e-5,-1e-5 -1.2e-4,-1e-5 -3e-5,2e-5 -5e-5,5e-5 -7e-5,7e-5 -1.97135,1.80396 -2.10746,4.86441 -0.30388,6.83626 1e-5,0 2e-5,1e-5 2e-5,1e-5 2.1e-4,2.1e-4 4.1e-4,4.2e-4 5e-4,5e-4 0,0 0,0 0,0 0,0 1e-5,1e-5 1e-5,1e-5 0,1e-5 -1e-5,1e-5 0,3e-5 10e-5,1e-4 2.1e-4,2.2e-4 3.2e-4,3.1e-4 2e-5,2e-5 4e-5,5e-5 6e-5,7e-5 0.90102,0.98284 2.11571,1.51119 3.35477,1.5673 0,0 0,0 0,0 1.4e-4,-1e-5 2.8e-4,-1e-5 4.2e-4,-1e-5 2e-5,0 6e-5,1e-5 9e-5,1e-5 1.23905,0.0559 2.49747,-0.36283 3.48064,-1.26363 10e-6,0 10e-6,0 10e-6,0 0,0 0,0 0,0 2e-5,-3e-5 4e-5,-4e-5 6e-5,-6e-5 1e-5,-1e-5 2e-5,-2e-5 3e-5,-2e-5 4e-5,-1e-5 8e-5,-1e-5 1.2e-4,-1e-5 4.2e-4,-4.1e-4 8.5e-4,-8.5e-4 0.001,-8.7e-4 2e-5,-3e-5 4e-5,-5e-5 6e-5,-7e-5 0.94616,-0.8661 1.50971,-2.07248 1.56684,-3.35396 0,0 0,0 0,0 0,0 0,0 0,0 0,-2e-5 0,-3e-5 10e-6,-4e-5 0,-4e-5 0,-7e-5 -10e-6,-1.1e-4 3e-5,-2e-5 6e-5,-5e-5 9e-5,-7e-5 0,-5.8e-4 10e-6,-9.1e-4 0,-0.001 2e-5,-3e-4 3e-5,-6.1e-4 4e-5,-9.2e-4 0.0563,-1.28117 -0.39815,-2.53236 -1.26373,-3.4787 0,0 0,0 0,0 0,0 0,0 0,0"
         inkscape:connector-curvature="0" />
      <path
         inkscape:transform-center-y="-3.3231199"
         inkscape:transform-center-x="-20.370396"
         id="path7127"
         style="opacity:1;fill:#000000;fill-opacity:1;stroke:none;stroke-width:2.86500001;stroke-linecap:round;stroke-linejoin:bevel;stroke-miterlimit:4;stroke-dasharray:none;paint-order:stroke fill markers"
         d="m -129.3506,201.54409 c -1.16175,-0.25971 -2.37659,-0.0448 -3.37701,0.59229 -1e-5,1e-5 -2e-5,2e-5 -3e-5,3e-5 -2.1e-4,1.4e-4 -4.3e-4,2.9e-4 -6.4e-4,4.5e-4 -6e-5,3e-5 -10e-5,6e-5 -1.5e-4,9e-5 -0.99997,0.63713 -1.70859,1.64473 -1.96826,2.80613 0,2e-5 0,3e-5 -1e-5,5e-5 -4e-5,2.6e-4 -9e-5,5.2e-4 -1.3e-4,8e-4 0,0 0,0 0,1e-5 -1e-5,-1e-5 -1e-5,0 -1e-5,0 -1e-5,0 -2e-5,1e-5 -2e-5,1e-5 -4e-5,2e-5 -6e-5,4e-5 -1e-4,6e-5 -1e-5,6e-5 -2e-5,1.2e-4 -4e-5,1.8e-4 -0.53694,2.41455 0.98478,4.80741 3.39931,5.34499 10e-6,0 2e-5,0 3e-5,1e-5 2.6e-4,4e-5 5.2e-4,9e-5 6.3e-4,1.1e-4 0,0 0,0 0,0 1e-5,0 1e-5,0 2e-5,0 1e-5,1e-5 1e-5,1e-5 1e-5,2e-5 1.4e-4,3e-5 2.7e-4,5e-5 4.1e-4,7e-5 6e-5,1e-5 1.2e-4,3e-5 1.8e-4,4e-5 1.20502,0.26682 2.40657,0.0225 3.37587,-0.59279 1e-5,0 1e-5,-1e-5 2e-5,-1e-5 1e-4,-7e-5 2e-4,-1.5e-4 3e-4,-2.2e-4 5e-5,-3e-5 1e-4,-6e-5 1.4e-4,-9e-5 0.9692,-0.61547 1.70106,-1.60113 1.96828,-2.80617 0,0 0,0 0,0 1e-5,0 1e-5,0 1e-5,0 1e-5,-3e-5 1e-5,-6e-5 1e-5,-8e-5 1e-5,-3e-5 1e-5,-6e-5 3e-5,-7e-5 3e-5,-2e-5 6e-5,-4e-5 8e-5,-7e-5 9e-5,-5.2e-4 1.9e-4,-0.001 4.8e-4,-0.001 1e-5,-6e-5 3e-5,-1.2e-4 4e-5,-1.8e-4 0.25748,-1.15908 0.0443,-2.37301 -0.59272,-3.37502 0,-1e-5 0,-1e-5 0,-1e-5 0,0 0,0 0,0 -1e-5,-3e-5 -2e-5,-4e-5 -3e-5,-7e-5 -2e-5,-3e-5 -4e-5,-5e-5 -5e-5,-8e-5 0,-3e-5 10e-6,-7e-5 3e-5,-10e-5 -3.1e-4,-4.3e-4 -4.7e-4,-6.7e-4 -6.7e-4,-9.5e-4 -1.5e-4,-2.3e-4 -2.9e-4,-4.6e-4 -4.5e-4,-6.9e-4 -0.63751,-1.0014 -1.64646,-1.70884 -2.80527,-1.96685 0,0 0,0 0,0 0,0 0,0 0,0"
         inkscape:connector-curvature="0" />
      <path
         inkscape:transform-center-y="8.9624606"
         inkscape:transform-center-x="-18.590987"
         id="path7129"
         style="opacity:1;fill:#000000;fill-opacity:1;stroke:none;stroke-width:2.86500001;stroke-linecap:round;stroke-linejoin:bevel;stroke-miterlimit:4;stroke-dasharray:none;paint-order:stroke fill markers"
         d="m -130.11944,214.3935 c -1.01224,0.41719 -1.81412,1.21993 -2.23173,2.22767 0,2e-5 -2e-5,4e-5 -2e-5,6e-5 -8e-5,2.1e-4 -1.6e-4,4.4e-4 -2.4e-4,6.6e-4 -3e-5,8e-5 -6e-5,1.6e-4 -1e-4,2.4e-4 -0.41722,1.00749 -0.41954,2.14037 -0.002,3.15231 1e-5,2e-5 2e-5,3e-5 3e-5,6e-5 1e-4,2.1e-4 2e-4,4.3e-4 3.1e-4,6.5e-4 0,0 1e-5,0 1e-5,0 0,0 -1e-5,1e-5 -1e-5,1e-5 -1e-5,1e-5 -1e-5,1e-5 0,2e-5 -2e-5,3e-5 -4e-5,7e-5 -5e-5,1e-4 4e-5,8e-5 7e-5,1.6e-4 1.1e-4,2.5e-4 0.86924,2.10226 3.27793,3.10222 5.38055,2.23351 2e-5,-1e-5 3e-5,-2e-5 4e-5,-2e-5 2.2e-4,-1e-4 4.3e-4,-2e-4 5.2e-4,-2.4e-4 0,0 0,0 0,0 1e-5,-1e-5 2e-5,-1e-5 3e-5,-1e-5 10e-6,0 10e-6,0 10e-6,1e-5 1.2e-4,-6e-5 2.3e-4,-1.1e-4 3.4e-4,-1.6e-4 8e-5,-4e-5 1.6e-4,-7e-5 2.5e-4,-1.1e-4 1.04855,-0.43466 1.82487,-1.25255 2.23052,-2.22741 0,-1e-5 1e-5,-2e-5 1e-5,-3e-5 3e-5,-1e-4 7e-5,-2.1e-4 1.1e-4,-3.1e-4 3e-5,-8e-5 7e-5,-1.6e-4 10e-5,-2.4e-4 0.40546,-0.97494 0.43685,-2.10355 0.002,-3.15234 0,0 0,-10e-6 0,-10e-6 0,0 -10e-6,0 0,-1e-5 -10e-6,-2e-5 -2e-5,-4e-5 -3e-5,-6e-5 -1e-5,-4e-5 -3e-5,-8e-5 -3e-5,-1.1e-4 1e-5,-3e-5 2e-5,-6e-5 3e-5,-9e-5 -2e-4,-4.2e-4 -4e-4,-8.6e-4 -3.2e-4,-0.001 -2e-5,-9e-5 -6e-5,-1.7e-4 -10e-5,-2.5e-4 -0.41745,-1.00903 -1.2184,-1.8111 -2.22691,-2.22992 0,0 0,0 0,-1e-5 0,0 -1e-5,0 -1e-5,0 -4e-5,-2e-5 -6e-5,-3e-5 -1e-4,-6e-5 -3e-5,-1e-5 -4e-5,-2e-5 -8e-5,-2e-5 -1e-5,-3e-5 -3e-5,-6e-5 -3e-5,-1e-4 -4.4e-4,-1.5e-4 -6.9e-4,-2.4e-4 -9.7e-4,-3.5e-4 -2.2e-4,-9e-5 -4.5e-4,-1.8e-4 -6.7e-4,-2.8e-4 -1.00857,-0.41814 -2.1419,-0.41886 -3.15103,-0.002 0,0 0,0 0,0 0,0 0,0 0,0"
         inkscape:connector-curvature="0" />
      <path
         inkscape:transform-center-y="17.057177"
         inkscape:transform-center-x="-11.62061"
         id="path7131"
         style="opacity:1;fill:#000000;fill-opacity:1;stroke:none;stroke-width:2.86500001;stroke-linecap:round;stroke-linejoin:bevel;stroke-miterlimit:4;stroke-dasharray:none;paint-order:stroke fill markers"
         d="m -124.55573,224.00481 c -0.60971,0.79169 -0.87721,1.79214 -0.74741,2.77925 1e-5,2e-5 1e-5,6e-5 2e-5,8e-5 3e-5,1.9e-4 7e-5,4e-4 1e-4,6.1e-4 2e-5,1.1e-4 3e-5,2.3e-4 4e-5,3.5e-4 0.13002,0.98668 0.64517,1.88315 1.43656,2.49269 2e-5,2e-5 5e-5,3e-5 7e-5,5e-5 1.7e-4,1.2e-4 3.4e-4,2.4e-4 5.3e-4,3.6e-4 0,0 0,0 0,0 0,0 0,1e-5 0,1e-5 0,1e-5 0,1e-5 1e-5,2e-5 0,3e-5 0,6e-5 1e-5,9e-5 10e-5,7e-5 1.9e-4,1.5e-4 2.9e-4,2.2e-4 1.64644,1.26491 4.00659,0.95608 5.27208,-0.69007 2e-5,-2e-5 4e-5,-5e-5 4e-5,-6e-5 1.2e-4,-1.7e-4 2.4e-4,-3.3e-4 2.9e-4,-4.1e-4 0,0 0,0 0,0 1e-5,0 2e-5,-2e-5 2e-5,-3e-5 1e-5,0 2e-5,0 2e-5,0 6e-5,-9e-5 1.3e-4,-1.8e-4 1.8e-4,-2.6e-4 7e-5,-10e-5 1.5e-4,-1.9e-4 2.3e-4,-3e-4 0.63038,-0.82205 0.87074,-1.82276 0.74649,-2.7784 0,-1e-5 0,-3e-5 0,-4e-5 -2e-5,-9e-5 -4e-5,-1.9e-4 -6e-5,-2.8e-4 -1e-5,-1.2e-4 -3e-5,-2.3e-4 -4e-5,-3.4e-4 -0.12445,-0.95561 -0.61467,-1.86198 -1.43657,-2.49273 -10e-6,0 -10e-6,0 -10e-6,-1e-5 0,0 -1e-5,0 0,-1e-5 -2e-5,-1e-5 -4e-5,-2e-5 -5e-5,-3e-5 -5e-5,-4e-5 -1e-4,-7e-5 -1.1e-4,-1e-4 -1e-5,-3e-5 -1e-5,-6e-5 -2e-5,-9e-5 -3.4e-4,-2.4e-4 -6.8e-4,-4.7e-4 -8e-4,-7.8e-4 -9e-5,-7e-5 -1.8e-4,-1.4e-4 -2.7e-4,-2.2e-4 -0.7904,-0.60703 -1.7895,-0.87544 -2.77775,-0.74625 0,-1e-5 0,-1e-5 0,-1e-5 -1e-5,0 -1e-5,0 -1e-5,-1e-5 -6e-5,2e-5 -9e-5,3e-5 -1.6e-4,1e-5 -2e-5,0 -4e-5,1e-5 -6e-5,1e-5 -3e-5,-1e-5 -5e-5,-3e-5 -7e-5,-5e-5 -4e-4,8e-5 -6.3e-4,1.1e-4 -8.9e-4,1.5e-4 -2.1e-4,4e-5 -4.2e-4,6e-5 -6.4e-4,9e-5 -0.98801,0.12974 -1.88417,0.64637 -2.49156,1.43644 0,0 0,0 0,0 0,0 0,0 0,0"
         inkscape:connector-curvature="0" />
      <path
         inkscape:transform-center-y="20.637511"
         inkscape:transform-center-x="0.26458334"
         id="path7133"
         style="opacity:1;fill:#000000;fill-opacity:1;stroke:none;stroke-width:2.86500001;stroke-linecap:round;stroke-linejoin:bevel;stroke-miterlimit:4;stroke-dasharray:none;paint-order:stroke fill markers"
         d="m -113.08681,229.72564 c -0.041,0.90275 0.27977,1.78264 0.88796,2.44657 3e-5,2e-5 5e-5,5e-5 8e-5,7e-5 1.2e-4,1.2e-4 2.4e-4,2.4e-4 3.7e-4,3.7e-4 9e-5,1.1e-4 1.9e-4,2.1e-4 2.9e-4,3.2e-4 0.60812,0.66345 1.45473,1.06031 2.35712,1.10134 4e-5,0 7e-5,0 1.1e-4,0 1.8e-4,0 3.6e-4,0 5.5e-4,0 0,0 0,0 0,0 0,0 10e-6,10e-6 10e-6,10e-6 0,1e-5 1e-5,1e-5 1e-5,1e-5 2e-5,2e-5 4e-5,4e-5 5e-5,6e-5 1.6e-4,0 3.1e-4,1e-5 4.6e-4,2e-5 1.87576,0.083 3.4639,-1.37006 3.54749,-3.24592 0,-4e-5 0,-8e-5 0,-9e-5 0,-1.8e-4 0,-3.5e-4 0,-4.3e-4 1e-5,0 1e-5,0 1e-5,0 0,-1e-5 0,-4e-5 0,-5e-5 0,-1e-5 0,-1e-5 1e-5,-1e-5 0,-9e-5 0,-1.9e-4 0,-2.7e-4 0,-1.6e-4 10e-6,-3.1e-4 2e-5,-4.6e-4 0.0405,-0.93593 -0.30048,-1.80188 -0.8882,-2.44535 -1e-5,-1e-5 -3e-5,-2e-5 -4e-5,-3e-5 -6e-5,-6e-5 -1.2e-4,-1.2e-4 -1.8e-4,-1.8e-4 -9e-5,-10e-5 -1.9e-4,-2.1e-4 -2.8e-4,-3.1e-4 -0.58788,-0.64331 -1.42115,-1.06043 -2.35716,-1.10136 0,0 0,0 -1e-5,0 0,0 0,0 -1e-5,-1e-5 -2e-5,0 -3e-5,0 -5e-5,0 -7e-5,0 -1.4e-4,0 -1.9e-4,-3e-5 -10e-6,-1e-5 -3e-5,-3e-5 -5e-5,-5e-5 -3.5e-4,0 -7.1e-4,0 -9.2e-4,-1.5e-4 -1.5e-4,-1e-5 -3e-4,-2e-5 -4.4e-4,-2e-5 -0.90037,-0.0396 -1.77969,0.27974 -2.44474,0.88803 0,0 0,0 -1e-5,0 0,0 -1e-5,0 -1e-5,0 -5e-5,5e-5 -8e-5,8e-5 -1.5e-4,1.1e-4 -2e-5,2e-5 -3e-5,3e-5 -5e-5,5e-5 -2e-5,0 -5e-5,0 -7e-5,-1e-5 -2.4e-4,2.5e-4 -3.9e-4,3.9e-4 -5.4e-4,5.5e-4 -1.4e-4,1.2e-4 -2.7e-4,2.5e-4 -4.1e-4,3.7e-4 -0.66464,0.60862 -1.06054,1.45619 -1.10067,2.35655 0,0 0,0 0,0 0,0 0,0 0,0"
         inkscape:connector-curvature="0" />
      <path
         inkscape:transform-center-y="16.752934"
         inkscape:transform-center-x="12.054225"
         id="path7135"
         style="opacity:1;fill:#000000;fill-opacity:1;stroke:none;stroke-width:2.86500001;stroke-linecap:round;stroke-linejoin:bevel;stroke-miterlimit:4;stroke-dasharray:none;paint-order:stroke fill markers"
         d="m -100.46648,227.62457 c 0.43299,0.68232 1.119284,1.16232 1.905324,1.3367 4.1e-5,10e-6 8.3e-5,2e-5 1.24e-4,3e-5 1.39e-4,2e-5 2.88e-4,5e-5 4.31e-4,7e-5 1.72e-4,4e-5 3.43e-4,8e-5 5.14e-4,1.2e-4 0.785711,0.17403 1.609362,0.0305 2.291389,-0.40228 3.4e-5,-2e-5 7e-5,-5e-5 1.07e-4,-7e-5 1.21e-4,-9e-5 2.42e-4,-1.7e-4 3.67e-4,-2.7e-4 0,0 10e-7,0 2e-6,-1e-5 9e-6,1e-5 1.2e-5,1e-5 2.1e-5,1e-5 3e-6,0 1.1e-5,10e-6 1.4e-5,10e-6 2.3e-5,0 4e-5,1e-5 5.8e-5,0 1.55e-4,-9e-5 3.11e-4,-1.9e-4 4.66e-4,-2.8e-4 1.416474,-0.90137 1.834494,-2.78024 0.933601,-4.19718 -2.3e-5,-3e-5 -4.6e-5,-6e-5 -5.7e-5,-8e-5 -8.7e-5,-1.2e-4 -1.73e-4,-2.4e-4 -2.01e-4,-2.8e-4 1e-6,-1e-5 1e-6,-1e-5 2e-6,-1e-5 -1.7e-5,-2e-5 -2.8e-5,-4e-5 -4e-5,-5e-5 3e-6,-1e-5 5e-6,-1e-5 2e-6,-2e-5 -4.5e-5,-6e-5 -8.6e-5,-1.2e-4 -1.33e-4,-1.8e-4 -9.7e-5,-1.6e-4 -1.93e-4,-3.1e-4 -2.91e-4,-4.6e-4 -0.450359,-0.70631 -1.144287,-1.16569 -1.904795,-1.33557 -2.2e-5,-1e-5 -4e-5,-1e-5 -6.3e-5,-2e-5 -6.4e-5,0 -1.33e-4,-1e-5 -2.02e-4,-3e-5 -1.69e-4,-4e-5 -3.31e-4,-7e-5 -5e-4,-1.1e-4 -0.760556,-0.16967 -1.584833,-0.0478 -2.291421,0.40229 -4e-6,0 -7e-6,0 -1e-5,1e-5 -9e-6,-1e-5 -1.3e-5,-1e-5 -1.6e-5,-1e-5 -1.4e-5,1e-5 -2.5e-5,2e-5 -3.6e-5,3e-5 -6.9e-5,5e-5 -1.39e-4,1e-4 -2.05e-4,9e-5 -2.3e-5,0 -4.1e-5,0 -5.9e-5,0 -2.4e-4,1.6e-4 -4.84e-4,3.4e-4 -7.13e-4,3.2e-4 -1.43e-4,1.1e-4 -2.93e-4,2e-4 -4.42e-4,2.9e-4 -0.679798,0.43279 -1.160058,1.11771 -1.335218,1.90436 1e-5,1e-5 1e-5,2e-5 1e-5,2e-5 -1e-5,0 -1e-5,1e-5 -2e-5,1e-5 -1e-5,8e-5 -2e-5,1.2e-4 -7e-5,2.1e-4 -1e-5,2e-5 -1e-5,3e-5 -1e-5,4e-5 -2e-5,2e-5 -4e-5,3e-5 -5e-5,4e-5 -5e-5,2.9e-4 -8e-5,4.5e-4 -1.2e-4,6.3e-4 -3e-5,1.5e-4 -6e-5,3e-4 -1e-4,4.5e-4 -0.1747,0.78673 -0.03,1.61067 0.40244,2.29079 0,0 0,0 0,0 0,0 0,0 0,0"
         inkscape:connector-curvature="0" />
      <path
         inkscape:transform-center-y="6.809921"
         inkscape:transform-center-x="19.483762"
         id="path7137"
         style="opacity:1;fill:#000000;fill-opacity:1;stroke:none;stroke-width:2.86500001;stroke-linecap:round;stroke-linejoin:bevel;stroke-miterlimit:4;stroke-dasharray:none;paint-order:stroke fill markers"
         d="m -91.49919,218.52557 c 0.657812,0.27384 1.39625,0.27345 2.052173,0.002 5e-5,-2e-5 9e-5,-4e-5 1.39e-4,-6e-5 1.03e-4,-5e-5 2.06e-4,-1e-4 3.1e-4,-1.5e-4 1.89e-4,-8e-5 3.77e-4,-1.6e-4 5.65e-4,-2.4e-4 0.655449,-0.27168 1.177702,-0.79187 1.451413,-1.44933 1.7e-5,-5e-5 3.4e-5,-1e-4 5.2e-5,-1.5e-4 4.1e-5,-1.1e-4 8.1e-5,-2.2e-4 1.25e-4,-3.4e-4 0,0 0,0 10e-7,0 1.1e-5,0 1.3e-5,-1e-5 2.4e-5,-1e-5 0,0 1.1e-5,0 1.2e-5,0 1.3e-5,-1e-5 2.6e-5,-2e-5 4e-5,-2e-5 8.2e-5,-2e-4 1.64e-4,-4e-4 2.46e-4,-5.9e-4 0.567069,-1.36738 -0.08118,-2.93573 -1.448413,-3.5035 -4.7e-5,-2e-5 -9.4e-5,-4e-5 -1.13e-4,-4e-5 -1.13e-4,-4e-5 -2.26e-4,-8e-5 -2.63e-4,-1e-4 0,0 1e-6,0 1e-6,0 -2.8e-5,-1e-5 -5.6e-5,-2e-5 -7.5e-5,-3e-5 10e-7,0 2e-6,0 -7e-6,-1e-5 -5.6e-5,-2e-5 -1.12e-4,-4e-5 -1.7e-4,-6e-5 -1.93e-4,-8e-5 -3.88e-4,-1.6e-4 -5.91e-4,-2.4e-4 -0.682436,-0.28233 -1.415908,-0.26315 -2.051077,-0.001 -2.4e-5,1e-5 -3.9e-5,2e-5 -6.4e-5,3e-5 -5.1e-5,3e-5 -1.02e-4,5e-5 -1.53e-4,7e-5 -1.78e-4,8e-5 -3.64e-4,1.6e-4 -5.42e-4,2.3e-4 -0.635077,0.26212 -1.168735,0.76698 -1.451443,1.44936 -2e-6,1e-5 -3e-6,1e-5 -5e-6,2e-5 -1.1e-5,0 -1.3e-5,0 -1.4e-5,1e-5 -5e-6,1e-5 -9e-6,2e-5 -1.2e-5,3e-5 -3.4e-5,9e-5 -6.8e-5,1.9e-4 -1.36e-4,2.3e-4 -1.3e-5,0 -2.7e-5,1e-5 -4e-5,2e-5 -8e-5,2.2e-4 -1.62e-4,4.4e-4 -3.15e-4,5.4e-4 -7.9e-5,1.9e-4 -1.49e-4,3.8e-4 -2.28e-4,5.7e-4 -0.272092,0.65635 -0.272531,1.39388 -0.0012,2.05059 8e-6,1e-5 1.6e-5,1e-5 1.5e-5,2e-5 -3e-6,0 -5e-6,1e-5 -7e-6,2e-5 4.2e-5,8e-5 5.7e-5,1.3e-4 6.8e-5,2.5e-4 6e-6,1e-5 1.3e-5,2e-5 1.8e-5,3e-5 -5e-6,2e-5 -1.1e-5,3e-5 -2.5e-5,5e-5 1.04e-4,2.1e-4 1.56e-4,3.3e-4 2.23e-4,4.6e-4 4.4e-5,1.2e-4 8.9e-5,2.3e-4 1.42e-4,3.4e-4 0.271694,0.65661 0.79293,1.17853 1.449223,1.45108 0,0 0,0 0,0 0,0 0,0 0,0"
         inkscape:connector-curvature="0" />
      <path
         inkscape:transform-center-y="-3.8445007"
         inkscape:transform-center-x="20.277714"
         id="path7139"
         style="opacity:1;fill:#000000;fill-opacity:1;stroke:none;stroke-width:2.86500001;stroke-linecap:round;stroke-linejoin:bevel;stroke-miterlimit:4;stroke-dasharray:none;paint-order:stroke fill markers"
         d="m -89.375321,207.69734 c 0.611821,-0.0794 1.165373,-0.39944 1.539647,-0.88705 3.3e-5,-5e-5 6.5e-5,-9e-5 9.8e-5,-1.3e-4 4.8e-5,-8e-5 9.8e-5,-1.4e-4 1.43e-4,-2.3e-4 1.51e-4,-1.8e-4 2.92e-4,-3.6e-4 4.31e-4,-5.5e-4 0.373802,-0.48746 0.540171,-1.10359 0.460789,-1.71502 -8e-6,-5e-5 -1.8e-5,-1.1e-4 -3e-5,-1.7e-4 -1.4e-5,-9e-5 -3e-5,-1.8e-4 -4.6e-5,-2.7e-4 -2e-6,-1e-5 -2e-6,-1e-5 -2e-6,-1e-5 1e-5,0 8e-6,-1e-5 1.8e-5,-1e-5 -2e-6,-1e-5 8e-6,-1e-5 8e-6,-1e-5 7e-6,-2e-5 6e-6,-3e-5 1.4e-5,-4e-5 -3.2e-5,-2.4e-4 -6.4e-5,-4.8e-4 -9.7e-5,-7.3e-4 -0.166798,-1.27074 -1.331864,-2.16604 -2.602849,-1.99987 -5.9e-5,0 -1.18e-4,2e-5 -1.38e-4,2e-5 -8.9e-5,2e-5 -1.76e-4,3e-5 -2.06e-4,4e-5 -2e-6,-1e-5 -2e-6,-1e-5 -2e-6,-1e-5 -3e-5,0 -7e-5,0 -8.9e-5,1e-5 0,0 0,0 -1e-5,1e-5 -4e-5,0 -8.8e-5,1e-5 -1.28e-4,2e-5 -2.38e-4,3e-5 -4.86e-4,6e-5 -7.24e-4,9e-5 -0.633897,0.0838 -1.175516,0.41568 -1.538384,0.88701 -2.8e-5,2e-5 -3.4e-5,4e-5 -4.9e-5,7e-5 -2.5e-5,3e-5 -5e-5,6e-5 -7.4e-5,1e-4 -1.41e-4,1.8e-4 -2.71e-4,3.6e-4 -4.12e-4,5.4e-4 -0.36267,0.47147 -0.544227,1.08104 -0.460803,1.71506 0,0 2e-6,1e-5 2e-6,1e-5 -9e-6,1e-5 -7e-6,2e-5 -7e-6,2e-5 2e-6,1e-5 3e-6,2e-5 5e-6,3e-5 2e-5,1.1e-4 3.8e-5,2.2e-4 10e-7,2.9e-4 -7e-6,2e-5 -1.5e-5,3e-5 -2.4e-5,5e-5 3.2e-5,1.7e-4 6.1e-5,3.4e-4 10e-7,4.6e-4 3.2e-5,2.4e-4 6.2e-5,4.6e-4 9.2e-5,6.9e-4 0.08022,0.60989 0.39912,1.16308 0.886827,1.53802 1e-5,0 2e-5,0 2.2e-5,1e-5 2e-6,1e-5 2e-6,1e-5 4e-6,2e-5 9.2e-5,6e-5 1.39e-4,1e-4 2.08e-4,2e-4 1.2e-5,1e-5 2.4e-5,2e-5 2.6e-5,3e-5 10e-7,1e-5 2e-6,2e-5 4e-6,3e-5 1.49e-4,10e-5 2.23e-4,1.7e-4 3.14e-4,2.2e-4 8.1e-5,6e-5 1.53e-4,1.2e-4 2.23e-4,1.8e-4 0.488,0.37475 1.104827,0.54047 1.714965,0.46071 0,0 0,0 0,0 0,0 0,0 0,0"
         inkscape:connector-curvature="0" />
      <path
         inkscape:transform-center-y="-13.468294"
         inkscape:transform-center-x="15.638941"
         id="path7141"
         style="opacity:1;fill:#000000;fill-opacity:1;stroke:none;stroke-width:2.86500001;stroke-linecap:round;stroke-linejoin:bevel;stroke-miterlimit:4;stroke-dasharray:none;paint-order:stroke fill markers"
         d="m -93.122175,197.32897 c 0.414187,-0.31666 0.684107,-0.78475 0.751991,-1.29977 3e-6,-6e-5 1.3e-5,-1.2e-4 1.4e-5,-1.8e-4 5e-6,-6e-5 9e-6,-1.2e-4 2.1e-5,-1.8e-4 3.1e-5,-2.6e-4 6.3e-5,-5.2e-4 1.01e-4,-7.8e-4 0.06753,-0.51464 -0.07104,-1.03577 -0.387459,-1.44967 -4.2e-5,-5e-5 -8.3e-5,-1e-4 -1.26e-4,-1.5e-4 -3.8e-5,-5e-5 -7.6e-5,-9e-5 -1.17e-4,-1.4e-4 -10e-7,0 -2e-6,-1e-5 -3e-6,-1e-5 -4e-6,0 0,-1e-5 4e-6,-2e-5 -2e-6,0 -2e-6,-1e-5 -3e-6,-1e-5 4e-6,-1e-5 8e-6,-2e-5 5e-6,-2e-5 -1.69e-4,-2.2e-4 -3.3e-4,-4.4e-4 -4.98e-4,-6.6e-4 -0.659087,-0.85936 -1.889925,-1.02227 -2.749843,-0.36367 -5.4e-5,5e-5 -1.08e-4,9e-5 -1.23e-4,1.1e-4 -4.6e-5,3e-5 -9.2e-5,7e-5 -1.07e-4,9e-5 -10e-7,-1e-5 -3e-6,-1e-5 -3e-6,-1e-5 -2.3e-5,2e-5 -6.2e-5,5e-5 -7.6e-5,7e-5 -2e-6,0 -2e-6,-1e-5 -3e-6,-1e-5 -2.4e-5,2e-5 -5.4e-5,5e-5 -6.9e-5,6e-5 -2.22e-4,1.7e-4 -4.36e-4,3.4e-4 -6.51e-4,5e-4 -0.428419,0.32916 -0.684518,0.80087 -0.75093,1.29908 -2e-6,3e-5 -3e-6,6e-5 -5e-6,9e-5 -2e-6,3e-5 -5e-6,6e-5 -7e-6,9e-5 -3.6e-5,2.5e-4 -7.1e-5,5e-4 -1.06e-4,7.6e-4 -0.06614,0.49823 0.05855,1.02099 0.387465,1.44971 4e-6,0 8e-6,1e-5 1.2e-5,1e-5 4e-6,1e-5 8e-6,1e-5 4e-6,2e-5 4e-6,1e-5 8e-6,1e-5 1.1e-5,2e-5 8.2e-5,9e-5 1.64e-4,1.9e-4 1.69e-4,2.9e-4 3e-6,0 0,1e-5 -5e-6,2e-5 7.6e-5,9e-5 1.53e-4,1.9e-4 1.61e-4,2.7e-4 1.61e-4,2.1e-4 3.22e-4,4.2e-4 4.84e-4,6.3e-4 0.316395,0.41238 0.783488,0.68241 1.298785,0.75074 1.1e-5,0 2.1e-5,-1e-5 2.4e-5,0 6e-6,0 1.1e-5,1e-5 1.7e-5,2e-5 1.26e-4,1e-5 1.96e-4,1e-5 3.21e-4,8e-5 1.1e-5,0 1.4e-5,0 2.5e-5,0 5e-6,1e-5 1.1e-5,1e-5 1.5e-5,2e-5 1.14e-4,10e-6 1.83e-4,2e-5 2.55e-4,2e-5 6e-5,1e-5 1.19e-4,2e-5 1.79e-4,3e-5 0.515519,0.0681 1.03699,-0.0713 1.449835,-0.38746 0,0 0,0 0,0 0,0 0,0 0,0"
         inkscape:connector-curvature="0" />
    </g>
  </g>
</svg>
