<?xml version="1.0" encoding="UTF-8" standalone="no"?>
<!-- Created with Inkscape (http://www.inkscape.org/) -->

<svg
   xmlns:dc="http://purl.org/dc/elements/1.1/"
   xmlns:cc="http://creativecommons.org/ns#"
   xmlns:rdf="http://www.w3.org/1999/02/22-rdf-syntax-ns#"
   xmlns:svg="http://www.w3.org/2000/svg"
   xmlns="http://www.w3.org/2000/svg"
   xmlns:sodipodi="http://sodipodi.sourceforge.net/DTD/sodipodi-0.dtd"
   xmlns:inkscape="http://www.inkscape.org/namespaces/inkscape"
   width="71.619362mm"
   height="82.564407mm"
   viewBox="0 0 71.619362 82.564412"
   version="1.1"
   id="svg18472"
   inkscape:version="0.92.4 5da689c313, 2019-01-14"
   sodipodi:docname="cadeado.svg">
  <defs
     id="defs18466">
    <clipPath
       clipPathUnits="userSpaceOnUse"
       id="clipPath2911">
      <rect
         style="opacity:1;fill:none;fill-opacity:1;stroke:none;stroke-width:2.9849999;stroke-linecap:round;stroke-linejoin:bevel;stroke-miterlimit:1.79999995;stroke-dasharray:none;stroke-opacity:1;paint-order:markers fill stroke"
         id="rect2913"
         width="73.766388"
         height="80.180862"
         x="-252.67412"
         y="-81.612846"
         ry="5.879941" />
    </clipPath>
    <clipPath
       clipPathUnits="userSpaceOnUse"
       id="clipPath2926">
      <rect
         style="opacity:1;fill:none;fill-opacity:1;stroke:none;stroke-width:2.9849999;stroke-linecap:round;stroke-linejoin:bevel;stroke-miterlimit:1.79999995;stroke-dasharray:none;stroke-opacity:1;paint-order:markers fill stroke"
         id="rect2928"
         width="53.468876"
         height="69.884346"
         x="-216.8112"
         y="-105.83703"
         ry="0" />
    </clipPath>
  </defs>
  <sodipodi:namedview
     id="base"
     pagecolor="#ffffff"
     bordercolor="#666666"
     borderopacity="1.0"
     inkscape:pageopacity="0.0"
     inkscape:pageshadow="2"
     inkscape:zoom="0.49497475"
     inkscape:cx="320.87075"
     inkscape:cy="106.75516"
     inkscape:document-units="mm"
     inkscape:current-layer="layer1"
     showgrid="false"
     inkscape:window-width="1366"
     inkscape:window-height="705"
     inkscape:window-x="0"
     inkscape:window-y="0"
     inkscape:window-maximized="1"
     showguides="true"
     inkscape:guide-bbox="true"
     inkscape:snap-global="false">
    <sodipodi:guide
       position="74.933784,82.587802"
       orientation="0,1"
       id="guide2974"
       inkscape:locked="false" />
    <sodipodi:guide
       position="53.294644,0"
       orientation="0,1"
       id="guide2976"
       inkscape:locked="false" />
    <sodipodi:guide
       position="54.806549,36.663694"
       orientation="0,1"
       id="guide7432"
       inkscape:locked="false" />
  </sodipodi:namedview>
  <metadata
     id="metadata18469">
    <rdf:RDF>
      <cc:Work
         rdf:about="">
        <dc:format>image/svg+xml</dc:format>
        <dc:type
           rdf:resource="http://purl.org/dc/dcmitype/StillImage" />
        <dc:title />
      </cc:Work>
    </rdf:RDF>
  </metadata>
  <g
     inkscape:label="Camada 1"
     inkscape:groupmode="layer"
     id="layer1"
     transform="translate(8.9243161,-73.158088)">
    <rect
       style="fill:none;fill-opacity:1;stroke:none;stroke-width:1.11840439;stroke-linecap:round;stroke-linejoin:bevel;stroke-miterlimit:4;stroke-dasharray:none;stroke-opacity:1;paint-order:stroke fill markers"
       id="rect13768"
       width="57.089928"
       height="124.6907"
       x="74.264557"
       y="65.134567" />
    <rect
       style="opacity:1;fill:none;fill-opacity:1;stroke:none;stroke-width:0.26835784"
       id="rect183"
       width="58.208332"
       height="125.80911"
       x="74.264557"
       y="64.016136" />
    <g
       id="g1467">
      <rect
         ry="3.0979511e-06"
         rx="0"
         y="73.323677"
         x="-9.2113609"
         height="82.398811"
         width="72.193451"
         id="rect2988"
         style="opacity:1;fill:none;fill-opacity:1;stroke:none;stroke-width:7.06500006;stroke-linecap:round;stroke-linejoin:round;stroke-miterlimit:4;stroke-dasharray:none;paint-order:stroke fill markers" />
      <rect
         ry="3.0979534e-06"
         y="73.323677"
         x="-9.2113609"
         height="82.398811"
         width="72.193451"
         id="rect2990"
         style="opacity:1;fill:none;fill-opacity:1;stroke:none;stroke-width:7.06500006;stroke-linecap:round;stroke-linejoin:round;stroke-miterlimit:4;stroke-dasharray:none;paint-order:stroke fill markers" />
      <path
         transform="matrix(0.6276518,0,0,0.70278722,146.18739,146.54911)"
         clip-path="url(#clipPath2926)"
         inkscape:connector-curvature="0"
         id="path2915"
         d="m -59.551422,-144.80209 v 2.84427 l -5.3e-4,2.84479 7.54114,-0.0744 c 4.64455,-0.0456 7.54062,-0.17265 7.54062,-0.33073 0,-0.15383 -1.51332,-0.25631 -3.77754,-0.25631 -3.45739,0 -3.81627,-0.0452 -4.23333,-0.53227 -0.47453,-0.55421 -0.6432,-1.08486 -0.20516,-0.64544 0.38478,0.38599 8.21655,0.17175 8.21655,-0.22479 2.7e-4,-0.23556 -0.93304,-0.29668 -3.60753,-0.23668 -1.98419,0.0445 -3.79963,-0.004 -4.0349,-0.108 -0.23524,-0.10396 -0.51717,-0.17038 -0.62631,-0.14728 -0.10914,0.0231 -0.19844,-0.0632 -0.19844,-0.19172 0,-0.42158 1.13829,-0.55204 4.82864,-0.55604 3.1268,-0.003 3.63802,-0.0623 3.63802,-0.4191 0,-0.36332 -0.52876,-0.40453 -4.23695,-0.33072 -2.33031,0.0462 -4.11625,0.0449 -3.96875,-0.004 0.14748,-0.0485 0.2682,-0.24729 0.2682,-0.44132 0,-0.19403 -0.12072,-0.3923 -0.2682,-0.4408 -0.1475,-0.0487 1.63844,-0.0505 3.96875,-0.004 3.70819,0.0738 4.23695,0.0326 4.23695,-0.33073 0,-0.36738 -0.86722,-0.41496 -7.54062,-0.41496 z m 20.37291,0 v 5.29167 5.29167 h 7.54063 7.540624 v -5.29167 -5.29167 h -7.540624 z m 7.48327,1.5875 c 0.30509,0 6.26392,3.77497 6.27042,3.97237 0.002,0.0747 -1.32777,0.96772 -2.95641,1.98437 -1.62865,1.01667 -3.08716,1.87078 -3.24115,1.89808 -0.34276,0.0607 -6.12268,-3.78009 -6.04717,-4.01836 0.0781,-0.24645 5.66866,-3.83646 5.97431,-3.83646 z m -254.084218,0.51677 c -0.22138,0.0153 -0.56589,0.29024 -0.74467,0.74 -0.65453,1.64661 -2.15646,5.96829 -2.15646,6.20531 0,0.14038 0.14676,0.20604 0.3261,0.14624 0.25818,-0.0861 1.84774,-3.93639 2.73161,-6.61613 0.11284,-0.34212 0.0156,-0.48732 -0.15658,-0.47542 z m 228.624788,0.0124 c 0.15412,0 0.20672,0.11906 0.11679,0.26458 -0.0899,0.14552 -0.21593,0.26458 -0.28009,0.26458 -0.0642,0 -0.11679,-0.11906 -0.11679,-0.26458 0,-0.14552 0.126,-0.26458 0.28009,-0.26458 z m 1.32292,0 c 0.15412,0 0.20672,0.11906 0.11679,0.26458 -0.0899,0.14552 -0.21593,0.26458 -0.28009,0.26458 -0.0642,0 -0.11679,-0.11906 -0.11679,-0.26458 0,-0.14552 0.126,-0.26458 0.28009,-0.26458 z m -291.224598,0.52916 c -0.0812,0 -0.49358,0.20406 -0.91623,0.45373 -0.89159,0.52667 -1.11487,1.33781 -0.23926,0.86919 0.50776,-0.27173 0.52916,-0.20105 0.52916,1.7415 0,1.89417 -0.034,2.01566 -0.52916,1.88619 -0.35026,-0.0916 -0.52917,-0.008 -0.52917,0.24649 0,0.29995 0.32163,0.36773 1.4583,0.30593 0.80206,-0.0436 1.42719,-0.19575 1.38907,-0.33848 -0.038,-0.14273 -0.24784,-0.26159 -0.46612,-0.26459 -0.31824,-0.004 -0.41182,-0.49006 -0.47284,-2.45256 -0.0418,-1.34607 -0.14255,-2.4474 -0.22375,-2.4474 z m 293.061178,0 c 0.14552,0 0.26458,0.11907 0.26458,0.26459 0,0.14552 -0.11906,0.26458 -0.26458,0.26458 -0.14552,0 -0.26459,-0.11906 -0.26459,-0.26458 0,-0.14552 0.11907,-0.26459 0.26459,-0.26459 z m -241.046268,0.007 c -1.0441,-0.0847 -1.84124,1.02368 -1.84124,2.88045 0,0.92301 0.15725,1.71746 0.41188,2.08101 0.54711,0.78112 1.96241,0.7976 2.65615,0.031 0.38656,-0.42714 0.50385,-0.95663 0.50385,-2.27221 0,-1.48355 -0.0846,-1.78362 -0.62476,-2.22105 -0.38259,-0.3098 -0.75785,-0.47096 -1.10588,-0.4992 z m -25.78137,0.0176 c -0.57674,0.0287 -1.27109,0.34383 -1.7172,0.82269 -0.70292,0.75449 -0.76679,3.48736 -0.0987,4.22559 0.6291,0.69512 2.07079,0.63694 2.59004,-0.10439 0.97517,-1.39227 -0.0209,-3.13242 -1.57046,-2.7435 -0.72242,0.18132 -0.83574,-0.0858 -0.38963,-0.91933 0.18989,-0.3548 0.55507,-0.51159 1.19063,-0.51159 0.93114,0 1.24377,-0.42016 0.51935,-0.69815 -0.15267,-0.0586 -0.33177,-0.0809 -0.52401,-0.0713 z m 37.35845,0.006 c -0.37206,0.0233 -0.73684,0.22937 -1.12707,0.61961 -0.54081,0.54081 -0.64958,0.90706 -0.64958,2.19004 0,0.96619 0.15356,1.75979 0.41188,2.12856 0.5471,0.78112 1.96241,0.79759 2.65615,0.031 0.38655,-0.42714 0.50384,-0.95664 0.50384,-2.27222 0,-1.48354 -0.0846,-1.78362 -0.62476,-2.22105 -0.41941,-0.33962 -0.79843,-0.49919 -1.17046,-0.47594 z m -53.22364,5.3e-4 c -0.25373,8e-5 -0.52376,0.0562 -0.79737,0.18087 -0.9829,0.44784 -0.82079,0.83998 0.31988,0.77308 0.89649,-0.0526 0.99219,0.005 0.99219,0.60048 0,0.52513 -0.16111,0.68675 -0.79375,0.79633 -1.0296,0.17834 -0.92379,0.62474 0.18812,0.79375 0.70961,0.10787 0.8854,0.26487 0.95289,0.8506 0.0665,0.57666 -0.0459,0.75097 -0.57049,0.88263 -0.35944,0.0902 -0.8871,0.0391 -1.17255,-0.11369 -0.62559,-0.3348 -0.96354,-0.0868 -0.55396,0.4067 0.40582,0.48897 2.21501,0.44838 2.72439,-0.061 0.5162,-0.51625 0.54591,-1.93198 0.0444,-2.12442 -0.31274,-0.12001 -0.31589,-0.24949 -0.0206,-0.81856 0.57722,-1.11258 -0.2136,-2.16714 -1.3131,-2.16679 z m 11.58637,0 c -0.1824,-0.002 -0.40841,0.006 -0.68678,0.0217 l -1.38906,0.0801 v 1.32292 1.32292 l 1.05834,0.13229 c 0.91127,0.1139 1.06989,0.23115 1.14051,0.84233 0.10199,0.88287 -0.62878,1.33719 -1.78025,1.1069 -0.75634,-0.15127 -1.06212,0.0975 -0.63926,0.52039 0.097,0.097 0.67408,0.17621 1.28209,0.17621 1.27164,0 2.04743,-0.64831 2.04743,-1.71049 0,-0.91596 -0.48147,-1.41942 -1.54821,-1.61954 -0.72478,-0.13597 -0.89919,-0.2912 -0.89919,-0.80047 0,-0.56102 0.11898,-0.632 1.05833,-0.632 0.78021,0 1.05834,-0.10805 1.05834,-0.41083 0,-0.24729 -0.15502,-0.3457 -0.70229,-0.35243 z m -18.27019,0.0119 c -0.24627,0.008 -0.50324,0.0666 -0.75861,0.18294 -0.97139,0.4426 -0.8023,0.88685 0.26148,0.68729 0.71885,-0.13486 0.95473,-0.0697 1.15496,0.31885 0.33949,0.65868 0.1723,1.06635 -1.03248,2.52026 -0.56428,0.68095 -1.02579,1.37101 -1.02579,1.53375 0,0.19491 0.56401,0.26894 1.65365,0.21705 1.88058,-0.0896 2.23448,-0.56588 0.51263,-0.68988 l -1.14049,-0.0822 0.93533,-1.0356 c 0.51461,-0.56961 1.00883,-1.32505 1.09762,-1.67897 0.28022,-1.11651 -0.59116,-2.01047 -1.6583,-1.97352 z m 52.50066,5.3e-4 c -0.28204,-0.007 -0.58224,0.0505 -0.87177,0.18242 -0.94327,0.42978 -0.78232,0.76521 0.35036,0.73071 0.88585,-0.0269 1.00084,0.0452 1.07333,0.67179 0.0606,0.52365 -0.22484,1.04635 -1.12448,2.05931 -0.66315,0.74664 -1.20562,1.47267 -1.20562,1.61333 0,0.14066 0.7739,0.2558 1.71979,0.2558 1.35231,0 1.71979,-0.0848 1.71979,-0.39687 0,-0.28831 -0.297,-0.39688 -1.08572,-0.39688 h -1.08572 l 0.81701,-0.93069 c 0.92303,-1.05126 1.22391,-1.9392 0.98237,-2.90163 -0.13613,-0.5424 -0.66884,-0.87166 -1.28934,-0.88729 z m -18.32599,0.005 c -0.74652,0.0217 -1.43129,0.47162 -1.59372,1.1188 -0.20886,0.83224 -0.0439,1.08585 1.23042,1.89032 1.10016,0.6945 1.28159,1.1728 0.64492,1.70119 -0.29019,0.24089 -0.59793,0.25261 -1.19062,0.046 -0.61842,-0.21557 -0.79944,-0.20184 -0.79944,0.0605 0,0.18646 0.0792,0.41873 0.17621,0.51573 0.097,0.097 0.59383,0.17621 1.10381,0.17621 1.93993,0 2.63621,-1.94969 1.03508,-2.89853 -1.83613,-1.08813 -1.9803,-1.7521 -0.36949,-1.7017 1.1393,0.0356 1.34612,-0.5855 0.28371,-0.85215 -0.17319,-0.0435 -0.34861,-0.0613 -0.52088,-0.0563 z m 30.1475,0.0134 c -0.14383,-0.001 -0.29832,0.015 -0.46406,0.0475 -0.99388,0.19513 -1.49397,0.78893 -1.49397,1.77509 0,1.03647 0.69205,1.62567 1.76268,1.50068 1.03847,-0.12124 1.16491,0.30272 0.33695,1.13068 -0.41214,0.41216 -0.73721,0.50485 -1.32292,0.37621 -0.7217,-0.15851 -1.01182,0.0775 -0.60049,0.48886 0.43391,0.4339 1.98813,0.15231 2.61381,-0.47336 0.54629,-0.54629 0.64956,-0.90347 0.64956,-2.24896 0,-1.74782 -0.47469,-2.58833 -1.48156,-2.59674 z m 247.425718,0.0693 c -0.74644,0.0226 -1.64408,0.39004 -2.13992,0.93793 -0.46106,0.50949 -0.44261,0.5203 0.96067,0.56121 0.78655,0.0228 1.5858,0.0349 1.77611,0.0269 0.19035,-0.008 0.6538,0.27056 1.03043,0.6196 0.85535,0.79271 1.12815,0.80405 0.9431,0.0393 -0.18809,-0.77741 -1.0975,-1.77893 -1.89498,-2.0867 -0.19487,-0.0752 -0.42659,-0.10574 -0.67541,-0.0982 z m -300.029728,0.002 c -0.33298,0 -0.84879,0.54544 -1.50225,1.5875 -1.33517,2.12914 -1.32348,2.46232 0.0915,2.5647 0.9348,0.0676 1.13893,0.18157 1.20923,0.67645 0.11721,0.82517 0.84129,0.76819 0.84129,-0.0661 0,-0.45036 0.14777,-0.66373 0.46302,-0.66973 0.43382,-0.008 0.43485,-0.03 0.014,-0.34985 -0.32234,-0.24497 -0.47178,-0.82174 -0.52917,-2.04225 -0.0692,-1.47203 -0.14854,-1.70067 -0.58756,-1.70067 z m 273.160568,0.39688 c 0.14552,0 0.26458,0.11906 0.26458,0.26458 0,0.14552 -0.11906,0.26458 -0.26458,0.26458 -0.14552,0 -0.26458,-0.11906 -0.26458,-0.26458 0,-0.14552 0.11906,-0.26458 0.26458,-0.26458 z m 1.32292,0 c 0.14552,0 0.26458,0.11906 0.26458,0.26458 0,0.14552 -0.11906,0.26458 -0.26458,0.26458 -0.14552,0 -0.26459,-0.11906 -0.26459,-0.26458 0,-0.14552 0.11907,-0.26458 0.26459,-0.26458 z m 1.22008,0.0909 c 0.0316,0.005 0.0665,0.0189 0.10283,0.0413 0.14553,0.0899 0.26459,0.21588 0.26459,0.28009 0,0.0642 -0.11906,0.11678 -0.26459,0.11678 -0.14552,0 -0.26458,-0.12597 -0.26458,-0.28008 0,-0.11556 0.0669,-0.17407 0.16175,-0.15813 z m -239.021078,0.17363 c 0.94398,0 1.35456,2.54948 0.58706,3.64526 -0.8287,1.18314 -1.70482,0.34721 -1.70482,-1.62678 0,-1.45238 0.31343,-2.01848 1.11776,-2.01848 z m 11.64167,0 c 0.94398,0 1.35456,2.54948 0.58706,3.64526 -0.82871,1.18314 -1.70482,0.34721 -1.70482,-1.62678 0,-1.45238 0.31343,-2.01848 1.11776,-2.01848 z m 4.01061,0.032 c 0.3081,-0.007 0.61655,0.10513 0.7245,0.27543 0.36542,0.57652 0.26398,1.4758 -0.18602,1.64848 -0.6181,0.23719 -0.80606,0.20121 -1.15703,-0.22169 -0.51414,-0.61948 -0.23463,-1.58929 0.48729,-1.69137 0.0434,-0.006 0.0873,-0.01 0.13126,-0.0109 z m -52.59832,0.23254 c 0.0603,0 0.10953,0.59532 0.10953,1.32292 0,1.29352 -0.0177,1.32292 -0.79375,1.32292 -0.43656,0 -0.79375,-0.0448 -0.79375,-0.0992 0,-0.18829 1.36872,-2.54662 1.47797,-2.54662 z m 276.746908,0 c 0.0642,0 0.11679,0.11907 0.11679,0.26459 0,0.14552 -0.12599,0.26458 -0.28008,0.26458 -0.15412,0 -0.20672,-0.11906 -0.11679,-0.26458 0.0899,-0.14552 0.21593,-0.26459 0.28008,-0.26459 z m 1.32292,0 c 0.0642,0 0.11679,0.11907 0.11679,0.26459 0,0.14552 -0.12599,0.26458 -0.28008,0.26458 -0.15413,0 -0.20672,-0.11906 -0.11679,-0.26458 0.0899,-0.14552 0.21592,-0.26459 0.28008,-0.26459 z m -251.373798,0.52917 c -1.59525,0 -2.36307,2.263 -1.17202,3.45405 0.40891,0.40892 0.81362,0.52372 1.63298,0.46302 0.62238,-0.0461 1.14017,-0.23435 1.20766,-0.43925 0.09,-0.27332 -0.0745,-0.31637 -0.69141,-0.18086 -0.91551,0.20107 -1.89912,-0.20945 -1.89912,-0.79272 0,-0.28866 0.3375,-0.38757 1.32291,-0.38757 1.22434,0 1.32292,-0.0477 1.32292,-0.64234 0,-0.89801 -0.67387,-1.47433 -1.72392,-1.47433 z m 4.70048,0.0103 c -0.6614,-0.001 -1.3889,0.0813 -1.65364,0.24856 -0.27258,0.17225 -0.41482,0.77171 -0.45371,1.9141 -0.0311,0.91486 -0.0907,1.8946 -0.13229,2.17713 -0.0483,0.32768 0.16407,0.63741 0.586,0.85576 v 5.3e-4 c 0.79531,0.41157 1.08714,0.42676 1.94458,0.10077 0.76964,-0.29261 1.14001,-1.20592 0.70281,-1.73271 -0.16862,-0.20318 -0.73443,-0.40612 -1.2578,-0.45062 -0.52337,-0.0445 -0.9978,-0.22023 -1.05368,-0.39068 -0.0634,-0.19305 0.0933,-0.25896 0.41548,-0.17467 0.85825,0.22445 1.62986,-0.36449 1.62986,-1.24436 0,-0.43144 0.11906,-0.78445 0.26458,-0.78445 0.14552,0 0.26458,-0.11906 0.26458,-0.26458 0,-0.16799 -0.59534,-0.25344 -1.25677,-0.25477 z m -39.22241,0.0594 c -0.18503,-0.0181 -0.4123,0.17388 -0.48472,0.54725 -0.0506,0.26109 0.0844,0.44132 0.33073,0.44132 0.24545,0 0.41651,-0.22639 0.41651,-0.55139 0,-0.2821 -0.11859,-0.42313 -0.26252,-0.43718 z m 10.84791,0 c -0.18502,-0.0181 -0.4123,0.17388 -0.48471,0.54725 -0.0506,0.26109 0.0843,0.44132 0.33073,0.44132 0.24542,0 0.4165,-0.22639 0.4165,-0.55139 0,-0.2821 -0.11858,-0.42313 -0.26252,-0.43718 z m 27.91251,0.48473 c 0.36682,-0.0251 0.4141,0.11076 0.34936,0.66094 -0.0936,0.79516 -0.41751,1.01733 -0.97152,0.66662 -0.54417,-0.34447 -0.25017,-1.20903 0.44492,-1.30793 0.0661,-0.009 0.12486,-0.0161 0.17724,-0.0196 z m -4.09585,0.03 c 0.41193,-0.0215 0.78753,0.17184 0.78753,0.59789 0,0.28847 -0.27326,0.40514 -0.94827,0.40514 -0.61021,0 -0.91077,-0.11089 -0.84386,-0.3116 0.14452,-0.4336 0.59267,-0.66997 1.0046,-0.69143 z m 271.885198,0.27905 c -0.70926,0.0195 -1.22267,0.19063 -1.22267,0.54312 -2.6e-4,0.72571 0.51742,1.54222 0.84802,1.3379 0.16973,-0.10489 0.21788,-0.0599 0.11472,0.10697 -0.0977,0.15805 0.0886,0.47404 0.41444,0.70228 0.74599,0.52256 1.60617,0.52776 2.59674,0.0155 0.99415,-0.51408 1.43541,-1.28995 0.9586,-1.68568 -0.80127,-0.66499 -2.52775,-1.05267 -3.70985,-1.0201 z m -288.696588,0.48421 c 0.11761,-0.005 0.26985,0.006 0.46715,0.0248 0.66588,0.0642 0.87932,0.22018 0.9462,0.69246 0.0476,0.33543 -0.056,0.78192 -0.23048,0.99219 -0.66429,0.80044 -1.57562,0.21616 -1.57562,-1.01028 0,-0.52154 0.0399,-0.6831 0.39275,-0.69918 z m 288.415468,0.23977 c 0.0642,0 0.11679,0.11907 0.11679,0.26459 0,0.14552 -0.12599,0.26458 -0.28009,0.26458 -0.15412,0 -0.20672,-0.11906 -0.11679,-0.26458 0.0899,-0.14552 0.21593,-0.26459 0.28009,-0.26459 z m 1.93786,0 c 0.14553,0 0.33796,0.11907 0.42789,0.26459 0.0899,0.14552 0.0442,0.26458 -0.10129,0.26458 -0.14552,0 -0.33795,-0.11906 -0.42788,-0.26458 -0.0899,-0.14552 -0.0442,-0.26459 0.10128,-0.26459 z m -20.4742,0.79375 c -5.8561,0 -7.54062,0.0739 -7.54062,0.33073 0,0.25683 1.68452,0.33073 7.54062,0.33073 5.85611,0 7.54063,-0.0739 7.54063,-0.33073 0,-0.25682 -1.68452,-0.33073 -7.54063,-0.33073 z m 21.82813,0.26459 c 0.14552,0 0.26458,0.11906 0.26458,0.26458 0,0.14552 -0.11906,0.26458 -0.26458,0.26458 -0.14552,0 -0.26459,-0.11906 -0.26459,-0.26458 0,-0.14552 0.11907,-0.26458 0.26459,-0.26458 z m -309.694798,0.26458 c -0.22048,0 -0.39687,0.23519 -0.39687,0.52917 0,0.29399 0.17639,0.52916 0.39687,0.52916 0.22051,0 0.39688,-0.23517 0.39688,-0.52916 0,-0.29398 -0.17637,-0.52917 -0.39688,-0.52917 z m 10.84792,0 c -0.22048,0 -0.39688,0.23519 -0.39688,0.52917 0,0.29399 0.1764,0.52916 0.39688,0.52916 0.22048,0 0.39687,-0.23517 0.39687,-0.52916 0,-0.29398 -0.17639,-0.52917 -0.39687,-0.52917 z m 27.79572,0.81494 c 0.50266,0.0142 1.04386,0.217 1.04386,0.50798 0,0.25182 -0.30522,0.42661 -0.83508,0.478 -0.87804,0.0852 -1.39157,-0.34164 -0.9467,-0.78651 0.14883,-0.14884 0.43632,-0.20801 0.73792,-0.19947 z m 249.223028,0.24339 c -6.52639,0 -7.54062,0.0534 -7.54062,0.39688 0,0.34348 1.01423,0.39687 7.54062,0.39687 6.5264,0 7.54063,-0.0534 7.54063,-0.39687 0,-0.34347 -1.01423,-0.39688 -7.54063,-0.39688 z m 0,1.5875 c -6.52639,0 -7.54062,0.0534 -7.54062,0.39688 0,0.34348 1.01423,0.39687 7.54062,0.39687 6.5264,0 7.54063,-0.0534 7.54063,-0.39687 0,-0.34347 -1.01423,-0.39688 -7.54063,-0.39688 z m -279.532288,16.93331 v 70.776042 70.776039 h 45.37604 45.37604 v -70.776039 -70.776042 h -45.37604 z m 95.51459,0 v 70.776042 70.776039 h 45.37604 45.37604 v -70.776039 -70.776042 h -45.37604 z m 96.30833,0 v 70.776042 70.776039 h 1.90428 l 0.21239,-25.59533 V -47.303028 -115.9624 h 0.94464 l 0.0176,-2.11667 z m 3.52692,0 c -0.001,0.71852 -0.002,1.40338 -0.004,2.11667 h 41.852738 43.25938 v 68.659372 68.659379 h -43.25938 -42.528668 c -0.008,0.73988 -0.0158,1.39555 -0.0238,2.11666 h 42.552438 45.37604 v -70.776039 -70.776042 h -45.37604 z m -193.23318,2.11667 h 43.25938 43.25937 v 68.659372 68.659379 h -43.25937 -43.25938 v -68.659379 z m 95.51459,0 h 43.25938 43.25937 v 68.659372 68.659379 h -43.25937 -43.25938 v -68.659379 z m 43.69604,11.67267 c -1.30607,0.0136 -2.56717,0.12524 -3.54655,0.34313 -6.26079,1.39289 -11.27545,5.974282 -13.34647,12.193573 -0.66223,1.988671 -0.7116,2.480069 -0.81442,8.127669 l -0.10956,6.011002 -3.08353,0.07441 -3.08405,0.07441 -0.0677,19.248438 -0.0682,19.248437 h 24.34374 24.34321 v -19.314575 -19.314583 h -18.68878 -18.6893 l 0.13953,-5.357813 c 0.11634,-4.476768 0.23205,-5.649047 0.70331,-7.128764 1.9486,-6.118317 8.02195,-9.952424 14.2348,-8.98653 4.66029,0.724519 8.59857,3.915029 10.25673,8.310086 l 0.47388,1.256771 h 2.61017 c 1.43544,0 2.60966,-0.07087 2.60966,-0.157612 0,-0.637532 -1.01036,-3.451032 -1.74873,-4.869471 -2.32329,-4.463129 -5.57973,-7.228888 -10.66239,-9.055778 -1.32726,-0.47706 -3.62854,-0.72551 -5.80534,-0.7028 z m 109.629998,3.68453 c -2.20816,0 -3.57822,0.54171 -5.02139,1.984891 -4.00333,4.003321 -1.8956,10.934226 3.65248,12.010639 2.29031,0.444349 4.7166,-0.306562 6.38721,-1.977142 1.40086,-1.400881 2.02623,-2.949754 2.02623,-5.018299 0,-2.067258 -0.62528,-3.617338 -2.02313,-5.015198 -1.44317,-1.443181 -2.81324,-1.984891 -5.0214,-1.984891 z m -10.05416,13.219348 -7.9375,0.0057 -7.937498,0.0062 -2.76366,6.277136 c -1.51988,3.452461 -3.20947,7.256066 -3.75481,8.452715 l -0.99167,2.176095 -0.96997,-0.405662 c -0.5335,-0.222909 -0.99627,-0.368392 -1.02887,-0.323493 -0.0326,0.04491 -0.33111,0.766263 -0.66353,1.603002 -0.33242,0.83674 -0.6953,1.521354 -0.80615,1.521354 -0.11084,0 -0.64574,-0.185568 -1.18856,-0.412377 -0.54282,-0.226811 -1.01473,-0.375628 -1.04903,-0.330729 -0.32057,0.41936 -5.18643,12.474535 -5.11803,12.679847 0.11676,0.35029 13.28264,5.849091 13.38264,5.589323 0.0414,-0.107641 1.24813,-2.993824 2.68149,-6.413564 l 2.60604,-6.217708 -1.02784,-0.47284 c -1.17583,-0.541168 -1.20855,-0.691128 -0.49299,-2.268077 0.70645,-1.55689 0.67235,-1.729335 -0.42168,-2.124934 -0.62956,-0.227661 -0.89722,-0.466048 -0.80202,-0.714169 0.0786,-0.20487 1.42669,-3.288456 2.99568,-6.852296 l 2.85254,-6.479706 5.213638,-0.0026 5.21415,-0.0031 -0.35864,0.992188 c -0.19701,0.5457 -1.8044,4.980778 -3.57239,9.855729 -3.19313,8.804531 -3.22012,8.897898 -4.029208,14.022916 -0.569,3.604202 -0.93909,5.259065 -1.22835,5.490104 -0.22775,0.181902 -0.96539,0.33073 -1.63866,0.33073 h -1.22369 l -0.88471,2.182812 c -0.48632,1.20055 -0.95898,2.271038 -1.05058,2.378668 -0.0916,0.107619 -2.26407,-0.688002 -4.82761,-1.767851 -3.05885,-1.288492 -4.85963,-1.911392 -5.23844,-1.812292 -0.62199,0.162657 -0.62189,0.166298 -0.10025,5.434808 l 0.15089,1.521355 1.09813,-0.01447 c 3.28378,-0.04312 19.806438,-1.497833 19.967248,-1.758035 0.10025,-0.162208 0.64869,-3.044822 1.21853,-6.405292 0.56984,-3.36047 1.07256,-6.109706 1.11776,-6.109706 0.0785,0 8.2157,5.975424 8.62687,6.335014 0.16822,0.14713 0.98009,13.165095 0.98908,15.864666 v 5.29e-4 l 0.003,0.900721 3.47679,-0.166399 c 1.91225,-0.09147 3.51516,-0.204248 3.56206,-0.251148 0.1093,-0.109318 -0.90155,-19.808391 -1.02268,-19.92953 -0.05,-0.05 -2.28727,-1.708801 -4.97179,-3.686083 -2.68454,-1.977268 -4.91425,-3.741126 -4.95525,-3.919656 -0.041,-0.17852 1.5411,-3.624197 3.51606,-7.656896 l 3.591,-7.331853 2.56883,1.989542 c 1.41301,1.09438 3.67336,2.838106 5.02295,3.875217 l 2.45412,1.885672 0.58859,-0.526581 c 0.32391,-0.28988 3.14895,-2.707177 6.27765,-5.371767 3.1287,-2.6646 5.85494,-4.997333 6.05803,-5.183664 0.31062,-0.284937 0.10329,-0.654962 -1.3038,-2.328021 -0.92723,-1.1025 -1.79966,-1.91181 -1.95698,-1.815909 -0.15613,0.0952 -2.4003,2.002954 -4.98729,4.239532 -2.58702,2.236592 -4.81691,4.027837 -4.95526,3.980635 -0.13833,-0.04717 -1.86352,-1.334928 -3.83387,-2.861839 l -3.58273,-2.776574 -6.27869,-2.448431 z m -231.287168,0.130741 -1.29553,0.800468 c -0.80248,0.496131 -1.59936,1.293728 -2.09548,2.095997 l -0.80099,1.294496 -0.0806,12.588893 c -0.0527,8.225001 0.0153,12.917834 0.19637,13.538192 0.45664,1.56565 1.69582,3.018308 3.22564,3.780649 l 1.4056,0.700215 30.98469,-0.06925 30.98517,-0.06925 1.29503,-0.800983 c 0.80267,-0.496282 1.5992,-1.292749 2.09547,-2.095479 l 0.80098,-1.29553 v -13.13821 -13.138216 l -0.80098,-1.295527 c -0.49633,-0.80279 -1.2927,-1.599676 -2.09547,-2.095997 l -1.29553,-0.800468 h -31.26219 z m 0.78084,1.984375 h 30.48132 30.48135 l 0.89247,0.601515 c 0.49098,0.33088 1.16358,1.003482 1.49447,1.494483 l 0.6015,0.89245 v 12.357385 12.35687 l -0.6015,0.892969 c -0.33089,0.491 -1.00349,1.1636 -1.49447,1.49448 l -0.89247,0.601515 h -30.48135 -30.48132 l -0.89247,-0.601515 c -0.49098,-0.33088 -1.16361,-1.00348 -1.49447,-1.49448 l -0.60153,-0.892969 v -12.35687 -12.357385 l 0.60153,-0.89245 c 0.33086,-0.491001 1.00349,-1.163603 1.49447,-1.494483 z m 0.84799,10.186458 -0.0718,5.357813 -0.0713,5.358331 h 1.06349 1.06402 v -2.248958 c 0,-1.864651 0.071,-2.248959 0.41445,-2.248959 0.90672,0 1.52794,0.661538 2.38228,2.536278 l 0.89403,1.961639 h 1.06502 c 0.58576,0 1.06506,-0.127103 1.06506,-0.282154 0,-0.46839 -1.7617,-4.129096 -2.08257,-4.327385 -0.45632,-0.282041 -0.357,-0.628005 0.23358,-0.815454 1.07201,-0.34022 1.63415,-2.326883 1.03251,-3.647323 -0.54991,-1.206889 -1.71543,-1.63366 -4.47519,-1.63866 z m 1.98437,1.719792 h 1.13792 c 0.62574,0 1.28059,0.142663 1.45521,0.317294 0.4495,0.449529 0.39333,1.685089 -0.0987,2.177129 -0.23688,0.23686 -0.86304,0.415994 -1.45521,0.415994 h -1.03923 v -1.455209 z m 34.91312,0.79375 c -0.26207,0 -0.84314,0.307983 -1.29087,0.684713 -0.78335,0.659169 -0.81391,0.66467 -0.81391,0.13281 0,-0.437711 -0.16513,-0.55294 -0.79375,-0.55294 h -0.79375 v 3.984771 3.98477 l 0.99218,-0.08217 0.99219,-0.08217 0.077,-2.504755 c 0.0862,-2.808671 0.36306,-3.366596 1.73685,-3.500046 0.63762,-0.06195 0.85209,-0.223118 0.91829,-0.690396 0.10422,-0.7352 -0.37198,-1.374595 -1.02423,-1.374595 z m 22.48959,0 c -0.26207,0 -0.84315,0.307983 -1.29088,0.684713 -0.78335,0.659169 -0.81391,0.66467 -0.81391,0.13281 0,-0.437711 -0.16513,-0.55294 -0.79375,-0.55294 h -0.79375 v 3.96875 3.96875 h 0.92604 0.92604 v -2.345592 c 0,-2.739829 0.49882,-3.739824 1.86606,-3.739824 0.60121,0 0.806,-0.145606 0.93636,-0.665075 0.19259,-0.767329 -0.26083,-1.451592 -0.96221,-1.451592 z m -46.98111,0.0181 c -1.56599,0.03678 -3.06565,1.056685 -3.53777,2.742985 -0.67085,2.39603 0.3252,4.854414 2.19987,5.429642 0.82505,0.253172 3.17059,0.165782 3.99045,-0.148828 0.25424,-0.09757 0.4196,-0.474814 0.4196,-0.957564 0,-0.702771 -0.0699,-0.774862 -0.59531,-0.615982 -0.32742,0.09901 -1.09223,0.246427 -1.69963,0.327628 -0.94284,0.125979 -1.20404,0.04757 -1.78594,-0.534334 -1.26471,-1.2647 -0.9789,-1.499134 1.82677,-1.499134 2.4171,0 2.51409,-0.02267 2.66546,-0.625801 0.24104,-0.96035 -0.34592,-2.723973 -1.10588,-3.321762 -0.71884,-0.565441 -1.55734,-0.816115 -2.37762,-0.79685 z m 37.67367,0.03049 c -0.40005,0.01212 -0.81597,0.07157 -1.23404,0.181383 -1.36641,0.35891 -1.89159,0.866896 -1.69085,1.634527 0.16156,0.617749 0.0565,0.607348 1.22317,0.119888 1.72352,-0.72013 3.08354,-0.303139 3.08354,0.945163 0,0.398999 -0.18751,0.510595 -0.8599,0.511595 -2.24504,0.0038 -3.9026,1.04302 -3.9026,2.44688 0,1.01963 0.39335,1.694077 1.26349,2.166276 0.97126,0.52709 1.61491,0.506524 2.78175,-0.08837 0.80663,-0.41125 0.98184,-0.431588 0.98184,-0.115237 0,0.275109 0.24564,0.36099 0.8599,0.30179 l 0.85989,-0.08268 -0.007,-3.098519 c -0.006,-2.71721 -0.0746,-3.189306 -0.55655,-3.836459 -0.54565,-0.732771 -1.60282,-1.122571 -2.80292,-1.086236 z m -29.57597,0.02326 c -1.07571,-0.0019 -2.28923,0.370639 -2.76728,1.053166 -0.98988,1.413269 -0.31466,2.809602 1.84277,3.811654 0.82013,0.38091 1.05834,0.639873 1.05834,1.150834 0,0.597879 -0.0987,0.656418 -1.05834,0.629417 -0.58208,-0.01638 -1.32622,-0.119197 -1.65364,-0.228925 -0.5116,-0.17145 -0.59531,-0.106654 -0.59531,0.460436 0,0.712991 0.35652,1.11402 1.19062,1.339969 0.76975,0.20852 2.68354,-0.02281 3.2825,-0.396875 0.6073,-0.379259 1.08313,-1.326378 1.08313,-2.156458 0,-0.928769 -0.66231,-1.644464 -2.09032,-2.258777 -1.46851,-0.631758 -1.68947,-0.854916 -1.45417,-1.468125 0.18404,-0.479602 1.69772,-0.577715 2.47687,-0.160716 0.60703,0.324893 0.93146,-0.319362 0.53432,-1.061431 -0.25929,-0.484516 -1.01285,-0.712661 -1.84949,-0.714169 z m 7.37111,0.0026 c -1.21793,-0.01196 -2.43626,0.477015 -3.02099,1.369425 -1.05547,1.610841 -0.96771,4.643416 0.16949,5.853906 0.33655,0.358251 0.976,0.763521 1.42058,0.900721 0.7956,0.24552 3.14989,0.154329 3.95068,-0.152961 0.5022,-0.19269 0.83259,-1.13371 0.51107,-1.455208 -0.13745,-0.137501 -0.61521,-0.126151 -1.14877,0.02687 -1.89992,0.544888 -3.16265,0.101084 -3.55481,-1.249537 -0.16629,-0.572659 -0.11335,-0.587259 2.42414,-0.661458 l 2.59466,-0.07597 0.0811,-0.833025 c 0.10787,-1.110699 -0.54081,-2.594194 -1.37202,-3.138826 -0.59399,-0.389205 -1.3244,-0.576765 -2.05518,-0.583943 z m 11.636,0.190169 c -0.63431,0 -1.01391,0.123524 -1.01391,0.330213 0,0.181721 0.54772,1.97348 1.21698,3.98167 l 1.217,3.651456 1.36269,-0.07906 1.36271,-0.07907 1.2387,-3.571875 c 0.68114,-1.964528 1.24666,-3.720703 1.25677,-3.902604 0.0114,-0.20447 -0.33189,-0.330729 -0.89866,-0.330729 -1.065,0 -1.11826,0.08098 -1.99369,3.042708 -0.34409,1.164162 -0.70641,2.213184 -0.8051,2.331125 -0.0987,0.117941 -0.57298,-1.042919 -1.0542,-2.579687 l -0.8754,-2.794146 z m -11.7321,1.322917 c 0.92276,0 1.45778,0.527468 1.45778,1.43764 0,0.32417 -0.30703,0.414443 -1.41129,0.414443 -0.7761,0 -1.48542,-0.07468 -1.57663,-0.16588 -0.0912,-0.09121 0.0111,-0.507932 0.22736,-0.926042 0.31734,-0.613651 0.56827,-0.760161 1.30278,-0.760161 z m -15.44092,0.0041 c 0.77218,0.0075 1.55286,0.52491 1.55286,1.337387 0,0.447268 -0.19597,0.510561 -1.5875,0.510561 -1.71537,0 -1.91254,-0.211944 -1.17562,-1.264004 0.28668,-0.409284 0.74695,-0.588463 1.21026,-0.583944 z m 184.40682,0.525032 c -0.17882,0 -5.31853,12.219556 -5.31853,12.644707 0,0.131379 0.26789,0.368154 0.59531,0.526065 1.29617,0.625121 1.32995,0.575861 4.09949,-6.03374 l 2.6634,-6.357234 -0.93327,-0.389641 c -0.51334,-0.21449 -1.0112,-0.390157 -1.1064,-0.390157 z m -146.09444,2.645833 c 0.67455,0 0.81132,0.104674 0.81132,0.620636 0,0.341249 -0.21757,0.817501 -0.48369,1.058333 -0.48472,0.438668 -1.6547,0.592701 -1.98593,0.261482 -0.097,-0.09701 -0.17622,-0.450019 -0.17622,-0.78445 0,-0.714639 0.70014,-1.156001 1.83452,-1.156001 z m 79.7016,3.347601 c 1.64377,-0.04039 3.29645,0.730191 4.35684,2.260327 1.67778,2.421038 0.78374,6.176113 -1.78697,7.505483 -0.74894,0.3873 -0.76223,0.432925 -0.76223,2.636015 v 2.24224 h -1.71979 -1.71979 v -2.24224 c 0,-2.177839 -0.0209,-2.252832 -0.72761,-2.62051 -2.987,-1.553962 -3.57743,-5.66429 -1.17667,-8.191749 0.98448,-1.036434 2.25773,-1.55815 3.53622,-1.589566 z m 85.66402,2.165757 c -0.0582,0.0019 -0.0973,0.01254 -0.11059,0.03411 -0.26829,0.434099 -5.16454,12.274986 -5.16454,12.489677 0,0.11961 0.38695,0.386932 0.85989,0.593762 0.8661,0.378719 1.25678,0.484545 1.25678,0.341064 0,-0.04279 1.1892,-2.921376 2.64273,-6.397025 1.45352,-3.475651 2.61439,-6.345372 2.57969,-6.376873 -0.29339,-0.266613 -1.65636,-0.696839 -2.06396,-0.684713 z m -158.19189,11.873245 c -0.0319,0.0038 -0.0535,0.0117 -0.0651,0.02326 -0.18515,0.185171 0.62611,2.963426 2.5585,8.760706 2.25382,6.761551 2.92269,8.489921 3.28559,8.489921 0.34047,0 0.71877,-0.735817 1.49656,-2.910417 0.57251,-1.600729 1.10379,-2.910417 1.18028,-2.910417 0.0765,0 1.56422,1.428917 3.30626,3.175519 l 3.16725,3.175516 1.40404,-1.403533 1.40353,-1.403532 -3.18584,-3.147095 c -1.75239,-1.730798 -3.18638,-3.217156 -3.18638,-3.303156 0,-0.08596 1.27992,-0.61772 2.84427,-1.181841 2.71463,-0.978939 3.35002,-1.342456 3.08872,-1.765265 -0.0646,-0.104431 -3.93663,-1.462958 -8.60465,-3.018938 -5.43335,-1.811092 -8.21404,-2.637097 -8.69301,-2.580722 z m -43.1395,27.857214 c -0.50845,0 -0.52916,0.176398 -0.52916,4.497917 0,4.321529 0.0206,4.497916 0.52916,4.497916 0.50848,0 0.52917,-0.176387 0.52917,-4.497916 0,-4.321519 -0.0206,-4.497917 -0.52917,-4.497917 z m 12.43542,0 c -0.50837,0 -0.52917,0.176398 -0.52917,4.497917 0,4.321529 0.0206,4.497916 0.52917,4.497916 0.50848,0 0.52917,-0.176387 0.52917,-4.497916 0,-4.321519 -0.0206,-4.497917 -0.52917,-4.497917 z m 10.84792,0 c -0.50845,0 -0.52917,0.176398 -0.52917,4.497917 0,4.321529 0.0206,4.497916 0.52917,4.497916 0.50847,0 0.52916,-0.176387 0.52916,-4.497916 0,-4.321519 -0.0206,-4.497917 -0.52916,-4.497917 z m 181.47678,0.01601 c -2.1282,0.03257 -3.67562,1.815375 -3.67626,4.55631 -5.3e-4,1.95182 0.53026,3.212787 1.63711,3.887618 1.05114,0.64086 2.83217,0.700802 3.931538,0.132291 0.73801,-0.38164 0.98578,-0.891111 0.61392,-1.262972 -0.0919,-0.09188 -0.41607,0.0075 -0.72037,0.22066 -0.81655,0.571939 -2.704838,0.499618 -3.332098,-0.127641 -0.71333,-0.71333 -1.11901,-2.40747 -0.90175,-3.766179 0.34961,-2.186329 2.17586,-3.176633 4.060728,-2.201932 0.42423,0.219369 0.83206,0.288912 0.91416,0.156062 0.27732,-0.44872 -0.1585,-1.04327 -0.97255,-1.327049 -0.54111,-0.188632 -1.063308,-0.274685 -1.554428,-0.267168 z m -176.24298,0.0036 c -0.12753,0.0035 -0.20672,0.01977 -0.20672,0.04806 0,0.05664 -0.71438,2.050312 -1.5875,4.430221 -0.87313,2.379921 -1.5875,4.373639 -1.5875,4.430738 0,0.0571 0.26789,0.06562 0.59531,0.01913 0.43199,-0.06135 0.70186,-0.39275 0.98393,-1.208712 l 0.3886,-1.124479 h 1.86862 1.86862 l 0.38862,1.124479 c 0.28207,0.815962 0.55194,1.147313 0.9839,1.208712 0.32743,0.0465 0.58995,-0.01302 0.58397,-0.132292 -0.006,-0.119258 -0.70144,-2.121516 -1.54514,-4.449858 -1.42309,-3.927258 -1.58483,-4.239347 -2.23759,-4.317047 -0.19349,-0.02299 -0.36959,-0.03244 -0.49712,-0.02894 z m 197.963618,0.01654 c -0.0606,7.94e-4 -0.12673,0.0063 -0.19947,0.01498 -0.61722,0.074 -0.80973,0.449625 -2.2102,4.314465 -0.8437,2.328331 -1.53913,4.3306 -1.54513,4.449858 v 5.29e-4 c -0.006,0.119298 0.24725,0.17879 0.56327,0.132292 0.4114,-0.06054 0.68179,-0.407011 0.95188,-1.220081 l 0.37724,-1.135849 1.86862,0.07752 1.86862,0.077 0.40928,1.124479 c 0.31911,0.87711 0.54265,1.124479 1.01596,1.124479 0.33372,0 0.60668,-0.03922 0.60668,-0.08682 0,-0.07681 -1.67274,-4.720024 -2.80965,-7.799525 -0.31683,-0.858139 -0.47308,-1.078457 -0.8971,-1.073319 z m -124.826488,0.0021 c -0.0446,0.0026 -0.0905,0.0078 -0.13901,0.01498 -0.42325,0.06326 -0.83262,0.919221 -2.0624,4.312399 -0.84387,2.328341 -1.53965,4.331115 -1.54565,4.450376 -0.006,0.119298 0.24726,0.178789 0.56328,0.132292 0.41142,-0.06054 0.68181,-0.407012 0.95187,-1.220082 l 0.37724,-1.135848 1.87121,0.07752 1.8712,0.077 0.37414,1.124479 c 0.3083,0.927081 0.49077,1.124479 1.04128,1.124479 0.53006,0 0.62964,-0.09545 0.48266,-0.463021 -0.10184,-0.254659 -0.77335,-2.122797 -1.49242,-4.151167 -1.34745,-3.800925 -1.62463,-4.381251 -2.2934,-4.343405 z m 21.2354,0.0026 c -0.35531,-0.01373 -0.38758,0.537745 -0.38758,4.437454 0,4.358921 0.0186,4.517554 0.53537,4.517554 0.51922,0 0.53332,-0.134622 0.46302,-4.428154 -0.0651,-3.973549 -0.11991,-4.437753 -0.53537,-4.517551 -0.0266,-0.0051 -0.0518,-0.0084 -0.0754,-0.0093 z m -114.02509,0.0016 c -0.34409,-0.01402 -0.39405,0.489688 -0.4563,3.577558 l -0.0739,3.656108 -1.70582,-3.269052 c -1.67585,-3.211808 -2.52757,-4.215675 -3.3192,-3.911904 -0.33322,0.127878 -0.39894,0.873046 -0.39894,4.526854 v 0 c 0,4.197541 0.0214,4.373893 0.52917,4.373893 0.50416,0 0.5298,-0.177932 0.53382,-3.770312 l 0.005,-3.770313 1.91357,3.550688 c 1.95067,3.61964 2.43001,4.203866 3.20704,3.905705 0.38878,-0.14921 0.4313,-0.663877 0.3669,-4.470527 -0.0647,-3.825132 -0.12317,-4.311597 -0.52814,-4.389395 -0.0257,-0.0049 -0.0499,-0.0084 -0.0729,-0.0093 z m 184.42079,0.0036 c -0.0978,2.1e-5 -0.19458,0.01979 -0.29249,0.05736 -0.3042,0.11674 -0.3762,0.981557 -0.3762,4.518586 0,4.176681 0.0238,4.373893 0.52193,4.373893 0.49019,0 0.52611,-0.218572 0.59531,-3.618383 l 0.0734,-3.618384 1.68052,3.155363 c 1.93152,3.626879 2.31791,4.133869 3.06751,4.026628 0.52356,-0.07489 0.54364,-0.24007 0.54364,-4.44314 0,-4.18923 -0.0214,-4.365625 -0.52917,-4.365625 -0.49811,0 -0.53355,0.201914 -0.60565,3.439583 l -0.0765,3.439583 -1.72496,-3.240111 c -1.46323,-2.748978 -2.193,-3.725511 -2.87734,-3.725353 z m -157.89216,0.0031 c -0.3664,-0.0016 -0.63307,0.02172 -0.7116,0.07028 -0.18563,0.114702 -0.28575,1.698588 -0.28577,4.525822 0,4.17362 0.0214,4.350123 0.52916,4.350123 0.48218,0 0.52917,-0.176384 0.52917,-1.984375 v -1.984375 h 0.75292 c 0.93838,0 1.59195,0.701985 2.30169,2.471685 0.39611,0.987729 0.70761,1.388321 1.12758,1.449522 0.31914,0.0465 0.58031,-0.04581 0.58031,-0.204639 0,-0.4581 -1.49241,-3.626633 -1.79679,-3.814752 -0.1638,-0.10124 0.0369,-0.482357 0.4961,-0.941546 0.97366,-0.973651 1.03126,-2.164403 0.14729,-3.048392 -0.47175,-0.471731 -1.04918,-0.669848 -2.36058,-0.810286 -0.47737,-0.0509 -0.94311,-0.0774 -1.30948,-0.07907 z m -16.7318,0.04341 c -0.77412,0.0075 -1.57525,0.184684 -2.15699,0.565856 -2.19496,1.438111 -2.19131,6.495989 0.006,7.835699 v 0 c 1.5567,0.949269 4.65603,0.393705 4.65603,-0.834575 0,-0.500801 -0.0415,-0.507614 -0.78031,-0.125574 -0.42934,0.222009 -1.25245,0.403593 -1.82882,0.403593 -0.8454,0 -1.18012,-0.157203 -1.73271,-0.813904 -1.24539,-1.480068 -0.86727,-4.995248 0.6232,-5.792927 0.73801,-0.39496 2.21311,-0.333759 2.80811,0.116271 0.70228,0.53118 0.91053,0.499681 0.91053,-0.137459 0,-0.770694 -1.21504,-1.229466 -2.50526,-1.21698 z m 167.20839,0.03979 -0.0724,4.431771 -0.0729,4.431771 h 2.38745 c 2.21126,0 2.38797,-0.03909 2.38797,-0.529167 0,-0.478758 -0.17639,-0.529166 -1.85208,-0.529166 h -1.85209 v -1.5875 -1.5875 h 1.5875 c 1.23473,0 1.5875,-0.08819 1.5875,-0.396875 0,-0.308668 -0.35277,-0.396875 -1.5875,-0.396875 h -1.5875 v -1.455122 -1.455208 h 1.87121 c 1.63994,0 1.86042,-0.05728 1.78231,-0.463021 -0.0766,-0.397618 -0.40616,-0.463021 -2.33422,-0.463021 z m 23.283328,0 -0.0723,4.431771 -0.0729,4.431771 h 2.38797 c 2.21125,0 2.38745,-0.03909 2.38745,-0.529167 0,-0.478758 -0.17639,-0.529166 -1.85208,-0.529166 h -1.85208 v -1.5875 -1.5875 h 1.5875 c 1.23472,0 1.5875,-0.08819 1.5875,-0.396875 0,-0.308668 -0.35278,-0.396875 -1.5875,-0.396875 h -1.5875 v -1.455122 -1.455208 h 1.87172 c 1.63994,0 1.86052,-0.05728 1.78232,-0.463021 -0.0766,-0.397618 -0.40668,-0.463021 -2.33474,-0.463021 z m 6.87917,0 -0.0724,4.431771 c -0.0703,4.296921 -0.0563,4.431771 0.46302,4.431771 0.49008,0 0.53537,-0.168484 0.53537,-1.984375 v -1.984288 h 0.77463 c 0.8991,0 1.67489,0.83911 2.15543,2.331641 0.40495,1.257771 0.71832,1.637109 1.3534,1.637109 0.40225,0 0.47627,-0.12137 0.33848,-0.555522 -0.37248,-1.173538 -1.43187,-3.372778 -1.70635,-3.542419 -0.18058,-0.11159 -0.0493,-0.365191 0.35295,-0.681611 1.22013,-0.95975 1.11613,-2.968885 -0.19017,-3.667993 -0.3251,-0.17399 -1.35944,-0.338987 -2.29805,-0.366387 z m 15.875,0 -0.0724,4.431771 c -0.0703,4.296921 -0.0563,4.431771 0.46302,4.431771 0.49007,0 0.53537,-0.168484 0.53537,-1.984375 v -1.984288 h 0.75293 c 0.93024,0 1.51335,0.620281 2.14354,2.280481 0.5197,1.36907 1.14804,1.987417 1.57458,1.549775 0.27389,-0.281029 -0.81068,-3.155603 -1.43557,-3.804933 -0.30176,-0.31356 -0.26144,-0.446873 0.25838,-0.855763 1.19671,-0.941329 1.07766,-2.956285 -0.21549,-3.648355 -0.32509,-0.17399 -1.35944,-0.338987 -2.29805,-0.366387 z m -124.751038,0.132379 v 4.394565 4.394563 l 1.97094,-0.09974 c 2.59782,-0.131181 3.41927,-0.689557 3.5326,-2.402438 0.0687,-1.03769 -0.0173,-1.27649 -0.63407,-1.761649 -0.66874,-0.52602 -0.68634,-0.59165 -0.27802,-1.042831 0.62352,-0.688988 0.55339,-2.132518 -0.13953,-2.870107 -0.4998,-0.531961 -0.82961,-0.612368 -2.51354,-0.612368 z m 7.67292,0 v 4.365625 c 0,4.189241 0.0214,4.365625 0.52916,4.365625 0.48217,0 0.52917,-0.176384 0.52917,-1.984375 v -1.984375 h 0.75292 c 0.95829,0 1.45539,0.559247 2.17972,2.452047 0.48953,1.279221 0.68263,1.516703 1.23351,1.516703 0.41621,0 0.60522,-0.119938 0.52142,-0.330729 -0.0724,-0.181899 -0.34315,-0.866513 -0.60151,-1.521354 -0.25835,-0.654849 -0.67932,-1.494883 -0.93586,-1.866551 -0.44951,-0.651161 -0.44783,-0.687546 0.0532,-1.000458 1.16076,-0.724908 1.25311,-2.478747 0.18294,-3.475755 -0.4696,-0.437491 -0.93287,-0.536403 -2.51044,-0.536403 z m 11.1125,0 v 4.365625 c 0,4.189241 0.0214,4.365625 0.52916,4.365625 0.48217,0 0.52917,-0.176384 0.52917,-1.984375 v -1.984375 h 0.77463 c 0.95097,0 1.66834,0.8396 2.27325,2.660819 0.36795,1.107811 0.53656,1.307931 1.10277,1.307931 0.42858,0 0.62132,-0.118689 0.53692,-0.330729 -0.0724,-0.181899 -0.34315,-0.866513 -0.60151,-1.521354 -0.25835,-0.654849 -0.67934,-1.494883 -0.93587,-1.866551 -0.4495,-0.651161 -0.44782,-0.687546 0.0532,-1.000458 1.16076,-0.724908 1.25311,-2.478747 0.18294,-3.475755 -0.4696,-0.437491 -0.93288,-0.536403 -2.51044,-0.536403 z m -90.48751,0.79375 h 0.94361 c 1.43089,0 1.96681,0.396608 1.96681,1.455208 0,0.626351 -0.15833,0.992265 -0.5116,1.181325 -0.28147,0.150638 -0.93631,0.273884 -1.45521,0.273884 h -0.94361 v -1.455209 z m 72.76042,0 h 1.01751 c 1.65953,0 2.50404,1.481929 1.40922,2.472719 -0.26612,0.24084 -0.92097,0.437698 -1.45521,0.437698 h -0.97152 v -1.455209 z m 7.67292,0 h 1.01751 c 1.622,0 2.49562,1.475711 1.47691,2.494423 -0.23687,0.236868 -0.86304,0.415994 -1.45521,0.415994 h -1.03921 v -1.455209 z m 11.1125,0 h 1.01751 c 1.622,0 2.49562,1.475711 1.47691,2.494423 -0.23687,0.236868 -0.86305,0.415994 -1.45521,0.415994 h -1.03921 v -1.455209 z m 89.958328,0 h 1.01751 c 1.622,0 2.4956,1.475711 1.47691,2.494423 -0.23689,0.236868 -0.86305,0.415994 -1.4552,0.415994 h -1.03922 v -1.455209 z m 15.875,0 h 1.01751 c 1.622,0 2.49561,1.475711 1.47691,2.494423 -0.23688,0.236868 -0.86305,0.415994 -1.4552,0.415994 h -1.03922 v -1.455209 z m -203.921918,0.1788 0.75808,2.078945 c 0.4168,1.14318 0.75759,2.174063 0.75759,2.291332 0,0.1173 -0.65485,0.213423 -1.45521,0.213423 -0.80037,0 -1.45521,-0.08875 -1.45521,-0.197403 0,-0.108641 0.31406,-1.14005 0.69763,-2.29185 z m 197.337828,0.350367 c 0.10501,0 0.45611,0.803677 0.78031,1.785937 0.32419,0.982271 0.64459,1.934768 0.71159,2.116667 0.0884,0.239731 -0.28625,0.330729 -1.36168,0.330729 -0.96282,0 -1.48363,-0.109664 -1.48363,-0.312124 0,-0.565181 1.15833,-3.921209 1.35341,-3.921209 z m -124.647688,0.170532 c 0.14932,-0.01484 0.51958,0.734192 0.86868,1.772502 0.36738,1.092671 0.59965,2.054971 0.51625,2.13837 -0.0834,0.08339 -0.72705,0.151929 -1.4304,0.151929 -0.89412,0 -1.279,-0.107013 -1.279,-0.355534 0,-0.503838 1.02474,-3.420962 1.2976,-3.693829 0.008,-0.0079 0.0169,-0.01246 0.0269,-0.01344 z m 6.61303,2.93574 1.20148,0.135392 c 1.97916,0.223078 2.90375,1.630516 1.75442,2.670638 -0.30488,0.27591 -0.94104,0.437698 -1.7198,0.437698 h -1.2361 v -1.622124 z m -75.32667,10.122891 c -0.67527,0 -1.24854,0.65227 -1.04333,1.18701 0.19852,0.51743 0.43133,0.50619 0.83095,-0.0403 0.29522,-0.4038 0.40825,-0.40624 1.35186,-0.032 1.22928,0.48751 2.22052,0.22967 2.22052,-0.57722 0,-0.58306 -0.67958,-0.74617 -0.86093,-0.20671 -0.0889,0.26459 -0.29551,0.26459 -1.03301,0 -0.50702,-0.1819 -1.16679,-0.33073 -1.46606,-0.33073 z m 191.822918,0 c -0.67527,0 -1.24854,0.65227 -1.04335,1.18701 v 5.3e-4 c 0.19835,0.51654 0.69919,0.51905 0.69919,0.003 0,-0.49296 0.46802,-0.50312 1.62108,-0.0346 0.91817,0.37305 1.54028,0.3058 1.88051,-0.2036 0.31657,-0.47401 0.23027,-0.9524 -0.17208,-0.9524 -0.20614,0 -0.42518,0.14883 -0.48628,0.33073 -0.089,0.26459 -0.29554,0.26459 -1.03301,0 -0.50702,-0.1819 -1.16677,-0.33073 -1.46606,-0.33073 z m -230.796248,2.11667 c -0.50755,0 -0.52917,0.17656 -0.52917,4.3217 0,2.37684 0.0792,4.40092 0.17621,4.49792 0.097,0.097 1.10906,0.17621 2.24896,0.17621 1.89619,0 2.07275,-0.045 2.07275,-0.52916 0,-0.47487 -0.17637,-0.52917 -1.7198,-0.52917 h -1.71979 v -3.96875 c 0,-3.79236 -0.0235,-3.96875 -0.52916,-3.96875 z m 200.2963,0.009 c -0.76242,-0.014 -1.52542,0.17429 -2.15025,0.5917 -1.23183,0.82291 -1.82417,2.11219 -1.8247,3.97185 -5.3e-4,1.95182001 0.53026,3.21279 1.63711,3.88762 1.82092,1.11018 4.62342,0.44765 5.55005,-1.31207 0.69713,-1.32390999 0.66945,-4.32915 -0.0506,-5.51025 -0.62218,-1.0205 -1.89086,-1.6055 -3.16157,-1.62885 z m 40.216668,0 c -0.76243,-0.014 -1.52542,0.17429 -2.15026,0.5917 -1.23182,0.82291 -1.82469,2.11219 -1.82469,3.97185 -5.3e-4,1.95182001 0.53028,3.21279 1.63711,3.88762 1.82092,1.11018 4.62343,0.44765 5.55005,-1.31207 0.69711,-1.32390999 0.66944,-4.32915 -0.0506,-5.51025 -0.62218,-1.0205 -1.89085,-1.6055 -3.16156,-1.62885 z m -232.020988,0.007 c -1.25976,0.0242 -2.54783,0.61231 -3.31401,1.65674 -0.44868,0.61162 -0.54777,1.13911 -0.54777,2.91042 0,2.37533 0.39397,3.3111 1.69138,4.01629 1.02351,0.55631 3.17272,0.49386 4.18269,-0.12195 1.24558,-0.75948 1.78083,-1.95363999 1.78284,-3.97961 0.003,-2.03674 -0.43756,-3.0585 -1.6769,-3.89278 -0.61661,-0.41508 -1.36236,-0.60363 -2.11823,-0.58911 z m 40.21667,0 c -1.25976,0.0242 -2.54783,0.61231 -3.31401,1.65674 -0.44866,0.61162 -0.54777,1.13911 -0.54777,2.91042 0,2.37533 0.39397,3.3111 1.69138,4.01629 1.02351,0.55631 3.17272,0.49386 4.18269,-0.12195 1.2456,-0.75948 1.78083,-1.95363999 1.78284,-3.97961 0.003,-2.03674 -0.43757,-3.0585 -1.6769,-3.89278 -0.61661,-0.41508 -1.36237,-0.60363 -2.11823,-0.58911 z m -24.68943,0.004 c -0.12753,0.003 -0.20672,0.0198 -0.20672,0.0481 0,0.0566 -0.71438,2.0503 -1.5875,4.43022 -0.87313,2.37991 -1.5875,4.37364 -1.5875,4.43074 0,0.0571 0.26789,0.0656 0.59531,0.0191 0.43198,-0.0613 0.70186,-0.39274 0.98393,-1.20871 l 0.38859,-1.12447999 h 1.86862 1.86862 l 0.38862,1.12447999 c 0.28208,0.81597 0.55195,1.14731 0.98391,1.20871 0.32742,0.0465 0.58994,-0.013 0.58396,-0.13229 -0.006,-0.11926 -0.70143,-2.12153 -1.54514,-4.44986 -1.42309,-3.92727 -1.58483,-4.23935 -2.23758,-4.31705 -0.19352,-0.023 -0.3696,-0.0324 -0.49712,-0.0289 z m 15.61041,0 c -0.12753,0.003 -0.20672,0.0198 -0.20672,0.0481 0,0.0566 -0.71435,2.0503 -1.5875,4.43022 -0.8731,2.37991 -1.5875,4.37364 -1.5875,4.43074 0,0.0571 0.26789,0.0656 0.59532,0.0191 0.43198,-0.0613 0.70186,-0.39274 0.98393,-1.20871 l 0.38859,-1.12447999 h 1.86862 1.86862 l 0.38862,1.12447999 c 0.28205,0.81597 0.55195,1.14731 0.98391,1.20871 0.32742,0.0465 0.58994,-0.013 0.58396,-0.13229 -0.006,-0.11926 -0.70144,-2.12153 -1.54514,-4.44986 -1.42309,-3.92727 -1.58483,-4.23935 -2.23758,-4.31705 -0.19352,-0.023 -0.3696,-0.0324 -0.49713,-0.0289 z m 176.796958,0.0165 c -0.0606,7.9e-4 -0.12673,0.006 -0.19948,0.015 -0.61721,0.074 -0.80973,0.44962 -2.2102,4.31447 -0.8437,2.32833 -1.53912,4.33111 -1.54512,4.45038 -0.006,0.11928 0.24725,0.17878 0.56327,0.13229 0.41142,-0.0605 0.6818,-0.40701 0.95188,-1.22008 l 0.37724,-1.13584999 1.86862,0.0775 1.86862,0.077 0.40928,1.12448 c 0.3191,0.87712 0.54265,1.12448 1.01595,1.12448 0.33373,0 0.60669,-0.0392 0.60669,-0.0868 0,-0.0768 -1.67273,-4.72003 -2.80965,-7.79952 -0.31682,-0.85815 -0.47307,-1.07846 -0.8971,-1.07332 z m 15.61041,0 c -0.0606,7.9e-4 -0.12673,0.006 -0.19947,0.015 -0.61722,0.074 -0.80974,0.44962 -2.2102,4.31447 -0.84371,2.32833 -1.53913,4.33111 -1.54513,4.45038 -0.006,0.11928 0.24727,0.17878 0.56328,0.13229 0.4114,-0.0605 0.68179,-0.40701 0.95188,-1.22008 l 0.37723,-1.13584999 1.86862,0.0775 1.86862,0.077 0.40928,1.12448 c 0.31912,0.87712 0.54264,1.12448 1.01596,1.12448 0.33371,0 0.60668,-0.0392 0.60668,-0.0868 0,-0.0768 -1.67274,-4.72003 -2.80965,-7.79952 -0.31682,-0.85815 -0.47307,-1.07846 -0.8971,-1.07332 z m -117.468278,0.004 c -0.15843,0.005 -0.32164,0.0168 -0.48937,0.0357 -2.41719,0.27245 -3.5585,1.89503 -3.42667,4.87205001 0.091,2.05367999 0.59612,3.08420999 1.82056,3.71346999 0.34977,0.17976 1.23145,0.32822 1.95905,0.33021 2.6064,0.006 3.83743,-1.49139 3.83543,-4.66534 -0.002,-2.83828 -1.32257,-4.35664 -3.699,-4.28605 z m 77.11261,0.001 c -0.35538,-0.0136 -0.38758,0.53906 -0.38758,4.44831 v 4.52789 l 2.17971,-0.0765 c 1.82947,-0.0645 2.1944,-0.15143 2.2686,-0.54002 0.077,-0.40282 -0.13688,-0.46302 -1.64383,-0.46302 h -1.73219 l -0.0729,-3.89951 c -0.0652,-3.46924 -0.12446,-3.90877 -0.53641,-3.98787 -0.0266,-0.005 -0.0517,-0.008 -0.0754,-0.009 z m 33.120448,0.0124 c -2.1839,0.0242 -3.60908,1.79982 -3.60908,4.57698 0,2.07114 0.60335,3.27875 1.98334,3.96875 1.19565,0.59783 1.44508,0.85963 1.45108,1.52136 0.003,0.31858 -0.20222,0.46302 -0.65733,0.46302 -0.41159,0 -0.66145,0.14992 -0.66145,0.39687 0,0.52819 1.67142,0.53674 2.10788,0.0109 0.19073,-0.22987 0.2514,-0.69866 0.15038,-1.15859 -0.14393,-0.65533 -0.0772,-0.7952 0.43976,-0.925 1.00201,-0.25161 1.64005,-0.84458 1.44797,-1.34514 -0.15857,-0.41324 -0.22331,-0.41643 -0.76325,-0.0382 -0.65866,0.46133 -2.3699,0.54938 -3.09904,0.15916 -1.39705,-0.74769 -1.5939,-4.42891 -0.31006,-5.80326 0.8713,-0.93272 1.94318,-1.07537 3.19929,-0.42581 0.9756,0.50448 1.35048,0.041 0.58549,-0.72399 -0.34226,-0.34228 -1.00617,-0.58276 -1.81797,-0.65836 -0.15214,-0.0142 -0.30141,-0.0202 -0.44701,-0.0186 z m -207.198708,0.0393 c -0.77412,0.007 -1.57525,0.18468 -2.15699,0.56585 -2.19496,1.43811 -2.19131,6.49599 0.006,7.8357 v 0 c 1.5567,0.94926 4.65603,0.39371 4.65603,-0.83457 0,-0.50081 -0.0415,-0.50762 -0.78031,-0.12558 -0.42934,0.22202 -1.25245,0.40359 -1.82882,0.40359 -0.8454,0 -1.18012,-0.1572 -1.73271,-0.8139 -1.24539,-1.48006999 -0.86727,-4.99525 0.6232,-5.79293 0.73801,-0.39496 2.21311,-0.33376 2.80811,0.11627 0.70228,0.53118 0.91053,0.4997 0.91053,-0.13745 0,-0.77069 -1.21504,-1.22947 -2.50526,-1.21698 z m 15.61042,0 c -0.77412,0.007 -1.57525,0.18468 -2.15699,0.56585 -1.56396,1.02475 -2.14739,4.25647001 -1.16065,6.43062 0.40119,0.88396 0.77425,1.25029 1.68259,1.65209 0.65297,0.28885 1.22685,0.74319 1.30225,1.03147 0.16793,0.64222 0.007,0.8108 -0.77774,0.8108 -0.37237,0 -0.61754,0.15748 -0.61754,0.39687 0,0.2722 0.27014,0.39575 0.8599,0.39274 1.28288,-0.006 1.62298,-0.3242 1.4547,-1.36115 -0.13488,-0.83114 -0.0767,-0.91846 0.88728,-1.33016 0.73158,-0.31243 1.03146,-0.60172 1.03146,-0.9958 0,-0.53009 -0.0361,-0.53706 -0.78082,-0.15193 -0.42934,0.22202 -1.25195,0.40359 -1.82832,0.40359 -0.8454,0 -1.18065,-0.1572 -1.73323,-0.8139 -0.5696,-0.67692999 -0.68472,-1.08052999 -0.68472,-2.39467999 0,-1.70128001 0.48356,-2.95678001 1.30845,-3.39825001 0.738,-0.39496 2.2131,-0.33376 2.8081,0.11627 0.70228,0.53118 0.91054,0.4997 0.91054,-0.13745 0,-0.77069 -1.21505,-1.22947 -2.50526,-1.21698 z m 73.82236,0.0398 c -2.47317,0 -3.84703,1.58538 -3.84783,4.44003 -5.3e-4,1.95183001 0.53026,3.21279 1.63711,3.88762 1.05114,0.64086 2.83217,0.7008 3.93154,0.13229 0.94982,-0.49117 1.10219,-1.35214 0.18552,-1.04851 -0.32742,0.10846 -1.15024,0.25216 -1.82831,0.31936 -1.47926,0.1466 -2.15507,-0.37732 -2.59519,-2.01175999 -0.87203,-3.23851001 1.37396,-5.73362001 3.95841,-4.39715001 0.99264,0.51331 1.34517,0.0357 0.55604,-0.75344 -0.44135,-0.44135 -0.88857,-0.56844 -1.99729,-0.56844 z m 102.39375,0 c -2.47957,0 -3.84704,1.58472 -3.84783,4.45812 -5.3e-4,1.87503001 0.58838,3.22952 1.69809,3.90622 1.41119,0.86055 4.651388,0.40486 4.651388,-0.65422 0,-0.59259 -0.312008,-0.69543 -0.887278,-0.29249 -0.81655,0.57193 -2.70484,0.49962 -3.3321,-0.12764 -0.71333,-0.71332 -1.11901,-2.40745999 -0.90175,-3.76618 0.34961,-2.18632 2.17586,-3.17664 4.06073,-2.20193 0.992628,0.51331 1.345168,0.0357 0.55604,-0.75344 -0.44135,-0.44135 -0.88857,-0.56844 -1.99729,-0.56844 z m -89.04418,0.13229 v 4.36562 c 0,4.18923 0.0214,4.36563 0.52917,4.36563 0.48216,0 0.52916,-0.1764 0.52916,-1.98438 v -1.98436999 h 1.5875 c 1.23473,0 1.5875,-0.0882 1.5875,-0.39688001 0,-0.30868 -0.35277,-0.39687 -1.5875,-0.39687 h -1.5875 v -1.5875 -1.5875 h 1.71979 c 1.35231,0 1.7198,-0.0848 1.7198,-0.39688 0,-0.32168 -0.42627,-0.39687 -2.24896,-0.39687 z m 6.35,0 v 4.36562 c 0,4.18923 0.0214,4.36563 0.52917,4.36563 0.48217,0 0.52916,-0.1764 0.52916,-1.98438 v -1.98436999 h 0.77463 c 0.95096,0 1.66834,0.83959 2.27325,2.66081999 0.36795,1.1078 0.53657,1.30793 1.10277,1.30793 0.42858,0 0.62132,-0.11869 0.53692,-0.33073 -0.0724,-0.1819 -0.34316,-0.86651 -0.60151,-1.52136 -0.25836,-0.65482999 -0.67932,-1.49487999 -0.93586,-1.86654999 -0.44949,-0.65116001 -0.44781,-0.68754001 0.0532,-1.00045001 1.16077,-0.7249 1.2531,-2.47875 0.18294,-3.47576 -0.46961,-0.43749 -0.93288,-0.5364 -2.51044,-0.5364 z m 7.67292,0 v 4.36562 4.36563 h 2.38125 c 2.20486,0 2.38125,-0.0392 2.38125,-0.52917 0,-0.47877 -0.1764,-0.52917 -1.85209,-0.52917 h -1.85208 v -1.58749999 -1.5875 h 1.5875 c 1.23473,0 1.5875,-0.0882 1.5875,-0.39687001 0,-0.30868 -0.35277,-0.39688 -1.5875,-0.39688 h -1.5875 v -1.4552 -1.45521 h 1.85208 c 1.46991,0 1.85209,-0.0819 1.85209,-0.39688 0,-0.32338 -0.44097,-0.39687 -2.38125,-0.39687 z m 65.75257,0.76688 c 0.65022,-10e-4 1.31538,0.21732 1.78904,0.65629 1.29302,1.19834 1.17759,4.97843 -0.1788,5.85494 h -5.3e-4 c -1.12769,0.72872 -2.52138,0.70775 -3.37809,-0.0512 -1.18875,-1.05307999 -1.14788,-4.50205 0.0687,-5.79706 0.41405,-0.44077 1.04942,-0.66171 1.69964,-0.66301 z m 40.216668,0 c 0.65021,-10e-4 1.31486,0.21732 1.78852,0.65629 1.29302,1.19834 1.17758,4.97843 -0.1788,5.85494 -1.12768,0.72872 -2.52136,0.70775 -3.37809,-0.0512 -1.18875,-1.05307999 -1.14787,-4.50205 0.0687,-5.79706 0.41405,-0.44077 1.04942,-0.66171 1.69964,-0.66301 z m -232.046298,0.0269 c 1.87587,0 2.78122,1.11954 2.78122,3.43958 0,1.72175001 -0.58674,2.85066 -1.72908,3.32796 -0.49498,0.20682 -0.93353,0.36554 -0.97462,0.35244 -0.0411,-0.0131 -0.46009,-0.13522 -0.93123,-0.2713 -1.17033,-0.33808 -1.65674,-1.38030999 -1.65674,-3.54862 0,-1.58507 0.0744,-1.82728 0.77362,-2.52647 0.57171,-0.57172 1.02438,-0.77359 1.73683,-0.77359 z m 40.21666,0 c 1.87587,0 2.78122,1.11954 2.78122,3.43958 0,1.72175001 -0.58674,2.85066 -1.72908,3.32796 -0.49498,0.20682 -0.93363,0.36554 -0.97461,0.35244 -0.0411,-0.0131 -0.46012,-0.13522 -0.93123,-0.2713 -1.17033,-0.33808 -1.65674,-1.38030999 -1.65674,-3.54862 0,-1.58507 0.0744,-1.82728 0.77361,-2.52647 0.57171,-0.57172 1.02439,-0.77359 1.73683,-0.77359 z m 65.91639,0 c 1.26914,0 1.92868,0.40842 2.37144,1.46813 0.6846,1.63846 0.25448,4.34206 -0.79944,5.02295 -0.68461,0.44233 -1.70866,0.64155 -2.39779,0.46715 -0.89635,-0.22686 -1.4001,-0.86341 -1.71203,-2.16368999 -0.61663,-2.57039001 0.56057,-4.79454001 2.53782,-4.79454001 z m 13.32942,0 h 0.86714 c 1.70207,0 2.65735,1.46436 1.62729,2.49442 -0.23688,0.23686 -0.86305,0.41599 -1.45521,0.41599 h -1.03922 v -1.4552 z m -103.38025,0.1788 0.75808,2.07894 c 0.4168,1.14318 0.75758,2.17407001 0.75758,2.29133001 0,0.1173 -0.65481,0.21343 -1.45521,0.21343 -0.80036,0 -1.4552,-0.0888 -1.4552,-0.19741 0,-0.10865 0.31406,-1.14006001 0.69762,-2.29185001 z m 15.61041,0 0.75809,2.07894 c 0.4168,1.14318 0.75758,2.17407001 0.75758,2.29133001 0,0.1173 -0.65484,0.21343 -1.45521,0.21343 -0.80036,0 -1.45521,-0.0888 -1.45521,-0.19741 0,-0.10865 0.31406,-1.14006001 0.69763,-2.29185001 z m 176.171168,0.35036 c 0.105,0 0.45611,0.80367 0.78031,1.78594 0.3242,0.98226 0.64458,1.93477001 0.71158,2.11667001 0.0884,0.23973 -0.28624,0.33073 -1.36167,0.33073 -0.96282,0 -1.48363,-0.10967 -1.48363,-0.31213 0,-0.56518 1.15833,-3.92121001 1.35341,-3.92121001 z m 15.61041,0 c 0.10501,0 0.45613,0.80367 0.78031,1.78594 0.3242,0.98226 0.64459,1.93477001 0.71159,2.11667001 0.0884,0.23973 -0.28625,0.33073 -1.36168,0.33073 -0.96281,0 -1.48362,-0.10967 -1.48362,-0.31213 0,-0.56518 1.15832,-3.92121001 1.3534,-3.92121001 z"
         style="fill:#000000;stroke-width:0.26458332" />
      <g
         transform="translate(1.5905722)"
         id="g1452">
        <text
           transform="scale(1.1189876,0.89366495)"
           id="text3020"
           y="161.01326"
           x="8.4652958"
           style="font-style:normal;font-variant:normal;font-weight:normal;font-stretch:normal;font-size:11.99930668px;line-height:0;font-family:Calibri;-inkscape-font-specification:Calibri;letter-spacing:0px;word-spacing:0px;fill:#000000;fill-opacity:1;stroke:none;stroke-width:0.4067294"
           xml:space="preserve"><tspan
             style="font-style:normal;font-variant:normal;font-weight:normal;font-stretch:normal;font-family:Calibri;-inkscape-font-specification:Calibri;stroke-width:0.4067294"
             y="164.01309"
             x="8.4652958"
             id="tspan3016"
             sodipodi:role="line" /><tspan
             id="tspan3018"
             style="font-style:normal;font-variant:normal;font-weight:normal;font-stretch:normal;font-family:Calibri;-inkscape-font-specification:Calibri;stroke-width:0.4067294"
             y="164.01309"
             x="8.4652958"
             sodipodi:role="line"><tspan
               id="tspan1436"
               style="font-style:normal;font-variant:normal;font-weight:300;font-stretch:normal;font-family:Calibri;-inkscape-font-specification:'Calibri Light';stroke-width:0.4067294">ABRIR</tspan></tspan></text>
        <text
           transform="scale(1.1189876,0.89366495)"
           xml:space="preserve"
           style="font-style:normal;font-variant:normal;font-weight:300;font-stretch:normal;font-size:11.99930668px;line-height:0;font-family:Calibri;-inkscape-font-specification:'Calibri Light';letter-spacing:0px;word-spacing:0px;fill:#000000;fill-opacity:1;stroke:none;stroke-width:0.4067294"
           x="6.3286662"
           y="171.41222"
           id="text3026"><tspan
             sodipodi:role="line"
             id="tspan3022"
             x="6.3286662"
             y="174.41205"
             style="font-style:normal;font-variant:normal;font-weight:300;font-stretch:normal;font-family:Calibri;-inkscape-font-specification:'Calibri Light';stroke-width:0.4067294" /><tspan
             sodipodi:role="line"
             x="6.3286662"
             y="174.41205"
             style="font-style:normal;font-variant:normal;font-weight:300;font-stretch:normal;font-family:Calibri;-inkscape-font-specification:'Calibri Light';stroke-width:0.4067294"
             id="tspan3024">COFRE </tspan></text>
      </g>
      <rect
         style="opacity:1;fill:none;fill-opacity:1;stroke:none;stroke-width:7.06500006;stroke-linecap:round;stroke-linejoin:round;stroke-miterlimit:4;stroke-dasharray:none;paint-order:stroke fill markers"
         id="rect3030"
         width="72.193451"
         height="82.398811"
         x="-9.2113609"
         y="73.323677"
         rx="0"
         ry="3.0979511e-06" />
      <rect
         style="opacity:1;fill:none;fill-opacity:1;stroke:none;stroke-width:7.06500006;stroke-linecap:round;stroke-linejoin:round;stroke-miterlimit:4;stroke-dasharray:none;paint-order:stroke fill markers"
         id="rect3032"
         width="72.193451"
         height="82.398811"
         x="-9.2113609"
         y="73.323677"
         ry="3.0979534e-06" />
    </g>
  </g>
</svg>
