<?xml version="1.0" encoding="UTF-8" standalone="no"?>
<!-- Created with Inkscape (http://www.inkscape.org/) -->

<svg
   xmlns:dc="http://purl.org/dc/elements/1.1/"
   xmlns:cc="http://creativecommons.org/ns#"
   xmlns:rdf="http://www.w3.org/1999/02/22-rdf-syntax-ns#"
   xmlns:svg="http://www.w3.org/2000/svg"
   xmlns="http://www.w3.org/2000/svg"
   xmlns:sodipodi="http://sodipodi.sourceforge.net/DTD/sodipodi-0.dtd"
   xmlns:inkscape="http://www.inkscape.org/namespaces/inkscape"
   width="39.644367mm"
   height="12.77mm"
   viewBox="0 0 39.644371 12.769999"
   version="1.1"
   id="svg9308"
   inkscape:version="0.92.4 5da689c313, 2019-01-14"
   sodipodi:docname="cameraenotebook.svg">
  <defs
     id="defs9302" />
  <sodipodi:namedview
     id="base"
     pagecolor="#ffffff"
     bordercolor="#666666"
     borderopacity="1.0"
     inkscape:pageopacity="0.0"
     inkscape:pageshadow="2"
     inkscape:zoom="1.979899"
     inkscape:cx="69.809426"
     inkscape:cy="-26.150271"
     inkscape:document-units="mm"
     inkscape:current-layer="layer1"
     showgrid="false"
     inkscape:window-width="1366"
     inkscape:window-height="705"
     inkscape:window-x="0"
     inkscape:window-y="0"
     inkscape:window-maximized="1" />
  <metadata
     id="metadata9305">
    <rdf:RDF>
      <cc:Work
         rdf:about="">
        <dc:format>image/svg+xml</dc:format>
        <dc:type
           rdf:resource="http://purl.org/dc/dcmitype/StillImage" />
        <dc:title />
      </cc:Work>
    </rdf:RDF>
  </metadata>
  <g
     inkscape:label="Camada 1"
     inkscape:groupmode="layer"
     id="layer1"
     transform="translate(-51.235791,-100.89399)">
    <g
       id="g1974"
       transform="matrix(0.7009033,0,0,0.7009033,21.247279,31.037126)">
      <path
         inkscape:connector-curvature="0"
         id="path1210"
         d="m 48.024678,116.78351 c -0.222912,-0.0771 -0.418793,-0.26034 -0.504189,-0.47154 l -0.04895,-0.12107 -0.0055,-5.15622 c -0.0054,-5.041 -0.0046,-5.15896 0.03575,-5.27847 0.08434,-0.24974 0.264326,-0.43571 0.506924,-0.52377 l 0.140163,-0.0509 h 2.150621 2.150622 l 0.62055,-1.03447 0.620552,-1.03447 2.089324,-0.005 2.089325,-0.005 0.621624,1.03923 0.621623,1.03922 2.14411,2.5e-4 c 1.83835,1.6e-4 2.159139,0.005 2.249497,0.0322 0.282508,0.0857 0.491529,0.30283 0.567305,0.58932 0.01947,0.0736 0.02408,1.31759 0.01945,5.25274 l -0.0061,5.15628 -0.06162,0.1334 c -0.0755,0.16346 -0.242807,0.32825 -0.415357,0.40912 l -0.123335,0.0578 -7.675445,0.005 c -7.341993,0.004 -7.680288,0.004 -7.786935,-0.0339 z m 8.402863,-1.67482 c 1.484789,-0.25686 2.680028,-1.39175 3.004011,-2.85233 0.106819,-0.48157 0.122739,-0.97965 0.04632,-1.44897 -0.243706,-1.49658 -1.386822,-2.70856 -2.867993,-3.04075 -1.266263,-0.28401 -2.558452,0.0895 -3.479319,1.00563 -0.997554,0.99245 -1.349261,2.46432 -0.91086,3.81186 0.46117,1.41752 1.69699,2.40835 3.201746,2.56704 0.250215,0.0264 0.723534,0.006 1.006102,-0.0425 z m -4.807406,-7.44028 v -0.83633 l -1.248868,0.006 -1.248868,0.006 -0.0056,0.83079 -0.0056,0.83079 h 1.25448 1.25448 z"
         style="fill:#000000;stroke-width:0.02143979" />
      <path
         inkscape:connector-curvature="0"
         id="path1943"
         d="m 70.383728,116.75955 c -0.475065,-0.11488 -0.834525,-0.46086 -0.917186,-0.88277 l -0.03321,-0.16951 -0.613027,-0.01 -0.613027,-0.01 -0.193794,-0.0808 c -0.284103,-0.11837 -0.483795,-0.28828 -0.618176,-0.526 l -0.112278,-0.19862 v -1.87815 -1.87815 l 0.07297,-0.12966 c 0.08391,-0.14907 0.270823,-0.31964 0.420347,-0.38358 0.177365,-0.0757 0.690587,-0.28179 0.702195,-0.28179 0.0061,0 0.153663,-0.0587 0.327932,-0.13035 0.17427,-0.0716 0.321245,-0.13033 0.326613,-0.13033 0.0054,0 0.138103,-0.0528 0.294972,-0.1173 0.156869,-0.0646 0.290508,-0.11729 0.296977,-0.11729 0.0064,0 0.123777,-0.0456 0.260691,-0.10104 0.13691,-0.0556 0.577632,-0.23249 0.979382,-0.39316 0.401751,-0.16066 0.804245,-0.3218 0.894434,-0.35808 0.09019,-0.0363 0.371934,-0.14786 0.626102,-0.24797 0.254168,-0.10008 0.574126,-0.22782 0.711017,-0.28379 0.136894,-0.056 0.253307,-0.10179 0.2587,-0.10179 0.0054,0 0.108055,-0.0395 0.228137,-0.0881 0.296478,-0.11947 1.554006,-0.62163 1.738868,-0.69437 0.08198,-0.0322 0.288102,-0.11575 0.458028,-0.18555 0.169924,-0.0698 0.313262,-0.12688 0.318525,-0.12688 0.01087,0 0.944654,-0.37101 1.319675,-0.52433 0.136252,-0.0558 0.25284,-0.10125 0.259083,-0.10125 0.0062,0 0.142969,-0.0542 0.303836,-0.12048 0.160865,-0.0662 0.406522,-0.16461 0.545905,-0.21854 0.139382,-0.054 0.347338,-0.13581 0.462124,-0.18199 0.195156,-0.0785 0.987527,-0.39409 1.356556,-0.54027 0.350902,-0.13901 1.156699,-0.46027 1.326743,-0.52897 0.162194,-0.0654 0.872491,-0.34823 1.863401,-0.7417 0.204976,-0.0814 0.433057,-0.1721 0.506847,-0.20157 0.338787,-0.13536 0.494462,-0.19733 1.446001,-0.57566 0.55753,-0.22168 2.140676,-0.85156 3.518102,-1.39973 1.377427,-0.54819 2.564787,-1.02033 2.638579,-1.04924 0.07379,-0.0289 0.248204,-0.0992 0.387587,-0.15632 0.38554,-0.15782 0.474826,-0.181 0.69442,-0.18017 0.802169,0.003 1.213924,0.81195 0.690235,1.35608 -0.132705,0.13788 0.211222,-0.005 -4.425728,1.84134 -0.729708,0.29059 -1.876818,0.74761 -2.549134,1.01562 -0.672316,0.268 -1.732218,0.69013 -2.35534,0.93807 -0.623123,0.24794 -1.978188,0.78779 -3.011259,1.19968 -1.033071,0.41188 -2.166764,0.86356 -2.51932,1.00375 -0.352555,0.14018 -1.117296,0.44485 -1.699423,0.67707 -0.582127,0.23221 -1.568239,0.62501 -2.19136,0.87289 -0.623121,0.24788 -1.226864,0.48861 -1.341651,0.53497 -0.114785,0.0463 -0.718527,0.28718 -1.341649,0.53515 -0.623121,0.24798 -1.233573,0.49223 -1.356556,0.54278 l -0.223609,0.0919 12.083102,0.002 12.083103,0.002 -0.0083,1.76601 -0.0083,1.76601 -0.09496,0.17526 c -0.131916,0.24347 -0.326646,0.41695 -0.601312,0.5357 l -0.224639,0.0971 -0.768456,0.01 -0.768456,0.01 -0.01704,0.0958 c -0.07485,0.42061 -0.3144,0.71179 -0.730182,0.88755 l -0.223609,0.0946 -1.455321,0.008 c -1.589935,0.01 -1.616302,0.007 -1.938735,-0.14593 -0.297872,-0.14096 -0.5677,-0.48661 -0.609782,-0.78117 l -0.02137,-0.14953 -6.387619,-0.007 -6.387618,-0.007 v 0.0754 c 0,0.26543 -0.25787,0.65231 -0.5464,0.81976 -0.33101,0.19209 -0.258788,0.18475 -1.883475,0.19151 -1.16865,0.004 -1.490731,-0.002 -1.60998,-0.03 z m 15.667486,-3.78067 v -0.56044 h -1.744143 -1.744146 v 0.56044 0.56044 h 1.744146 1.744143 z m 2.058402,0.45564 c 0.445583,-0.19876 0.43363,-0.75966 -0.02033,-0.95385 -0.47046,-0.20124 -0.973167,0.15392 -0.866899,0.61246 0.03448,0.14879 0.255104,0.34889 0.425613,0.38604 0.153042,0.0333 0.323774,0.0168 0.461613,-0.0447 z m 2.524776,-0.0163 c 0.322453,-0.16067 0.396371,-0.56223 0.148865,-0.80869 -0.38391,-0.38229 -1.093444,-0.14193 -1.094515,0.37076 -9e-5,0.0438 0.03503,0.14133 0.07804,0.21679 0.164244,0.28817 0.540589,0.3841 0.867615,0.22114 z m 2.465272,0.007 c 0.336292,-0.16044 0.423636,-0.53638 0.187507,-0.80706 -0.324631,-0.3721 -1.043516,-0.18643 -1.087849,0.28099 -0.04274,0.45058 0.45229,0.73983 0.900342,0.52607 z"
         style="fill:#000000;stroke-width:0.02787763" />
    </g>
  </g>
</svg>
