<?xml version="1.0" encoding="UTF-8" standalone="no"?>
<!-- Created with Inkscape (http://www.inkscape.org/) -->

<svg
   xmlns:dc="http://purl.org/dc/elements/1.1/"
   xmlns:cc="http://creativecommons.org/ns#"
   xmlns:rdf="http://www.w3.org/1999/02/22-rdf-syntax-ns#"
   xmlns:svg="http://www.w3.org/2000/svg"
   xmlns="http://www.w3.org/2000/svg"
   xmlns:sodipodi="http://sodipodi.sourceforge.net/DTD/sodipodi-0.dtd"
   xmlns:inkscape="http://www.inkscape.org/namespaces/inkscape"
   width="71.619362mm"
   height="82.564407mm"
   viewBox="0 0 71.619362 82.564407"
   version="1.1"
   id="svg8"
   inkscape:version="0.92.4 5da689c313, 2019-01-14"
   sodipodi:docname="concluir_reserva.svg">
  <defs
     id="defs2" />
  <sodipodi:namedview
     id="base"
     pagecolor="#ffffff"
     bordercolor="#666666"
     borderopacity="1.0"
     inkscape:pageopacity="0.0"
     inkscape:pageshadow="2"
     inkscape:zoom="1.979899"
     inkscape:cx="107.2115"
     inkscape:cy="94.627172"
     inkscape:document-units="mm"
     inkscape:current-layer="g1518"
     showgrid="false"
     inkscape:window-width="1366"
     inkscape:window-height="705"
     inkscape:window-x="0"
     inkscape:window-y="0"
     inkscape:window-maximized="1" />
  <metadata
     id="metadata5">
    <rdf:RDF>
      <cc:Work
         rdf:about="">
        <dc:format>image/svg+xml</dc:format>
        <dc:type
           rdf:resource="http://purl.org/dc/dcmitype/StillImage" />
        <dc:title></dc:title>
      </cc:Work>
    </rdf:RDF>
  </metadata>
  <g
     inkscape:label="Camada 1"
     inkscape:groupmode="layer"
     id="layer1"
     transform="translate(-13.269023,18.325222)">
    <g
       id="g1518"
       transform="translate(-27.985212,-383.21531)">
      <g
         id="g2270">
        <path
           inkscape:connector-curvature="0"
           id="path896"
           d="m 58.463667,46.711203 c -0.03378,-0.463302 -0.10669,-1.836056 -0.162177,-3.050547 -0.05542,-1.214502 -0.166856,-3.540608 -0.247573,-5.169133 -0.08067,-1.628537 -0.170495,-3.457804 -0.199518,-4.065061 -0.170638,-3.570593 -0.152317,-3.400337 -0.386061,-3.587186 -0.120092,-0.09598 -2.07989,-1.552651 -4.355112,-3.236992 -3.644521,-2.698023 -4.344639,-3.185341 -4.344639,-3.024016 0,0.124584 -2.030415,12.110255 -2.093412,12.357488 l -0.07674,0.301114 -1.499514,0.116528 c -1.428558,0.111007 -4.880525,0.373687 -9.027381,0.686945 -1.048882,0.07925 -3.103991,0.236674 -4.566906,0.349868 -4.793657,0.37091 -5.707014,0.429338 -5.850557,0.374255 -0.107542,-0.04132 -0.171435,-0.473992 -0.264982,-1.794702 -0.0678,-0.957179 -0.186193,-2.483704 -0.263101,-3.392293 -0.109864,-1.297908 -0.113551,-1.668654 -0.01721,-1.729869 0.06745,-0.04285 0.372933,-0.0786 0.678864,-0.07947 0.596163,-0.0011 0.626455,0.0098 4.412153,1.596595 1.076485,0.451354 2.454086,1.02797 3.061334,1.281357 0.607248,0.253388 1.349125,0.568472 1.648617,0.700173 0.299492,0.1317 0.574095,0.204459 0.610229,0.161674 0.03613,-0.04274 0.486293,-1.098608 1.000354,-2.346297 l 0.934656,-2.268521 1.566002,-0.140401 1.566003,-0.140391 0.121764,-0.602228 c 0.06701,-0.331219 0.374343,-2.183082 0.683054,-4.115235 0.888574,-5.561327 0.94722,-5.899138 1.097668,-6.323404 0.68993,-1.945653 6.445135,-17.8717777 6.738105,-18.64605356 0.278377,-0.73572109 0.704643,-0.6801463 -4.995392,-0.65129856 l -5.138574,0.0260165 -0.366916,0.85315622 c -0.367801,0.8552222 -3.905735,8.8875404 -4.28836,9.7360504 -0.112023,0.248414 -0.458086,1.012676 -0.769028,1.698354 -0.429697,0.947537 -0.534453,1.26589 -0.43658,1.326777 0.07082,0.04405 0.490107,0.222584 0.931742,0.39673 0.441635,0.174136 0.844603,0.354929 0.895484,0.401781 0.08365,0.07696 -0.254602,0.978024 -1.008918,2.687539 -0.130826,0.296501 -0.237866,0.573829 -0.237866,0.616297 0,0.04241 0.462964,0.269807 1.028809,0.505201 0.565844,0.235384 1.063807,0.458263 1.106582,0.495298 0.04277,0.03706 -0.02999,0.312373 -0.161682,0.611859 -0.263652,0.59956 -0.814309,1.910979 -1.830173,4.358653 -0.366584,0.883272 -0.845379,2.035039 -1.063989,2.559479 -0.218609,0.524441 -0.593926,1.427783 -0.834039,2.007427 -1.089521,2.630183 -1.344118,3.232444 -1.382819,3.27114 -0.02279,0.02285 -0.557024,-0.177262 -1.187188,-0.444576 -0.630164,-0.267304 -1.552257,-0.653835 -2.049097,-0.85895 -0.49684,-0.205115 -0.993679,-0.413313 -1.104087,-0.462668 -0.11041,-0.0493 -0.652416,-0.275567 -1.204459,-0.502709 -0.552045,-0.227153 -1.410221,-0.584246 -1.907061,-0.793537 -1.180643,-0.497353 -2.78523,-1.167967 -4.466536,-1.866696 -0.745259,-0.309728 -1.396341,-0.603813 -1.446849,-0.653507 -0.05532,-0.05444 0.0123,-0.341155 0.170091,-0.721215 1.130599,-2.723056 1.95598,-4.705121 2.33166,-5.599237 0.243549,-0.579644 0.943942,-2.250834 1.556427,-3.71375 0.612487,-1.462916 1.144968,-2.688502 1.183295,-2.723525 0.03833,-0.03498 0.537256,0.137428 1.108734,0.383208 0.571479,0.245779 1.090902,0.425905 1.154274,0.400272 0.06337,-0.02558 0.406577,-0.751364 0.762678,-1.612741 0.356101,-0.861387 0.700406,-1.566162 0.76512,-1.566162 0.108023,0 0.61231,0.199956 1.412997,0.560274 0.293642,0.132137 0.536874,0.183012 0.536874,0.112297 0,-0.01651 0.218905,-0.524659 0.486455,-1.129183 0.267551,-0.604534 1.153159,-2.6122551 1.968018,-4.4615928 1.455318,-3.3028962 2.444053,-5.5319986 2.93834,-6.62452867 0.137368,-0.30362817 0.635508,-1.43279993 1.106975,-2.50929373 0.471468,-1.0764829 0.906951,-1.9910402 0.967742,-2.0323387 0.06079,-0.04132 3.633568,-0.063839 7.939504,-0.050175 l 7.828984,0.024923 0.752796,0.3175219 c 0.414034,0.1746386 1.181872,0.4839401 1.706312,0.6873172 0.524441,0.2033771 1.348739,0.5234568 1.831782,0.7112787 0.483033,0.1878218 1.29605,0.5033432 1.806684,0.7011453 0.510645,0.197813 1.425279,0.5548953 2.032525,0.7935149 0.607256,0.2386306 1.759023,0.6866832 2.559479,0.99567856 0.800467,0.3089955 1.568305,0.62123746 1.706323,0.69387603 0.204285,0.10756412 6.770812,5.16931951 7.34053,5.65843021 0.14602,0.1253603 0.709486,-0.3276552 5.146418,-4.1375785 2.740338,-2.35308534 5.021124,-4.2636492 5.068413,-4.2456781 0.04733,0.018037 0.833512,0.9050799 1.747162,1.97136386 l 1.661205,1.93871164 -0.369424,0.3274693 c -0.20318,0.1801153 -2.898787,2.4956297 -5.990239,5.1456095 -3.091441,2.6499688 -5.88755,5.0516104 -6.213566,5.3369724 -0.326004,0.285351 -0.638071,0.518833 -0.693471,0.518833 -0.116222,0 0.181263,0.225098 -5.488853,-4.1533627 -2.401391,-1.8543442 -4.414479,-3.3722117 -4.473519,-3.3730206 -0.05903,-7.652e-4 -0.294064,0.393724 -0.522266,0.8767678 -0.228191,0.4830329 -1.099843,2.2784354 -1.937017,3.9897652 -3.837973,7.8455883 -4.810674,9.8628203 -4.810674,9.9766373 0,0.05138 1.614729,1.284932 3.58828,2.741114 1.973561,1.456171 4.252138,3.138314 5.063515,3.738094 l 1.475224,1.090497 0.05258,0.511202 c 0.02886,0.281165 0.07849,1.211299 0.110275,2.066959 0.0317,0.85567 0.100896,2.323603 0.153618,3.262078 0.05269,0.938475 0.163543,3.106504 0.246238,4.817834 0.08275,1.711341 0.217665,4.464731 0.299934,6.118661 0.08231,1.653929 0.116167,3.037276 0.07532,3.074125 -0.04088,0.03684 -1.226035,0.11925 -2.633747,0.183122 -1.407713,0.06384 -2.950099,0.143604 -3.427524,0.177163 l -0.868045,0.061 z M 33.5121,33.056408 c -0.524442,-0.224977 -0.968622,-0.422823 -0.987069,-0.439646 -0.01845,-0.01684 0.170969,-0.519883 0.420923,-1.11788 2.045681,-4.894189 2.834043,-6.785514 3.026248,-7.26013 0.704329,-1.739226 1.784799,-4.277171 1.850363,-4.346377 0.108362,-0.114375 2.113317,0.732835 2.113317,0.89299 0,0.115237 -0.548043,1.454553 -2.357761,5.761927 -0.243533,0.579655 -0.808907,1.934668 -1.256386,3.011151 -1.499215,3.606622 -1.636727,3.914514 -1.746659,3.910753 -0.0602,-0.0022 -0.538534,-0.187821 -1.062976,-0.412788 z M 14.391311,25.076572 c -0.441633,-0.19144 -0.88457,-0.373873 -0.984299,-0.405399 -0.09973,-0.03148 -0.158776,-0.107783 -0.131212,-0.169588 0.02758,-0.06176 1.235221,-2.949651 2.683687,-6.417545 2.086629,-4.995795 2.666278,-6.295332 2.791059,-6.257389 0.08662,0.02634 0.541409,0.208996 1.010646,0.40588 0.728321,0.305606 0.851406,0.391406 0.841174,0.586388 -0.01006,0.192304 -1.259302,3.230411 -3.994012,9.713521 -0.29108,0.69005 -0.680749,1.627268 -0.865933,2.082699 -0.185183,0.455442 -0.384269,0.823893 -0.442417,0.818788 -0.05814,-0.0055 -0.467057,-0.165904 -0.908693,-0.357355 z M 60.287567,-4.1628096 c -2.201271,-0.4025675 -4.221848,-1.9132312 -5.152693,-3.8523586 -0.653026,-1.3603691 -0.778058,-1.9665647 -0.716624,-3.4743758 0.03454,-0.848445 0.112494,-1.43855 0.239079,-1.81068 0.62808,-1.846282 1.974654,-3.409119 3.647473,-4.233243 2.143117,-1.055815 4.178636,-1.055657 6.319075,3.79e-4 0.774133,0.381983 1.111157,0.627389 1.819681,1.324997 0.711038,0.700077 0.951352,1.020334 1.318021,1.756503 0.577884,1.160245 0.793296,2.045191 0.793296,3.259048 0,1.2285151 -0.218156,2.1163348 -0.800423,3.2574436 -0.847866,1.6616033 -2.460573,3.0041325 -4.281435,3.5641327 -0.789142,0.242697 -2.415197,0.3488947 -3.18545,0.2080338 z"
           style="fill:#000000;stroke-width:0.10037158"
           transform="translate(27.985212,383.21531)" />
        <text
           transform="scale(0.99550053,1.0045198)"
           id="text1489"
           y="435.25134"
           x="60.384861"
           style="font-style:normal;font-variant:normal;font-weight:normal;font-stretch:normal;font-size:7.80571985px;line-height:0;font-family:Calibri;-inkscape-font-specification:Calibri;letter-spacing:0px;word-spacing:0px;fill:#000000;fill-opacity:1;stroke:none;stroke-width:0.26458326"
           xml:space="preserve"><tspan
             style="font-style:normal;font-variant:normal;font-weight:normal;font-stretch:normal;font-family:Calibri;-inkscape-font-specification:Calibri;stroke-width:0.26458326"
             y="437.20276"
             x="60.384861"
             id="tspan1483"
             sodipodi:role="line" /><tspan
             id="tspan1485"
             style="font-style:normal;font-variant:normal;font-weight:normal;font-stretch:normal;font-family:Calibri;-inkscape-font-specification:Calibri;stroke-width:0.26458326"
             y="437.20276"
             x="60.384861"
             sodipodi:role="line">ENCERRAR </tspan><tspan
             id="tspan1487"
             style="font-style:normal;font-variant:normal;font-weight:normal;font-stretch:normal;font-family:Calibri;-inkscape-font-specification:Calibri;stroke-width:0.26458326"
             y="437.20276"
             x="60.384861"
             sodipodi:role="line">               </tspan></text>
        <text
           transform="scale(0.99550053,1.0045198)"
           xml:space="preserve"
           style="font-style:normal;font-variant:normal;font-weight:normal;font-stretch:normal;font-size:7.80571985px;line-height:0;font-family:Calibri;-inkscape-font-specification:Calibri;letter-spacing:0px;word-spacing:0px;fill:#000000;fill-opacity:1;stroke:none;stroke-width:0.26458326"
           x="62.082836"
           y="442.0986"
           id="text1497"><tspan
             sodipodi:role="line"
             id="tspan1491"
             x="62.082836"
             y="444.05002"
             style="font-style:normal;font-variant:normal;font-weight:normal;font-stretch:normal;font-family:Calibri;-inkscape-font-specification:Calibri;stroke-width:0.26458326" /><tspan
             sodipodi:role="line"
             x="62.082836"
             y="444.05002"
             style="font-style:normal;font-variant:normal;font-weight:normal;font-stretch:normal;font-family:Calibri;-inkscape-font-specification:Calibri;stroke-width:0.26458326"
             id="tspan1493">LOCAÇÃO </tspan><tspan
             sodipodi:role="line"
             x="62.082836"
             y="444.05002"
             style="font-style:normal;font-variant:normal;font-weight:normal;font-stretch:normal;font-family:Calibri;-inkscape-font-specification:Calibri;stroke-width:0.26458326"
             id="tspan1495">               </tspan></text>
      </g>
    </g>
  </g>
</svg>
