<?xml version="1.0" encoding="UTF-8" standalone="no"?>
<!-- Created with Inkscape (http://www.inkscape.org/) -->

<svg
   xmlns:dc="http://purl.org/dc/elements/1.1/"
   xmlns:cc="http://creativecommons.org/ns#"
   xmlns:rdf="http://www.w3.org/1999/02/22-rdf-syntax-ns#"
   xmlns:svg="http://www.w3.org/2000/svg"
   xmlns="http://www.w3.org/2000/svg"
   xmlns:sodipodi="http://sodipodi.sourceforge.net/DTD/sodipodi-0.dtd"
   xmlns:inkscape="http://www.inkscape.org/namespaces/inkscape"
   width="71.619362mm"
   height="82.564407mm"
   viewBox="0 0 71.619362 82.564407"
   version="1.1"
   id="svg8"
   inkscape:version="0.92.4 5da689c313, 2019-01-14"
   sodipodi:docname="concluir_reserva.svg">
  <defs
     id="defs2" />
  <sodipodi:namedview
     id="base"
     pagecolor="#ffffff"
     bordercolor="#666666"
     borderopacity="1.0"
     inkscape:pageopacity="0.0"
     inkscape:pageshadow="2"
     inkscape:zoom="0.9899495"
     inkscape:cx="143.13701"
     inkscape:cy="55.395503"
     inkscape:document-units="mm"
     inkscape:current-layer="g1518"
     showgrid="false"
     inkscape:window-width="1366"
     inkscape:window-height="705"
     inkscape:window-x="0"
     inkscape:window-y="0"
     inkscape:window-maximized="1"
     showguides="true"
     inkscape:guide-bbox="true">
    <sodipodi:guide
       position="11.339286,82.398811"
       orientation="0,1"
       id="guide6091"
       inkscape:locked="false" />
    <sodipodi:guide
       position="-2.8348215,0"
       orientation="0,1"
       id="guide6093"
       inkscape:locked="false" />
  </sodipodi:namedview>
  <metadata
     id="metadata5">
    <rdf:RDF>
      <cc:Work
         rdf:about="">
        <dc:format>image/svg+xml</dc:format>
        <dc:type
           rdf:resource="http://purl.org/dc/dcmitype/StillImage" />
        <dc:title />
      </cc:Work>
    </rdf:RDF>
  </metadata>
  <g
     inkscape:label="Camada 1"
     inkscape:groupmode="layer"
     id="layer1"
     transform="translate(-13.269023,18.325222)">
    <g
       id="g1518"
       transform="translate(-27.985212,-383.21531)">
      <g
         id="g6153">
        <g
           id="g6137">
          <path
             style="fill:#000000;stroke-width:0.06965706"
             d="m 83.577004,409.93756 c -0.02344,-0.32153 -0.07404,-1.2742 -0.112549,-2.11705 -0.03846,-0.84286 -0.115796,-2.45716 -0.171814,-3.58734 -0.05598,-1.13019 -0.118322,-2.39969 -0.138464,-2.82112 -0.118421,-2.47796 -0.105711,-2.35981 -0.267923,-2.48947 -0.08335,-0.0666 -1.443427,-1.07753 -3.022412,-2.24645 -2.529269,-1.87241 -3.015146,-2.21061 -3.015146,-2.09864 0,0.0865 -1.409091,8.40442 -1.45281,8.576 l -0.05326,0.20896 -1.04065,0.0808 c -0.991407,0.0771 -3.387045,0.25933 -6.264929,0.47673 -0.727916,0.0551 -2.154145,0.16426 -3.169397,0.24281 -3.326759,0.25741 -3.960621,0.29795 -4.06024,0.25973 -0.07464,-0.0286 -0.118974,-0.32895 -0.183895,-1.24551 -0.04706,-0.66428 -0.129216,-1.72367 -0.18259,-2.35423 -0.07624,-0.90074 -0.07881,-1.15802 -0.01194,-1.20051 0.04681,-0.0297 0.258813,-0.0545 0.471127,-0.0552 0.413732,-7e-4 0.434755,0.006 3.061999,1.10803 0.747071,0.31323 1.703116,0.7134 2.124541,0.88924 0.421425,0.17585 0.936282,0.39453 1.144127,0.48592 0.207845,0.0914 0.398417,0.1419 0.423494,0.1122 0.02508,-0.0296 0.337483,-0.76242 0.694238,-1.62832 l 0.648643,-1.57433 1.086793,-0.0974 1.086793,-0.0974 0.0845,-0.41795 c 0.0465,-0.22987 0.259791,-1.51505 0.474033,-2.85594 0.616664,-3.85952 0.657364,-4.09395 0.761774,-4.38839 0.478805,-1.35027 4.472872,-12.40287 4.67619,-12.94021 0.193192,-0.51059 0.489016,-0.47202 -3.466762,-0.452 l -3.566128,0.0181 -0.254637,0.59207 c -0.255251,0.59353 -2.710549,6.16789 -2.976087,6.75675 -0.07775,0.17239 -0.317909,0.70279 -0.5337,1.17864 -0.298206,0.65758 -0.370906,0.87852 -0.302984,0.92078 0.04915,0.0306 0.340131,0.15447 0.646622,0.27532 0.306492,0.12085 0.586148,0.24632 0.621459,0.27884 0.05806,0.0534 -0.176692,0.67873 -0.700181,1.86513 -0.09079,0.20577 -0.165077,0.39823 -0.165077,0.4277 0,0.0294 0.321293,0.18724 0.713985,0.3506 0.392692,0.16336 0.738273,0.31804 0.767959,0.34374 0.02969,0.0258 -0.02081,0.21678 -0.112205,0.42462 -0.182973,0.41609 -0.565124,1.32621 -1.270127,3.02487 -0.254406,0.61299 -0.586685,1.4123 -0.738399,1.77626 -0.151712,0.36395 -0.41218,0.99088 -0.578816,1.39314 -0.756119,1.82533 -0.932807,2.24329 -0.959665,2.27014 -0.01582,0.0159 -0.386571,-0.12301 -0.8239,-0.30853 -0.437328,-0.18551 -1.077253,-0.45375 -1.422057,-0.5961 -0.344802,-0.14235 -0.689604,-0.28684 -0.766226,-0.32108 -0.07662,-0.0342 -0.452773,-0.19125 -0.835886,-0.34889 -0.383115,-0.15764 -0.978682,-0.40546 -1.323484,-0.5507 -0.819358,-0.34516 -1.932928,-0.81056 -3.09974,-1.29547 -0.517204,-0.21496 -0.96905,-0.41904 -1.004103,-0.45353 -0.03839,-0.0377 0.0086,-0.23677 0.118042,-0.50053 0.784627,-1.88977 1.357434,-3.26531 1.618154,-3.88582 0.16902,-0.40227 0.655088,-1.56206 1.080147,-2.57732 0.425062,-1.01524 0.794599,-1.86579 0.821198,-1.89009 0.0266,-0.0243 0.372851,0.0953 0.769452,0.26594 0.396602,0.17056 0.757078,0.29557 0.801058,0.27778 0.04398,-0.0177 0.282161,-0.52143 0.529291,-1.11923 0.247131,-0.59779 0.486077,-1.08689 0.530988,-1.08689 0.07497,0 0.424938,0.13876 0.980608,0.38882 0.203785,0.0917 0.372586,0.127 0.372586,0.0779 0,-0.0114 0.151919,-0.36412 0.337597,-0.78366 0.185678,-0.41953 0.800282,-1.81288 1.365788,-3.09631 1.009979,-2.29218 1.696153,-3.83916 2.039184,-4.59737 0.09533,-0.2107 0.441037,-0.99435 0.768233,-1.74143 0.327194,-0.74706 0.629415,-1.38176 0.671605,-1.41042 0.04219,-0.0287 2.521666,-0.0443 5.509951,-0.0349 l 5.433252,0.0173 0.522434,0.22036 c 0.287337,0.1212 0.82021,0.33585 1.184168,0.47699 0.363957,0.14115 0.936013,0.36327 1.271241,0.49363 0.335221,0.13034 0.899448,0.34931 1.253824,0.48658 0.354384,0.13729 0.989133,0.3851 1.410556,0.55069 0.421431,0.16561 1.220748,0.47656 1.776259,0.691 0.555517,0.21444 1.08839,0.43113 1.184174,0.48155 0.141772,0.0746 4.698889,3.58746 5.094269,3.9269 0.101339,0.087 0.492377,-0.22739 3.571572,-2.87145 1.901774,-1.63302 3.484624,-2.95894 3.517434,-2.94646 0.0328,0.0125 0.578457,0.62811 1.212527,1.3681 l 1.15286,1.34545 -0.25638,0.22727 c -0.141,0.125 -2.011727,1.73195 -4.157176,3.57101 -2.145435,1.83906 -4.085913,3.50578 -4.312168,3.70381 -0.226244,0.19803 -0.442816,0.36007 -0.481263,0.36007 -0.08065,0 0.125796,0.15622 -3.80922,-2.8824 -1.666546,-1.2869 -3.063612,-2.34029 -3.104586,-2.34084 -0.04096,-5.4e-4 -0.204078,0.27324 -0.362448,0.60846 -0.158363,0.33522 -0.763282,1.58121 -1.344274,2.76887 -2.663523,5.44478 -3.33857,6.84471 -3.33857,6.9237 0,0.0357 1.120609,0.89173 2.490238,1.90232 1.369636,1.01057 2.95095,2.17796 3.514039,2.5942 l 1.023794,0.7568 0.0365,0.35476 c 0.02003,0.19513 0.05447,0.84064 0.07653,1.43447 0.022,0.59382 0.07002,1.61255 0.106609,2.26385 0.03657,0.65129 0.113498,2.15588 0.170887,3.34354 0.05743,1.18765 0.151059,3.09849 0.208153,4.24629 0.05713,1.14782 0.08062,2.10786 0.05227,2.13343 -0.02837,0.0255 -0.850858,0.0827 -1.8278,0.12708 -0.97694,0.0443 -2.047344,0.0996 -2.378674,0.12295 l -0.602415,0.0423 z m -17.316186,-9.47632 c -0.363959,-0.15613 -0.672217,-0.29343 -0.685019,-0.3051 -0.01281,-0.0117 0.118651,-0.3608 0.292118,-0.77581 1.419686,-3.39653 1.966803,-4.70908 2.100191,-5.03847 0.488799,-1.207 1.238636,-2.96833 1.284137,-3.01635 0.0752,-0.0794 1.466625,0.50858 1.466625,0.61973 0,0.08 -0.380337,1.00945 -1.636266,3.99873 -0.169011,0.40228 -0.561375,1.34264 -0.871922,2.08971 -1.040444,2.50297 -1.135876,2.71665 -1.212168,2.71404 -0.04178,-0.001 -0.373738,-0.13035 -0.737696,-0.28648 z M 52.991144,394.9233 c -0.30649,-0.13286 -0.613884,-0.25946 -0.683096,-0.28134 -0.06922,-0.0218 -0.110189,-0.0748 -0.09107,-0.1177 0.01915,-0.0429 0.857234,-2.04703 1.862458,-4.45371 1.448104,-3.46705 1.850376,-4.36892 1.936972,-4.34259 0.06011,0.0183 0.375734,0.14505 0.701381,0.28169 0.505448,0.21208 0.590868,0.27162 0.583767,0.40695 -0.0069,0.13345 -0.873945,2.24187 -2.771811,6.74109 -0.202008,0.47889 -0.472436,1.12931 -0.600951,1.44538 -0.128516,0.31607 -0.26668,0.57177 -0.307035,0.56824 -0.04035,-0.004 -0.324133,-0.11514 -0.630624,-0.24801 z m 31.851632,-20.2919 c -1.527664,-0.27937 -2.929928,-1.32776 -3.575928,-2.6735 -0.453194,-0.94409 -0.539965,-1.36478 -0.49733,-2.41119 0.02397,-0.58881 0.07807,-0.99834 0.165918,-1.25659 0.435883,-1.28131 1.370394,-2.3659 2.531317,-2.93785 1.487306,-0.73272 2.89994,-0.73261 4.385388,2.7e-4 0.537242,0.2651 0.771134,0.43541 1.262844,0.91954 0.493454,0.48585 0.66023,0.7081 0.914695,1.219 0.401048,0.8052 0.550541,1.41934 0.550541,2.26175 0,0.85259 -0.151398,1.46871 -0.555486,2.26064 -0.588413,1.15315 -1.707619,2.08485 -2.971282,2.47348 -0.547658,0.16843 -1.676127,0.24213 -2.210677,0.14437 z"
             id="path896"
             inkscape:connector-curvature="0" />
          <g
             id="g6125"
             transform="matrix(1.2273594,0,0,1.2273594,-17.521208,-101.733)">
            <text
               transform="scale(0.99550053,1.0045198)"
               id="text1489"
               y="435.25134"
               x="60.384861"
               style="font-style:normal;font-variant:normal;font-weight:normal;font-stretch:normal;font-size:7.80571985px;line-height:0;font-family:Calibri;-inkscape-font-specification:Calibri;letter-spacing:0px;word-spacing:0px;fill:#000000;fill-opacity:1;stroke:none;stroke-width:0.26458326"
               xml:space="preserve"><tspan
                 style="font-style:normal;font-variant:normal;font-weight:normal;font-stretch:normal;font-family:Calibri;-inkscape-font-specification:Calibri;stroke-width:0.26458326"
                 y="437.20276"
                 x="60.384861"
                 id="tspan1483"
                 sodipodi:role="line" /><tspan
                 id="tspan1485"
                 style="font-style:normal;font-variant:normal;font-weight:normal;font-stretch:normal;font-family:Calibri;-inkscape-font-specification:Calibri;stroke-width:0.26458326"
                 y="437.20276"
                 x="60.384861"
                 sodipodi:role="line">ENCERRAR </tspan><tspan
                 id="tspan1487"
                 style="font-style:normal;font-variant:normal;font-weight:normal;font-stretch:normal;font-family:Calibri;-inkscape-font-specification:Calibri;stroke-width:0.26458326"
                 y="437.20276"
                 x="60.384861"
                 sodipodi:role="line">               </tspan></text>
            <text
               transform="scale(0.99550053,1.0045198)"
               xml:space="preserve"
               style="font-style:normal;font-variant:normal;font-weight:normal;font-stretch:normal;font-size:7.80571985px;line-height:0;font-family:Calibri;-inkscape-font-specification:Calibri;letter-spacing:0px;word-spacing:0px;fill:#000000;fill-opacity:1;stroke:none;stroke-width:0.26458326"
               x="62.082836"
               y="442.0986"
               id="text1497"><tspan
                 sodipodi:role="line"
                 id="tspan1491"
                 x="62.082836"
                 y="444.05002"
                 style="font-style:normal;font-variant:normal;font-weight:normal;font-stretch:normal;font-family:Calibri;-inkscape-font-specification:Calibri;stroke-width:0.26458326" /><tspan
                 sodipodi:role="line"
                 x="62.082836"
                 y="444.05002"
                 style="font-style:normal;font-variant:normal;font-weight:normal;font-stretch:normal;font-family:Calibri;-inkscape-font-specification:Calibri;stroke-width:0.26458326"
                 id="tspan1493">LOCAÇÃO </tspan><tspan
                 sodipodi:role="line"
                 x="62.082836"
                 y="444.05002"
                 style="font-style:normal;font-variant:normal;font-weight:normal;font-stretch:normal;font-family:Calibri;-inkscape-font-specification:Calibri;stroke-width:0.26458326"
                 id="tspan1495">               </tspan></text>
          </g>
        </g>
        <rect
           ry="5.879941"
           y="365.05569"
           x="41.521503"
           height="82.398804"
           width="71.628235"
           id="rect6139"
           style="opacity:1;fill:none;fill-opacity:1;stroke:none;stroke-width:2.9849999;stroke-linecap:round;stroke-linejoin:bevel;stroke-miterlimit:1.79999995;stroke-dasharray:none;stroke-opacity:1;paint-order:markers fill stroke" />
      </g>
    </g>
  </g>
</svg>
