<?xml version="1.0" encoding="UTF-8" standalone="no"?>
<!-- Created with Inkscape (http://www.inkscape.org/) -->

<svg
   xmlns:dc="http://purl.org/dc/elements/1.1/"
   xmlns:cc="http://creativecommons.org/ns#"
   xmlns:rdf="http://www.w3.org/1999/02/22-rdf-syntax-ns#"
   xmlns:svg="http://www.w3.org/2000/svg"
   xmlns="http://www.w3.org/2000/svg"
   xmlns:sodipodi="http://sodipodi.sourceforge.net/DTD/sodipodi-0.dtd"
   xmlns:inkscape="http://www.inkscape.org/namespaces/inkscape"
   width="238.125mm"
   height="132.29167mm"
   viewBox="0 0 238.125 132.29167"
   version="1.1"
   id="svg9497"
   inkscape:version="0.92.4 5da689c313, 2019-01-14"
   sodipodi:docname="coolbag_inicial.svg">
  <defs
     id="defs9491">
    <clipPath
       clipPathUnits="userSpaceOnUse"
       id="clipPath14035">
      <rect
         style="fill:#000000;fill-opacity:1;stroke:none;stroke-width:1.45708346;stroke-linecap:round;stroke-linejoin:bevel;stroke-miterlimit:4;stroke-dasharray:none;stroke-opacity:1;paint-order:stroke fill markers"
         id="rect14037"
         width="270.93329"
         height="131.53572"
         x="-311.95538"
         y="64.998215" />
    </clipPath>
  </defs>
  <sodipodi:namedview
     id="base"
     pagecolor="#ffffff"
     bordercolor="#666666"
     borderopacity="1.0"
     inkscape:pageopacity="0.0"
     inkscape:pageshadow="2"
     inkscape:zoom="0.49497474"
     inkscape:cx="455.88276"
     inkscape:cy="279.30466"
     inkscape:document-units="mm"
     inkscape:current-layer="layer1"
     showgrid="false"
     inkscape:window-width="1366"
     inkscape:window-height="705"
     inkscape:window-x="0"
     inkscape:window-y="0"
     inkscape:window-maximized="1"
     showguides="false" />
  <metadata
     id="metadata9494">
    <rdf:RDF>
      <cc:Work
         rdf:about="">
        <dc:format>image/svg+xml</dc:format>
        <dc:type
           rdf:resource="http://purl.org/dc/dcmitype/StillImage" />
        <dc:title />
      </cc:Work>
    </rdf:RDF>
  </metadata>
  <g
     inkscape:label="Camada 1"
     inkscape:groupmode="layer"
     id="layer1"
     transform="translate(-34.476833,-65.845888)">
    <g
       id="g2012">
      <path
         inkscape:connector-curvature="0"
         d="M 34.476835,65.845888 H 272.60183 c 0,0 0,10e-7 0,3e-6 V 198.13756 c 0,0 0,0 0,0 H 34.476835 c 0,0 -2e-6,0 -2e-6,0 V 65.845891 c 0,-2e-6 2e-6,-3e-6 2e-6,-3e-6 z"
         style="opacity:1;fill:#fdcf03;fill-opacity:1;stroke:none;stroke-width:6.63593483;stroke-linecap:round;stroke-linejoin:round;stroke-miterlimit:4;stroke-dasharray:none;paint-order:stroke fill markers"
         id="rect2107" />
      <g
         aria-label="Toque na tela"
         style="font-style:normal;font-variant:normal;font-weight:normal;font-stretch:normal;font-size:11.28888893px;line-height:1.25;font-family:Calibri;-inkscape-font-specification:Calibri;text-align:center;letter-spacing:0px;word-spacing:0px;text-anchor:middle;fill:#000000;fill-opacity:1;stroke:none;stroke-width:0.26458332"
         id="text2111">
        <path
           d="m 128.50589,111.05761 q 0,0.10473 -0.011,0.1819 -0.011,0.0772 -0.0386,0.12678 -0.022,0.0441 -0.0606,0.0661 -0.0331,0.0221 -0.0772,0.0221 h -2.00642 v 6.18463 q 0,0.0441 -0.022,0.0772 -0.0221,0.0331 -0.0772,0.0551 -0.0551,0.0165 -0.14883,0.0276 -0.0882,0.0165 -0.226,0.0165 -0.13229,0 -0.22599,-0.0165 -0.0937,-0.011 -0.14883,-0.0276 -0.0551,-0.0221 -0.0772,-0.0551 -0.022,-0.0331 -0.022,-0.0772 v -6.18463 h -2.00642 q -0.0441,0 -0.0827,-0.0221 -0.0331,-0.022 -0.0551,-0.0661 -0.022,-0.0496 -0.0386,-0.12678 -0.011,-0.0772 -0.011,-0.1819 0,-0.10473 0.011,-0.1819 0.0165,-0.0827 0.0386,-0.13229 0.0221,-0.0496 0.0551,-0.0717 0.0386,-0.0221 0.0827,-0.0221 h 4.96093 q 0.0441,0 0.0772,0.0221 0.0386,0.022 0.0606,0.0717 0.0276,0.0496 0.0386,0.13229 0.011,0.0772 0.011,0.1819 z"
           style="font-size:11.28888893px;text-align:start;text-anchor:start;stroke-width:0.26458332"
           id="path2014"
           inkscape:connector-curvature="0" />
        <path
           d="m 133.04239,115.10905 q 0,0.60633 -0.15985,1.11896 -0.15986,0.50712 -0.47956,0.87644 -0.31419,0.36931 -0.79375,0.57877 -0.47405,0.20395 -1.10243,0.20395 -0.61185,0 -1.06936,-0.1819 -0.452,-0.1819 -0.75516,-0.52917 -0.30317,-0.34726 -0.452,-0.84336 -0.14883,-0.49609 -0.14883,-1.12448 0,-0.60633 0.15434,-1.11345 0.15985,-0.51263 0.47405,-0.88194 0.3197,-0.36932 0.79375,-0.57327 0.47404,-0.20395 1.10794,-0.20395 0.61185,0 1.06384,0.1819 0.45751,0.1819 0.76068,0.52917 0.30317,0.34727 0.452,0.84336 0.15434,0.49609 0.15434,1.11897 z m -0.95912,0.0606 q 0,-0.40239 -0.0772,-0.76068 -0.0717,-0.35829 -0.24253,-0.62838 -0.17088,-0.2701 -0.46302,-0.42444 -0.29215,-0.15985 -0.72761,-0.15985 -0.40238,0 -0.69453,0.14332 -0.28663,0.14331 -0.47404,0.40789 -0.18742,0.25908 -0.28112,0.61737 -0.0882,0.35829 -0.0882,0.78272 0,0.4079 0.0717,0.76619 0.0772,0.35829 0.24805,0.62839 0.17639,0.26458 0.46853,0.42443 0.29215,0.15434 0.72761,0.15434 0.39687,0 0.68901,-0.14331 0.29215,-0.14332 0.47956,-0.40239 0.18741,-0.25907 0.27561,-0.61736 0.0882,-0.35829 0.0882,-0.78824 z"
           style="font-size:11.28888893px;text-align:start;text-anchor:start;stroke-width:0.26458332"
           id="path2016"
           inkscape:connector-curvature="0" />
        <path
           d="m 138.63171,119.61247 q 0,0.0441 -0.0276,0.0772 -0.0221,0.0331 -0.0717,0.0551 -0.0496,0.022 -0.1378,0.0331 -0.0882,0.011 -0.22049,0.011 -0.1378,0 -0.226,-0.011 -0.0827,-0.011 -0.1378,-0.0331 -0.0551,-0.0221 -0.0772,-0.0551 -0.0165,-0.0331 -0.0165,-0.0772 v -2.5411 q -0.22599,0.226 -0.42994,0.38585 -0.20395,0.15434 -0.40239,0.25356 -0.19844,0.0937 -0.40239,0.13229 -0.19844,0.0441 -0.41341,0.0441 -0.54019,0 -0.92053,-0.20946 -0.38034,-0.21497 -0.62287,-0.57326 -0.23702,-0.36381 -0.34727,-0.84888 -0.11024,-0.49058 -0.11024,-1.03077 0,-0.63941 0.1378,-1.15204 0.13781,-0.51814 0.4079,-0.88194 0.27561,-0.36381 0.67249,-0.55673 0.40238,-0.19844 0.92604,-0.19844 0.22048,0 0.41341,0.0496 0.19292,0.0441 0.38034,0.14883 0.19292,0.0992 0.38585,0.26458 0.19843,0.15986 0.42995,0.38585 v -0.60082 q 0,-0.0496 0.022,-0.0772 0.0221,-0.0331 0.0717,-0.0551 0.0496,-0.0221 0.12678,-0.0276 0.0772,-0.011 0.19293,-0.011 0.11024,0 0.18741,0.011 0.0772,0.006 0.12127,0.0276 0.0496,0.022 0.0661,0.0551 0.0221,0.0276 0.0221,0.0772 z m -0.91502,-5.45703 q -0.36931,-0.45751 -0.71658,-0.69453 -0.34175,-0.24253 -0.71658,-0.24253 -0.34726,0 -0.5898,0.16536 -0.24253,0.16537 -0.39687,0.43546 -0.14883,0.2701 -0.22049,0.61185 -0.0661,0.34175 -0.0661,0.69453 0,0.38034 0.0551,0.73863 0.0606,0.35829 0.20395,0.6339 0.14331,0.27561 0.38034,0.44648 0.23702,0.16537 0.59531,0.16537 0.1819,0 0.34727,-0.0496 0.17087,-0.0496 0.34726,-0.16537 0.17639,-0.11575 0.36932,-0.29765 0.19292,-0.18742 0.40789,-0.45751 z"
           style="font-size:11.28888893px;text-align:start;text-anchor:start;stroke-width:0.26458332"
           id="path2018"
           inkscape:connector-curvature="0" />
        <path
           d="m 144.56279,117.64464 q 0,0.0441 -0.0221,0.0772 -0.0165,0.0276 -0.0661,0.0496 -0.0496,0.022 -0.13229,0.0331 -0.0772,0.011 -0.19292,0.011 -0.12678,0 -0.20947,-0.011 -0.0772,-0.011 -0.12677,-0.0331 -0.0441,-0.0221 -0.0606,-0.0496 -0.0165,-0.0331 -0.0165,-0.0772 v -0.65595 q -0.42443,0.46853 -0.83784,0.68351 -0.41341,0.21497 -0.83785,0.21497 -0.49609,0 -0.83785,-0.16536 -0.33624,-0.16537 -0.5457,-0.44649 -0.20946,-0.28663 -0.30317,-0.66146 -0.0882,-0.38033 -0.0882,-0.92053 v -3.00963 q 0,-0.0441 0.0165,-0.0717 0.0221,-0.0331 0.0772,-0.0551 0.0551,-0.0276 0.14332,-0.0331 0.0882,-0.011 0.22049,-0.011 0.13229,0 0.22048,0.011 0.0882,0.006 0.13781,0.0331 0.0551,0.022 0.0772,0.0551 0.022,0.0276 0.022,0.0717 v 2.88837 q 0,0.43546 0.0606,0.70004 0.0661,0.25907 0.19292,0.44648 0.1323,0.18191 0.33073,0.28664 0.19844,0.0992 0.46302,0.0992 0.34176,0 0.678,-0.24254 0.34175,-0.24253 0.72209,-0.71107 v -3.46714 q 0,-0.0441 0.0165,-0.0717 0.0221,-0.0331 0.0772,-0.0551 0.0551,-0.0276 0.1378,-0.0331 0.0882,-0.011 0.226,-0.011 0.13229,0 0.22049,0.011 0.0882,0.006 0.1378,0.0331 0.0496,0.022 0.0717,0.0551 0.0276,0.0276 0.0276,0.0717 z"
           style="font-size:11.28888893px;text-align:start;text-anchor:start;stroke-width:0.26458332"
           id="path2020"
           inkscape:connector-curvature="0" />
        <path
           d="m 150.47733,114.94919 q 0,0.21498 -0.11025,0.30868 -0.10473,0.0882 -0.24253,0.0882 h -3.25217 q 0,0.41341 0.0827,0.74414 0.0827,0.33073 0.27561,0.56775 0.19292,0.23702 0.50161,0.3638 0.30868,0.12678 0.75516,0.12678 0.35278,0 0.62839,-0.0551 0.2756,-0.0606 0.47404,-0.13229 0.20395,-0.0717 0.33073,-0.12678 0.13229,-0.0606 0.19844,-0.0606 0.0386,0 0.0661,0.022 0.0331,0.0165 0.0496,0.0551 0.0165,0.0386 0.0221,0.11024 0.011,0.0662 0.011,0.16536 0,0.0717 -0.006,0.12678 -0.006,0.0496 -0.0165,0.0937 -0.006,0.0386 -0.0276,0.0717 -0.0165,0.0331 -0.0496,0.0661 -0.0276,0.0276 -0.17639,0.0992 -0.14883,0.0661 -0.38585,0.13229 -0.23703,0.0661 -0.55122,0.11576 -0.30868,0.0551 -0.66146,0.0551 -0.61185,0 -1.07487,-0.17088 -0.4575,-0.17087 -0.7717,-0.50711 -0.31419,-0.33625 -0.47404,-0.84336 -0.15986,-0.50712 -0.15986,-1.1796 0,-0.63941 0.16537,-1.14653 0.16536,-0.51263 0.47404,-0.86541 0.3142,-0.35829 0.75517,-0.5457 0.44097,-0.19293 0.98667,-0.19293 0.58429,0 0.99219,0.18742 0.41341,0.18741 0.678,0.50711 0.26458,0.3142 0.38585,0.74414 0.12678,0.42444 0.12678,0.90951 z m -0.91502,-0.27009 q 0.0165,-0.71658 -0.3197,-1.12448 -0.33073,-0.4079 -0.98668,-0.4079 -0.33624,0 -0.5898,0.12678 -0.25356,0.12678 -0.42444,0.33624 -0.17087,0.20946 -0.26458,0.49058 -0.0937,0.27561 -0.10473,0.57878 z"
           style="font-size:11.28888893px;text-align:start;text-anchor:start;stroke-width:0.26458332"
           id="path2022"
           inkscape:connector-curvature="0" />
        <path
           d="m 158.68492,117.64464 q 0,0.0441 -0.0221,0.0772 -0.022,0.0276 -0.0717,0.0496 -0.0496,0.022 -0.13781,0.0331 -0.0882,0.011 -0.22048,0.011 -0.13781,0 -0.226,-0.011 -0.0882,-0.011 -0.13781,-0.0331 -0.0496,-0.0221 -0.0717,-0.0496 -0.0221,-0.0331 -0.0221,-0.0772 v -2.90491 q 0,-0.42443 -0.0661,-0.68351 -0.0661,-0.25907 -0.19292,-0.44648 -0.12678,-0.18741 -0.33073,-0.28663 -0.19844,-0.0992 -0.46302,-0.0992 -0.34176,0 -0.68351,0.24253 -0.34175,0.24254 -0.71658,0.71107 v 3.46715 q 0,0.0441 -0.0221,0.0772 -0.022,0.0276 -0.0717,0.0496 -0.0496,0.022 -0.1378,0.0331 -0.0882,0.011 -0.226,0.011 -0.13229,0 -0.22049,-0.011 -0.0882,-0.011 -0.14331,-0.0331 -0.0496,-0.0221 -0.0717,-0.0496 -0.0165,-0.0331 -0.0165,-0.0772 v -4.96094 q 0,-0.0441 0.0165,-0.0717 0.0165,-0.0331 0.0661,-0.0551 0.0496,-0.0276 0.12678,-0.0331 0.0772,-0.011 0.20395,-0.011 0.12126,0 0.19843,0.011 0.0827,0.006 0.12678,0.0331 0.0441,0.022 0.0606,0.0551 0.0221,0.0276 0.0221,0.0717 v 0.65595 q 0.41892,-0.46854 0.83233,-0.68351 0.41892,-0.22049 0.84336,-0.22049 0.49609,0 0.83233,0.17088 0.34176,0.16536 0.55122,0.44648 0.20946,0.28112 0.29766,0.66146 0.0937,0.37483 0.0937,0.90399 z"
           style="font-size:11.28888893px;text-align:start;text-anchor:start;stroke-width:0.26458332"
           id="path2024"
           inkscape:connector-curvature="0" />
        <path
           d="m 164.08132,117.65015 q 0,0.0661 -0.0441,0.0992 -0.0441,0.0331 -0.12126,0.0496 -0.0772,0.0165 -0.226,0.0165 -0.14332,0 -0.23151,-0.0165 -0.0827,-0.0165 -0.12127,-0.0496 -0.0386,-0.0331 -0.0386,-0.0992 v -0.4961 q -0.32521,0.34727 -0.7276,0.5402 -0.39687,0.19292 -0.84336,0.19292 -0.39136,0 -0.71107,-0.10473 -0.31419,-0.0992 -0.54019,-0.29214 -0.22048,-0.19293 -0.34726,-0.47405 -0.12127,-0.28112 -0.12127,-0.63941 0,-0.41892 0.17088,-0.7276 0.17087,-0.30868 0.49058,-0.51263 0.3197,-0.20395 0.78272,-0.30317 0.46302,-0.10473 1.0418,-0.10473 h 0.68351 v -0.38585 q 0,-0.28664 -0.0606,-0.50712 -0.0606,-0.22049 -0.19843,-0.3638 -0.1323,-0.14883 -0.34727,-0.22049 -0.21497,-0.0772 -0.52917,-0.0772 -0.33624,0 -0.60633,0.0827 -0.26459,0.0772 -0.46854,0.17639 -0.19843,0.0937 -0.33624,0.17639 -0.13229,0.0772 -0.19844,0.0772 -0.0441,0 -0.0772,-0.022 -0.0331,-0.0221 -0.0606,-0.0661 -0.022,-0.0441 -0.0331,-0.11025 -0.011,-0.0717 -0.011,-0.15434 0,-0.1378 0.0165,-0.21497 0.0221,-0.0827 0.0937,-0.15434 0.0772,-0.0717 0.25907,-0.16537 0.1819,-0.0992 0.41892,-0.17638 0.23702,-0.0827 0.51814,-0.1323 0.28112,-0.0551 0.56776,-0.0551 0.53467,0 0.9095,0.12127 0.37483,0.12127 0.60634,0.35829 0.23151,0.23151 0.33624,0.57878 0.10473,0.34726 0.10473,0.81028 z m -0.90399,-2.2655 h -0.77722 q -0.37482,0 -0.65043,0.0662 -0.27561,0.0606 -0.45751,0.18741 -0.1819,0.12127 -0.27009,0.29766 -0.0827,0.17088 -0.0827,0.39687 0,0.38585 0.24254,0.61737 0.24804,0.22599 0.68902,0.22599 0.35829,0 0.66146,-0.1819 0.30868,-0.1819 0.64492,-0.55673 z"
           style="font-size:11.28888893px;text-align:start;text-anchor:start;stroke-width:0.26458332"
           id="path2026"
           inkscape:connector-curvature="0" />
        <path
           d="m 170.88332,117.28083 q 0,0.15986 -0.0221,0.25356 -0.022,0.0937 -0.0661,0.13781 -0.0441,0.0441 -0.13229,0.0827 -0.0882,0.0386 -0.20395,0.0606 -0.11024,0.0276 -0.23702,0.0441 -0.12678,0.0165 -0.25356,0.0165 -0.38585,0 -0.66146,-0.0992 -0.27561,-0.10473 -0.452,-0.30868 -0.17638,-0.20946 -0.25907,-0.52366 -0.0772,-0.3197 -0.0772,-0.74965 v -2.89939 h -0.69453 q -0.0827,0 -0.13229,-0.0882 -0.0496,-0.0882 -0.0496,-0.28663 0,-0.10473 0.011,-0.17639 0.0165,-0.0717 0.0386,-0.11575 0.0221,-0.0496 0.0551,-0.0661 0.0386,-0.0221 0.0827,-0.0221 h 0.68902 v -1.1796 q 0,-0.0386 0.0165,-0.0717 0.022,-0.0331 0.0717,-0.0551 0.0551,-0.0276 0.14331,-0.0386 0.0882,-0.011 0.22049,-0.011 0.1378,0 0.226,0.011 0.0882,0.011 0.1378,0.0386 0.0496,0.0221 0.0717,0.0551 0.0221,0.0331 0.0221,0.0717 v 1.1796 h 1.27331 q 0.0441,0 0.0772,0.0221 0.0331,0.0165 0.0551,0.0661 0.0276,0.0441 0.0386,0.11575 0.011,0.0717 0.011,0.17639 0,0.19844 -0.0496,0.28663 -0.0496,0.0882 -0.13229,0.0882 h -1.27331 v 2.7671 q 0,0.51263 0.14883,0.77721 0.15434,0.25907 0.5457,0.25907 0.12678,0 0.226,-0.022 0.0992,-0.0276 0.17639,-0.0551 0.0772,-0.0276 0.13229,-0.0496 0.0551,-0.0276 0.0992,-0.0276 0.0276,0 0.0496,0.0165 0.0276,0.011 0.0386,0.0496 0.0165,0.0386 0.0276,0.10473 0.011,0.0661 0.011,0.16536 z"
           style="font-size:11.28888893px;text-align:start;text-anchor:start;stroke-width:0.26458332"
           id="path2028"
           inkscape:connector-curvature="0" />
        <path
           d="m 176.19703,114.94919 q 0,0.21498 -0.11024,0.30868 -0.10473,0.0882 -0.24254,0.0882 h -3.25217 q 0,0.41341 0.0827,0.74414 0.0827,0.33073 0.2756,0.56775 0.19293,0.23702 0.50161,0.3638 0.30868,0.12678 0.75516,0.12678 0.35278,0 0.62839,-0.0551 0.27561,-0.0606 0.47404,-0.13229 0.20395,-0.0717 0.33073,-0.12678 0.1323,-0.0606 0.19844,-0.0606 0.0386,0 0.0661,0.022 0.0331,0.0165 0.0496,0.0551 0.0165,0.0386 0.0221,0.11024 0.011,0.0662 0.011,0.16536 0,0.0717 -0.006,0.12678 -0.006,0.0496 -0.0165,0.0937 -0.006,0.0386 -0.0276,0.0717 -0.0165,0.0331 -0.0496,0.0661 -0.0276,0.0276 -0.17639,0.0992 -0.14883,0.0661 -0.38585,0.13229 -0.23702,0.0661 -0.55121,0.11576 -0.30868,0.0551 -0.66146,0.0551 -0.61185,0 -1.07487,-0.17088 -0.45751,-0.17087 -0.7717,-0.50711 -0.3142,-0.33625 -0.47405,-0.84336 -0.15985,-0.50712 -0.15985,-1.1796 0,-0.63941 0.16536,-1.14653 0.16537,-0.51263 0.47405,-0.86541 0.31419,-0.35829 0.75516,-0.5457 0.44098,-0.19293 0.98668,-0.19293 0.58429,0 0.99219,0.18742 0.41341,0.18741 0.67799,0.50711 0.26458,0.3142 0.38585,0.74414 0.12678,0.42444 0.12678,0.90951 z m -0.91502,-0.27009 q 0.0165,-0.71658 -0.3197,-1.12448 -0.33073,-0.4079 -0.98668,-0.4079 -0.33624,0 -0.5898,0.12678 -0.25356,0.12678 -0.42443,0.33624 -0.17088,0.20946 -0.26459,0.49058 -0.0937,0.27561 -0.10473,0.57878 z"
           style="font-size:11.28888893px;text-align:start;text-anchor:start;stroke-width:0.26458332"
           id="path2030"
           inkscape:connector-curvature="0" />
        <path
           d="m 178.49009,117.64464 q 0,0.0441 -0.0221,0.0772 -0.0221,0.0276 -0.0717,0.0496 -0.0496,0.022 -0.1378,0.0331 -0.0882,0.011 -0.226,0.011 -0.13229,0 -0.22049,-0.011 -0.0882,-0.011 -0.14331,-0.0331 -0.0496,-0.0221 -0.0717,-0.0496 -0.0165,-0.0331 -0.0165,-0.0772 v -7.36424 q 0,-0.0441 0.0165,-0.0772 0.0221,-0.0331 0.0717,-0.0551 0.0551,-0.0221 0.14331,-0.0331 0.0882,-0.011 0.22049,-0.011 0.1378,0 0.226,0.011 0.0882,0.011 0.1378,0.0331 0.0496,0.022 0.0717,0.0551 0.0221,0.0331 0.0221,0.0772 z"
           style="font-size:11.28888893px;text-align:start;text-anchor:start;stroke-width:0.26458332"
           id="path2032"
           inkscape:connector-curvature="0" />
        <path
           d="m 183.90853,117.65015 q 0,0.0661 -0.0441,0.0992 -0.0441,0.0331 -0.12127,0.0496 -0.0772,0.0165 -0.226,0.0165 -0.14332,0 -0.23151,-0.0165 -0.0827,-0.0165 -0.12127,-0.0496 -0.0386,-0.0331 -0.0386,-0.0992 v -0.4961 q -0.32522,0.34727 -0.72761,0.5402 -0.39687,0.19292 -0.84336,0.19292 -0.39136,0 -0.71106,-0.10473 -0.3142,-0.0992 -0.54019,-0.29214 -0.22049,-0.19293 -0.34727,-0.47405 -0.12127,-0.28112 -0.12127,-0.63941 0,-0.41892 0.17088,-0.7276 0.17088,-0.30868 0.49058,-0.51263 0.31971,-0.20395 0.78273,-0.30317 0.46302,-0.10473 1.04179,-0.10473 h 0.68351 v -0.38585 q 0,-0.28664 -0.0606,-0.50712 -0.0606,-0.22049 -0.19844,-0.3638 -0.13229,-0.14883 -0.34727,-0.22049 -0.21497,-0.0772 -0.52916,-0.0772 -0.33624,0 -0.60634,0.0827 -0.26458,0.0772 -0.46853,0.17639 -0.19844,0.0937 -0.33624,0.17639 -0.1323,0.0772 -0.19844,0.0772 -0.0441,0 -0.0772,-0.022 -0.0331,-0.0221 -0.0606,-0.0661 -0.022,-0.0441 -0.0331,-0.11025 -0.011,-0.0717 -0.011,-0.15434 0,-0.1378 0.0165,-0.21497 0.0221,-0.0827 0.0937,-0.15434 0.0772,-0.0717 0.25907,-0.16537 0.1819,-0.0992 0.41892,-0.17638 0.23703,-0.0827 0.51815,-0.1323 0.28112,-0.0551 0.56775,-0.0551 0.53468,0 0.9095,0.12127 0.37483,0.12127 0.60634,0.35829 0.23151,0.23151 0.33624,0.57878 0.10473,0.34726 0.10473,0.81028 z m -0.90399,-2.2655 h -0.77721 q -0.37483,0 -0.65044,0.0662 -0.27561,0.0606 -0.45751,0.18741 -0.1819,0.12127 -0.27009,0.29766 -0.0827,0.17088 -0.0827,0.39687 0,0.38585 0.24253,0.61737 0.24805,0.22599 0.68902,0.22599 0.35829,0 0.66146,-0.1819 0.30868,-0.1819 0.64492,-0.55673 z"
           style="font-size:11.28888893px;text-align:start;text-anchor:start;stroke-width:0.26458332"
           id="path2034"
           inkscape:connector-curvature="0" />
      </g>
      <g
         aria-label="Touch the screen"
         style="font-style:normal;font-variant:normal;font-weight:normal;font-stretch:normal;font-size:11.28888893px;line-height:1.25;font-family:Calibri;-inkscape-font-specification:Calibri;text-align:start;letter-spacing:0px;word-spacing:0px;text-anchor:start;fill:#000000;fill-opacity:1;stroke:none;stroke-width:0.26458332"
         id="text2119">
        <path
           d="m 120.49397,150.59199 q 0,0.10473 -0.011,0.1819 -0.011,0.0772 -0.0386,0.12678 -0.0221,0.0441 -0.0606,0.0662 -0.0331,0.022 -0.0772,0.022 h -2.00643 v 6.18463 q 0,0.0441 -0.022,0.0772 -0.022,0.0331 -0.0772,0.0551 -0.0551,0.0165 -0.14882,0.0276 -0.0882,0.0165 -0.226,0.0165 -0.13229,0 -0.226,-0.0165 -0.0937,-0.011 -0.14883,-0.0276 -0.0551,-0.022 -0.0772,-0.0551 -0.022,-0.0331 -0.022,-0.0772 v -6.18463 h -2.00642 q -0.0441,0 -0.0827,-0.022 -0.0331,-0.0221 -0.0551,-0.0662 -0.022,-0.0496 -0.0386,-0.12678 -0.011,-0.0772 -0.011,-0.1819 0,-0.10473 0.011,-0.1819 0.0165,-0.0827 0.0386,-0.13229 0.022,-0.0496 0.0551,-0.0717 0.0386,-0.0221 0.0827,-0.0221 h 4.96094 q 0.0441,0 0.0772,0.0221 0.0386,0.0221 0.0606,0.0717 0.0276,0.0496 0.0386,0.13229 0.011,0.0772 0.011,0.1819 z"
           style="font-size:11.28888893px;text-align:center;text-anchor:middle;stroke-width:0.26458332"
           id="path2037"
           inkscape:connector-curvature="0" />
        <path
           d="m 125.03047,154.64342 q 0,0.60634 -0.15985,1.11897 -0.15985,0.50712 -0.47956,0.87643 -0.31419,0.36932 -0.79375,0.57878 -0.47404,0.20395 -1.10243,0.20395 -0.61185,0 -1.06936,-0.1819 -0.45199,-0.1819 -0.75516,-0.52917 -0.30317,-0.34726 -0.452,-0.84336 -0.14883,-0.49609 -0.14883,-1.12448 0,-0.60633 0.15434,-1.11345 0.15986,-0.51263 0.47405,-0.88195 0.3197,-0.36931 0.79375,-0.57326 0.47404,-0.20395 1.10794,-0.20395 0.61185,0 1.06385,0.1819 0.45751,0.1819 0.76067,0.52917 0.30317,0.34726 0.452,0.84336 0.15434,0.49609 0.15434,1.11896 z m -0.95911,0.0606 q 0,-0.40239 -0.0772,-0.76068 -0.0717,-0.35829 -0.24254,-0.62838 -0.17087,-0.2701 -0.46302,-0.42444 -0.29214,-0.15985 -0.7276,-0.15985 -0.40239,0 -0.69453,0.14331 -0.28664,0.14332 -0.47405,0.4079 -0.18741,0.25907 -0.28112,0.61736 -0.0882,0.35829 -0.0882,0.78273 0,0.4079 0.0717,0.76619 0.0772,0.35829 0.24805,0.62838 0.17639,0.26459 0.46853,0.42444 0.29215,0.15434 0.72761,0.15434 0.39687,0 0.68902,-0.14332 0.29214,-0.14331 0.47955,-0.40238 0.18742,-0.25907 0.27561,-0.61736 0.0882,-0.35829 0.0882,-0.78824 z"
           style="font-size:11.28888893px;text-align:center;text-anchor:middle;stroke-width:0.26458332"
           id="path2039"
           inkscape:connector-curvature="0" />
        <path
           d="m 130.61979,157.17901 q 0,0.0441 -0.022,0.0772 -0.0165,0.0276 -0.0661,0.0496 -0.0496,0.0221 -0.13229,0.0331 -0.0772,0.011 -0.19293,0.011 -0.12678,0 -0.20946,-0.011 -0.0772,-0.011 -0.12678,-0.0331 -0.0441,-0.022 -0.0606,-0.0496 -0.0165,-0.0331 -0.0165,-0.0772 v -0.65594 q -0.42443,0.46853 -0.83785,0.68351 -0.41341,0.21497 -0.83784,0.21497 -0.4961,0 -0.83785,-0.16537 -0.33624,-0.16536 -0.5457,-0.44648 -0.20946,-0.28663 -0.30317,-0.66146 -0.0882,-0.38034 -0.0882,-0.92053 v -3.00963 q 0,-0.0441 0.0165,-0.0717 0.022,-0.0331 0.0772,-0.0551 0.0551,-0.0276 0.14332,-0.0331 0.0882,-0.011 0.22048,-0.011 0.13229,0 0.22049,0.011 0.0882,0.006 0.1378,0.0331 0.0551,0.0221 0.0772,0.0551 0.022,0.0276 0.022,0.0717 v 2.88836 q 0,0.43547 0.0606,0.70005 0.0661,0.25907 0.19292,0.44648 0.13229,0.1819 0.33073,0.28663 0.19844,0.0992 0.46302,0.0992 0.34175,0 0.678,-0.24253 0.34175,-0.24254 0.72209,-0.71107 v -3.46714 q 0,-0.0441 0.0165,-0.0717 0.0221,-0.0331 0.0772,-0.0551 0.0551,-0.0276 0.13781,-0.0331 0.0882,-0.011 0.226,-0.011 0.13229,0 0.22048,0.011 0.0882,0.006 0.13781,0.0331 0.0496,0.0221 0.0717,0.0551 0.0276,0.0276 0.0276,0.0717 z"
           style="font-size:11.28888893px;text-align:center;text-anchor:middle;stroke-width:0.26458332"
           id="path2041"
           inkscape:connector-curvature="0" />
        <path
           d="m 135.86736,156.42385 q 0,0.0937 -0.006,0.16536 -0.006,0.0661 -0.0221,0.11576 -0.011,0.0441 -0.0331,0.0827 -0.0165,0.0331 -0.0882,0.10473 -0.0661,0.0661 -0.23151,0.17088 -0.16537,0.0992 -0.37483,0.1819 -0.20395,0.0772 -0.44649,0.12678 -0.24253,0.0496 -0.5016,0.0496 -0.53468,0 -0.94809,-0.17639 -0.41341,-0.17639 -0.69453,-0.51263 -0.27561,-0.34175 -0.42444,-0.83234 -0.14331,-0.49609 -0.14331,-1.14101 0,-0.73312 0.17638,-1.25677 0.18191,-0.52917 0.49059,-0.86541 0.31419,-0.33624 0.73311,-0.49609 0.42444,-0.16537 0.91502,-0.16537 0.23702,0 0.45751,0.0441 0.226,0.0441 0.41341,0.11575 0.18741,0.0717 0.33073,0.16537 0.14883,0.0937 0.21497,0.15985 0.0661,0.0661 0.0882,0.10473 0.0276,0.0386 0.0441,0.0937 0.0165,0.0496 0.0221,0.11575 0.006,0.0661 0.006,0.16537 0,0.21497 -0.0496,0.30317 -0.0496,0.0827 -0.12127,0.0827 -0.0827,0 -0.19293,-0.0882 -0.10473,-0.0937 -0.27009,-0.20395 -0.16537,-0.11025 -0.40239,-0.19844 -0.23151,-0.0937 -0.55121,-0.0937 -0.65595,0 -1.00873,0.50712 -0.34726,0.50161 -0.34726,1.46072 0,0.47956 0.0882,0.84336 0.0937,0.35829 0.2701,0.60082 0.17638,0.24254 0.42994,0.36381 0.25907,0.11575 0.5898,0.11575 0.3142,0 0.55122,-0.0992 0.23702,-0.0992 0.4079,-0.21497 0.17639,-0.12127 0.29214,-0.21498 0.12127,-0.0992 0.18742,-0.0992 0.0386,0 0.0661,0.022 0.0276,0.0221 0.0441,0.0772 0.0221,0.0496 0.0276,0.1323 0.011,0.0772 0.011,0.18741 z"
           style="font-size:11.28888893px;text-align:center;text-anchor:middle;stroke-width:0.26458332"
           id="path2043"
           inkscape:connector-curvature="0" />
        <path
           d="m 141.34644,157.17901 q 0,0.0441 -0.022,0.0772 -0.0221,0.0276 -0.0717,0.0496 -0.0496,0.0221 -0.13781,0.0331 -0.0882,0.011 -0.22048,0.011 -0.13781,0 -0.226,-0.011 -0.0882,-0.011 -0.1378,-0.0331 -0.0496,-0.022 -0.0717,-0.0496 -0.0221,-0.0331 -0.0221,-0.0772 v -2.9049 q 0,-0.42444 -0.0661,-0.68351 -0.0661,-0.25907 -0.19292,-0.44648 -0.12678,-0.18741 -0.33073,-0.28663 -0.19844,-0.0992 -0.46302,-0.0992 -0.34176,0 -0.68351,0.24253 -0.34175,0.24254 -0.71658,0.71107 v 3.46714 q 0,0.0441 -0.022,0.0772 -0.0221,0.0276 -0.0717,0.0496 -0.0496,0.0221 -0.1378,0.0331 -0.0882,0.011 -0.226,0.011 -0.13229,0 -0.22048,-0.011 -0.0882,-0.011 -0.14332,-0.0331 -0.0496,-0.022 -0.0717,-0.0496 -0.0165,-0.0331 -0.0165,-0.0772 v -7.36423 q 0,-0.0441 0.0165,-0.0772 0.0221,-0.0331 0.0717,-0.0551 0.0551,-0.0221 0.14332,-0.0331 0.0882,-0.011 0.22048,-0.011 0.13781,0 0.226,0.011 0.0882,0.011 0.1378,0.0331 0.0496,0.0221 0.0717,0.0551 0.022,0.0331 0.022,0.0772 v 2.97105 q 0.39136,-0.41341 0.78824,-0.61185 0.39687,-0.20395 0.79926,-0.20395 0.4961,0 0.83234,0.17088 0.34175,0.16536 0.55121,0.44648 0.20946,0.28112 0.29766,0.66146 0.0937,0.37483 0.0937,0.9095 z"
           style="font-size:11.28888893px;text-align:center;text-anchor:middle;stroke-width:0.26458332"
           id="path2045"
           inkscape:connector-curvature="0" />
        <path
           d="m 148.13742,156.81521 q 0,0.15985 -0.022,0.25356 -0.0221,0.0937 -0.0662,0.13781 -0.0441,0.0441 -0.13229,0.0827 -0.0882,0.0386 -0.20395,0.0606 -0.11024,0.0276 -0.23702,0.0441 -0.12678,0.0165 -0.25356,0.0165 -0.38585,0 -0.66146,-0.0992 -0.27561,-0.10473 -0.452,-0.30868 -0.17639,-0.20947 -0.25907,-0.52366 -0.0772,-0.3197 -0.0772,-0.74965 v -2.89939 h -0.69453 q -0.0827,0 -0.13229,-0.0882 -0.0496,-0.0882 -0.0496,-0.28663 0,-0.10473 0.011,-0.17639 0.0165,-0.0717 0.0386,-0.11575 0.0221,-0.0496 0.0551,-0.0661 0.0386,-0.0221 0.0827,-0.0221 h 0.68902 v -1.1796 q 0,-0.0386 0.0165,-0.0717 0.0221,-0.0331 0.0717,-0.0551 0.0551,-0.0276 0.14331,-0.0386 0.0882,-0.011 0.22049,-0.011 0.1378,0 0.226,0.011 0.0882,0.011 0.1378,0.0386 0.0496,0.022 0.0717,0.0551 0.0221,0.0331 0.0221,0.0717 v 1.1796 h 1.2733 q 0.0441,0 0.0772,0.0221 0.0331,0.0165 0.0551,0.0661 0.0276,0.0441 0.0386,0.11575 0.011,0.0717 0.011,0.17639 0,0.19844 -0.0496,0.28663 -0.0496,0.0882 -0.1323,0.0882 h -1.2733 v 2.7671 q 0,0.51263 0.14883,0.77721 0.15434,0.25907 0.5457,0.25907 0.12678,0 0.226,-0.0221 0.0992,-0.0276 0.17639,-0.0551 0.0772,-0.0276 0.13229,-0.0496 0.0551,-0.0276 0.0992,-0.0276 0.0276,0 0.0496,0.0165 0.0276,0.011 0.0386,0.0496 0.0165,0.0386 0.0276,0.10473 0.011,0.0661 0.011,0.16536 z"
           style="font-size:11.28888893px;text-align:center;text-anchor:middle;stroke-width:0.26458332"
           id="path2047"
           inkscape:connector-curvature="0" />
        <path
           d="m 153.61098,157.17901 q 0,0.0441 -0.0221,0.0772 -0.022,0.0276 -0.0717,0.0496 -0.0496,0.0221 -0.13781,0.0331 -0.0882,0.011 -0.22048,0.011 -0.13781,0 -0.226,-0.011 -0.0882,-0.011 -0.13781,-0.0331 -0.0496,-0.022 -0.0716,-0.0496 -0.0221,-0.0331 -0.0221,-0.0772 v -2.9049 q 0,-0.42444 -0.0661,-0.68351 -0.0661,-0.25907 -0.19292,-0.44648 -0.12678,-0.18741 -0.33073,-0.28663 -0.19844,-0.0992 -0.46302,-0.0992 -0.34176,0 -0.68351,0.24253 -0.34175,0.24254 -0.71658,0.71107 v 3.46714 q 0,0.0441 -0.0221,0.0772 -0.0221,0.0276 -0.0717,0.0496 -0.0496,0.0221 -0.1378,0.0331 -0.0882,0.011 -0.226,0.011 -0.13229,0 -0.22049,-0.011 -0.0882,-0.011 -0.14331,-0.0331 -0.0496,-0.022 -0.0717,-0.0496 -0.0165,-0.0331 -0.0165,-0.0772 v -7.36423 q 0,-0.0441 0.0165,-0.0772 0.022,-0.0331 0.0717,-0.0551 0.0551,-0.0221 0.14331,-0.0331 0.0882,-0.011 0.22049,-0.011 0.1378,0 0.226,0.011 0.0882,0.011 0.1378,0.0331 0.0496,0.0221 0.0717,0.0551 0.0221,0.0331 0.0221,0.0772 v 2.97105 q 0.39136,-0.41341 0.78824,-0.61185 0.39687,-0.20395 0.79926,-0.20395 0.49609,0 0.83233,0.17088 0.34176,0.16536 0.55122,0.44648 0.20946,0.28112 0.29766,0.66146 0.0937,0.37483 0.0937,0.9095 z"
           style="font-size:11.28888893px;text-align:center;text-anchor:middle;stroke-width:0.26458332"
           id="path2049"
           inkscape:connector-curvature="0" />
        <path
           d="m 159.50347,154.48357 q 0,0.21498 -0.11024,0.30868 -0.10473,0.0882 -0.24253,0.0882 h -3.25217 q 0,0.41341 0.0827,0.74414 0.0827,0.33073 0.27561,0.56775 0.19292,0.23702 0.5016,0.3638 0.30868,0.12678 0.75517,0.12678 0.35277,0 0.62838,-0.0551 0.27561,-0.0606 0.47405,-0.13229 0.20395,-0.0717 0.33073,-0.12678 0.13229,-0.0606 0.19843,-0.0606 0.0386,0 0.0661,0.0221 0.0331,0.0165 0.0496,0.0551 0.0165,0.0386 0.0221,0.11025 0.011,0.0661 0.011,0.16536 0,0.0717 -0.006,0.12678 -0.006,0.0496 -0.0165,0.0937 -0.006,0.0386 -0.0276,0.0717 -0.0165,0.0331 -0.0496,0.0661 -0.0276,0.0276 -0.17639,0.0992 -0.14882,0.0661 -0.38585,0.13229 -0.23702,0.0661 -0.55121,0.11576 -0.30868,0.0551 -0.66146,0.0551 -0.61185,0 -1.07487,-0.17088 -0.45751,-0.17087 -0.7717,-0.50712 -0.31419,-0.33624 -0.47405,-0.84336 -0.15985,-0.50711 -0.15985,-1.1796 0,-0.63941 0.16537,-1.14652 0.16536,-0.51263 0.47404,-0.86541 0.31419,-0.35829 0.75517,-0.5457 0.44097,-0.19293 0.98667,-0.19293 0.58429,0 0.99219,0.18741 0.41341,0.18742 0.67799,0.50712 0.26459,0.31419 0.38585,0.74414 0.12678,0.42444 0.12678,0.90951 z m -0.91501,-0.27009 q 0.0165,-0.71658 -0.31971,-1.12448 -0.33073,-0.4079 -0.98667,-0.4079 -0.33625,0 -0.5898,0.12678 -0.25356,0.12678 -0.42444,0.33624 -0.17088,0.20946 -0.26458,0.49058 -0.0937,0.27561 -0.10473,0.57878 z"
           style="font-size:11.28888893px;text-align:center;text-anchor:middle;stroke-width:0.26458332"
           id="path2051"
           inkscape:connector-curvature="0" />
        <path
           d="m 166.55352,155.82854 q 0,0.38034 -0.14332,0.67799 -0.1378,0.29766 -0.39687,0.50161 -0.25907,0.20395 -0.61736,0.30868 -0.35829,0.10473 -0.78824,0.10473 -0.26458,0 -0.50712,-0.0441 -0.23702,-0.0386 -0.42995,-0.0992 -0.18741,-0.0661 -0.3197,-0.13229 -0.13229,-0.0717 -0.19293,-0.12678 -0.0606,-0.0551 -0.0882,-0.15434 -0.0276,-0.0992 -0.0276,-0.27009 0,-0.10473 0.011,-0.17639 0.011,-0.0717 0.0276,-0.11576 0.0165,-0.0441 0.0441,-0.0606 0.0331,-0.0221 0.0717,-0.0221 0.0606,0 0.17639,0.0772 0.12127,0.0717 0.29214,0.15985 0.17639,0.0882 0.41341,0.16537 0.23703,0.0717 0.54571,0.0717 0.23151,0 0.41892,-0.0496 0.18741,-0.0496 0.32522,-0.14332 0.1378,-0.0992 0.20946,-0.24805 0.0772,-0.14883 0.0772,-0.35278 0,-0.20946 -0.11024,-0.35277 -0.10473,-0.14332 -0.28112,-0.25356 -0.17639,-0.11024 -0.39688,-0.19293 -0.22048,-0.0882 -0.45751,-0.1819 -0.23151,-0.0937 -0.45751,-0.20946 -0.22048,-0.12127 -0.39687,-0.29214 -0.17639,-0.17088 -0.28663,-0.4079 -0.10473,-0.23703 -0.10473,-0.56776 0,-0.29214 0.11024,-0.55672 0.11575,-0.2701 0.34175,-0.46854 0.226,-0.20395 0.56224,-0.32521 0.34176,-0.12127 0.79375,-0.12127 0.19844,0 0.39688,0.0331 0.19844,0.0331 0.35829,0.0827 0.15985,0.0496 0.27009,0.11024 0.11576,0.0551 0.17088,0.0992 0.0606,0.0441 0.0772,0.0772 0.022,0.0331 0.0276,0.0772 0.011,0.0386 0.0165,0.0992 0.011,0.0606 0.011,0.14882 0,0.0937 -0.011,0.16537 -0.006,0.0661 -0.0276,0.11024 -0.0165,0.0441 -0.0441,0.0661 -0.0276,0.0165 -0.0606,0.0165 -0.0496,0 -0.14332,-0.0606 -0.0937,-0.0606 -0.24254,-0.12678 -0.14882,-0.0717 -0.35277,-0.13229 -0.19844,-0.0606 -0.45751,-0.0606 -0.23151,0 -0.4079,0.0551 -0.17639,0.0496 -0.29215,0.14883 -0.11024,0.0937 -0.17087,0.22599 -0.0551,0.1323 -0.0551,0.28664 0,0.21497 0.11024,0.3638 0.11024,0.14331 0.28663,0.25356 0.17639,0.11024 0.40239,0.19843 0.226,0.0882 0.45751,0.18191 0.23702,0.0937 0.46302,0.20946 0.23151,0.11575 0.4079,0.28112 0.17639,0.16536 0.28112,0.39687 0.11024,0.23151 0.11024,0.55122 z"
           style="font-size:11.28888893px;text-align:center;text-anchor:middle;stroke-width:0.26458332"
           id="path2053"
           inkscape:connector-curvature="0" />
        <path
           d="m 171.42075,156.42385 q 0,0.0937 -0.006,0.16536 -0.006,0.0661 -0.0221,0.11576 -0.011,0.0441 -0.0331,0.0827 -0.0165,0.0331 -0.0882,0.10473 -0.0661,0.0661 -0.23151,0.17088 -0.16536,0.0992 -0.37482,0.1819 -0.20395,0.0772 -0.44649,0.12678 -0.24253,0.0496 -0.5016,0.0496 -0.53468,0 -0.94809,-0.17639 -0.41342,-0.17639 -0.69454,-0.51263 -0.2756,-0.34175 -0.42443,-0.83234 -0.14332,-0.49609 -0.14332,-1.14101 0,-0.73312 0.17639,-1.25677 0.1819,-0.52917 0.49058,-0.86541 0.3142,-0.33624 0.73312,-0.49609 0.42443,-0.16537 0.91502,-0.16537 0.23702,0 0.4575,0.0441 0.226,0.0441 0.41342,0.11575 0.18741,0.0717 0.33073,0.16537 0.14882,0.0937 0.21497,0.15985 0.0661,0.0661 0.0882,0.10473 0.0276,0.0386 0.0441,0.0937 0.0165,0.0496 0.0221,0.11575 0.006,0.0661 0.006,0.16537 0,0.21497 -0.0496,0.30317 -0.0496,0.0827 -0.12126,0.0827 -0.0827,0 -0.19293,-0.0882 -0.10473,-0.0937 -0.2701,-0.20395 -0.16536,-0.11025 -0.40238,-0.19844 -0.23151,-0.0937 -0.55122,-0.0937 -0.65594,0 -1.00872,0.50712 -0.34727,0.50161 -0.34727,1.46072 0,0.47956 0.0882,0.84336 0.0937,0.35829 0.27009,0.60082 0.17639,0.24254 0.42995,0.36381 0.25907,0.11575 0.5898,0.11575 0.31419,0 0.55122,-0.0992 0.23702,-0.0992 0.4079,-0.21497 0.17638,-0.12127 0.29214,-0.21498 0.12127,-0.0992 0.18741,-0.0992 0.0386,0 0.0661,0.022 0.0276,0.0221 0.0441,0.0772 0.022,0.0496 0.0276,0.1323 0.011,0.0772 0.011,0.18741 z"
           style="font-size:11.28888893px;text-align:center;text-anchor:middle;stroke-width:0.26458332"
           id="path2055"
           inkscape:connector-curvature="0" />
        <path
           d="m 175.52731,152.54329 q 0,0.12127 -0.006,0.20395 -0.006,0.0827 -0.0221,0.1323 -0.0165,0.0441 -0.0441,0.0717 -0.022,0.0221 -0.0661,0.0221 -0.0441,0 -0.11024,-0.0221 -0.0606,-0.0276 -0.14332,-0.0496 -0.0772,-0.0276 -0.17639,-0.0496 -0.0992,-0.022 -0.21497,-0.022 -0.1378,0 -0.2701,0.0551 -0.13229,0.0551 -0.28112,0.1819 -0.14331,0.12678 -0.30316,0.33624 -0.15986,0.20946 -0.35278,0.51263 v 3.26319 q 0,0.0441 -0.0221,0.0772 -0.022,0.0276 -0.0717,0.0496 -0.0496,0.0221 -0.1378,0.0331 -0.0882,0.011 -0.226,0.011 -0.13229,0 -0.22049,-0.011 -0.0882,-0.011 -0.14331,-0.0331 -0.0496,-0.022 -0.0717,-0.0496 -0.0165,-0.0331 -0.0165,-0.0772 v -4.96093 q 0,-0.0441 0.0165,-0.0717 0.0165,-0.0331 0.0661,-0.0551 0.0496,-0.0276 0.12677,-0.0331 0.0772,-0.011 0.20395,-0.011 0.12127,0 0.19844,0.011 0.0827,0.006 0.12678,0.0331 0.0441,0.0221 0.0606,0.0551 0.022,0.0276 0.022,0.0717 v 0.72209 q 0.20395,-0.29766 0.38034,-0.48507 0.1819,-0.18741 0.34176,-0.29214 0.15985,-0.11025 0.31419,-0.14883 0.15985,-0.0441 0.3197,-0.0441 0.0717,0 0.15986,0.011 0.0937,0.006 0.19292,0.0276 0.0992,0.022 0.17639,0.0496 0.0827,0.0276 0.11576,0.0551 0.0331,0.0276 0.0441,0.0551 0.011,0.022 0.0165,0.0606 0.011,0.0386 0.011,0.11576 0.006,0.0716 0.006,0.19843 z"
           style="font-size:11.28888893px;text-align:center;text-anchor:middle;stroke-width:0.26458332"
           id="path2057"
           inkscape:connector-curvature="0" />
        <path
           d="m 180.64809,154.48357 q 0,0.21498 -0.11024,0.30868 -0.10473,0.0882 -0.24254,0.0882 h -3.25217 q 0,0.41341 0.0827,0.74414 0.0827,0.33073 0.2756,0.56775 0.19293,0.23702 0.50161,0.3638 0.30868,0.12678 0.75517,0.12678 0.35277,0 0.62838,-0.0551 0.27561,-0.0606 0.47405,-0.13229 0.20395,-0.0717 0.33073,-0.12678 0.13229,-0.0606 0.19843,-0.0606 0.0386,0 0.0661,0.0221 0.0331,0.0165 0.0496,0.0551 0.0165,0.0386 0.022,0.11025 0.011,0.0661 0.011,0.16536 0,0.0717 -0.006,0.12678 -0.006,0.0496 -0.0165,0.0937 -0.006,0.0386 -0.0276,0.0717 -0.0165,0.0331 -0.0496,0.0661 -0.0276,0.0276 -0.17639,0.0992 -0.14883,0.0661 -0.38585,0.13229 -0.23702,0.0661 -0.55121,0.11576 -0.30868,0.0551 -0.66146,0.0551 -0.61185,0 -1.07487,-0.17088 -0.45751,-0.17087 -0.7717,-0.50712 -0.3142,-0.33624 -0.47405,-0.84336 -0.15985,-0.50711 -0.15985,-1.1796 0,-0.63941 0.16536,-1.14652 0.16537,-0.51263 0.47405,-0.86541 0.31419,-0.35829 0.75516,-0.5457 0.44098,-0.19293 0.98668,-0.19293 0.58429,0 0.99219,0.18741 0.41341,0.18742 0.67799,0.50712 0.26459,0.31419 0.38585,0.74414 0.12678,0.42444 0.12678,0.90951 z m -0.91501,-0.27009 q 0.0165,-0.71658 -0.31971,-1.12448 -0.33073,-0.4079 -0.98668,-0.4079 -0.33624,0 -0.5898,0.12678 -0.25355,0.12678 -0.42443,0.33624 -0.17088,0.20946 -0.26458,0.49058 -0.0937,0.27561 -0.10474,0.57878 z"
           style="font-size:11.28888893px;text-align:center;text-anchor:middle;stroke-width:0.26458332"
           id="path2059"
           inkscape:connector-curvature="0" />
        <path
           d="m 186.26498,154.48357 q 0,0.21498 -0.11024,0.30868 -0.10474,0.0882 -0.24254,0.0882 h -3.25217 q 0,0.41341 0.0827,0.74414 0.0827,0.33073 0.27561,0.56775 0.19293,0.23702 0.50161,0.3638 0.30868,0.12678 0.75516,0.12678 0.35278,0 0.62839,-0.0551 0.2756,-0.0606 0.47404,-0.13229 0.20395,-0.0717 0.33073,-0.12678 0.13229,-0.0606 0.19844,-0.0606 0.0386,0 0.0661,0.0221 0.0331,0.0165 0.0496,0.0551 0.0165,0.0386 0.0221,0.11025 0.011,0.0661 0.011,0.16536 0,0.0717 -0.006,0.12678 -0.006,0.0496 -0.0165,0.0937 -0.006,0.0386 -0.0276,0.0717 -0.0165,0.0331 -0.0496,0.0661 -0.0276,0.0276 -0.17639,0.0992 -0.14883,0.0661 -0.38585,0.13229 -0.23702,0.0661 -0.55122,0.11576 -0.30868,0.0551 -0.66146,0.0551 -0.61184,0 -1.07486,-0.17088 -0.45751,-0.17087 -0.77171,-0.50712 -0.31419,-0.33624 -0.47404,-0.84336 -0.15985,-0.50711 -0.15985,-1.1796 0,-0.63941 0.16536,-1.14652 0.16537,-0.51263 0.47405,-0.86541 0.31419,-0.35829 0.75516,-0.5457 0.44097,-0.19293 0.98668,-0.19293 0.58428,0 0.99218,0.18741 0.41342,0.18742 0.678,0.50712 0.26458,0.31419 0.38585,0.74414 0.12678,0.42444 0.12678,0.90951 z m -0.91502,-0.27009 q 0.0165,-0.71658 -0.3197,-1.12448 -0.33073,-0.4079 -0.98668,-0.4079 -0.33624,0 -0.5898,0.12678 -0.25356,0.12678 -0.42444,0.33624 -0.17087,0.20946 -0.26458,0.49058 -0.0937,0.27561 -0.10473,0.57878 z"
           style="font-size:11.28888893px;text-align:center;text-anchor:middle;stroke-width:0.26458332"
           id="path2061"
           inkscape:connector-curvature="0" />
        <path
           d="m 191.92045,157.17901 q 0,0.0441 -0.022,0.0772 -0.0221,0.0276 -0.0717,0.0496 -0.0496,0.0221 -0.1378,0.0331 -0.0882,0.011 -0.22049,0.011 -0.1378,0 -0.226,-0.011 -0.0882,-0.011 -0.1378,-0.0331 -0.0496,-0.022 -0.0717,-0.0496 -0.0221,-0.0331 -0.0221,-0.0772 v -2.9049 q 0,-0.42444 -0.0661,-0.68351 -0.0661,-0.25907 -0.19292,-0.44648 -0.12678,-0.18741 -0.33073,-0.28663 -0.19844,-0.0992 -0.46302,-0.0992 -0.34175,0 -0.68351,0.24253 -0.34175,0.24254 -0.71658,0.71107 v 3.46714 q 0,0.0441 -0.0221,0.0772 -0.022,0.0276 -0.0717,0.0496 -0.0496,0.0221 -0.13781,0.0331 -0.0882,0.011 -0.226,0.011 -0.13229,0 -0.22048,-0.011 -0.0882,-0.011 -0.14332,-0.0331 -0.0496,-0.022 -0.0717,-0.0496 -0.0165,-0.0331 -0.0165,-0.0772 v -4.96093 q 0,-0.0441 0.0165,-0.0717 0.0165,-0.0331 0.0661,-0.0551 0.0496,-0.0276 0.12678,-0.0331 0.0772,-0.011 0.20395,-0.011 0.12127,0 0.19844,0.011 0.0827,0.006 0.12678,0.0331 0.0441,0.0221 0.0606,0.0551 0.0221,0.0276 0.0221,0.0717 v 0.65594 q 0.41892,-0.46853 0.83233,-0.6835 0.41893,-0.22049 0.84336,-0.22049 0.4961,0 0.83234,0.17088 0.34175,0.16536 0.55121,0.44648 0.20946,0.28112 0.29766,0.66146 0.0937,0.37483 0.0937,0.90399 z"
           style="font-size:11.28888893px;text-align:center;text-anchor:middle;stroke-width:0.26458332"
           id="path2063"
           inkscape:connector-curvature="0" />
      </g>
      <path
         style="opacity:1;fill:#ffffff;fill-opacity:1;stroke:#f9f9f9;stroke-width:1.61929631;stroke-linecap:round;stroke-linejoin:miter;stroke-miterlimit:4;stroke-dasharray:none;stroke-opacity:1;paint-order:stroke fill markers"
         d="m 225.60232,132.58663 c -144.125977,0 -144.125977,0 -144.125977,0"
         id="path2155"
         inkscape:connector-curvature="0" />
    </g>
  </g>
</svg>
