<?xml version="1.0" encoding="UTF-8" standalone="no"?>
<!-- Created with Inkscape (http://www.inkscape.org/) -->

<svg
   xmlns:dc="http://purl.org/dc/elements/1.1/"
   xmlns:cc="http://creativecommons.org/ns#"
   xmlns:rdf="http://www.w3.org/1999/02/22-rdf-syntax-ns#"
   xmlns:svg="http://www.w3.org/2000/svg"
   xmlns="http://www.w3.org/2000/svg"
   xmlns:sodipodi="http://sodipodi.sourceforge.net/DTD/sodipodi-0.dtd"
   xmlns:inkscape="http://www.inkscape.org/namespaces/inkscape"
   width="238.125mm"
   height="132.29167mm"
   viewBox="0 0 238.125 132.29167"
   version="1.1"
   id="svg9497"
   inkscape:version="0.92.4 5da689c313, 2019-01-14"
   sodipodi:docname="coolbag_inicial.svg">
  <defs
     id="defs9491">
    <clipPath
       clipPathUnits="userSpaceOnUse"
       id="clipPath14035">
      <rect
         style="fill:#000000;fill-opacity:1;stroke:none;stroke-width:1.45708346;stroke-linecap:round;stroke-linejoin:bevel;stroke-miterlimit:4;stroke-dasharray:none;stroke-opacity:1;paint-order:stroke fill markers"
         id="rect14037"
         width="270.93329"
         height="131.53572"
         x="-311.95538"
         y="64.998215" />
    </clipPath>
  </defs>
  <sodipodi:namedview
     id="base"
     pagecolor="#ffffff"
     bordercolor="#666666"
     borderopacity="1.0"
     inkscape:pageopacity="0.0"
     inkscape:pageshadow="2"
     inkscape:zoom="0.49497474"
     inkscape:cx="455.88276"
     inkscape:cy="279.30466"
     inkscape:document-units="mm"
     inkscape:current-layer="layer1"
     showgrid="false"
     inkscape:window-width="1366"
     inkscape:window-height="705"
     inkscape:window-x="0"
     inkscape:window-y="0"
     inkscape:window-maximized="1"
     showguides="false" />
  <metadata
     id="metadata9494">
    <rdf:RDF>
      <cc:Work
         rdf:about="">
        <dc:format>image/svg+xml</dc:format>
        <dc:type
           rdf:resource="http://purl.org/dc/dcmitype/StillImage" />
        <dc:title />
      </cc:Work>
    </rdf:RDF>
  </metadata>
  <g
     inkscape:label="Camada 1"
     inkscape:groupmode="layer"
     id="layer1"
     transform="translate(-34.476833,-65.845888)">
    <g
       id="g2125">
      <path
         inkscape:connector-curvature="0"
         d="M 34.476835,65.845888 H 272.60183 c 0,0 0,10e-7 0,3e-6 V 198.13756 c 0,0 0,0 0,0 H 34.476835 c 0,0 -2e-6,0 -2e-6,0 V 65.845891 c 0,-2e-6 2e-6,-3e-6 2e-6,-3e-6 z"
         style="opacity:1;fill:#fdcf03;fill-opacity:1;stroke:none;stroke-width:6.63593483;stroke-linecap:round;stroke-linejoin:round;stroke-miterlimit:4;stroke-dasharray:none;paint-order:stroke fill markers"
         id="rect2107" />
      <g
         transform="matrix(0.94859525,0,0,0.94859525,7.8926483,5.9087917)"
         aria-label="Toque na tela"
         style="font-style:normal;font-variant:normal;font-weight:normal;font-stretch:normal;font-size:11.28888893px;line-height:1.25;font-family:Calibri;-inkscape-font-specification:Calibri;text-align:center;letter-spacing:0px;word-spacing:0px;text-anchor:middle;fill:#000000;fill-opacity:1;stroke:none;stroke-width:0.26458332"
         id="text2111">
        <path
           d="m 119.25279,109.62019 q 0,0.14344 -0.0151,0.24913 -0.0151,0.10574 -0.0529,0.17364 -0.0301,0.0604 -0.083,0.0905 -0.0453,0.0303 -0.10573,0.0303 h -2.74805 v 8.47064 q 0,0.0604 -0.0301,0.10574 -0.0303,0.0453 -0.10573,0.0755 -0.0755,0.0226 -0.20384,0.0378 -0.1208,0.0226 -0.30954,0.0226 -0.18119,0 -0.30952,-0.0226 -0.12834,-0.0151 -0.20384,-0.0378 -0.0755,-0.0303 -0.10574,-0.0755 -0.0301,-0.0453 -0.0301,-0.10574 v -8.47064 h -2.74805 q -0.0604,0 -0.11327,-0.0303 -0.0453,-0.0301 -0.0755,-0.0905 -0.0301,-0.0679 -0.0529,-0.17364 -0.0151,-0.10573 -0.0151,-0.24913 0,-0.14344 0.0151,-0.24914 0.0226,-0.11327 0.0529,-0.18119 0.0303,-0.0679 0.0755,-0.0982 0.0529,-0.0303 0.11327,-0.0303 h 6.79463 q 0.0604,0 0.10574,0.0303 0.0529,0.0301 0.083,0.0982 0.0378,0.0679 0.0529,0.18119 0.0151,0.10574 0.0151,0.24914 z"
           style="font-size:11.28888893px;text-align:start;text-anchor:start;stroke-width:0.36238095"
           id="path2014"
           inkscape:connector-curvature="0" />
        <path
           d="m 125.46612,115.16916 q 0,0.83044 -0.21894,1.53256 -0.21895,0.69456 -0.65682,1.20039 -0.43032,0.50582 -1.08714,0.7927 -0.64927,0.27934 -1.50992,0.27934 -0.83801,0 -1.46463,-0.24914 -0.61907,-0.24913 -1.03429,-0.72476 -0.41523,-0.47562 -0.61907,-1.15509 -0.20384,-0.67946 -0.20384,-1.54012 0,-0.83045 0.21139,-1.52502 0.21893,-0.70211 0.64927,-1.20793 0.43787,-0.50583 1.08714,-0.78516 0.64926,-0.27934 1.51747,-0.27934 0.83801,0 1.45707,0.24914 0.62662,0.24913 1.04185,0.72476 0.41523,0.47563 0.61907,1.15509 0.21139,0.67946 0.21139,1.53258 z m -1.31364,0.083 q 0,-0.55113 -0.10574,-1.04185 -0.0982,-0.49073 -0.33217,-0.86065 -0.23405,-0.36994 -0.63417,-0.58133 -0.40014,-0.21893 -0.99655,-0.21893 -0.55112,0 -0.95125,0.19629 -0.39258,0.19629 -0.64926,0.55866 -0.2567,0.35485 -0.38503,0.84557 -0.1208,0.49072 -0.1208,1.07204 0,0.55867 0.0982,1.04939 0.10573,0.49073 0.33974,0.86066 0.24158,0.36238 0.64171,0.58131 0.40013,0.21139 0.99655,0.21139 0.54357,0 0.94369,-0.19628 0.40014,-0.19629 0.65682,-0.55112 0.25668,-0.35483 0.37748,-0.84556 0.12081,-0.49072 0.12081,-1.07959 z"
           style="font-size:11.28888893px;text-align:start;text-anchor:start;stroke-width:0.36238095"
           id="path2016"
           inkscape:connector-curvature="0" />
        <path
           d="m 133.12141,121.33717 q 0,0.0604 -0.0378,0.10574 -0.0303,0.0453 -0.0982,0.0755 -0.0679,0.0301 -0.18874,0.0453 -0.1208,0.0151 -0.30199,0.0151 -0.18873,0 -0.30953,-0.0151 -0.11327,-0.0151 -0.18874,-0.0453 -0.0755,-0.0303 -0.10573,-0.0755 -0.0226,-0.0453 -0.0226,-0.10574 v -3.48036 q -0.30953,0.30953 -0.58886,0.52847 -0.27934,0.21139 -0.55113,0.34728 -0.27179,0.12833 -0.55112,0.18119 -0.27179,0.0604 -0.56622,0.0604 -0.73986,0 -1.26078,-0.28688 -0.52093,-0.29443 -0.85311,-0.78516 -0.32462,-0.49828 -0.47563,-1.16265 -0.15098,-0.67191 -0.15098,-1.41177 0,-0.87575 0.18873,-1.57787 0.18875,-0.70966 0.55867,-1.20793 0.37749,-0.49828 0.92106,-0.76251 0.55112,-0.27179 1.26834,-0.27179 0.30197,0 0.56621,0.0679 0.26423,0.0604 0.52093,0.20385 0.26423,0.13586 0.52847,0.36237 0.27178,0.21895 0.58887,0.52847 v -0.8229 q 0,-0.0679 0.0301,-0.10573 0.0303,-0.0453 0.0982,-0.0755 0.0679,-0.0303 0.17364,-0.0378 0.10573,-0.0151 0.26424,-0.0151 0.15099,0 0.25668,0.0151 0.10574,0.008 0.1661,0.0378 0.0679,0.0301 0.0905,0.0755 0.0303,0.0378 0.0303,0.10573 z m -1.25324,-7.47411 q -0.50582,-0.62661 -0.98145,-0.95124 -0.46807,-0.33218 -0.98144,-0.33218 -0.47562,0 -0.80781,0.22648 -0.33218,0.2265 -0.54357,0.59642 -0.20384,0.36994 -0.30199,0.83801 -0.0905,0.46807 -0.0905,0.95125 0,0.52092 0.0755,1.01165 0.083,0.49072 0.27933,0.8682 0.19629,0.37749 0.52093,0.61151 0.32463,0.2265 0.81535,0.2265 0.24914,0 0.47563,-0.0679 0.23403,-0.0679 0.47562,-0.2265 0.24159,-0.15853 0.50583,-0.40767 0.26423,-0.25669 0.55866,-0.62662 z"
           style="font-size:11.28888893px;text-align:start;text-anchor:start;stroke-width:0.36238095"
           id="path2018"
           inkscape:connector-curvature="0" />
        <path
           d="m 141.24479,118.64197 q 0,0.0604 -0.0303,0.10574 -0.0226,0.0378 -0.0905,0.0679 -0.0679,0.0301 -0.18119,0.0453 -0.10574,0.0151 -0.26423,0.0151 -0.17364,0 -0.2869,-0.0151 -0.10573,-0.0151 -0.17362,-0.0453 -0.0604,-0.0303 -0.083,-0.0679 -0.0226,-0.0453 -0.0226,-0.10574 v -0.8984 q -0.58131,0.64171 -1.14753,0.93615 -0.56622,0.29443 -1.14755,0.29443 -0.67945,0 -1.14754,-0.22648 -0.46052,-0.2265 -0.74741,-0.61153 -0.28688,-0.39257 -0.41523,-0.90595 -0.1208,-0.52091 -0.1208,-1.26079 v -4.12207 q 0,-0.0604 0.0226,-0.0982 0.0303,-0.0453 0.10574,-0.0755 0.0755,-0.0378 0.19629,-0.0453 0.1208,-0.0151 0.30199,-0.0151 0.18119,0 0.30198,0.0151 0.1208,0.008 0.18875,0.0453 0.0755,0.0301 0.10573,0.0755 0.0301,0.0378 0.0301,0.0982 v 3.95599 q 0,0.59642 0.083,0.9588 0.0905,0.35483 0.26423,0.61151 0.1812,0.24915 0.45298,0.39259 0.27179,0.13587 0.63416,0.13587 0.46809,0 0.92861,-0.33219 0.46807,-0.33218 0.989,-0.97391 v -4.74869 q 0,-0.0604 0.0226,-0.0982 0.0303,-0.0453 0.10573,-0.0755 0.0755,-0.0378 0.18874,-0.0453 0.1208,-0.0151 0.30953,-0.0151 0.18119,0 0.30199,0.0151 0.1208,0.008 0.18874,0.0453 0.0679,0.0301 0.0982,0.0755 0.0378,0.0378 0.0378,0.0982 z"
           style="font-size:11.28888893px;text-align:start;text-anchor:start;stroke-width:0.36238095"
           id="path2020"
           inkscape:connector-curvature="0" />
        <path
           d="m 149.34551,114.95021 q 0,0.29444 -0.151,0.42277 -0.14344,0.12081 -0.33217,0.12081 h -4.45427 q 0,0.56621 0.11327,1.01919 0.11327,0.45298 0.37748,0.77761 0.26423,0.32463 0.68702,0.49827 0.42278,0.17364 1.03429,0.17364 0.48318,0 0.86066,-0.0755 0.37747,-0.083 0.64926,-0.18118 0.27934,-0.0982 0.45298,-0.17365 0.18119,-0.083 0.27179,-0.083 0.0529,0 0.0905,0.0301 0.0453,0.0226 0.0679,0.0755 0.0226,0.0529 0.0303,0.15099 0.0151,0.0907 0.0151,0.22648 0,0.0982 -0.008,0.17364 -0.008,0.0679 -0.0226,0.12834 -0.008,0.0529 -0.0378,0.0982 -0.0226,0.0453 -0.0679,0.0905 -0.0378,0.0378 -0.24159,0.13587 -0.20385,0.0905 -0.52847,0.18119 -0.32465,0.0905 -0.75497,0.15855 -0.42278,0.0755 -0.90596,0.0755 -0.838,0 -1.47217,-0.23404 -0.6266,-0.23403 -1.05694,-0.69455 -0.43033,-0.46054 -0.64926,-1.15509 -0.21895,-0.69457 -0.21895,-1.61562 0,-0.87575 0.2265,-1.57032 0.22648,-0.70211 0.64925,-1.18529 0.43034,-0.49072 1.03431,-0.7474 0.60396,-0.26425 1.35137,-0.26425 0.80026,0 1.35893,0.2567 0.56622,0.25668 0.92861,0.69455 0.36238,0.43034 0.52847,1.0192 0.17364,0.58132 0.17364,1.24569 z m -1.25323,-0.36993 q 0.0226,-0.98144 -0.43787,-1.54012 -0.45298,-0.55867 -1.35139,-0.55867 -0.46052,0 -0.80781,0.17364 -0.34728,0.17365 -0.58132,0.46053 -0.23403,0.28688 -0.36238,0.67191 -0.12833,0.37748 -0.14344,0.79271 z"
           style="font-size:11.28888893px;text-align:start;text-anchor:start;stroke-width:0.36238095"
           id="path2022"
           inkscape:connector-curvature="0" />
        <path
           d="m 160.58687,118.64197 q 0,0.0604 -0.0303,0.10574 -0.0301,0.0378 -0.0982,0.0679 -0.0679,0.0301 -0.18874,0.0453 -0.12081,0.0151 -0.30198,0.0151 -0.18875,0 -0.30954,-0.0151 -0.1208,-0.0151 -0.18874,-0.0453 -0.0679,-0.0303 -0.0982,-0.0679 -0.0303,-0.0453 -0.0303,-0.10574 v -3.97865 q 0,-0.58131 -0.0905,-0.93615 -0.0905,-0.35483 -0.26423,-0.61151 -0.17364,-0.25668 -0.45297,-0.39258 -0.27179,-0.13587 -0.63417,-0.13587 -0.46808,0 -0.93615,0.33218 -0.46808,0.33219 -0.98145,0.9739 v 4.74871 q 0,0.0604 -0.0303,0.10574 -0.0301,0.0378 -0.0982,0.0679 -0.0679,0.0301 -0.18874,0.0453 -0.1208,0.0151 -0.30954,0.0151 -0.18118,0 -0.30199,-0.0151 -0.1208,-0.0151 -0.19628,-0.0453 -0.0679,-0.0303 -0.0982,-0.0679 -0.0226,-0.0453 -0.0226,-0.10574 v -6.79465 q 0,-0.0604 0.0226,-0.0982 0.0226,-0.0453 0.0905,-0.0755 0.0679,-0.0378 0.17364,-0.0453 0.10574,-0.0151 0.27934,-0.0151 0.16608,0 0.27178,0.0151 0.11326,0.008 0.17364,0.0453 0.0604,0.0301 0.083,0.0755 0.0303,0.0378 0.0303,0.0982 v 0.89841 q 0.57376,-0.64172 1.13998,-0.93615 0.57376,-0.30199 1.15509,-0.30199 0.67946,0 1.13998,0.23404 0.46809,0.22648 0.75497,0.61151 0.28688,0.38503 0.40768,0.90596 0.12834,0.51337 0.12834,1.23813 z"
           style="font-size:11.28888893px;text-align:start;text-anchor:start;stroke-width:0.36238095"
           id="path2024"
           inkscape:connector-curvature="0" />
        <path
           d="m 167.97793,118.64952 q 0,0.0905 -0.0604,0.13587 -0.0604,0.0453 -0.16608,0.0679 -0.10574,0.0226 -0.30954,0.0226 -0.19629,0 -0.31708,-0.0226 -0.11327,-0.0226 -0.16609,-0.0679 -0.0529,-0.0453 -0.0529,-0.13587 v -0.67947 q -0.44542,0.47563 -0.99654,0.73987 -0.54357,0.26423 -1.15509,0.26423 -0.53602,0 -0.97391,-0.14344 -0.43032,-0.13587 -0.73986,-0.40013 -0.30197,-0.26424 -0.47561,-0.64927 -0.1661,-0.38503 -0.1661,-0.87575 0,-0.57377 0.23404,-0.99654 0.23403,-0.42278 0.67192,-0.70212 0.43787,-0.27933 1.07203,-0.41523 0.63417,-0.14344 1.42688,-0.14344 h 0.93616 v -0.52847 q 0,-0.39259 -0.083,-0.69457 -0.083,-0.30199 -0.27178,-0.49827 -0.1812,-0.20384 -0.47563,-0.30199 -0.29443,-0.10573 -0.72477,-0.10573 -0.46052,0 -0.83044,0.11327 -0.36239,0.10573 -0.64173,0.24159 -0.27177,0.12833 -0.46052,0.24158 -0.18119,0.10574 -0.27179,0.10574 -0.0604,0 -0.10574,-0.0301 -0.0453,-0.0303 -0.083,-0.0905 -0.0301,-0.0604 -0.0453,-0.15101 -0.0151,-0.0982 -0.0151,-0.21138 0,-0.18874 0.0226,-0.29443 0.0303,-0.11327 0.12834,-0.21139 0.10573,-0.0982 0.35483,-0.2265 0.24913,-0.13587 0.57376,-0.24157 0.32463,-0.11327 0.70966,-0.18121 0.38503,-0.0755 0.77762,-0.0755 0.7323,0 1.24568,0.16609 0.51338,0.1661 0.83046,0.49073 0.31708,0.31708 0.46052,0.79271 0.14344,0.47562 0.14344,1.10978 z m -1.23813,-3.10289 h -1.0645 q -0.51337,0 -0.89085,0.0907 -0.37748,0.083 -0.62662,0.25668 -0.24913,0.16609 -0.36992,0.40768 -0.11327,0.23404 -0.11327,0.54357 0,0.52847 0.33219,0.84556 0.33972,0.30953 0.9437,0.30953 0.49073,0 0.90596,-0.24914 0.42277,-0.24914 0.8833,-0.76251 z"
           style="font-size:11.28888893px;text-align:start;text-anchor:start;stroke-width:0.36238095"
           id="path2026"
           inkscape:connector-curvature="0" />
        <path
           d="m 177.29415,118.14369 q 0,0.21895 -0.0303,0.34728 -0.0301,0.12834 -0.0905,0.18875 -0.0604,0.0604 -0.18119,0.11327 -0.1208,0.0529 -0.27934,0.083 -0.15099,0.0378 -0.32463,0.0604 -0.17364,0.0226 -0.34728,0.0226 -0.52847,0 -0.90596,-0.13587 -0.37748,-0.14344 -0.61907,-0.42278 -0.24157,-0.28688 -0.35483,-0.71722 -0.10573,-0.43787 -0.10573,-1.02674 v -3.97109 h -0.95125 q -0.11327,0 -0.18119,-0.1208 -0.0679,-0.1208 -0.0679,-0.39257 0,-0.14345 0.0151,-0.24159 0.0226,-0.0982 0.0529,-0.15854 0.0303,-0.0679 0.0755,-0.0905 0.0529,-0.0303 0.11327,-0.0303 h 0.9437 v -1.61561 q 0,-0.0529 0.0226,-0.0982 0.0301,-0.0453 0.0982,-0.0755 0.0755,-0.0378 0.19628,-0.0529 0.1208,-0.0151 0.30199,-0.0151 0.18873,0 0.30954,0.0151 0.1208,0.0151 0.18873,0.0529 0.0679,0.0303 0.0982,0.0755 0.0303,0.0453 0.0303,0.0982 v 1.61561 h 1.74396 q 0.0604,0 0.10574,0.0303 0.0453,0.0226 0.0755,0.0905 0.0378,0.0604 0.0529,0.15854 0.0151,0.0982 0.0151,0.24159 0,0.27178 -0.0679,0.39257 -0.0679,0.1208 -0.18119,0.1208 h -1.74397 v 3.7899 q 0,0.70212 0.20385,1.06449 0.21139,0.35483 0.7474,0.35483 0.17364,0 0.30954,-0.0301 0.13587,-0.0378 0.24159,-0.0755 0.10573,-0.0378 0.18119,-0.0679 0.0755,-0.0378 0.13586,-0.0378 0.0378,0 0.0679,0.0226 0.0378,0.0151 0.0529,0.0679 0.0226,0.0529 0.0378,0.14344 0.0151,0.0905 0.0151,0.22648 z"
           style="font-size:11.28888893px;text-align:start;text-anchor:start;stroke-width:0.36238095"
           id="path2028"
           inkscape:connector-curvature="0" />
        <path
           d="m 184.57196,114.95021 q 0,0.29444 -0.15099,0.42277 -0.14344,0.12081 -0.33219,0.12081 h -4.45427 q 0,0.56621 0.11327,1.01919 0.11327,0.45298 0.37747,0.77761 0.26424,0.32463 0.68702,0.49827 0.42278,0.17364 1.03429,0.17364 0.48318,0 0.86066,-0.0755 0.37748,-0.083 0.64926,-0.18118 0.27934,-0.0982 0.45298,-0.17365 0.1812,-0.083 0.27179,-0.083 0.0529,0 0.0905,0.0301 0.0453,0.0226 0.0679,0.0755 0.0226,0.0529 0.0303,0.15099 0.0151,0.0907 0.0151,0.22648 0,0.0982 -0.008,0.17364 -0.008,0.0679 -0.0226,0.12834 -0.008,0.0529 -0.0378,0.0982 -0.0226,0.0453 -0.0679,0.0905 -0.0378,0.0378 -0.24159,0.13587 -0.20385,0.0905 -0.52847,0.18119 -0.32463,0.0905 -0.75496,0.15855 -0.42277,0.0755 -0.90595,0.0755 -0.83801,0 -1.47218,-0.23404 -0.62661,-0.23403 -1.05694,-0.69455 -0.43034,-0.46054 -0.64927,-1.15509 -0.21894,-0.69457 -0.21894,-1.61562 0,-0.87575 0.22649,-1.57032 0.22649,-0.70211 0.64927,-1.18529 0.43032,-0.49072 1.03429,-0.7474 0.60398,-0.26425 1.35138,-0.26425 0.80026,0 1.35893,0.2567 0.56622,0.25668 0.9286,0.69455 0.36238,0.43034 0.52847,1.0192 0.17364,0.58132 0.17364,1.24569 z m -1.25324,-0.36993 q 0.0226,-0.98144 -0.43787,-1.54012 -0.45298,-0.55867 -1.35139,-0.55867 -0.46052,0 -0.8078,0.17364 -0.34729,0.17365 -0.58132,0.46053 -0.23404,0.28688 -0.36239,0.67191 -0.12833,0.37748 -0.14344,0.79271 z"
           style="font-size:11.28888893px;text-align:start;text-anchor:start;stroke-width:0.36238095"
           id="path2030"
           inkscape:connector-curvature="0" />
        <path
           d="m 187.7126,118.64197 q 0,0.0604 -0.0303,0.10574 -0.0303,0.0378 -0.0982,0.0679 -0.0679,0.0301 -0.18874,0.0453 -0.1208,0.0151 -0.30953,0.0151 -0.18119,0 -0.30199,-0.0151 -0.1208,-0.0151 -0.19628,-0.0453 -0.0679,-0.0303 -0.0982,-0.0679 -0.0226,-0.0453 -0.0226,-0.10574 V 108.5557 q 0,-0.0604 0.0226,-0.10574 0.0303,-0.0453 0.0982,-0.0755 0.0755,-0.0303 0.19628,-0.0453 0.1208,-0.0151 0.30199,-0.0151 0.18873,0 0.30953,0.0151 0.1208,0.0151 0.18874,0.0453 0.0679,0.0301 0.0982,0.0755 0.0303,0.0453 0.0303,0.10574 z"
           style="font-size:11.28888893px;text-align:start;text-anchor:start;stroke-width:0.36238095"
           id="path2032"
           inkscape:connector-curvature="0" />
        <path
           d="m 195.13385,118.64952 q 0,0.0905 -0.0604,0.13587 -0.0604,0.0453 -0.1661,0.0679 -0.10573,0.0226 -0.30953,0.0226 -0.1963,0 -0.31708,-0.0226 -0.11327,-0.0226 -0.1661,-0.0679 -0.0529,-0.0453 -0.0529,-0.13587 v -0.67947 q -0.44543,0.47563 -0.99655,0.73987 -0.54357,0.26423 -1.15509,0.26423 -0.53602,0 -0.97389,-0.14344 -0.43034,-0.13587 -0.73986,-0.40013 -0.30199,-0.26424 -0.47563,-0.64927 -0.1661,-0.38503 -0.1661,-0.87575 0,-0.57377 0.23405,-0.99654 0.23404,-0.42278 0.67191,-0.70212 0.43788,-0.27933 1.07205,-0.41523 0.63416,-0.14344 1.42686,-0.14344 h 0.93616 v -0.52847 q 0,-0.39259 -0.083,-0.69457 -0.083,-0.30199 -0.27179,-0.49827 -0.18119,-0.20384 -0.47563,-0.30199 -0.29443,-0.10573 -0.72475,-0.10573 -0.46053,0 -0.83046,0.11327 -0.36238,0.10573 -0.64172,0.24159 -0.27179,0.12833 -0.46052,0.24158 -0.1812,0.10574 -0.27179,0.10574 -0.0604,0 -0.10574,-0.0301 -0.0453,-0.0303 -0.083,-0.0905 -0.0301,-0.0604 -0.0453,-0.15101 -0.0151,-0.0982 -0.0151,-0.21138 0,-0.18874 0.0226,-0.29443 0.0303,-0.11327 0.12834,-0.21139 0.10573,-0.0982 0.35483,-0.2265 0.24913,-0.13587 0.57376,-0.24157 0.32465,-0.11327 0.70968,-0.18121 0.38503,-0.0755 0.7776,-0.0755 0.73232,0 1.24568,0.16609 0.51338,0.1661 0.83046,0.49073 0.31708,0.31708 0.46052,0.79271 0.14345,0.47562 0.14345,1.10978 z m -1.23813,-3.10289 h -1.06449 q -0.51338,0 -0.89086,0.0907 -0.37748,0.083 -0.62662,0.25668 -0.24914,0.16609 -0.36992,0.40768 -0.11327,0.23404 -0.11327,0.54357 0,0.52847 0.33217,0.84556 0.33974,0.30953 0.94371,0.30953 0.49072,0 0.90595,-0.24914 0.42278,-0.24914 0.8833,-0.76251 z"
           style="font-size:11.28888893px;text-align:start;text-anchor:start;stroke-width:0.36238095"
           id="path2034"
           inkscape:connector-curvature="0" />
      </g>
      <g
         transform="matrix(1.376033,0,0,1.376033,-57.735859,-57.732339)"
         aria-label="Touch the screen"
         style="font-style:normal;font-variant:normal;font-weight:normal;font-stretch:normal;font-size:11.28888893px;line-height:1.25;font-family:Calibri;-inkscape-font-specification:Calibri;text-align:start;letter-spacing:0px;word-spacing:0px;text-anchor:start;fill:#000000;fill-opacity:1;stroke:none;stroke-width:0.26458332"
         id="text2119">
        <path
           d="m 120.49397,150.59199 q 0,0.10473 -0.011,0.1819 -0.011,0.0772 -0.0386,0.12678 -0.0221,0.0441 -0.0606,0.0662 -0.0331,0.022 -0.0772,0.022 h -2.00643 v 6.18463 q 0,0.0441 -0.022,0.0772 -0.022,0.0331 -0.0772,0.0551 -0.0551,0.0165 -0.14882,0.0276 -0.0882,0.0165 -0.226,0.0165 -0.13229,0 -0.226,-0.0165 -0.0937,-0.011 -0.14883,-0.0276 -0.0551,-0.022 -0.0772,-0.0551 -0.022,-0.0331 -0.022,-0.0772 v -6.18463 h -2.00642 q -0.0441,0 -0.0827,-0.022 -0.0331,-0.0221 -0.0551,-0.0662 -0.022,-0.0496 -0.0386,-0.12678 -0.011,-0.0772 -0.011,-0.1819 0,-0.10473 0.011,-0.1819 0.0165,-0.0827 0.0386,-0.13229 0.022,-0.0496 0.0551,-0.0717 0.0386,-0.0221 0.0827,-0.0221 h 4.96094 q 0.0441,0 0.0772,0.0221 0.0386,0.0221 0.0606,0.0717 0.0276,0.0496 0.0386,0.13229 0.011,0.0772 0.011,0.1819 z"
           style="font-size:11.28888893px;text-align:center;text-anchor:middle;stroke-width:0.26458332"
           id="path2037"
           inkscape:connector-curvature="0" />
        <path
           d="m 125.03047,154.64342 q 0,0.60634 -0.15985,1.11897 -0.15985,0.50712 -0.47956,0.87643 -0.31419,0.36932 -0.79375,0.57878 -0.47404,0.20395 -1.10243,0.20395 -0.61185,0 -1.06936,-0.1819 -0.45199,-0.1819 -0.75516,-0.52917 -0.30317,-0.34726 -0.452,-0.84336 -0.14883,-0.49609 -0.14883,-1.12448 0,-0.60633 0.15434,-1.11345 0.15986,-0.51263 0.47405,-0.88195 0.3197,-0.36931 0.79375,-0.57326 0.47404,-0.20395 1.10794,-0.20395 0.61185,0 1.06385,0.1819 0.45751,0.1819 0.76067,0.52917 0.30317,0.34726 0.452,0.84336 0.15434,0.49609 0.15434,1.11896 z m -0.95911,0.0606 q 0,-0.40239 -0.0772,-0.76068 -0.0717,-0.35829 -0.24254,-0.62838 -0.17087,-0.2701 -0.46302,-0.42444 -0.29214,-0.15985 -0.7276,-0.15985 -0.40239,0 -0.69453,0.14331 -0.28664,0.14332 -0.47405,0.4079 -0.18741,0.25907 -0.28112,0.61736 -0.0882,0.35829 -0.0882,0.78273 0,0.4079 0.0717,0.76619 0.0772,0.35829 0.24805,0.62838 0.17639,0.26459 0.46853,0.42444 0.29215,0.15434 0.72761,0.15434 0.39687,0 0.68902,-0.14332 0.29214,-0.14331 0.47955,-0.40238 0.18742,-0.25907 0.27561,-0.61736 0.0882,-0.35829 0.0882,-0.78824 z"
           style="font-size:11.28888893px;text-align:center;text-anchor:middle;stroke-width:0.26458332"
           id="path2039"
           inkscape:connector-curvature="0" />
        <path
           d="m 130.61979,157.17901 q 0,0.0441 -0.022,0.0772 -0.0165,0.0276 -0.0661,0.0496 -0.0496,0.0221 -0.13229,0.0331 -0.0772,0.011 -0.19293,0.011 -0.12678,0 -0.20946,-0.011 -0.0772,-0.011 -0.12678,-0.0331 -0.0441,-0.022 -0.0606,-0.0496 -0.0165,-0.0331 -0.0165,-0.0772 v -0.65594 q -0.42443,0.46853 -0.83785,0.68351 -0.41341,0.21497 -0.83784,0.21497 -0.4961,0 -0.83785,-0.16537 -0.33624,-0.16536 -0.5457,-0.44648 -0.20946,-0.28663 -0.30317,-0.66146 -0.0882,-0.38034 -0.0882,-0.92053 v -3.00963 q 0,-0.0441 0.0165,-0.0717 0.022,-0.0331 0.0772,-0.0551 0.0551,-0.0276 0.14332,-0.0331 0.0882,-0.011 0.22048,-0.011 0.13229,0 0.22049,0.011 0.0882,0.006 0.1378,0.0331 0.0551,0.0221 0.0772,0.0551 0.022,0.0276 0.022,0.0717 v 2.88836 q 0,0.43547 0.0606,0.70005 0.0661,0.25907 0.19292,0.44648 0.13229,0.1819 0.33073,0.28663 0.19844,0.0992 0.46302,0.0992 0.34175,0 0.678,-0.24253 0.34175,-0.24254 0.72209,-0.71107 v -3.46714 q 0,-0.0441 0.0165,-0.0717 0.0221,-0.0331 0.0772,-0.0551 0.0551,-0.0276 0.13781,-0.0331 0.0882,-0.011 0.226,-0.011 0.13229,0 0.22048,0.011 0.0882,0.006 0.13781,0.0331 0.0496,0.0221 0.0717,0.0551 0.0276,0.0276 0.0276,0.0717 z"
           style="font-size:11.28888893px;text-align:center;text-anchor:middle;stroke-width:0.26458332"
           id="path2041"
           inkscape:connector-curvature="0" />
        <path
           d="m 135.86736,156.42385 q 0,0.0937 -0.006,0.16536 -0.006,0.0661 -0.0221,0.11576 -0.011,0.0441 -0.0331,0.0827 -0.0165,0.0331 -0.0882,0.10473 -0.0661,0.0661 -0.23151,0.17088 -0.16537,0.0992 -0.37483,0.1819 -0.20395,0.0772 -0.44649,0.12678 -0.24253,0.0496 -0.5016,0.0496 -0.53468,0 -0.94809,-0.17639 -0.41341,-0.17639 -0.69453,-0.51263 -0.27561,-0.34175 -0.42444,-0.83234 -0.14331,-0.49609 -0.14331,-1.14101 0,-0.73312 0.17638,-1.25677 0.18191,-0.52917 0.49059,-0.86541 0.31419,-0.33624 0.73311,-0.49609 0.42444,-0.16537 0.91502,-0.16537 0.23702,0 0.45751,0.0441 0.226,0.0441 0.41341,0.11575 0.18741,0.0717 0.33073,0.16537 0.14883,0.0937 0.21497,0.15985 0.0661,0.0661 0.0882,0.10473 0.0276,0.0386 0.0441,0.0937 0.0165,0.0496 0.0221,0.11575 0.006,0.0661 0.006,0.16537 0,0.21497 -0.0496,0.30317 -0.0496,0.0827 -0.12127,0.0827 -0.0827,0 -0.19293,-0.0882 -0.10473,-0.0937 -0.27009,-0.20395 -0.16537,-0.11025 -0.40239,-0.19844 -0.23151,-0.0937 -0.55121,-0.0937 -0.65595,0 -1.00873,0.50712 -0.34726,0.50161 -0.34726,1.46072 0,0.47956 0.0882,0.84336 0.0937,0.35829 0.2701,0.60082 0.17638,0.24254 0.42994,0.36381 0.25907,0.11575 0.5898,0.11575 0.3142,0 0.55122,-0.0992 0.23702,-0.0992 0.4079,-0.21497 0.17639,-0.12127 0.29214,-0.21498 0.12127,-0.0992 0.18742,-0.0992 0.0386,0 0.0661,0.022 0.0276,0.0221 0.0441,0.0772 0.0221,0.0496 0.0276,0.1323 0.011,0.0772 0.011,0.18741 z"
           style="font-size:11.28888893px;text-align:center;text-anchor:middle;stroke-width:0.26458332"
           id="path2043"
           inkscape:connector-curvature="0" />
        <path
           d="m 141.34644,157.17901 q 0,0.0441 -0.022,0.0772 -0.0221,0.0276 -0.0717,0.0496 -0.0496,0.0221 -0.13781,0.0331 -0.0882,0.011 -0.22048,0.011 -0.13781,0 -0.226,-0.011 -0.0882,-0.011 -0.1378,-0.0331 -0.0496,-0.022 -0.0717,-0.0496 -0.0221,-0.0331 -0.0221,-0.0772 v -2.9049 q 0,-0.42444 -0.0661,-0.68351 -0.0661,-0.25907 -0.19292,-0.44648 -0.12678,-0.18741 -0.33073,-0.28663 -0.19844,-0.0992 -0.46302,-0.0992 -0.34176,0 -0.68351,0.24253 -0.34175,0.24254 -0.71658,0.71107 v 3.46714 q 0,0.0441 -0.022,0.0772 -0.0221,0.0276 -0.0717,0.0496 -0.0496,0.0221 -0.1378,0.0331 -0.0882,0.011 -0.226,0.011 -0.13229,0 -0.22048,-0.011 -0.0882,-0.011 -0.14332,-0.0331 -0.0496,-0.022 -0.0717,-0.0496 -0.0165,-0.0331 -0.0165,-0.0772 v -7.36423 q 0,-0.0441 0.0165,-0.0772 0.0221,-0.0331 0.0717,-0.0551 0.0551,-0.0221 0.14332,-0.0331 0.0882,-0.011 0.22048,-0.011 0.13781,0 0.226,0.011 0.0882,0.011 0.1378,0.0331 0.0496,0.0221 0.0717,0.0551 0.022,0.0331 0.022,0.0772 v 2.97105 q 0.39136,-0.41341 0.78824,-0.61185 0.39687,-0.20395 0.79926,-0.20395 0.4961,0 0.83234,0.17088 0.34175,0.16536 0.55121,0.44648 0.20946,0.28112 0.29766,0.66146 0.0937,0.37483 0.0937,0.9095 z"
           style="font-size:11.28888893px;text-align:center;text-anchor:middle;stroke-width:0.26458332"
           id="path2045"
           inkscape:connector-curvature="0" />
        <path
           d="m 148.13742,156.81521 q 0,0.15985 -0.022,0.25356 -0.0221,0.0937 -0.0662,0.13781 -0.0441,0.0441 -0.13229,0.0827 -0.0882,0.0386 -0.20395,0.0606 -0.11024,0.0276 -0.23702,0.0441 -0.12678,0.0165 -0.25356,0.0165 -0.38585,0 -0.66146,-0.0992 -0.27561,-0.10473 -0.452,-0.30868 -0.17639,-0.20947 -0.25907,-0.52366 -0.0772,-0.3197 -0.0772,-0.74965 v -2.89939 h -0.69453 q -0.0827,0 -0.13229,-0.0882 -0.0496,-0.0882 -0.0496,-0.28663 0,-0.10473 0.011,-0.17639 0.0165,-0.0717 0.0386,-0.11575 0.0221,-0.0496 0.0551,-0.0661 0.0386,-0.0221 0.0827,-0.0221 h 0.68902 v -1.1796 q 0,-0.0386 0.0165,-0.0717 0.0221,-0.0331 0.0717,-0.0551 0.0551,-0.0276 0.14331,-0.0386 0.0882,-0.011 0.22049,-0.011 0.1378,0 0.226,0.011 0.0882,0.011 0.1378,0.0386 0.0496,0.022 0.0717,0.0551 0.0221,0.0331 0.0221,0.0717 v 1.1796 h 1.2733 q 0.0441,0 0.0772,0.0221 0.0331,0.0165 0.0551,0.0661 0.0276,0.0441 0.0386,0.11575 0.011,0.0717 0.011,0.17639 0,0.19844 -0.0496,0.28663 -0.0496,0.0882 -0.1323,0.0882 h -1.2733 v 2.7671 q 0,0.51263 0.14883,0.77721 0.15434,0.25907 0.5457,0.25907 0.12678,0 0.226,-0.0221 0.0992,-0.0276 0.17639,-0.0551 0.0772,-0.0276 0.13229,-0.0496 0.0551,-0.0276 0.0992,-0.0276 0.0276,0 0.0496,0.0165 0.0276,0.011 0.0386,0.0496 0.0165,0.0386 0.0276,0.10473 0.011,0.0661 0.011,0.16536 z"
           style="font-size:11.28888893px;text-align:center;text-anchor:middle;stroke-width:0.26458332"
           id="path2047"
           inkscape:connector-curvature="0" />
        <path
           d="m 153.61098,157.17901 q 0,0.0441 -0.0221,0.0772 -0.022,0.0276 -0.0717,0.0496 -0.0496,0.0221 -0.13781,0.0331 -0.0882,0.011 -0.22048,0.011 -0.13781,0 -0.226,-0.011 -0.0882,-0.011 -0.13781,-0.0331 -0.0496,-0.022 -0.0716,-0.0496 -0.0221,-0.0331 -0.0221,-0.0772 v -2.9049 q 0,-0.42444 -0.0661,-0.68351 -0.0661,-0.25907 -0.19292,-0.44648 -0.12678,-0.18741 -0.33073,-0.28663 -0.19844,-0.0992 -0.46302,-0.0992 -0.34176,0 -0.68351,0.24253 -0.34175,0.24254 -0.71658,0.71107 v 3.46714 q 0,0.0441 -0.0221,0.0772 -0.0221,0.0276 -0.0717,0.0496 -0.0496,0.0221 -0.1378,0.0331 -0.0882,0.011 -0.226,0.011 -0.13229,0 -0.22049,-0.011 -0.0882,-0.011 -0.14331,-0.0331 -0.0496,-0.022 -0.0717,-0.0496 -0.0165,-0.0331 -0.0165,-0.0772 v -7.36423 q 0,-0.0441 0.0165,-0.0772 0.022,-0.0331 0.0717,-0.0551 0.0551,-0.0221 0.14331,-0.0331 0.0882,-0.011 0.22049,-0.011 0.1378,0 0.226,0.011 0.0882,0.011 0.1378,0.0331 0.0496,0.0221 0.0717,0.0551 0.0221,0.0331 0.0221,0.0772 v 2.97105 q 0.39136,-0.41341 0.78824,-0.61185 0.39687,-0.20395 0.79926,-0.20395 0.49609,0 0.83233,0.17088 0.34176,0.16536 0.55122,0.44648 0.20946,0.28112 0.29766,0.66146 0.0937,0.37483 0.0937,0.9095 z"
           style="font-size:11.28888893px;text-align:center;text-anchor:middle;stroke-width:0.26458332"
           id="path2049"
           inkscape:connector-curvature="0" />
        <path
           d="m 159.50347,154.48357 q 0,0.21498 -0.11024,0.30868 -0.10473,0.0882 -0.24253,0.0882 h -3.25217 q 0,0.41341 0.0827,0.74414 0.0827,0.33073 0.27561,0.56775 0.19292,0.23702 0.5016,0.3638 0.30868,0.12678 0.75517,0.12678 0.35277,0 0.62838,-0.0551 0.27561,-0.0606 0.47405,-0.13229 0.20395,-0.0717 0.33073,-0.12678 0.13229,-0.0606 0.19843,-0.0606 0.0386,0 0.0661,0.0221 0.0331,0.0165 0.0496,0.0551 0.0165,0.0386 0.0221,0.11025 0.011,0.0661 0.011,0.16536 0,0.0717 -0.006,0.12678 -0.006,0.0496 -0.0165,0.0937 -0.006,0.0386 -0.0276,0.0717 -0.0165,0.0331 -0.0496,0.0661 -0.0276,0.0276 -0.17639,0.0992 -0.14882,0.0661 -0.38585,0.13229 -0.23702,0.0661 -0.55121,0.11576 -0.30868,0.0551 -0.66146,0.0551 -0.61185,0 -1.07487,-0.17088 -0.45751,-0.17087 -0.7717,-0.50712 -0.31419,-0.33624 -0.47405,-0.84336 -0.15985,-0.50711 -0.15985,-1.1796 0,-0.63941 0.16537,-1.14652 0.16536,-0.51263 0.47404,-0.86541 0.31419,-0.35829 0.75517,-0.5457 0.44097,-0.19293 0.98667,-0.19293 0.58429,0 0.99219,0.18741 0.41341,0.18742 0.67799,0.50712 0.26459,0.31419 0.38585,0.74414 0.12678,0.42444 0.12678,0.90951 z m -0.91501,-0.27009 q 0.0165,-0.71658 -0.31971,-1.12448 -0.33073,-0.4079 -0.98667,-0.4079 -0.33625,0 -0.5898,0.12678 -0.25356,0.12678 -0.42444,0.33624 -0.17088,0.20946 -0.26458,0.49058 -0.0937,0.27561 -0.10473,0.57878 z"
           style="font-size:11.28888893px;text-align:center;text-anchor:middle;stroke-width:0.26458332"
           id="path2051"
           inkscape:connector-curvature="0" />
        <path
           d="m 166.55352,155.82854 q 0,0.38034 -0.14332,0.67799 -0.1378,0.29766 -0.39687,0.50161 -0.25907,0.20395 -0.61736,0.30868 -0.35829,0.10473 -0.78824,0.10473 -0.26458,0 -0.50712,-0.0441 -0.23702,-0.0386 -0.42995,-0.0992 -0.18741,-0.0661 -0.3197,-0.13229 -0.13229,-0.0717 -0.19293,-0.12678 -0.0606,-0.0551 -0.0882,-0.15434 -0.0276,-0.0992 -0.0276,-0.27009 0,-0.10473 0.011,-0.17639 0.011,-0.0717 0.0276,-0.11576 0.0165,-0.0441 0.0441,-0.0606 0.0331,-0.0221 0.0717,-0.0221 0.0606,0 0.17639,0.0772 0.12127,0.0717 0.29214,0.15985 0.17639,0.0882 0.41341,0.16537 0.23703,0.0717 0.54571,0.0717 0.23151,0 0.41892,-0.0496 0.18741,-0.0496 0.32522,-0.14332 0.1378,-0.0992 0.20946,-0.24805 0.0772,-0.14883 0.0772,-0.35278 0,-0.20946 -0.11024,-0.35277 -0.10473,-0.14332 -0.28112,-0.25356 -0.17639,-0.11024 -0.39688,-0.19293 -0.22048,-0.0882 -0.45751,-0.1819 -0.23151,-0.0937 -0.45751,-0.20946 -0.22048,-0.12127 -0.39687,-0.29214 -0.17639,-0.17088 -0.28663,-0.4079 -0.10473,-0.23703 -0.10473,-0.56776 0,-0.29214 0.11024,-0.55672 0.11575,-0.2701 0.34175,-0.46854 0.226,-0.20395 0.56224,-0.32521 0.34176,-0.12127 0.79375,-0.12127 0.19844,0 0.39688,0.0331 0.19844,0.0331 0.35829,0.0827 0.15985,0.0496 0.27009,0.11024 0.11576,0.0551 0.17088,0.0992 0.0606,0.0441 0.0772,0.0772 0.022,0.0331 0.0276,0.0772 0.011,0.0386 0.0165,0.0992 0.011,0.0606 0.011,0.14882 0,0.0937 -0.011,0.16537 -0.006,0.0661 -0.0276,0.11024 -0.0165,0.0441 -0.0441,0.0661 -0.0276,0.0165 -0.0606,0.0165 -0.0496,0 -0.14332,-0.0606 -0.0937,-0.0606 -0.24254,-0.12678 -0.14882,-0.0717 -0.35277,-0.13229 -0.19844,-0.0606 -0.45751,-0.0606 -0.23151,0 -0.4079,0.0551 -0.17639,0.0496 -0.29215,0.14883 -0.11024,0.0937 -0.17087,0.22599 -0.0551,0.1323 -0.0551,0.28664 0,0.21497 0.11024,0.3638 0.11024,0.14331 0.28663,0.25356 0.17639,0.11024 0.40239,0.19843 0.226,0.0882 0.45751,0.18191 0.23702,0.0937 0.46302,0.20946 0.23151,0.11575 0.4079,0.28112 0.17639,0.16536 0.28112,0.39687 0.11024,0.23151 0.11024,0.55122 z"
           style="font-size:11.28888893px;text-align:center;text-anchor:middle;stroke-width:0.26458332"
           id="path2053"
           inkscape:connector-curvature="0" />
        <path
           d="m 171.42075,156.42385 q 0,0.0937 -0.006,0.16536 -0.006,0.0661 -0.0221,0.11576 -0.011,0.0441 -0.0331,0.0827 -0.0165,0.0331 -0.0882,0.10473 -0.0661,0.0661 -0.23151,0.17088 -0.16536,0.0992 -0.37482,0.1819 -0.20395,0.0772 -0.44649,0.12678 -0.24253,0.0496 -0.5016,0.0496 -0.53468,0 -0.94809,-0.17639 -0.41342,-0.17639 -0.69454,-0.51263 -0.2756,-0.34175 -0.42443,-0.83234 -0.14332,-0.49609 -0.14332,-1.14101 0,-0.73312 0.17639,-1.25677 0.1819,-0.52917 0.49058,-0.86541 0.3142,-0.33624 0.73312,-0.49609 0.42443,-0.16537 0.91502,-0.16537 0.23702,0 0.4575,0.0441 0.226,0.0441 0.41342,0.11575 0.18741,0.0717 0.33073,0.16537 0.14882,0.0937 0.21497,0.15985 0.0661,0.0661 0.0882,0.10473 0.0276,0.0386 0.0441,0.0937 0.0165,0.0496 0.0221,0.11575 0.006,0.0661 0.006,0.16537 0,0.21497 -0.0496,0.30317 -0.0496,0.0827 -0.12126,0.0827 -0.0827,0 -0.19293,-0.0882 -0.10473,-0.0937 -0.2701,-0.20395 -0.16536,-0.11025 -0.40238,-0.19844 -0.23151,-0.0937 -0.55122,-0.0937 -0.65594,0 -1.00872,0.50712 -0.34727,0.50161 -0.34727,1.46072 0,0.47956 0.0882,0.84336 0.0937,0.35829 0.27009,0.60082 0.17639,0.24254 0.42995,0.36381 0.25907,0.11575 0.5898,0.11575 0.31419,0 0.55122,-0.0992 0.23702,-0.0992 0.4079,-0.21497 0.17638,-0.12127 0.29214,-0.21498 0.12127,-0.0992 0.18741,-0.0992 0.0386,0 0.0661,0.022 0.0276,0.0221 0.0441,0.0772 0.022,0.0496 0.0276,0.1323 0.011,0.0772 0.011,0.18741 z"
           style="font-size:11.28888893px;text-align:center;text-anchor:middle;stroke-width:0.26458332"
           id="path2055"
           inkscape:connector-curvature="0" />
        <path
           d="m 175.52731,152.54329 q 0,0.12127 -0.006,0.20395 -0.006,0.0827 -0.0221,0.1323 -0.0165,0.0441 -0.0441,0.0717 -0.022,0.0221 -0.0661,0.0221 -0.0441,0 -0.11024,-0.0221 -0.0606,-0.0276 -0.14332,-0.0496 -0.0772,-0.0276 -0.17639,-0.0496 -0.0992,-0.022 -0.21497,-0.022 -0.1378,0 -0.2701,0.0551 -0.13229,0.0551 -0.28112,0.1819 -0.14331,0.12678 -0.30316,0.33624 -0.15986,0.20946 -0.35278,0.51263 v 3.26319 q 0,0.0441 -0.0221,0.0772 -0.022,0.0276 -0.0717,0.0496 -0.0496,0.0221 -0.1378,0.0331 -0.0882,0.011 -0.226,0.011 -0.13229,0 -0.22049,-0.011 -0.0882,-0.011 -0.14331,-0.0331 -0.0496,-0.022 -0.0717,-0.0496 -0.0165,-0.0331 -0.0165,-0.0772 v -4.96093 q 0,-0.0441 0.0165,-0.0717 0.0165,-0.0331 0.0661,-0.0551 0.0496,-0.0276 0.12677,-0.0331 0.0772,-0.011 0.20395,-0.011 0.12127,0 0.19844,0.011 0.0827,0.006 0.12678,0.0331 0.0441,0.0221 0.0606,0.0551 0.022,0.0276 0.022,0.0717 v 0.72209 q 0.20395,-0.29766 0.38034,-0.48507 0.1819,-0.18741 0.34176,-0.29214 0.15985,-0.11025 0.31419,-0.14883 0.15985,-0.0441 0.3197,-0.0441 0.0717,0 0.15986,0.011 0.0937,0.006 0.19292,0.0276 0.0992,0.022 0.17639,0.0496 0.0827,0.0276 0.11576,0.0551 0.0331,0.0276 0.0441,0.0551 0.011,0.022 0.0165,0.0606 0.011,0.0386 0.011,0.11576 0.006,0.0716 0.006,0.19843 z"
           style="font-size:11.28888893px;text-align:center;text-anchor:middle;stroke-width:0.26458332"
           id="path2057"
           inkscape:connector-curvature="0" />
        <path
           d="m 180.64809,154.48357 q 0,0.21498 -0.11024,0.30868 -0.10473,0.0882 -0.24254,0.0882 h -3.25217 q 0,0.41341 0.0827,0.74414 0.0827,0.33073 0.2756,0.56775 0.19293,0.23702 0.50161,0.3638 0.30868,0.12678 0.75517,0.12678 0.35277,0 0.62838,-0.0551 0.27561,-0.0606 0.47405,-0.13229 0.20395,-0.0717 0.33073,-0.12678 0.13229,-0.0606 0.19843,-0.0606 0.0386,0 0.0661,0.0221 0.0331,0.0165 0.0496,0.0551 0.0165,0.0386 0.022,0.11025 0.011,0.0661 0.011,0.16536 0,0.0717 -0.006,0.12678 -0.006,0.0496 -0.0165,0.0937 -0.006,0.0386 -0.0276,0.0717 -0.0165,0.0331 -0.0496,0.0661 -0.0276,0.0276 -0.17639,0.0992 -0.14883,0.0661 -0.38585,0.13229 -0.23702,0.0661 -0.55121,0.11576 -0.30868,0.0551 -0.66146,0.0551 -0.61185,0 -1.07487,-0.17088 -0.45751,-0.17087 -0.7717,-0.50712 -0.3142,-0.33624 -0.47405,-0.84336 -0.15985,-0.50711 -0.15985,-1.1796 0,-0.63941 0.16536,-1.14652 0.16537,-0.51263 0.47405,-0.86541 0.31419,-0.35829 0.75516,-0.5457 0.44098,-0.19293 0.98668,-0.19293 0.58429,0 0.99219,0.18741 0.41341,0.18742 0.67799,0.50712 0.26459,0.31419 0.38585,0.74414 0.12678,0.42444 0.12678,0.90951 z m -0.91501,-0.27009 q 0.0165,-0.71658 -0.31971,-1.12448 -0.33073,-0.4079 -0.98668,-0.4079 -0.33624,0 -0.5898,0.12678 -0.25355,0.12678 -0.42443,0.33624 -0.17088,0.20946 -0.26458,0.49058 -0.0937,0.27561 -0.10474,0.57878 z"
           style="font-size:11.28888893px;text-align:center;text-anchor:middle;stroke-width:0.26458332"
           id="path2059"
           inkscape:connector-curvature="0" />
        <path
           d="m 186.26498,154.48357 q 0,0.21498 -0.11024,0.30868 -0.10474,0.0882 -0.24254,0.0882 h -3.25217 q 0,0.41341 0.0827,0.74414 0.0827,0.33073 0.27561,0.56775 0.19293,0.23702 0.50161,0.3638 0.30868,0.12678 0.75516,0.12678 0.35278,0 0.62839,-0.0551 0.2756,-0.0606 0.47404,-0.13229 0.20395,-0.0717 0.33073,-0.12678 0.13229,-0.0606 0.19844,-0.0606 0.0386,0 0.0661,0.0221 0.0331,0.0165 0.0496,0.0551 0.0165,0.0386 0.0221,0.11025 0.011,0.0661 0.011,0.16536 0,0.0717 -0.006,0.12678 -0.006,0.0496 -0.0165,0.0937 -0.006,0.0386 -0.0276,0.0717 -0.0165,0.0331 -0.0496,0.0661 -0.0276,0.0276 -0.17639,0.0992 -0.14883,0.0661 -0.38585,0.13229 -0.23702,0.0661 -0.55122,0.11576 -0.30868,0.0551 -0.66146,0.0551 -0.61184,0 -1.07486,-0.17088 -0.45751,-0.17087 -0.77171,-0.50712 -0.31419,-0.33624 -0.47404,-0.84336 -0.15985,-0.50711 -0.15985,-1.1796 0,-0.63941 0.16536,-1.14652 0.16537,-0.51263 0.47405,-0.86541 0.31419,-0.35829 0.75516,-0.5457 0.44097,-0.19293 0.98668,-0.19293 0.58428,0 0.99218,0.18741 0.41342,0.18742 0.678,0.50712 0.26458,0.31419 0.38585,0.74414 0.12678,0.42444 0.12678,0.90951 z m -0.91502,-0.27009 q 0.0165,-0.71658 -0.3197,-1.12448 -0.33073,-0.4079 -0.98668,-0.4079 -0.33624,0 -0.5898,0.12678 -0.25356,0.12678 -0.42444,0.33624 -0.17087,0.20946 -0.26458,0.49058 -0.0937,0.27561 -0.10473,0.57878 z"
           style="font-size:11.28888893px;text-align:center;text-anchor:middle;stroke-width:0.26458332"
           id="path2061"
           inkscape:connector-curvature="0" />
        <path
           d="m 191.92045,157.17901 q 0,0.0441 -0.022,0.0772 -0.0221,0.0276 -0.0717,0.0496 -0.0496,0.0221 -0.1378,0.0331 -0.0882,0.011 -0.22049,0.011 -0.1378,0 -0.226,-0.011 -0.0882,-0.011 -0.1378,-0.0331 -0.0496,-0.022 -0.0717,-0.0496 -0.0221,-0.0331 -0.0221,-0.0772 v -2.9049 q 0,-0.42444 -0.0661,-0.68351 -0.0661,-0.25907 -0.19292,-0.44648 -0.12678,-0.18741 -0.33073,-0.28663 -0.19844,-0.0992 -0.46302,-0.0992 -0.34175,0 -0.68351,0.24253 -0.34175,0.24254 -0.71658,0.71107 v 3.46714 q 0,0.0441 -0.0221,0.0772 -0.022,0.0276 -0.0717,0.0496 -0.0496,0.0221 -0.13781,0.0331 -0.0882,0.011 -0.226,0.011 -0.13229,0 -0.22048,-0.011 -0.0882,-0.011 -0.14332,-0.0331 -0.0496,-0.022 -0.0717,-0.0496 -0.0165,-0.0331 -0.0165,-0.0772 v -4.96093 q 0,-0.0441 0.0165,-0.0717 0.0165,-0.0331 0.0661,-0.0551 0.0496,-0.0276 0.12678,-0.0331 0.0772,-0.011 0.20395,-0.011 0.12127,0 0.19844,0.011 0.0827,0.006 0.12678,0.0331 0.0441,0.0221 0.0606,0.0551 0.0221,0.0276 0.0221,0.0717 v 0.65594 q 0.41892,-0.46853 0.83233,-0.6835 0.41893,-0.22049 0.84336,-0.22049 0.4961,0 0.83234,0.17088 0.34175,0.16536 0.55121,0.44648 0.20946,0.28112 0.29766,0.66146 0.0937,0.37483 0.0937,0.90399 z"
           style="font-size:11.28888893px;text-align:center;text-anchor:middle;stroke-width:0.26458332"
           id="path2063"
           inkscape:connector-curvature="0" />
      </g>
      <path
         style="opacity:1;fill:#ffffff;fill-opacity:1;stroke:#f9f9f9;stroke-width:1.61929631;stroke-linecap:round;stroke-linejoin:miter;stroke-miterlimit:4;stroke-dasharray:none;stroke-opacity:1;paint-order:stroke fill markers"
         d="m 225.60232,132.58663 c -144.125977,0 -144.125977,0 -144.125977,0"
         id="path2155"
         inkscape:connector-curvature="0" />
    </g>
  </g>
</svg>
