<?xml version="1.0" encoding="UTF-8" standalone="no"?>
<!-- Created with Inkscape (http://www.inkscape.org/) -->

<svg
   xmlns:dc="http://purl.org/dc/elements/1.1/"
   xmlns:cc="http://creativecommons.org/ns#"
   xmlns:rdf="http://www.w3.org/1999/02/22-rdf-syntax-ns#"
   xmlns:svg="http://www.w3.org/2000/svg"
   xmlns="http://www.w3.org/2000/svg"
   xmlns:sodipodi="http://sodipodi.sourceforge.net/DTD/sodipodi-0.dtd"
   xmlns:inkscape="http://www.inkscape.org/namespaces/inkscape"
   width="71.619362mm"
   height="82.564407mm"
   viewBox="0 0 71.619362 82.564407"
   version="1.1"
   id="svg4696"
   inkscape:version="0.92.4 5da689c313, 2019-01-14"
   sodipodi:docname="finalize_location.svg">
  <defs
     id="defs4690" />
  <sodipodi:namedview
     id="base"
     pagecolor="#ffffff"
     bordercolor="#666666"
     borderopacity="1.0"
     inkscape:pageopacity="0.0"
     inkscape:pageshadow="2"
     inkscape:zoom="0.49497475"
     inkscape:cx="-222.9252"
     inkscape:cy="295.83192"
     inkscape:document-units="mm"
     inkscape:current-layer="layer1"
     showgrid="false"
     inkscape:window-width="1366"
     inkscape:window-height="705"
     inkscape:window-x="0"
     inkscape:window-y="0"
     inkscape:window-maximized="1" />
  <metadata
     id="metadata4693">
    <rdf:RDF>
      <cc:Work
         rdf:about="">
        <dc:format>image/svg+xml</dc:format>
        <dc:type
           rdf:resource="http://purl.org/dc/dcmitype/StillImage" />
        <dc:title></dc:title>
      </cc:Work>
    </rdf:RDF>
  </metadata>
  <g
     inkscape:label="Camada 1"
     inkscape:groupmode="layer"
     id="layer1"
     transform="translate(38.07754,-50.098748)">
    <g
       id="g5389">
      <path
         inkscape:connector-curvature="0"
         id="path896"
         d="m 7.117104,115.13517 c -0.03378,-0.4633 -0.10669,-1.83605 -0.162177,-3.05054 -0.05542,-1.21451 -0.166856,-3.54061 -0.247573,-5.16914 -0.08067,-1.62853 -0.170495,-3.4578 -0.199518,-4.06506 -0.170638,-3.570591 -0.152317,-3.400335 -0.386061,-3.587184 -0.120092,-0.09598 -2.07989,-1.552651 -4.355112,-3.236992 -3.644521,-2.698023 -4.344639,-3.185341 -4.344639,-3.024016 0,0.124584 -2.030415,12.110252 -2.093412,12.357492 l -0.07674,0.30111 -1.499514,0.11653 c -1.428558,0.111 -4.880525,0.37368 -9.027381,0.68694 -1.048882,0.0793 -3.103991,0.23668 -4.566906,0.34987 -4.793657,0.37091 -5.707014,0.42934 -5.850557,0.37426 -0.107542,-0.0413 -0.171435,-0.474 -0.264982,-1.79471 -0.0678,-0.95717 -0.186193,-2.4837 -0.263101,-3.39229 -0.109864,-1.29791 -0.113551,-1.66865 -0.01721,-1.72987 0.06745,-0.0429 0.372933,-0.0786 0.678864,-0.0795 0.596163,-0.001 0.626455,0.01 4.412153,1.5966 1.076485,0.45135 2.454086,1.02797 3.061334,1.28135 0.607248,0.25339 1.349125,0.56848 1.648617,0.70018 0.299492,0.1317 0.574095,0.20446 0.610229,0.16167 0.03613,-0.0427 0.486293,-1.09861 1.000354,-2.3463 l 0.934656,-2.268517 1.566002,-0.140401 1.566003,-0.140391 0.121764,-0.602228 c 0.06701,-0.331219 0.374343,-2.183082 0.683054,-4.115235 0.888574,-5.561327 0.94722,-5.899138 1.097668,-6.323404 0.68993,-1.945653 6.445135,-17.871778 6.738105,-18.646054 0.278377,-0.735721 0.704643,-0.680146 -4.995392,-0.651298 l -5.138574,0.02602 -0.366916,0.853157 c -0.367801,0.855222 -3.905735,8.88754 -4.28836,9.73605 -0.112023,0.248414 -0.458086,1.012676 -0.769028,1.698354 -0.429697,0.947537 -0.534453,1.26589 -0.43658,1.326777 0.07082,0.04405 0.490107,0.222584 0.931742,0.39673 0.441635,0.174136 0.844603,0.354929 0.895484,0.401781 0.08365,0.07696 -0.254602,0.978024 -1.008918,2.687539 -0.130826,0.296501 -0.237866,0.573829 -0.237866,0.616297 0,0.04241 0.462964,0.269807 1.028809,0.505201 0.565844,0.235384 1.063807,0.458263 1.106582,0.495298 0.04277,0.03706 -0.02999,0.312373 -0.161682,0.611859 -0.263652,0.59956 -0.814309,1.910979 -1.830173,4.358653 -0.366584,0.883272 -0.845379,2.035039 -1.063989,2.559479 -0.218609,0.524441 -0.593926,1.427783 -0.834039,2.007427 -1.089521,2.630183 -1.344118,3.232436 -1.382819,3.271136 -0.02279,0.0228 -0.557024,-0.17726 -1.187188,-0.444572 -0.630164,-0.267304 -1.552257,-0.653835 -2.049097,-0.85895 -0.49684,-0.205115 -0.993679,-0.413313 -1.104087,-0.462668 -0.11041,-0.0493 -0.652416,-0.275567 -1.204459,-0.502709 -0.552045,-0.227153 -1.410221,-0.584246 -1.907061,-0.793537 -1.180643,-0.497353 -2.78523,-1.167967 -4.466536,-1.866696 -0.745259,-0.309728 -1.396341,-0.603813 -1.446849,-0.653507 -0.05532,-0.05444 0.0123,-0.341155 0.170091,-0.721215 1.130599,-2.723056 1.95598,-4.705121 2.33166,-5.599237 0.243549,-0.579644 0.943942,-2.250834 1.556427,-3.71375 0.612487,-1.462916 1.144968,-2.688502 1.183295,-2.723525 0.03833,-0.03498 0.537256,0.137428 1.108734,0.383208 0.571479,0.245779 1.090902,0.425905 1.154274,0.400272 0.06337,-0.02558 0.406577,-0.751364 0.762678,-1.612741 0.356101,-0.861387 0.700406,-1.566162 0.76512,-1.566162 0.108023,0 0.61231,0.199956 1.412997,0.560274 0.293642,0.132137 0.536874,0.183012 0.536874,0.112297 0,-0.01651 0.218905,-0.524659 0.486455,-1.129183 0.267551,-0.604534 1.153159,-2.612255 1.968018,-4.461593 1.455318,-3.302896 2.444053,-5.531998 2.93834,-6.624528 0.137368,-0.303629 0.635508,-1.4328 1.106975,-2.509294 0.471468,-1.076483 0.906951,-1.99104 0.967742,-2.032339 0.06079,-0.04132 3.633568,-0.06384 7.939504,-0.05017 l 7.828984,0.02492 0.752796,0.317522 c 0.414034,0.174639 1.181872,0.48394 1.706312,0.687317 0.524441,0.203377 1.348739,0.523457 1.831782,0.711279 0.483033,0.187822 1.29605,0.503343 1.806684,0.701145 0.510645,0.197813 1.425279,0.554895 2.032525,0.793515 0.607256,0.238631 1.759023,0.686683 2.559479,0.995679 0.800467,0.308995 1.568305,0.621237 1.706323,0.693876 0.204285,0.107564 6.770812,5.169319 7.34053,5.65843 0.14602,0.12536 0.709486,-0.327655 5.146418,-4.137579 2.740338,-2.353085 5.021124,-4.263649 5.068413,-4.245678 0.04733,0.01804 0.833512,0.90508 1.747162,1.971364 l 1.661205,1.938712 -0.369424,0.327469 c -0.20318,0.180115 -2.898787,2.49563 -5.990239,5.14561 -3.091441,2.649968 -5.88755,5.05161 -6.213566,5.336972 -0.326004,0.285351 -0.638071,0.518833 -0.693471,0.518833 -0.116222,0 0.181263,0.225098 -5.488853,-4.153363 -2.401391,-1.854344 -4.414479,-3.372211 -4.473519,-3.37302 -0.05903,-7.66e-4 -0.294064,0.393724 -0.522266,0.876767 -0.228191,0.483033 -1.099843,2.278436 -1.937017,3.989766 -3.837973,7.845588 -4.810674,9.86282 -4.810674,9.976637 0,0.05138 1.614729,1.284932 3.58828,2.741114 1.973561,1.456171 4.252138,3.138314 5.063515,3.738094 l 1.475224,1.090497 0.05258,0.511202 c 0.02886,0.281165 0.07849,1.211299 0.110275,2.066959 0.0317,0.85567 0.100896,2.323606 0.153618,3.262086 0.05269,0.93847 0.163543,3.1065 0.246238,4.81783 0.08275,1.71134 0.217665,4.46473 0.299934,6.11866 0.08231,1.65393 0.116167,3.03728 0.07532,3.07413 -0.04088,0.0368 -1.226035,0.11925 -2.633747,0.18312 -1.407713,0.0638 -2.950099,0.1436 -3.427524,0.17716 l -0.868045,0.061 z m -24.951567,-13.65479 c -0.524442,-0.22498 -0.968622,-0.42283 -0.987069,-0.43965 -0.01845,-0.0168 0.170969,-0.51988 0.420923,-1.117878 2.045681,-4.894189 2.834043,-6.785514 3.026248,-7.26013 0.704329,-1.739226 1.784799,-4.277171 1.850363,-4.346377 0.108362,-0.114375 2.113317,0.732835 2.113317,0.89299 0,0.115237 -0.548043,1.454553 -2.357761,5.761927 -0.243533,0.579655 -0.808907,1.934668 -1.256386,3.011151 -1.499215,3.606617 -1.636727,3.914517 -1.746659,3.910757 -0.0602,-0.002 -0.538534,-0.18783 -1.062976,-0.41279 z m -19.120789,-7.979838 c -0.441633,-0.19144 -0.88457,-0.373873 -0.984299,-0.405399 -0.09973,-0.03148 -0.158776,-0.107783 -0.131212,-0.169588 0.02758,-0.06176 1.235221,-2.949651 2.683687,-6.417545 2.086629,-4.995795 2.666278,-6.295332 2.791059,-6.257389 0.08662,0.02634 0.541409,0.208996 1.010646,0.40588 0.728321,0.305606 0.851406,0.391406 0.841174,0.586388 -0.01006,0.192304 -1.259302,3.230411 -3.994012,9.713521 -0.29108,0.69005 -0.680749,1.627268 -0.865933,2.082699 -0.185183,0.455442 -0.384269,0.823893 -0.442417,0.818788 -0.05814,-0.0055 -0.467057,-0.165904 -0.908693,-0.357355 z M 8.941004,64.26116 C 6.739733,63.858593 4.719156,62.347929 3.788311,60.408802 3.135285,59.048433 3.010253,58.442237 3.071687,56.934426 c 0.03454,-0.848445 0.112494,-1.43855 0.239079,-1.81068 0.62808,-1.846282 1.974654,-3.409119 3.647473,-4.233243 2.143117,-1.055815 4.178636,-1.055657 6.319075,3.79e-4 0.774133,0.381983 1.111157,0.627389 1.819681,1.324997 0.711038,0.700077 0.951352,1.020334 1.318021,1.756503 0.577884,1.160245 0.793296,2.045191 0.793296,3.259048 0,1.228515 -0.218156,2.116335 -0.800423,3.257444 -0.847866,1.661603 -2.460573,3.004132 -4.281435,3.564132 -0.789142,0.242697 -2.415197,0.348895 -3.18545,0.208034 z"
         style="fill:#000000;stroke-width:0.10037158" />
      <g
         transform="translate(0,1.3870479)"
         id="g5378">
        <text
           xml:space="preserve"
           style="font-style:normal;font-variant:normal;font-weight:normal;font-stretch:normal;font-size:7.80571985px;line-height:0;font-family:Calibri;-inkscape-font-specification:Calibri;letter-spacing:0px;word-spacing:0px;fill:#000000;fill-opacity:1;stroke:none;stroke-width:0.26458326"
           x="-16.517448"
           y="121.8764"
           id="text1489"
           transform="scale(0.99550053,1.0045198)"><tspan
             sodipodi:role="line"
             id="tspan1483"
             x="-16.517448"
             y="123.82784"
             style="font-style:normal;font-variant:normal;font-weight:normal;font-stretch:normal;font-family:Calibri;-inkscape-font-specification:Calibri;stroke-width:0.26458326" /><tspan
             sodipodi:role="line"
             x="-16.517448"
             y="123.82784"
             style="font-style:normal;font-variant:normal;font-weight:normal;font-stretch:normal;font-family:Calibri;-inkscape-font-specification:Calibri;stroke-width:0.26458326"
             id="tspan1487">FINALIZE </tspan></text>
        <text
           id="text1497"
           y="128.72365"
           x="-18.440294"
           style="font-style:normal;font-variant:normal;font-weight:normal;font-stretch:normal;font-size:7.80571985px;line-height:0;font-family:Calibri;-inkscape-font-specification:Calibri;letter-spacing:0px;word-spacing:0px;fill:#000000;fill-opacity:1;stroke:none;stroke-width:0.26458326"
           xml:space="preserve"
           transform="scale(0.99550053,1.0045198)"><tspan
             style="font-style:normal;font-variant:normal;font-weight:normal;font-stretch:normal;font-family:Calibri;-inkscape-font-specification:Calibri;stroke-width:0.26458326"
             y="130.67508"
             x="-18.440294"
             id="tspan1491"
             sodipodi:role="line" /><tspan
             id="tspan1493"
             style="font-style:normal;font-variant:normal;font-weight:normal;font-stretch:normal;font-family:Calibri;-inkscape-font-specification:Calibri;stroke-width:0.26458326"
             y="130.67508"
             x="-18.440294"
             sodipodi:role="line">LOCATION </tspan><tspan
             id="tspan1495"
             style="font-style:normal;font-variant:normal;font-weight:normal;font-stretch:normal;font-family:Calibri;-inkscape-font-specification:Calibri;stroke-width:0.26458326"
             y="130.67508"
             x="-18.440294"
             sodipodi:role="line">               </tspan></text>
      </g>
    </g>
  </g>
</svg>
