<?xml version="1.0" encoding="UTF-8" standalone="no"?>
<!-- Created with Inkscape (http://www.inkscape.org/) -->

<svg
   xmlns:dc="http://purl.org/dc/elements/1.1/"
   xmlns:cc="http://creativecommons.org/ns#"
   xmlns:rdf="http://www.w3.org/1999/02/22-rdf-syntax-ns#"
   xmlns:svg="http://www.w3.org/2000/svg"
   xmlns="http://www.w3.org/2000/svg"
   xmlns:sodipodi="http://sodipodi.sourceforge.net/DTD/sodipodi-0.dtd"
   xmlns:inkscape="http://www.inkscape.org/namespaces/inkscape"
   width="210mm"
   height="297mm"
   viewBox="0 0 210 297"
   version="1.1"
   id="svg8"
   inkscape:version="0.92.3 (2405546, 2018-03-11)"
   sodipodi:docname="hand_touch.svg">
  <sodipodi:namedview
     id="base"
     pagecolor="#ffffff"
     bordercolor="#666666"
     borderopacity="1.0"
     inkscape:pageopacity="0.0"
     inkscape:pageshadow="2"
     inkscape:zoom="0.36915674"
     inkscape:cx="-112.2736"
     inkscape:cy="512.25089"
     inkscape:document-units="mm"
     inkscape:current-layer="layer1"
     showgrid="false"
     inkscape:window-width="1366"
     inkscape:window-height="715"
     inkscape:window-x="-8"
     inkscape:window-y="-8"
     inkscape:window-maximized="1" />
  <style
     id="style20">
.class1 {
    stroke:none;
    stroke-width:0.58373398;
    fill:url(#pattern1555);
}</style>
  <defs
     id="defs2">
    <pattern
       patternUnits="userSpaceOnUse"
       width="411.03509"
       height="493.35603"
       patternTransform="matrix(0.26458333,0,0,0.26458333,14.468362,79.776814)"
       id="pattern825">
      <g
         inkscape:export-ydpi="96"
         inkscape:export-xdpi="96"
         transform="matrix(1.4684769,0,0,1.4684769,696.07868,-57.854882)"
         id="g4588">
        <path
           style="stroke-width:0.32036728"
           d="m -354.10567,140.10423 c 9.94644,0 17.95387,22.66548 17.95387,50.81946 v 80.07916 c 0,28.15398 -8.00743,50.81946 -17.95387,50.81946 -9.94644,0 -23.64616,7.54885 -22.48958,-20.58136 l 4.53571,-110.31726 c 1.15658,-28.13021 8.00743,-50.81946 17.95387,-50.81946 z"
           id="rect3713"
           inkscape:connector-curvature="0"
           sodipodi:nodetypes="sssssss" />
        <rect
           ry="30.549128"
           style="stroke-width:0.2483891"
           y="192.47769"
           x="-336.15179"
           height="109.23628"
           width="35.907738"
           id="rect3715" />
        <rect
           id="rect3717"
           width="35.907738"
           height="91.776382"
           x="-300.24405"
           y="209.93759"
           style="stroke-width:0.22767456"
           ry="25.666275" />
        <rect
           ry="22.285839"
           style="stroke-width:0.21215223"
           y="222.02521"
           x="-264.33633"
           height="79.688751"
           width="35.907738"
           id="rect3719" />
        <rect
           id="rect3721"
           width="35.907738"
           height="68.496513"
           x="-230.01607"
           y="234.80493"
           style="stroke-width:0.19669044"
           ry="19.155806" />
        <path
           style="stroke-width:0.23111075"
           d="m -435.39166,257.13822 c 8.02246,-5.87979 38.08465,11.75154 46.74584,23.56899 l 24.63526,33.6127 c 8.66119,11.81745 38.04052,47.98078 30.01805,53.86056 -8.02246,5.87979 -50.31881,-20.81645 -58.98,-32.6339 l -24.63526,-33.6127 c -8.66119,-11.81745 -25.80635,-38.91587 -17.78389,-44.79565 z"
           id="rect3723"
           inkscape:connector-curvature="0"
           sodipodi:nodetypes="sssssss" />
        <path
           style="stroke-width:0.28329214"
           d="m -314.94252,255.97559 h 62.50689 c 33.07013,0 58.18148,9.23634 58.18148,42.30647 0,33.07014 -25.11135,77.08028 -58.18148,77.08028 h -62.50689 c -33.07013,0 -59.69337,-26.62324 -59.69337,-59.69338 0,-33.07013 26.62324,-59.69337 59.69337,-59.69337 z"
           id="rect3725"
           inkscape:connector-curvature="0"
           sodipodi:nodetypes="sssssss" />
        <path
           id="path3727"
           style="fill:none;stroke:#000000;stroke-width:14.46500015;stroke-miterlimit:4;stroke-dasharray:none"
           sodipodi:type="arc"
           sodipodi:cx="303.54391"
           sodipodi:cy="247.11513"
           sodipodi:rx="61.555435"
           sodipodi:ry="61.238453"
           sodipodi:start="6.152508"
           sodipodi:end="4.8526041"
           d="m 364.57452,239.13541 a 61.555435,61.238453 0 0 1 -33.9432,62.97024 61.555435,61.238453 0 0 1 -70.82075,-11.89539 61.555435,61.238453 0 0 1 -11.28095,-70.56631 61.555435,61.238453 0 0 1 63.61704,-33.16628"
           transform="rotate(118.52649)"
           sodipodi:open="true" />
        <path
           sodipodi:open="true"
           transform="rotate(118.52649)"
           d="M 406.90988,215.07933 A 105.37589,104.83325 0 0 1 365.32047,332.43838 105.37589,104.83325 0 0 1 240.33236,327.58966 105.37589,104.83325 0 0 1 208.0553,207.36508 105.37589,104.83325 0 0 1 313.96805,141.16251"
           sodipodi:end="4.7868302"
           sodipodi:start="5.9867205"
           sodipodi:ry="104.83325"
           sodipodi:rx="105.37589"
           sodipodi:cy="245.70543"
           sodipodi:cx="306.13098"
           sodipodi:type="arc"
           style="fill:none;stroke:#000000;stroke-width:13.96199989;stroke-miterlimit:4;stroke-dasharray:none"
           id="path4534" />
      </g>
    </pattern>
  </defs>
  <metadata
     id="metadata5">
    <rdf:RDF>
      <cc:Work
         rdf:about="">
        <dc:format>image/svg+xml</dc:format>
        <dc:type
           rdf:resource="http://purl.org/dc/dcmitype/StillImage" />
        <dc:title />
      </cc:Work>
    </rdf:RDF>
  </metadata>
  <g
     inkscape:label="Camada 1"
     inkscape:groupmode="layer"
     id="layer1">
    <g
       id="g4747"
       transform="matrix(0.71580083,0,0,0.71580083,282.81531,238.43005)">
      <g
         transform="translate(43.003413,110.37543)"
         id="g4733">
        <g
           id="g1017"
           transform="translate(-301.02389,-318.22525)">
          <rect
             ry="40.037209"
             y="11.626791"
             x="-30.505758"
             height="172.31203"
             width="34.700611"
             id="rect110"
             style="fill:#000000;fill-opacity:1;stroke:#222930;stroke-width:0.27867895;stroke-linecap:round;stroke-linejoin:round;stroke-miterlimit:22.92560005;stroke-dasharray:none;stroke-opacity:1;paint-order:stroke fill markers" />
          <rect
             style="fill:#000000;fill-opacity:1;stroke:#222930;stroke-width:0.26028675;stroke-linecap:round;stroke-linejoin:round;stroke-miterlimit:22.92560005;stroke-dasharray:none;stroke-opacity:1;paint-order:stroke fill markers"
             id="rect112"
             width="35.732605"
             height="145.97681"
             x="4.1856561"
             y="37.971199"
             ry="33.918144" />
          <rect
             ry="30.136305"
             y="54.273426"
             x="38.882401"
             height="129.70055"
             width="27.929132"
             id="rect114"
             style="fill:#000000;fill-opacity:1;stroke:#222930;stroke-width:0.21690892;stroke-linecap:round;stroke-linejoin:round;stroke-miterlimit:22.92560005;stroke-dasharray:none;stroke-opacity:1;paint-order:stroke fill markers" />
          <rect
             style="fill:#000000;fill-opacity:1;stroke:#222930;stroke-width:0.20287341;stroke-linecap:round;stroke-linejoin:round;stroke-miterlimit:22.92560005;stroke-dasharray:none;stroke-opacity:1;paint-order:stroke fill markers"
             id="rect116"
             width="26.919331"
             height="117.71464"
             x="66.811539"
             y="66.263138"
             ry="27.351343" />
          <rect
             ry="24.974667"
             y="80.292877"
             x="90.377747"
             height="107.4859"
             width="26.919331"
             id="rect118"
             style="fill:#000000;fill-opacity:1;stroke:#222930;stroke-width:0.19385886;stroke-linecap:round;stroke-linejoin:round;stroke-miterlimit:22.92560005;stroke-dasharray:none;stroke-opacity:1;paint-order:stroke fill markers" />
          <rect
             ry="40.037281"
             y="119.96927"
             x="-31.535831"
             height="114.67577"
             width="149.07849"
             id="rect120"
             style="fill:#000000;fill-opacity:1;stroke:#222930;stroke-width:0.42333335;stroke-linecap:round;stroke-linejoin:round;stroke-miterlimit:22.92560005;stroke-dasharray:none;stroke-opacity:1;paint-order:stroke fill markers" />
          <rect
             transform="rotate(-32.960601)"
             style="fill:#000000;fill-opacity:1;stroke:#222930;stroke-width:0.23209701;stroke-linecap:round;stroke-linejoin:round;stroke-miterlimit:22.92560005;stroke-dasharray:none;stroke-opacity:1;paint-order:stroke fill markers"
             id="rect122"
             width="28.900311"
             height="143.50961"
             x="-138.69499"
             y="42.97953"
             ry="33.344883" />
          <path
             transform="rotate(5.7554435)"
             sodipodi:open="true"
             d="m -36.391678,38.321301 a 41.968121,41.482937 0 0 1 -38.337214,-31.1157011 41.968121,41.482937 0 0 1 18.45802,-45.5112729 41.968121,41.482937 0 0 1 49.4659255,3.676035 41.968121,41.482937 0 0 1 11.3659859,47.72763"
             sodipodi:end="0.40110524"
             sodipodi:start="1.6259997"
             sodipodi:ry="41.482937"
             sodipodi:rx="41.968121"
             sodipodi:cy="-3.0984445"
             sodipodi:cx="-34.076073"
             sodipodi:type="arc"
             id="path124"
             style="fill:none;fill-opacity:1;stroke:#1a1a1a;stroke-width:6.17574596;stroke-linecap:round;stroke-linejoin:round;stroke-miterlimit:22.92560005;stroke-dasharray:none;stroke-opacity:1;paint-order:stroke fill markers" />
          <path
             style="fill:none;fill-opacity:1;stroke:#1a1a1a;stroke-width:8.90330982;stroke-linecap:round;stroke-linejoin:round;stroke-miterlimit:22.92560005;stroke-dasharray:none;stroke-opacity:1;paint-order:stroke fill markers"
             id="path931"
             sodipodi:type="arc"
             sodipodi:cx="-34.041183"
             sodipodi:cy="-2.7645268"
             sodipodi:rx="60.503654"
             sodipodi:ry="59.804184"
             sodipodi:start="1.6001201"
             sodipodi:end="0.52939775"
             d="M -35.815125,57.013947 A 60.503654,59.804184 0 0 1 -92.834233,11.355613 60.503654,59.804184 0 0 1 -63.368218,-55.073578 60.503654,59.804184 0 0 1 9.2381388,-44.555667 60.503654,59.804184 0 0 1 18.180209,27.437401"
             sodipodi:open="true"
             transform="rotate(5.7554435)" />
          <rect
             transform="matrix(0.98042376,-0.1968991,0.38939054,0.92107275,0,0)"
             style="fill:#000000;fill-opacity:1;stroke:#222930;stroke-width:0.17240115;stroke-linecap:round;stroke-linejoin:round;stroke-miterlimit:22.92560005;stroke-dasharray:none;stroke-opacity:1;paint-order:stroke fill markers"
             id="rect1005"
             width="32.914387"
             height="69.524658"
             x="-42.515549"
             y="-28.930094"
             ry="16.154257" />
        </g>
      </g>
    </g>
  </g>
  <g
     inkscape:groupmode="layer"
     inkscape:label="Web Slicer"
     id="webslicer-layer" />
</svg>
