<?xml version="1.0" encoding="UTF-8" standalone="no"?>
<!-- Created with Inkscape (http://www.inkscape.org/) -->

<svg
   xmlns:dc="http://purl.org/dc/elements/1.1/"
   xmlns:cc="http://creativecommons.org/ns#"
   xmlns:rdf="http://www.w3.org/1999/02/22-rdf-syntax-ns#"
   xmlns:svg="http://www.w3.org/2000/svg"
   xmlns="http://www.w3.org/2000/svg"
   xmlns:sodipodi="http://sodipodi.sourceforge.net/DTD/sodipodi-0.dtd"
   xmlns:inkscape="http://www.inkscape.org/namespaces/inkscape"
   width="96.788345mm"
   height="96.78434mm"
   viewBox="0 0 96.788348 96.784341"
   version="1.1"
   id="svg8"
   inkscape:version="0.92.3 (2405546, 2018-03-11)"
   sodipodi:docname="loc_hora.svg">
  <defs
     id="defs2" />
  <sodipodi:namedview
     id="base"
     pagecolor="#ffffff"
     bordercolor="#666666"
     borderopacity="1.0"
     inkscape:pageopacity="0.0"
     inkscape:pageshadow="2"
     inkscape:zoom="0.7"
     inkscape:cx="491.97024"
     inkscape:cy="172.72235"
     inkscape:document-units="mm"
     inkscape:current-layer="layer1"
     showgrid="false"
     inkscape:window-width="1366"
     inkscape:window-height="744"
     inkscape:window-x="0"
     inkscape:window-y="0"
     inkscape:window-maximized="1" />
  <metadata
     id="metadata5">
    <rdf:RDF>
      <cc:Work
         rdf:about="">
        <dc:format>image/svg+xml</dc:format>
        <dc:type
           rdf:resource="http://purl.org/dc/dcmitype/StillImage" />
        <dc:title></dc:title>
      </cc:Work>
    </rdf:RDF>
  </metadata>
  <g
     inkscape:label="Camada 1"
     inkscape:groupmode="layer"
     id="layer1"
     transform="translate(20.70332,-37.760676)">
    <g
       id="g1720">
      <path
         inkscape:connector-curvature="0"
         id="path1703"
         d="m 27.850157,37.761039 c -6.344386,-0.02457 -12.624668,1.19875 -18.5921464,3.643706 -1.6107886,0.659962 -4.9524099,2.339368 -6.3308785,3.181717 -8.3196111,5.08391 -14.7202501,12.088526 -18.8329591,20.609078 -6.560791,13.5924 -6.3842,29.403688 0.479041,42.8594 2.810978,5.51107 6.6088683,10.38459 11.2913,14.48955 8.0533504,7.06013 18.403829,11.32358 28.940868,11.92072 11.740309,0.66533 23.095434,-2.84289 32.407323,-10.01231 3.30074,-2.5413 6.602967,-5.88616 9.137428,-9.25473 3.921559,-5.21214 6.737714,-11.10482 8.297684,-17.361728 C 77.369307,86.920753 76.20202,75.412645 71.34776,65.300443 67.61539,57.525317 61.714556,50.717692 54.561704,45.935217 49.055855,42.253947 42.895344,39.739775 36.517846,38.570809 33.630858,38.041638 30.73397,37.77221 27.850157,37.761039 Z m -0.140041,10.822079 c 1.866444,0 3.733006,0.04666 4.412133,0.140043 6.552298,0.90094 11.697684,2.829773 16.803624,6.298323 7.600489,5.16315 13.044056,12.954791 15.283305,21.875151 0.87168,3.472439 1.052132,5.05579 1.052132,9.24388 0,4.263832 -0.210284,6.019403 -1.150834,9.612333 -3.348891,12.792902 -13.197786,22.879372 -25.948287,26.575122 -1.62786,0.47184 -3.409072,0.84233 -5.619811,1.1684 -1.04757,0.15451 -6.932869,0.29586 -7.87859,0.18914 -0.202219,-0.0228 -0.816928,-0.0923 -1.365809,-0.15451 C 7.8766766,121.78448 -5.0080368,110.48283 -8.7910175,95.384911 -9.5623652,92.306452 -9.7961696,90.489394 -9.8653687,87.033484 -9.9382799,83.394801 -9.7388132,81.095112 -9.0964234,78.157022 -6.4573238,66.086643 1.7976153,56.16194 13.171984,51.38398 c 3.06705,-1.28836 6.272797,-2.130999 10.125995,-2.660819 0.679128,-0.09338 2.545689,-0.140043 4.412137,-0.140043 z"
         style="fill:#000000;stroke-width:0.10504797" />
      <g
         transform="matrix(0.90342429,0,0,0.90342429,-68.822037,32.193314)"
         id="g1714">
        <rect
           style="opacity:1;fill:#000000;fill-opacity:1;stroke:none;stroke-width:1.03347719;stroke-linecap:round;stroke-miterlimit:4;stroke-dasharray:none"
           id="rect1708"
           width="11.150298"
           height="48.191967"
           x="99.529724"
           y="23.653322"
           ry="5.5751491" />
        <rect
           ry="5.5751395"
           y="-138.83632"
           x="60.309925"
           height="39.120605"
           width="11.150279"
           id="rect1710"
           style="opacity:1;fill:#000000;fill-opacity:1;stroke:none;stroke-width:0.93114215;stroke-linecap:round;stroke-miterlimit:4;stroke-dasharray:none"
           transform="matrix(-0.00254632,0.99999676,-0.99999253,-0.00386413,0,0)" />
      </g>
    </g>
  </g>
</svg>
