<?xml version="1.0" encoding="UTF-8" standalone="no"?>
<!-- Created with Inkscape (http://www.inkscape.org/) -->

<svg
   xmlns:dc="http://purl.org/dc/elements/1.1/"
   xmlns:cc="http://creativecommons.org/ns#"
   xmlns:rdf="http://www.w3.org/1999/02/22-rdf-syntax-ns#"
   xmlns:svg="http://www.w3.org/2000/svg"
   xmlns="http://www.w3.org/2000/svg"
   xmlns:sodipodi="http://sodipodi.sourceforge.net/DTD/sodipodi-0.dtd"
   xmlns:inkscape="http://www.inkscape.org/namespaces/inkscape"
   width="25.348921mm"
   height="51.204075mm"
   viewBox="0 0 25.348924 51.204074"
   version="1.1"
   id="svg9308"
   inkscape:version="0.92.3 (2405546, 2018-03-11)"
   sodipodi:docname="malasx2_contorno.svg">
  <defs
     id="defs9302" />
  <sodipodi:namedview
     id="base"
     pagecolor="#ffffff"
     bordercolor="#666666"
     borderopacity="1.0"
     inkscape:pageopacity="0.0"
     inkscape:pageshadow="2"
     inkscape:zoom="5.6"
     inkscape:cx="57.037463"
     inkscape:cy="112.19508"
     inkscape:document-units="mm"
     inkscape:current-layer="layer1"
     showgrid="false"
     inkscape:window-width="1366"
     inkscape:window-height="744"
     inkscape:window-x="0"
     inkscape:window-y="0"
     inkscape:window-maximized="1" />
  <metadata
     id="metadata9305">
    <rdf:RDF>
      <cc:Work
         rdf:about="">
        <dc:format>image/svg+xml</dc:format>
        <dc:type
           rdf:resource="http://purl.org/dc/dcmitype/StillImage" />
        <dc:title />
      </cc:Work>
    </rdf:RDF>
  </metadata>
  <g
     inkscape:label="Camada 1"
     inkscape:groupmode="layer"
     id="layer1"
     transform="translate(-60.049105,-90.594572)">
    <rect
       style="opacity:1;fill:#ffffff;fill-opacity:1;stroke:none;stroke-width:0.39687499;stroke-linecap:round;stroke-miterlimit:4;stroke-dasharray:none"
       id="rect1505"
       width="25.524239"
       height="51.315746"
       x="59.91547"
       y="90.616531"
       ry="0" />
    <g
       id="g846"
       transform="translate(0.11472438,0.26189714)">
      <path
         style="opacity:1;fill:none;fill-opacity:1;stroke:#000000;stroke-width:0.39687499;stroke-linecap:round;stroke-miterlimit:4;stroke-dasharray:none"
         d="m 70.499631,90.531112 c -0.851387,0 -1.536856,0.68495 -1.536856,1.53634 v 2.21847 c 0,0.0269 0.0028,0.0531 0.0041,0.0796 h -3.710336 v 17.462498 h 15.08125 V 94.365522 h -3.63078 c 0.001,-0.0265 0.004,-0.0527 0.004,-0.0796 v -2.21847 c 0,-0.85139 -0.68547,-1.53634 -1.53686,-1.53634 z m 0.04857,1.45676 h 4.577498 v 2.37763 h -4.577498 z"
         id="path4614"
         inkscape:connector-curvature="0" />
      <path
         style="opacity:1;fill:none;fill-opacity:1;stroke:#000000;stroke-width:0.39687499;stroke-linecap:round;stroke-miterlimit:4;stroke-dasharray:none"
         d="m 81.548644,94.345142 v 0.97837 c -8.89e-4,0.0179 -0.0052,0.035 -0.0052,0.0532 V 110.82 c 0,0.0181 0.0043,0.0353 0.0052,0.0532 v 0.97837 h 0.98702 1.157036 0.399976 c 0.549672,0 0.992188,-0.46007 0.992188,-1.03157 V 95.376712 c 0,-0.57149 -0.442516,-1.03157 -0.992188,-1.03157 H 83.6927 82.535664 Z"
         id="path4616"
         inkscape:connector-curvature="0" />
      <path
         inkscape:connector-curvature="0"
         id="path4618"
         d="m 63.669038,94.321592 v 0.97837 c 8.89e-4,0.0179 0.0052,0.035 0.0052,0.0532 v 15.443288 c 0,0.0181 -0.0043,0.0353 -0.0052,0.0532 v 0.97837 h -0.98702 -1.157036 -0.399976 c -0.549672,0 -0.992188,-0.46007 -0.992188,-1.03157 V 95.353162 c 0,-0.57149 0.442516,-1.03157 0.992188,-1.03157 h 0.399976 1.157036 z"
         style="opacity:1;fill:none;fill-opacity:1;stroke:#000000;stroke-width:0.39687499;stroke-linecap:round;stroke-miterlimit:4;stroke-dasharray:none" />
    </g>
    <g
       id="g851"
       transform="translate(0.01891038)">
      <path
         inkscape:connector-curvature="0"
         id="rect4594"
         d="m 70.595445,120.27975 c -0.851387,0 -1.536856,0.68495 -1.536856,1.53634 v 2.21847 c 0,0.0269 0.0028,0.0531 0.0041,0.0796 h -3.710336 v 17.4625 h 15.08125 v -17.4625 h -3.63078 c 10e-4,-0.0265 0.004,-0.0527 0.004,-0.0796 v -2.21847 c 0,-0.85139 -0.68547,-1.53634 -1.53686,-1.53634 z m 0.04857,1.45676 h 4.577498 v 2.37763 h -4.577498 z"
         style="opacity:1;fill:none;fill-opacity:1;stroke:#000000;stroke-width:0.39687499;stroke-linecap:round;stroke-miterlimit:4;stroke-dasharray:none" />
      <path
         inkscape:connector-curvature="0"
         id="rect4604"
         d="m 81.644458,124.09378 v 0.97837 c -8.89e-4,0.0179 -0.0052,0.035 -0.0052,0.0532 v 15.44329 c 0,0.0181 0.0043,0.0353 0.0052,0.0532 v 0.97837 h 0.98702 1.157036 0.399976 c 0.549672,0 0.992188,-0.46007 0.992188,-1.03157 v -15.44329 c 0,-0.57149 -0.442516,-1.03157 -0.992188,-1.03157 h -0.399976 -1.157036 z"
         style="opacity:1;fill:none;fill-opacity:1;stroke:#000000;stroke-width:0.39687499;stroke-linecap:round;stroke-miterlimit:4;stroke-dasharray:none" />
      <path
         style="opacity:1;fill:none;fill-opacity:1;stroke:#000000;stroke-width:0.39687499;stroke-linecap:round;stroke-miterlimit:4;stroke-dasharray:none"
         d="m 63.764852,124.07023 v 0.97837 c 8.89e-4,0.0179 0.0052,0.035 0.0052,0.0532 v 15.44329 c 0,0.0181 -0.0043,0.0353 -0.0052,0.0532 v 0.97837 h -0.98702 -1.157036 -0.399976 c -0.549672,0 -0.992188,-0.46007 -0.992188,-1.03157 V 125.1018 c 0,-0.57149 0.442516,-1.03157 0.992188,-1.03157 h 0.399976 1.157036 z"
         id="path4607"
         inkscape:connector-curvature="0" />
    </g>
  </g>
</svg>
