<?xml version="1.0" encoding="UTF-8" standalone="no"?>
<!-- Created with Inkscape (http://www.inkscape.org/) -->

<svg
   xmlns:dc="http://purl.org/dc/elements/1.1/"
   xmlns:cc="http://creativecommons.org/ns#"
   xmlns:rdf="http://www.w3.org/1999/02/22-rdf-syntax-ns#"
   xmlns:svg="http://www.w3.org/2000/svg"
   xmlns="http://www.w3.org/2000/svg"
   xmlns:sodipodi="http://sodipodi.sourceforge.net/DTD/sodipodi-0.dtd"
   xmlns:inkscape="http://www.inkscape.org/namespaces/inkscape"
   width="39.593021mm"
   height="21.264816mm"
   viewBox="0 0 39.593025 21.264817"
   version="1.1"
   id="svg9308"
   inkscape:version="0.92.3 (2405546, 2018-03-11)"
   sodipodi:docname="mochilasx2.svg">
  <defs
     id="defs9302" />
  <sodipodi:namedview
     id="base"
     pagecolor="#ffffff"
     bordercolor="#666666"
     borderopacity="1.0"
     inkscape:pageopacity="0.0"
     inkscape:pageshadow="2"
     inkscape:zoom="2.8"
     inkscape:cx="144.15801"
     inkscape:cy="4.8726479"
     inkscape:document-units="mm"
     inkscape:current-layer="layer1"
     showgrid="false"
     inkscape:window-width="1366"
     inkscape:window-height="744"
     inkscape:window-x="0"
     inkscape:window-y="0"
     inkscape:window-maximized="1" />
  <metadata
     id="metadata9305">
    <rdf:RDF>
      <cc:Work
         rdf:about="">
        <dc:format>image/svg+xml</dc:format>
        <dc:type
           rdf:resource="http://purl.org/dc/dcmitype/StillImage" />
        <dc:title />
      </cc:Work>
    </rdf:RDF>
  </metadata>
  <g
     inkscape:label="Camada 1"
     inkscape:groupmode="layer"
     id="layer1"
     transform="translate(-104.94567,-116.63907)">
    <g
       id="g882">
      <g
         id="g849">
        <g
           id="g919">
          <path
             style="opacity:1;fill:none;fill-opacity:1;stroke:#000000;stroke-width:1.8807044;stroke-linecap:round;stroke-miterlimit:4;stroke-dasharray:none"
             id="path6997"
             sodipodi:type="arc"
             sodipodi:cx="135.33362"
             sodipodi:cy="-121.47728"
             sodipodi:rx="3.1084633"
             sodipodi:ry="3.9156435"
             sodipodi:start="0"
             sodipodi:end="3.1415927"
             d="m 138.44208,-121.47728 a 3.1084633,3.9156435 0 0 1 -1.55423,3.39105 3.1084633,3.9156435 0 0 1 -3.10846,0 3.1084633,3.9156435 0 0 1 -1.55424,-3.39105 l 3.10847,0 z"
             transform="scale(1,-1)" />
          <path
             style="opacity:1;fill:#000000;fill-opacity:1;stroke:none;stroke-width:2.48364592;stroke-linecap:round;stroke-miterlimit:4;stroke-dasharray:none"
             d="m 130.42103,120.58722 c -0.19091,0 -0.34469,0.17122 -0.34469,0.3845 v 0.75746 0.59811 3.42301 c 0,0.63283 0.19399,1.14196 0.4346,1.14196 h 3.95945 v -0.62121 c 0,-0.52637 0.37945,-0.95029 0.85059,-0.95029 0.47115,0 0.8506,0.42392 0.8506,0.95029 v 0.62121 h 3.85299 c 0.24061,0 0.43408,-0.50913 0.43408,-1.14196 v -3.42301 -0.59811 -0.75746 c 0,-0.21328 -0.15378,-0.3845 -0.34468,-0.3845 h -0.0894 -9.51363 z"
             id="path6999"
             inkscape:connector-curvature="0" />
          <path
             id="path7001"
             transform="matrix(0.26458333,0,0,0.26458333,104.94567,116.63907)"
             d="M 92.517578 15.419922 C 88.457912 15.551449 85.212891 20.760659 85.212891 27.220703 L 85.212891 68.558594 C 85.212891 75.101825 88.539075 80.371094 92.671875 80.371094 L 137.35547 80.371094 C 141.48831 80.371094 144.81641 75.101825 144.81641 68.558594 L 144.81641 27.220703 C 144.81641 20.760659 141.56939 15.551601 137.50977 15.419922 L 137.50977 17.298828 C 137.6258 17.621978 137.69531 17.968719 137.69531 18.335938 L 137.69531 38.582031 C 137.69531 40.197175 136.46773 41.5 134.94141 41.5 L 117.94531 41.5 L 117.94531 44.484375 C 117.94531 46.368696 116.54248 47.884766 114.79883 47.884766 C 113.05522 47.884766 111.65039 46.368696 111.65039 44.484375 L 111.65039 41.5 L 95.271484 41.5 C 93.74516 41.5 92.517578 40.197175 92.517578 38.582031 L 92.517578 31.357422 L 92.517578 18.335938 L 92.517578 15.419922 z M 99.197266 59.125 L 130.28125 59.125 C 131.2942 59.125 131.99565 59.948514 132.10938 60.955078 L 132.91406 68.064453 L 129.86914 68.076172 L 129.37695 63.728516 C 129.28133 62.880541 128.69127 62.185547 127.83789 62.185547 L 101.65039 62.185547 C 100.79697 62.185547 100.20364 62.88039 100.10938 63.728516 L 99.615234 68.181641 L 96.564453 68.193359 L 97.369141 60.955078 C 97.481015 59.948288 98.184277 59.125 99.197266 59.125 z "
             style="opacity:1;fill:#000000;fill-opacity:1;stroke:none;stroke-width:10.07074833;stroke-linecap:round;stroke-miterlimit:4;stroke-dasharray:none" />
          <g
             id="g7007"
             transform="translate(42.05392,-0.14822582)">
            <rect
               ry="0.85044754"
               y="129.30339"
               x="84.058434"
               height="6.5200891"
               width="3.1183035"
               id="rect7003"
               style="opacity:1;fill:#000000;fill-opacity:1;stroke:none;stroke-width:2.23900008;stroke-linecap:round;stroke-miterlimit:4;stroke-dasharray:none" />
            <rect
               style="opacity:1;fill:#000000;fill-opacity:1;stroke:none;stroke-width:2.23900008;stroke-linecap:round;stroke-miterlimit:4;stroke-dasharray:none"
               id="rect7005"
               width="3.1183035"
               height="6.5200891"
               x="99.36647"
               y="129.30339"
               ry="0.85044754" />
          </g>
          <rect
             style="opacity:1;fill:#000000;fill-opacity:1;stroke:none;stroke-width:1.19292057;stroke-linecap:round;stroke-miterlimit:4;stroke-dasharray:none"
             id="rect7011"
             width="2.1382914"
             height="2.6991057"
             x="142.19887"
             y="124.26208"
             ry="0.97011918" />
          <rect
             ry="0.97011918"
             y="124.26208"
             x="126.41837"
             height="2.6991057"
             width="2.1382914"
             id="rect7013"
             style="opacity:1;fill:#000000;fill-opacity:1;stroke:none;stroke-width:1.19292057;stroke-linecap:round;stroke-miterlimit:4;stroke-dasharray:none" />
        </g>
      </g>
      <g
         id="g860">
        <g
           id="g937"
           transform="translate(-21.166667)">
          <path
             transform="scale(1,-1)"
             d="m 138.44208,-121.47728 a 3.1084633,3.9156435 0 0 1 -1.55423,3.39105 3.1084633,3.9156435 0 0 1 -3.10846,0 3.1084633,3.9156435 0 0 1 -1.55424,-3.39105 l 3.10847,0 z"
             sodipodi:end="3.1415927"
             sodipodi:start="0"
             sodipodi:ry="3.9156435"
             sodipodi:rx="3.1084633"
             sodipodi:cy="-121.47728"
             sodipodi:cx="135.33362"
             sodipodi:type="arc"
             id="path921"
             style="opacity:1;fill:none;fill-opacity:1;stroke:#000000;stroke-width:1.8807044;stroke-linecap:round;stroke-miterlimit:4;stroke-dasharray:none" />
          <path
             inkscape:connector-curvature="0"
             id="path923"
             d="m 130.42103,120.58722 c -0.19091,0 -0.34469,0.17122 -0.34469,0.3845 v 0.75746 0.59811 3.42301 c 0,0.63283 0.19399,1.14196 0.4346,1.14196 h 3.95945 v -0.62121 c 0,-0.52637 0.37945,-0.95029 0.85059,-0.95029 0.47115,0 0.8506,0.42392 0.8506,0.95029 v 0.62121 h 3.85299 c 0.24061,0 0.43408,-0.50913 0.43408,-1.14196 v -3.42301 -0.59811 -0.75746 c 0,-0.21328 -0.15378,-0.3845 -0.34468,-0.3845 h -0.0894 -9.51363 z"
             style="opacity:1;fill:#000000;fill-opacity:1;stroke:none;stroke-width:2.48364592;stroke-linecap:round;stroke-miterlimit:4;stroke-dasharray:none" />
          <path
             style="opacity:1;fill:#000000;fill-opacity:1;stroke:none;stroke-width:10.07074833;stroke-linecap:round;stroke-miterlimit:4;stroke-dasharray:none"
             d="m 92.517578,15.419922 c -4.059666,0.131527 -7.304687,5.340737 -7.304687,11.800781 v 41.337891 c 0,6.543231 3.326184,11.8125 7.458984,11.8125 h 44.683595 c 4.13284,0 7.46094,-5.269269 7.46094,-11.8125 V 27.220703 c 0,-6.460044 -3.24702,-11.669102 -7.30664,-11.800781 v 1.878906 c 0.11603,0.32315 0.18554,0.669891 0.18554,1.03711 v 20.246093 c 0,1.615144 -1.22758,2.917969 -2.7539,2.917969 h -16.9961 v 2.984375 c 0,1.884321 -1.40283,3.400391 -3.14648,3.400391 -1.74361,0 -3.14844,-1.51607 -3.14844,-3.400391 V 41.5 H 95.271484 c -1.526324,0 -2.753906,-1.302825 -2.753906,-2.917969 V 31.357422 18.335938 Z M 99.197266,59.125 h 31.083984 c 1.01295,0 1.7144,0.823514 1.82813,1.830078 l 0.80468,7.109375 -3.04492,0.01172 -0.49219,-4.347656 c -0.0956,-0.847975 -0.68568,-1.542969 -1.53906,-1.542969 h -26.1875 c -0.85342,0 -1.44675,0.694843 -1.54101,1.542969 l -0.494146,4.453125 -3.050781,0.01172 0.804688,-7.238281 C 97.481015,59.948288 98.184277,59.125 99.197266,59.125 Z"
             transform="matrix(0.26458333,0,0,0.26458333,104.94567,116.63907)"
             id="path925"
             inkscape:connector-curvature="0" />
          <g
             transform="translate(42.05392,-0.14822582)"
             id="g931">
            <rect
               style="opacity:1;fill:#000000;fill-opacity:1;stroke:none;stroke-width:2.23900008;stroke-linecap:round;stroke-miterlimit:4;stroke-dasharray:none"
               id="rect927"
               width="3.1183035"
               height="6.5200891"
               x="84.058434"
               y="129.30339"
               ry="0.85044754" />
            <rect
               ry="0.85044754"
               y="129.30339"
               x="99.36647"
               height="6.5200891"
               width="3.1183035"
               id="rect929"
               style="opacity:1;fill:#000000;fill-opacity:1;stroke:none;stroke-width:2.23900008;stroke-linecap:round;stroke-miterlimit:4;stroke-dasharray:none" />
          </g>
          <rect
             ry="0.97011918"
             y="124.26208"
             x="142.19887"
             height="2.6991057"
             width="2.1382914"
             id="rect933"
             style="opacity:1;fill:#000000;fill-opacity:1;stroke:none;stroke-width:1.19292057;stroke-linecap:round;stroke-miterlimit:4;stroke-dasharray:none" />
          <rect
             style="opacity:1;fill:#000000;fill-opacity:1;stroke:none;stroke-width:1.19292057;stroke-linecap:round;stroke-miterlimit:4;stroke-dasharray:none"
             id="rect935"
             width="2.1382914"
             height="2.6991057"
             x="126.41837"
             y="124.26208"
             ry="0.97011918" />
        </g>
      </g>
    </g>
  </g>
</svg>
