<?xml version="1.0" encoding="UTF-8" standalone="no"?>
<!-- Created with Inkscape (http://www.inkscape.org/) -->

<svg
   xmlns:dc="http://purl.org/dc/elements/1.1/"
   xmlns:cc="http://creativecommons.org/ns#"
   xmlns:rdf="http://www.w3.org/1999/02/22-rdf-syntax-ns#"
   xmlns:svg="http://www.w3.org/2000/svg"
   xmlns="http://www.w3.org/2000/svg"
   xmlns:sodipodi="http://sodipodi.sourceforge.net/DTD/sodipodi-0.dtd"
   xmlns:inkscape="http://www.inkscape.org/namespaces/inkscape"
   width="39.593021mm"
   height="21.264816mm"
   viewBox="0 0 39.593025 21.264817"
   version="1.1"
   id="svg9308"
   inkscape:version="0.92.3 (2405546, 2018-03-11)"
   sodipodi:docname="mochilasx2.svg">
  <defs
     id="defs9302" />
  <sodipodi:namedview
     id="base"
     pagecolor="#ffffff"
     bordercolor="#666666"
     borderopacity="1.0"
     inkscape:pageopacity="0.0"
     inkscape:pageshadow="2"
     inkscape:zoom="2.8"
     inkscape:cx="101.64537"
     inkscape:cy="3.8337265"
     inkscape:document-units="mm"
     inkscape:current-layer="layer1"
     showgrid="false"
     inkscape:window-width="1366"
     inkscape:window-height="744"
     inkscape:window-x="0"
     inkscape:window-y="0"
     inkscape:window-maximized="1" />
  <metadata
     id="metadata9305">
    <rdf:RDF>
      <cc:Work
         rdf:about="">
        <dc:format>image/svg+xml</dc:format>
        <dc:type
           rdf:resource="http://purl.org/dc/dcmitype/StillImage" />
        <dc:title />
      </cc:Work>
    </rdf:RDF>
  </metadata>
  <g
     inkscape:label="Camada 1"
     inkscape:groupmode="layer"
     id="layer1"
     transform="translate(-104.94567,-116.63907)">
    <g
       id="g7037">
      <g
         transform="translate(20.698252,-0.14822582)"
         id="g6995">
        <path
           style="opacity:1;fill:none;fill-opacity:1;stroke:#000000;stroke-width:1.8807044;stroke-linecap:round;stroke-miterlimit:4;stroke-dasharray:none"
           id="path6936"
           sodipodi:type="arc"
           sodipodi:cx="93.468689"
           sodipodi:cy="-121.6255"
           sodipodi:rx="3.1084633"
           sodipodi:ry="3.9156435"
           sodipodi:start="0"
           sodipodi:end="3.1415927"
           d="m 96.577152,-121.6255 a 3.1084633,3.9156435 0 0 1 -1.554231,3.39104 3.1084633,3.9156435 0 0 1 -3.108464,0 3.1084633,3.9156435 0 0 1 -1.554231,-3.39104 l 3.108463,0 z"
           transform="scale(1,-1)" />
        <path
           style="opacity:1;fill:#000000;fill-opacity:1;stroke:none;stroke-width:2.48364592;stroke-linecap:round;stroke-miterlimit:4;stroke-dasharray:none"
           d="m 88.556093,120.73545 c -0.190901,0 -0.344682,0.17122 -0.344682,0.3845 v 0.75746 0.59811 3.42301 c 0,0.63283 0.193988,1.14196 0.434598,1.14196 h 3.959449 v -0.62121 c 0,-0.52637 0.379446,-0.95029 0.850594,-0.95029 0.471147,0 0.850594,0.42392 0.850594,0.95029 v 0.62121 h 3.85299 c 0.24061,0 0.43408,-0.50913 0.43408,-1.14196 v -3.42301 -0.59811 -0.75746 c 0,-0.21328 -0.15378,-0.3845 -0.34468,-0.3845 h -0.0894 -9.513627 z"
           id="rect6938"
           inkscape:connector-curvature="0" />
        <path
           style="opacity:1;fill:#000000;fill-opacity:1;stroke:none;stroke-width:2.66455221;stroke-linecap:round;stroke-miterlimit:4;stroke-dasharray:none"
           d="m 87.559507,120.86734 c -1.074117,0.0348 -1.932699,1.41265 -1.932699,3.12187 v 10.93776 c 0,1.73123 0.880048,3.12514 1.973524,3.12514 h 11.822534 c 1.093484,0 1.974044,-1.39391 1.974044,-3.12514 v -10.93776 c 0,-1.70922 -0.85911,-3.08703 -1.933224,-3.12187 v 0.49707 c 0.0307,0.0855 0.0491,0.17735 0.0491,0.27451 v 5.35678 c 0,0.42734 -0.32479,0.77158 -0.72863,0.77158 H 94.28727 v 0.78963 c 0,0.49856 -0.371176,0.90008 -0.832508,0.90008 -0.461331,0 -0.833024,-0.40152 -0.833024,-0.90008 v -0.78963 h -4.333585 c -0.403841,0 -0.728638,-0.34424 -0.728638,-0.77158 v -1.91173 -3.44505 z"
           id="rect6947"
           inkscape:connector-curvature="0" />
        <g
           id="g6964"
           transform="translate(0.1889881)">
          <rect
             ry="0.85044754"
             y="129.30339"
             x="84.058434"
             height="6.5200891"
             width="3.1183035"
             id="rect6958"
             style="opacity:1;fill:#000000;fill-opacity:1;stroke:none;stroke-width:2.23900008;stroke-linecap:round;stroke-miterlimit:4;stroke-dasharray:none" />
          <rect
             style="opacity:1;fill:#000000;fill-opacity:1;stroke:none;stroke-width:2.23900008;stroke-linecap:round;stroke-miterlimit:4;stroke-dasharray:none"
             id="rect6960"
             width="3.1183035"
             height="6.5200891"
             x="99.36647"
             y="129.30339"
             ry="0.85044754" />
        </g>
        <path
           style="opacity:1;fill:none;fill-opacity:1;stroke:#ffffff;stroke-width:0.97399998;stroke-linecap:round;stroke-miterlimit:4;stroke-dasharray:none"
           d="m 88.630199,134.83007 0.212612,-1.91531 c 0.02957,-0.26638 0.215769,-0.48379 0.483788,-0.48379 v 0 h 8.224385 c 0.268019,0 0.453692,0.21747 0.483788,0.48379 l 0.212612,1.88143"
           id="path6974"
           inkscape:connector-curvature="0"
           sodipodi:nodetypes="csccssc" />
        <rect
           style="opacity:1;fill:#000000;fill-opacity:1;stroke:none;stroke-width:1.19292057;stroke-linecap:round;stroke-miterlimit:4;stroke-dasharray:none"
           id="rect6978"
           width="2.1382914"
           height="2.6991057"
           x="100.33394"
           y="124.41031"
           ry="0.97011918" />
        <rect
           ry="0.97011918"
           y="124.41031"
           x="84.553436"
           height="2.6991057"
           width="2.1382914"
           id="rect6984"
           style="opacity:1;fill:#000000;fill-opacity:1;stroke:none;stroke-width:1.19292057;stroke-linecap:round;stroke-miterlimit:4;stroke-dasharray:none" />
      </g>
      <g
         id="g7015"
         transform="translate(41.864932,-0.14822582)">
        <path
           transform="scale(1,-1)"
           d="m 96.577152,-121.6255 a 3.1084633,3.9156435 0 0 1 -1.554231,3.39104 3.1084633,3.9156435 0 0 1 -3.108464,0 3.1084633,3.9156435 0 0 1 -1.554231,-3.39104 l 3.108463,0 z"
           sodipodi:end="3.1415927"
           sodipodi:start="0"
           sodipodi:ry="3.9156435"
           sodipodi:rx="3.1084633"
           sodipodi:cy="-121.6255"
           sodipodi:cx="93.468689"
           sodipodi:type="arc"
           id="path6997"
           style="opacity:1;fill:none;fill-opacity:1;stroke:#000000;stroke-width:1.8807044;stroke-linecap:round;stroke-miterlimit:4;stroke-dasharray:none" />
        <path
           inkscape:connector-curvature="0"
           id="path6999"
           d="m 88.556093,120.73545 c -0.190901,0 -0.344682,0.17122 -0.344682,0.3845 v 0.75746 0.59811 3.42301 c 0,0.63283 0.193988,1.14196 0.434598,1.14196 h 3.959449 v -0.62121 c 0,-0.52637 0.379446,-0.95029 0.850594,-0.95029 0.471147,0 0.850594,0.42392 0.850594,0.95029 v 0.62121 h 3.85299 c 0.24061,0 0.43408,-0.50913 0.43408,-1.14196 v -3.42301 -0.59811 -0.75746 c 0,-0.21328 -0.15378,-0.3845 -0.34468,-0.3845 h -0.0894 -9.513627 z"
           style="opacity:1;fill:#000000;fill-opacity:1;stroke:none;stroke-width:2.48364592;stroke-linecap:round;stroke-miterlimit:4;stroke-dasharray:none" />
        <path
           inkscape:connector-curvature="0"
           id="path7001"
           d="m 87.559507,120.86734 c -1.074117,0.0348 -1.932699,1.41265 -1.932699,3.12187 v 10.93776 c 0,1.73123 0.880048,3.12514 1.973524,3.12514 h 11.822534 c 1.093484,0 1.974044,-1.39391 1.974044,-3.12514 v -10.93776 c 0,-1.70922 -0.85911,-3.08703 -1.933224,-3.12187 v 0.49707 c 0.0307,0.0855 0.0491,0.17735 0.0491,0.27451 v 5.35678 c 0,0.42734 -0.32479,0.77158 -0.72863,0.77158 H 94.28727 v 0.78963 c 0,0.49856 -0.371176,0.90008 -0.832508,0.90008 -0.461331,0 -0.833024,-0.40152 -0.833024,-0.90008 v -0.78963 h -4.333585 c -0.403841,0 -0.728638,-0.34424 -0.728638,-0.77158 v -1.91173 -3.44505 z"
           style="opacity:1;fill:#000000;fill-opacity:1;stroke:none;stroke-width:2.66455221;stroke-linecap:round;stroke-miterlimit:4;stroke-dasharray:none" />
        <g
           transform="translate(0.1889881)"
           id="g7007">
          <rect
             style="opacity:1;fill:#000000;fill-opacity:1;stroke:none;stroke-width:2.23900008;stroke-linecap:round;stroke-miterlimit:4;stroke-dasharray:none"
             id="rect7003"
             width="3.1183035"
             height="6.5200891"
             x="84.058434"
             y="129.30339"
             ry="0.85044754" />
          <rect
             ry="0.85044754"
             y="129.30339"
             x="99.36647"
             height="6.5200891"
             width="3.1183035"
             id="rect7005"
             style="opacity:1;fill:#000000;fill-opacity:1;stroke:none;stroke-width:2.23900008;stroke-linecap:round;stroke-miterlimit:4;stroke-dasharray:none" />
        </g>
        <path
           sodipodi:nodetypes="csccssc"
           inkscape:connector-curvature="0"
           id="path7009"
           d="m 88.630199,134.83007 0.212612,-1.91531 c 0.02957,-0.26638 0.215769,-0.48379 0.483788,-0.48379 v 0 h 8.224385 c 0.268019,0 0.453692,0.21747 0.483788,0.48379 l 0.212612,1.88143"
           style="opacity:1;fill:none;fill-opacity:1;stroke:#ffffff;stroke-width:0.97399998;stroke-linecap:round;stroke-miterlimit:4;stroke-dasharray:none" />
        <rect
           ry="0.97011918"
           y="124.41031"
           x="100.33394"
           height="2.6991057"
           width="2.1382914"
           id="rect7011"
           style="opacity:1;fill:#000000;fill-opacity:1;stroke:none;stroke-width:1.19292057;stroke-linecap:round;stroke-miterlimit:4;stroke-dasharray:none" />
        <rect
           style="opacity:1;fill:#000000;fill-opacity:1;stroke:none;stroke-width:1.19292057;stroke-linecap:round;stroke-miterlimit:4;stroke-dasharray:none"
           id="rect7013"
           width="2.1382914"
           height="2.6991057"
           x="84.553436"
           y="124.41031"
           ry="0.97011918" />
      </g>
    </g>
  </g>
</svg>
