<?xml version="1.0" encoding="UTF-8" standalone="no"?>
<!-- Created with Inkscape (http://www.inkscape.org/) -->

<svg
   xmlns:dc="http://purl.org/dc/elements/1.1/"
   xmlns:cc="http://creativecommons.org/ns#"
   xmlns:rdf="http://www.w3.org/1999/02/22-rdf-syntax-ns#"
   xmlns:svg="http://www.w3.org/2000/svg"
   xmlns="http://www.w3.org/2000/svg"
   xmlns:sodipodi="http://sodipodi.sourceforge.net/DTD/sodipodi-0.dtd"
   xmlns:inkscape="http://www.inkscape.org/namespaces/inkscape"
   width="71.926102mm"
   height="82.124405mm"
   viewBox="0 0 71.926104 82.124402"
   version="1.1"
   id="svg8"
   inkscape:version="0.92.4 5da689c313, 2019-01-14"
   sodipodi:docname="reserve.svg">
  <defs
     id="defs2" />
  <sodipodi:namedview
     id="base"
     pagecolor="#ffffff"
     bordercolor="#666666"
     borderopacity="1.0"
     inkscape:pageopacity="0.0"
     inkscape:pageshadow="2"
     inkscape:zoom="0.9899495"
     inkscape:cx="149.50047"
     inkscape:cy="117.76848"
     inkscape:document-units="mm"
     inkscape:current-layer="g834"
     showgrid="false"
     inkscape:window-width="1366"
     inkscape:window-height="705"
     inkscape:window-x="0"
     inkscape:window-y="0"
     inkscape:window-maximized="1"
     showguides="true"
     inkscape:guide-bbox="true">
    <sodipodi:guide
       position="78.042702,82.051745"
       orientation="0,1"
       id="guide4480"
       inkscape:locked="false" />
  </sodipodi:namedview>
  <metadata
     id="metadata5">
    <rdf:RDF>
      <cc:Work
         rdf:about="">
        <dc:format>image/svg+xml</dc:format>
        <dc:type
           rdf:resource="http://purl.org/dc/dcmitype/StillImage" />
        <dc:title />
      </cc:Work>
    </rdf:RDF>
  </metadata>
  <g
     inkscape:label="Camada 1"
     inkscape:groupmode="layer"
     id="layer1"
     transform="translate(165.89204,-222.12968)">
    <flowRoot
       xml:space="preserve"
       id="flowRoot1578"
       style="font-style:normal;font-weight:normal;font-size:40px;line-height:1.25;font-family:sans-serif;letter-spacing:0px;word-spacing:0px;fill:#000000;fill-opacity:1;stroke:none"
       transform="matrix(0.26458333,0,0,0.26458333,-144.68848,64.891508)"><flowRegion
         id="flowRegion1580"><rect
           id="rect1582"
           width="1148.5714"
           height="142.85715"
           x="-37.142857"
           y="879.40326" /></flowRegion><flowPara
         id="flowPara1584" /></flowRoot>    <g
       id="g834">
      <g
         id="g1437">
        <path
           style="fill:#000000;stroke-width:0.08046041"
           d="m -98.961914,268.00795 c -1.528166,-1.52482 -2.797736,-2.7724 -2.821256,-2.7724 -0.0235,0 -0.43806,1.10415 -0.92121,2.45367 -0.48315,1.34952 -0.92838,2.52478 -0.9894,2.61169 -0.13112,0.18673 -0.52036,0.21119 -0.6887,0.0433 -0.14089,-0.14054 -4.89129,-14.40833 -4.89129,-14.69096 0,-0.24225 0.1724,-0.40235 0.43326,-0.40235 0.28013,0 14.532686,4.75436 14.673434,4.89475 0.184164,0.1837 0.1504,0.5664 -0.06186,0.70116 -0.09969,0.0633 -1.268843,0.503 -2.598105,0.97713 -1.329263,0.47413 -2.433357,0.87661 -2.453554,0.8944 -0.02019,0.0178 1.230205,1.29648 2.778652,2.84151 l 2.815354,2.80917 -1.206688,1.20568 c -0.663681,0.66312 -1.225476,1.20568 -1.24842,1.20568 -0.02295,0 -1.292052,-1.24758 -2.820221,-2.77241 z"
           id="path1510"
           inkscape:connector-curvature="0" />
        <path
           style="fill:none;stroke:#000000;stroke-width:2.14848304;stroke-miterlimit:4;stroke-dasharray:none"
           d="m -159.98718,253.62504 c -1.96753,-0.43278 -3.54559,-1.80477 -4.18913,-3.64211 -0.10672,-0.30469 -0.23168,-0.78544 -0.2777,-1.06834 -0.0546,-0.33565 -0.0839,-3.97073 -0.0843,-10.46224 -6.1e-4,-11.19313 -0.0302,-10.6108 0.60366,-11.90992 0.59453,-1.21854 1.39962,-2.03508 2.57791,-2.61456 0.35447,-0.17433 0.86201,-0.38061 1.12786,-0.4584 0.45622,-0.13348 1.92869,-0.14268 26.22273,-0.16376 16.17517,-0.014 25.9797,0.006 26.38616,0.0552 2.32032,0.27807 4.12773,1.82507 4.84376,4.14585 0.14143,0.45841 0.14875,1.0026 0.14875,11.04944 v 10.56728 l -0.21085,0.61609 c -0.33561,0.98059 -0.75083,1.6454 -1.47303,2.35851 -0.75425,0.74474 -1.61184,1.22413 -2.65918,1.48646 -0.62946,0.15767 -0.95379,0.15954 -26.58526,0.15323 -21.20729,-0.005 -26.03634,-0.0258 -26.4314,-0.11271 z"
           id="path1508"
           inkscape:connector-curvature="0" />
        <text
           xml:space="preserve"
           style="font-style:normal;font-variant:normal;font-weight:bold;font-stretch:normal;font-size:16.83133507px;line-height:1.25;font-family:Calibri;-inkscape-font-specification:'Calibri Bold';letter-spacing:0px;word-spacing:0px;fill:#000000;fill-opacity:1;stroke:none;stroke-width:0.53332084"
           x="-162.35825"
           y="240.12361"
           id="text1514"
           transform="scale(0.99198565,1.0080791)"><tspan
             sodipodi:role="line"
             id="tspan1512"
             x="-162.35825"
             y="240.12361"
             style="font-style:normal;font-variant:normal;font-weight:bold;font-stretch:normal;font-size:16.83133507px;font-family:Calibri;-inkscape-font-specification:'Calibri Bold';stroke-width:0.53332084">Reserve</tspan></text>
        <g
           transform="matrix(1.7641272,0,0,1.7641272,99.069491,-231.98676)"
           id="g7178">
          <text
             xml:space="preserve"
             style="font-style:normal;font-variant:normal;font-weight:normal;font-stretch:normal;font-size:7.80571985px;line-height:0;font-family:Calibri;-inkscape-font-specification:Calibri;letter-spacing:0px;word-spacing:0px;fill:#000000;fill-opacity:1;stroke:none;stroke-width:0.26458326"
             x="-140.51201"
             y="293.74884"
             id="text1489"
             transform="scale(0.99550053,1.0045198)"><tspan
               sodipodi:role="line"
               id="tspan1483"
               x="-140.51201"
               y="295.70026"
               style="font-style:normal;font-variant:normal;font-weight:normal;font-stretch:normal;font-family:Calibri;-inkscape-font-specification:Calibri;stroke-width:0.26458326" /><tspan
               sodipodi:role="line"
               x="-140.51201"
               y="295.70026"
               style="font-style:normal;font-variant:normal;font-weight:normal;font-stretch:normal;font-family:Calibri;-inkscape-font-specification:Calibri;stroke-width:0.26458326"
               id="tspan1487">BEGIN </tspan></text>
          <text
             id="text1497"
             y="300.5961"
             x="-146.3987"
             style="font-style:normal;font-variant:normal;font-weight:normal;font-stretch:normal;font-size:7.80571985px;line-height:0;font-family:Calibri;-inkscape-font-specification:Calibri;letter-spacing:0px;word-spacing:0px;fill:#000000;fill-opacity:1;stroke:none;stroke-width:0.26458326"
             xml:space="preserve"
             transform="scale(0.99550053,1.0045198)"><tspan
               style="font-style:normal;font-variant:normal;font-weight:normal;font-stretch:normal;font-family:Calibri;-inkscape-font-specification:Calibri;stroke-width:0.26458326"
               y="302.54752"
               x="-146.3987"
               id="tspan1491"
               sodipodi:role="line" /><tspan
               id="tspan1493"
               style="font-style:normal;font-variant:normal;font-weight:normal;font-stretch:normal;font-family:Calibri;-inkscape-font-specification:Calibri;stroke-width:0.26458326"
               y="302.54752"
               x="-146.3987"
               sodipodi:role="line">LOCATION </tspan><tspan
               id="tspan1495"
               style="font-style:normal;font-variant:normal;font-weight:normal;font-stretch:normal;font-family:Calibri;-inkscape-font-specification:Calibri;stroke-width:0.26458326"
               y="302.54752"
               x="-146.3987"
               sodipodi:role="line">               </tspan></text>
        </g>
      </g>
    </g>
  </g>
</svg>
