<?xml version="1.0" encoding="UTF-8" standalone="no"?>
<!-- Created with Inkscape (http://www.inkscape.org/) -->

<svg
   xmlns:dc="http://purl.org/dc/elements/1.1/"
   xmlns:cc="http://creativecommons.org/ns#"
   xmlns:rdf="http://www.w3.org/1999/02/22-rdf-syntax-ns#"
   xmlns:svg="http://www.w3.org/2000/svg"
   xmlns="http://www.w3.org/2000/svg"
   xmlns:sodipodi="http://sodipodi.sourceforge.net/DTD/sodipodi-0.dtd"
   xmlns:inkscape="http://www.inkscape.org/namespaces/inkscape"
   width="71.926102mm"
   height="83.711899mm"
   viewBox="0 0 71.926104 83.711895"
   version="1.1"
   id="svg8"
   inkscape:version="0.92.4 5da689c313, 2019-01-14"
   sodipodi:docname="reservar.svg">
  <defs
     id="defs2" />
  <sodipodi:namedview
     id="base"
     pagecolor="#ffffff"
     bordercolor="#666666"
     borderopacity="1.0"
     inkscape:pageopacity="0.0"
     inkscape:pageshadow="2"
     inkscape:zoom="0.69999999"
     inkscape:cx="-12.636382"
     inkscape:cy="224.65058"
     inkscape:document-units="mm"
     inkscape:current-layer="layer1"
     showgrid="false"
     inkscape:window-width="1366"
     inkscape:window-height="705"
     inkscape:window-x="0"
     inkscape:window-y="0"
     inkscape:window-maximized="1"
     showguides="true"
     inkscape:guide-bbox="true">
    <sodipodi:guide
       position="140.07521,83.986304"
       orientation="0,1"
       id="guide3807"
       inkscape:locked="false" />
    <sodipodi:guide
       position="127.22402,1.2095177"
       orientation="0,1"
       id="guide3809"
       inkscape:locked="false" />
  </sodipodi:namedview>
  <metadata
     id="metadata5">
    <rdf:RDF>
      <cc:Work
         rdf:about="">
        <dc:format>image/svg+xml</dc:format>
        <dc:type
           rdf:resource="http://purl.org/dc/dcmitype/StillImage" />
        <dc:title />
      </cc:Work>
    </rdf:RDF>
  </metadata>
  <g
     inkscape:label="Camada 1"
     inkscape:groupmode="layer"
     id="layer1"
     transform="translate(241.39735,-144.02492)">
    <flowRoot
       xml:space="preserve"
       id="flowRoot1578"
       style="font-style:normal;font-weight:normal;font-size:40px;line-height:1.25;font-family:sans-serif;letter-spacing:0px;word-spacing:0px;fill:#000000;fill-opacity:1;stroke:none"
       transform="matrix(0.26458333,0,0,0.26458333,-144.68848,64.891508)"><flowRegion
         id="flowRegion1580"><rect
           id="rect1582"
           width="1148.5714"
           height="142.85715"
           x="-37.142857"
           y="879.40326" /></flowRegion><flowPara
         id="flowPara1584" /></flowRoot>    <g
       id="g6576">
      <g
         transform="matrix(0.30447657,0,0,0.30447657,-196.26733,125.34254)"
         id="g834">
        <path
           style="fill:#000000;stroke-width:0.26458332"
           d="m 70.681555,212.08764 c -5.018881,-5.02047 -9.18845,-9.12812 -9.265682,-9.12812 -0.07726,0 -1.438724,3.63541 -3.025483,8.0787 -1.586786,4.44329 -3.049032,8.31282 -3.249454,8.59896 -0.43061,0.61481 -1.70897,0.69535 -2.261844,0.14251 -0.462729,-0.46273 -16.064203,-47.43935 -16.064203,-48.36992 0,-0.79758 0.56623,-1.32473 1.422942,-1.32473 0.920018,0 47.728893,15.6537 48.191143,16.11595 0.60484,0.60483 0.49395,1.86488 -0.20315,2.30855 -0.32742,0.20838 -4.16719,1.65612 -8.532811,3.21719 -4.365625,1.56107 -7.991739,2.88624 -8.05807,2.94483 -0.0663,0.0586 4.040293,4.26863 9.12577,9.35566 l 9.246311,9.24916 -3.96306,3.96969 c -2.17969,2.18333 -4.024761,3.9697 -4.100114,3.9697 -0.07538,0 -4.243414,-4.10766 -9.262295,-9.12813 z"
           id="path1510"
           inkscape:connector-curvature="0" />
        <path
           style="fill:none;stroke:#000000;stroke-width:7.06500006;stroke-miterlimit:4;stroke-dasharray:none"
           d="m -129.74032,164.73197 c -6.46186,-1.42492 -11.64459,-5.9422 -13.75813,-11.99161 -0.35049,-1.00318 -0.76091,-2.58606 -0.91204,-3.51751 -0.17932,-1.10512 -0.27549,-13.07361 -0.27679,-34.44688 -0.002,-36.853303 -0.0992,-34.935983 1.98255,-39.213333 1.9526,-4.01202 4.59672,-6.70047 8.46649,-8.60843 1.16417,-0.57398 2.83105,-1.25314 3.70417,-1.50925 1.49836,-0.43951 6.33431,-0.46978 86.121875,-0.53919 53.1232093,-0.0462 85.323681,0.0213 86.658567,0.18168 7.620503,0.91555 13.556498,6.00903 15.908089,13.65019 0.464502,1.50932 0.488553,3.30106 0.488553,36.380213 v 34.79271 l -0.692494,2.02847 c -1.102228,3.2286 -2.46589,5.41748 -4.837801,7.76537 -2.47714,2.45206 -5.293677,4.03044 -8.733382,4.89417 -2.067314,0.51912 -3.132487,0.52527 -87.312502,0.5045 -69.649915,-0.0172 -85.509695,-0.085 -86.807155,-0.3711 z"
           id="path1508"
           inkscape:connector-curvature="0" />
        <text
           xml:space="preserve"
           style="font-style:normal;font-variant:normal;font-weight:bold;font-stretch:normal;font-size:48.89974976px;line-height:1.25;font-family:Calibri;-inkscape-font-specification:'Calibri Bold';letter-spacing:0px;word-spacing:0px;fill:#000000;fill-opacity:1;stroke:none;stroke-width:1.22249377"
           x="-131.19987"
           y="126.89964"
           id="text1514"
           transform="scale(0.99074212,1.0093444)"><tspan
             sodipodi:role="line"
             id="tspan1512"
             x="-131.19987"
             y="126.89964"
             style="font-style:normal;font-variant:normal;font-weight:bold;font-stretch:normal;font-family:Calibri;-inkscape-font-specification:'Calibri Bold';stroke-width:1.22249377">Reservar</tspan></text>
      </g>
      <g
         transform="translate(1.5304597,1.5875)"
         id="g3828">
        <text
           xml:space="preserve"
           style="font-style:normal;font-variant:normal;font-weight:normal;font-stretch:normal;font-size:7.80571985px;line-height:0;font-family:Calibri;-inkscape-font-specification:Calibri;letter-spacing:0px;word-spacing:0px;fill:#000000;fill-opacity:1;stroke:none;stroke-width:0.26458326"
           x="-220.25291"
           y="214.94193"
           id="text1489"
           transform="scale(0.99550053,1.0045198)"><tspan
             sodipodi:role="line"
             id="tspan1483"
             x="-220.25291"
             y="216.89336"
             style="font-style:normal;font-variant:normal;font-weight:normal;font-stretch:normal;font-family:Calibri;-inkscape-font-specification:Calibri;stroke-width:0.26458326" /><tspan
             sodipodi:role="line"
             x="-220.25291"
             y="216.89336"
             style="font-style:normal;font-variant:normal;font-weight:normal;font-stretch:normal;font-family:Calibri;-inkscape-font-specification:Calibri;stroke-width:0.26458326"
             id="tspan1485">INICIAR </tspan><tspan
             sodipodi:role="line"
             x="-220.25291"
             y="216.89336"
             style="font-style:normal;font-variant:normal;font-weight:normal;font-stretch:normal;font-family:Calibri;-inkscape-font-specification:Calibri;stroke-width:0.26458326"
             id="tspan1487">               </tspan></text>
        <text
           id="text1497"
           y="221.78918"
           x="-223.2296"
           style="font-style:normal;font-variant:normal;font-weight:normal;font-stretch:normal;font-size:7.80571985px;line-height:0;font-family:Calibri;-inkscape-font-specification:Calibri;letter-spacing:0px;word-spacing:0px;fill:#000000;fill-opacity:1;stroke:none;stroke-width:0.26458326"
           xml:space="preserve"
           transform="scale(0.99550053,1.0045198)"><tspan
             style="font-style:normal;font-variant:normal;font-weight:normal;font-stretch:normal;font-family:Calibri;-inkscape-font-specification:Calibri;stroke-width:0.26458326"
             y="223.74062"
             x="-223.2296"
             id="tspan1491"
             sodipodi:role="line" /><tspan
             id="tspan1493"
             style="font-style:normal;font-variant:normal;font-weight:normal;font-stretch:normal;font-family:Calibri;-inkscape-font-specification:Calibri;stroke-width:0.26458326"
             y="223.74062"
             x="-223.2296"
             sodipodi:role="line">LOCAÇÃO </tspan><tspan
             id="tspan1495"
             style="font-style:normal;font-variant:normal;font-weight:normal;font-stretch:normal;font-family:Calibri;-inkscape-font-specification:Calibri;stroke-width:0.26458326"
             y="223.74062"
             x="-223.2296"
             sodipodi:role="line">               </tspan></text>
      </g>
    </g>
  </g>
</svg>
