<?xml version="1.0" encoding="UTF-8" standalone="no"?>
<!-- Created with Inkscape (http://www.inkscape.org/) -->

<svg
   xmlns:dc="http://purl.org/dc/elements/1.1/"
   xmlns:cc="http://creativecommons.org/ns#"
   xmlns:rdf="http://www.w3.org/1999/02/22-rdf-syntax-ns#"
   xmlns:svg="http://www.w3.org/2000/svg"
   xmlns="http://www.w3.org/2000/svg"
   xmlns:sodipodi="http://sodipodi.sourceforge.net/DTD/sodipodi-0.dtd"
   xmlns:inkscape="http://www.inkscape.org/namespaces/inkscape"
   width="9.8957968mm"
   height="11.55712mm"
   viewBox="0 0 9.8957967 11.55712"
   version="1.1"
   id="svg8"
   inkscape:version="0.92.3 (2405546, 2018-03-11)"
   sodipodi:docname="sac2.svg">
  <defs
     id="defs2" />
  <sodipodi:namedview
     id="base"
     pagecolor="#ffffff"
     bordercolor="#666666"
     borderopacity="1.0"
     inkscape:pageopacity="0.0"
     inkscape:pageshadow="2"
     inkscape:zoom="11.2"
     inkscape:cx="31.834415"
     inkscape:cy="18.715327"
     inkscape:document-units="mm"
     inkscape:current-layer="layer1"
     showgrid="false"
     inkscape:window-width="1366"
     inkscape:window-height="744"
     inkscape:window-x="0"
     inkscape:window-y="0"
     inkscape:window-maximized="1" />
  <metadata
     id="metadata5">
    <rdf:RDF>
      <cc:Work
         rdf:about="">
        <dc:format>image/svg+xml</dc:format>
        <dc:type
           rdf:resource="http://purl.org/dc/dcmitype/StillImage" />
        <dc:title />
      </cc:Work>
    </rdf:RDF>
  </metadata>
  <g
     inkscape:label="Camada 1"
     inkscape:groupmode="layer"
     id="layer1"
     transform="translate(-178.4109,-225.07315)">
    <path
       style="fill:#000000;stroke-width:0.27;stroke:#fdce02;stroke-miterlimit:4;stroke-dasharray:none;stroke-linecap:round;opacity:1;stroke-opacity:1"
       d="m 178.41654,236.59685 c -0.004,-0.0184 -0.007,-0.59748 -0.005,-1.28681 0.003,-1.36357 0.003,-1.36072 0.11603,-1.60497 0.0628,-0.13516 0.19849,-0.32101 0.30118,-0.41242 0.098,-0.0873 0.49137,-0.34242 0.77574,-0.50316 0.86087,-0.48665 1.79366,-0.79733 2.88385,-0.96048 0.39246,-0.0588 0.93283,-0.0739 1.38948,-0.039 1.12084,0.0857 2.50921,0.52788 3.43041,1.09235 0.22885,0.14023 0.56196,0.39485 0.66365,0.50727 0.11363,0.12568 0.22182,0.31913 0.28002,0.50087 0.0395,0.12388 0.0411,0.16884 0.0478,1.43382 l 0.007,1.30595 h -1.04979 -1.04976 v -1.02371 -1.02372 h -0.15537 -0.15535 v 1.02372 1.02371 h -2.55372 -2.55371 v -1.02371 -1.02372 h -0.15534 -0.15536 v 1.02372 1.02371 h -1.02699 c -0.96217,0 -1.02747,-0.003 -1.03474,-0.0335 z m 4.66399,-5.46028 c -0.95174,-0.10621 -1.7514,-0.74294 -2.06418,-1.64352 -0.093,-0.26752 -0.12036,-0.44413 -0.12049,-0.77496 -1.5e-4,-0.44071 0.0674,-0.72137 0.26609,-1.10486 0.28832,-0.55673 0.79854,-0.99104 1.40641,-1.19712 0.6082,-0.20622 1.36699,-0.14678 1.92811,0.151 0.69732,0.3701 1.17032,1.01927 1.29528,1.77778 0.0345,0.20982 0.0363,0.60046 0.003,0.6266 -0.0133,0.0103 -0.40004,0.14168 -0.85932,0.29175 -0.45928,0.15006 -0.88571,0.299 -0.94762,0.33099 -0.18767,0.097 -0.34928,0.28165 -0.42783,0.4888 -0.0369,0.0974 -0.0418,0.15666 -0.0479,0.58017 -0.007,0.46544 -0.007,0.47189 -0.0491,0.4829 -0.0547,0.0145 -0.19945,0.0103 -0.38207,-0.009 z m 1.0197,-0.15578 c -0.004,-0.0131 -0.0615,-0.20905 -0.12643,-0.43531 -0.0649,-0.22629 -0.12124,-0.42083 -0.1253,-0.43235 -0.007,-0.0207 0.0844,-0.0496 0.62692,-0.19902 0.22735,-0.0627 0.26014,-0.0675 0.26865,-0.0403 0.0308,0.098 -0.0126,0.10683 0.86745,-0.17809 l 0.83189,-0.26945 -0.009,-0.57405 c -0.009,-0.5323 -0.0127,-0.58864 -0.058,-0.77495 -0.12783,-0.5211 -0.34025,-0.93516 -0.68936,-1.34371 -0.34045,-0.39842 -0.82959,-0.72146 -1.36395,-0.90072 -0.64963,-0.21794 -1.33604,-0.21166 -2.00669,0.0184 -0.40112,0.13757 -0.72292,0.32644 -1.07136,0.62882 -0.16645,0.14443 -0.19928,0.16214 -0.30068,0.16214 -0.20469,0 -0.35188,-0.19208 -0.29373,-0.3833 0.0275,-0.0903 0.23509,-0.2852 0.51674,-0.48493 0.65799,-0.46662 1.39046,-0.70082 2.1918,-0.70082 0.8556,0 1.65297,0.28229 2.34548,0.83041 0.46275,0.36627 0.86872,0.90368 1.08555,1.43705 0.15114,0.37181 0.14877,0.35705 0.23408,1.46136 0.0433,0.56168 0.0716,1.02773 0.0628,1.03566 -0.009,0.009 -0.49457,0.17123 -1.07935,0.36284 -0.58478,0.19164 -1.06313,0.35416 -1.06301,0.36116 1.4e-4,0.007 0.0128,0.054 0.0284,0.10455 0.0218,0.0704 0.0228,0.0935 0.005,0.0997 -0.0507,0.0171 -0.84756,0.23908 -0.85822,0.23908 -0.007,0 -0.0151,-0.0103 -0.0196,-0.0238 z"
       id="path919"
       inkscape:connector-curvature="0" />
  </g>
</svg>
