<?xml version="1.0" encoding="UTF-8" standalone="no"?>
<!-- Created with Inkscape (http://www.inkscape.org/) -->

<svg
   xmlns:dc="http://purl.org/dc/elements/1.1/"
   xmlns:cc="http://creativecommons.org/ns#"
   xmlns:rdf="http://www.w3.org/1999/02/22-rdf-syntax-ns#"
   xmlns:svg="http://www.w3.org/2000/svg"
   xmlns="http://www.w3.org/2000/svg"
   xmlns:sodipodi="http://sodipodi.sourceforge.net/DTD/sodipodi-0.dtd"
   xmlns:inkscape="http://www.inkscape.org/namespaces/inkscape"
   width="47.449955mm"
   height="49.102272mm"
   viewBox="0 0 47.449954 49.102273"
   version="1.1"
   id="svg8"
   inkscape:version="0.92.4 5da689c313, 2019-01-14"
   sodipodi:docname="spinner.svg">
  <defs
     id="defs2" />
  <sodipodi:namedview
     id="base"
     pagecolor="#ffffff"
     bordercolor="#666666"
     borderopacity="1.0"
     inkscape:pageopacity="0.0"
     inkscape:pageshadow="2"
     inkscape:zoom="0.70710678"
     inkscape:cx="-80.946566"
     inkscape:cy="120.01335"
     inkscape:document-units="mm"
     inkscape:current-layer="layer1"
     showgrid="false"
     inkscape:window-width="1366"
     inkscape:window-height="674"
     inkscape:window-x="0"
     inkscape:window-y="0"
     inkscape:window-maximized="1"
     showguides="true"
     inkscape:guide-bbox="true">
    <sodipodi:guide
       position="22.864015,19.275703"
       orientation="1,0"
       id="guide6625"
       inkscape:locked="false" />
    <sodipodi:guide
       position="18.366099,24.170494"
       orientation="0,1"
       id="guide6627"
       inkscape:locked="false" />
  </sodipodi:namedview>
  <metadata
     id="metadata5">
    <rdf:RDF>
      <cc:Work
         rdf:about="">
        <dc:format>image/svg+xml</dc:format>
        <dc:type
           rdf:resource="http://purl.org/dc/dcmitype/StillImage" />
        <dc:title />
      </cc:Work>
    </rdf:RDF>
  </metadata>
  <g
     inkscape:label="Camada 1"
     inkscape:groupmode="layer"
     id="layer1"
     transform="translate(26.66752,-230.94769)">
    <g
       id="g5354"
       transform="matrix(-0.09962212,0,0,0.09962212,94.06912,272.58529)">
      <path
         inkscape:connector-curvature="0"
         id="path4819"
         d="m 104.95655,28.637226 c 0.0859,68.035517 0.0869,68.791477 0.0869,68.791477"
         style="fill:none;stroke:#000000;stroke-width:5;stroke-linecap:round;stroke-linejoin:miter;stroke-miterlimit:4;stroke-dasharray:none;stroke-opacity:1;paint-order:stroke fill markers"
         inkscape:transform-center-y="-83.910641"
         inkscape:transform-center-x="0.10599" />
      <path
         inkscape:transform-center-x="0.10599"
         inkscape:transform-center-y="-83.910641"
         style="fill:none;stroke:#ffffff;stroke-width:5;stroke-linecap:round;stroke-linejoin:miter;stroke-miterlimit:4;stroke-dasharray:none;stroke-opacity:1;paint-order:stroke fill markers"
         d="m 104.95655,28.637226 c 0.0859,68.035517 0.0869,68.791477 0.0869,68.791477"
         id="path4821"
         inkscape:connector-curvature="0" />
      <path
         id="path5087"
         style="opacity:1;fill:none;stroke:#060606;stroke-width:5;stroke-linecap:round;stroke-linejoin:miter;stroke-miterlimit:4;stroke-dasharray:none;stroke-opacity:1;paint-order:stroke fill markers"
         d="m 104.95655,28.637226 c 0.0859,68.035517 0.0869,68.791477 0.0869,68.791477"
         inkscape:connector-curvature="0" />
      <path
         inkscape:transform-center-y="-82.635914"
         inkscape:transform-center-x="-14.570939"
         id="path5089"
         style="opacity:1;fill:none;stroke:#0d0d0d;stroke-width:5;stroke-linecap:round;stroke-linejoin:miter;stroke-miterlimit:4;stroke-dasharray:none;stroke-opacity:1;paint-order:stroke fill markers"
         d="M 125.50091,30.427022 C 113.77126,97.443843 113.64097,98.188491 113.64097,98.188491"
         inkscape:connector-curvature="0" />
      <path
         inkscape:transform-center-y="-78.850273"
         inkscape:transform-center-x="-28.699154"
         id="path5091"
         style="opacity:1;fill:none;stroke:#141414;stroke-width:5;stroke-linecap:round;stroke-linejoin:miter;stroke-miterlimit:4;stroke-dasharray:none;stroke-opacity:1;paint-order:stroke fill markers"
         d="m 145.42236,35.757116 c -23.1888,63.961853 -23.44641,64.672564 -23.44641,64.672564"
         inkscape:connector-curvature="0" />
      <path
         inkscape:transform-center-y="-72.668801"
         inkscape:transform-center-x="-41.955349"
         id="path5093"
         style="opacity:1;fill:none;stroke:#1b1b1b;stroke-width:5;stroke-linecap:round;stroke-linejoin:miter;stroke-miterlimit:4;stroke-dasharray:none;stroke-opacity:1;paint-order:stroke fill markers"
         d="M 164.11559,44.465559 C 130.17223,103.42899 129.79511,104.08418 129.79511,104.08418"
         inkscape:connector-curvature="0" />
      <path
         inkscape:transform-center-y="-64.279333"
         inkscape:transform-center-x="-53.936759"
         id="path5095"
         style="opacity:1;fill:none;stroke:#222222;stroke-width:5;stroke-linecap:round;stroke-linejoin:miter;stroke-miterlimit:4;stroke-dasharray:none;stroke-opacity:1;paint-order:stroke fill markers"
         d="M 181.01263,56.287746 C 137.34605,108.46119 136.86089,109.04093 136.86089,109.04093"
         inkscape:connector-curvature="0" />
      <path
         inkscape:transform-center-y="-53.936762"
         inkscape:transform-center-x="-64.279334"
         id="path5097"
         style="opacity:1;fill:none;stroke:#292929;stroke-width:5;stroke-linecap:round;stroke-linejoin:miter;stroke-miterlimit:4;stroke-dasharray:none;stroke-opacity:1;paint-order:stroke fill markers"
         d="M 195.60007,70.864468 C 143.53705,114.66266 142.9586,115.14935 142.9586,115.14935"
         inkscape:connector-curvature="0" />
      <path
         inkscape:transform-center-y="-41.955356"
         inkscape:transform-center-x="-72.668804"
         id="path5099"
         style="opacity:1;fill:none;stroke:#303030;stroke-width:5;stroke-linecap:round;stroke-linejoin:miter;stroke-miterlimit:4;stroke-dasharray:none;stroke-opacity:1;paint-order:stroke fill markers"
         d="M 207.43466,87.752819 C 148.55713,121.84497 147.90295,122.22381 147.90295,122.22381"
         inkscape:connector-curvature="0" />
      <path
         inkscape:transform-center-y="-28.699156"
         inkscape:transform-center-x="-78.850269"
         id="path5101"
         style="opacity:1;fill:none;stroke:#373737;stroke-width:5;stroke-linecap:round;stroke-linejoin:miter;stroke-miterlimit:4;stroke-dasharray:none;stroke-opacity:1;paint-order:stroke fill markers"
         d="m 216.15683,106.43965 c -63.90309,23.35024 -64.61312,23.60973 -64.61312,23.60973"
         inkscape:connector-curvature="0" />
      <path
         inkscape:transform-center-y="-14.57094"
         inkscape:transform-center-x="-82.635914"
         id="path5103"
         style="opacity:1;fill:none;stroke:#3e3e3e;stroke-width:5;stroke-linecap:round;stroke-linejoin:miter;stroke-miterlimit:4;stroke-dasharray:none;stroke-opacity:1;paint-order:stroke fill markers"
         d="m 221.50156,126.35718 c -66.98699,11.89884 -67.73129,12.0311 -67.73129,12.0311"
         inkscape:connector-curvature="0" />
      <path
         inkscape:transform-center-x="-83.910709"
         id="path5105"
         style="opacity:1;fill:none;stroke:#444444;stroke-width:5;stroke-linecap:round;stroke-linejoin:miter;stroke-miterlimit:4;stroke-dasharray:none;stroke-opacity:1;paint-order:stroke fill markers"
         d="m 223.30645,146.90022 c -68.03552,0.0859 -68.79148,0.0869 -68.79148,0.0869"
         inkscape:connector-curvature="0" />
      <path
         inkscape:transform-center-y="14.570939"
         inkscape:transform-center-x="-82.635914"
         id="path5107"
         style="opacity:1;fill:none;stroke:#4b4b4b;stroke-width:5;stroke-linecap:round;stroke-linejoin:miter;stroke-miterlimit:4;stroke-dasharray:none;stroke-opacity:1;paint-order:stroke fill markers"
         d="M 221.51665,167.44458 C 154.49983,155.71493 153.75518,155.58464 153.75518,155.58464"
         inkscape:connector-curvature="0" />
      <path
         inkscape:transform-center-y="28.699155"
         inkscape:transform-center-x="-78.850274"
         id="path5109"
         style="opacity:1;fill:none;stroke:#525252;stroke-width:5;stroke-linecap:round;stroke-linejoin:miter;stroke-miterlimit:4;stroke-dasharray:none;stroke-opacity:1;paint-order:stroke fill markers"
         d="M 216.18656,187.36603 C 152.2247,164.17723 151.51399,163.91962 151.51399,163.91962"
         inkscape:connector-curvature="0" />
      <path
         inkscape:transform-center-y="41.955349"
         inkscape:transform-center-x="-72.668804"
         id="path5111"
         style="opacity:1;fill:none;stroke:#595959;stroke-width:5;stroke-linecap:round;stroke-linejoin:miter;stroke-miterlimit:4;stroke-dasharray:none;stroke-opacity:1;paint-order:stroke fill markers"
         d="M 207.47811,206.05926 C 148.51468,172.1159 147.8595,171.73878 147.8595,171.73878"
         inkscape:connector-curvature="0" />
      <path
         inkscape:transform-center-y="53.93676"
         inkscape:transform-center-x="-64.279334"
         id="path5113"
         style="opacity:1;fill:none;stroke:#606060;stroke-width:5;stroke-linecap:round;stroke-linejoin:miter;stroke-miterlimit:4;stroke-dasharray:none;stroke-opacity:1;paint-order:stroke fill markers"
         d="M 195.65593,222.9563 C 143.48248,179.28972 142.90274,178.80456 142.90274,178.80456"
         inkscape:connector-curvature="0" />
      <path
         inkscape:transform-center-y="64.27933"
         inkscape:transform-center-x="-53.936759"
         id="path5115"
         style="opacity:1;fill:none;stroke:#676767;stroke-width:5;stroke-linecap:round;stroke-linejoin:miter;stroke-miterlimit:4;stroke-dasharray:none;stroke-opacity:1;paint-order:stroke fill markers"
         d="M 181.0792,237.54374 C 137.28101,185.48072 136.79432,184.90226 136.79432,184.90226"
         inkscape:connector-curvature="0" />
      <path
         inkscape:transform-center-y="72.668799"
         inkscape:transform-center-x="-41.955354"
         id="path5117"
         style="opacity:1;fill:none;stroke:#6e6e6e;stroke-width:5;stroke-linecap:round;stroke-linejoin:miter;stroke-miterlimit:4;stroke-dasharray:none;stroke-opacity:1;paint-order:stroke fill markers"
         d="M 164.19085,249.37833 C 130.0987,190.5008 129.71986,189.84661 129.71986,189.84661"
         inkscape:connector-curvature="0" />
      <path
         inkscape:transform-center-y="78.850269"
         inkscape:transform-center-x="-28.699154"
         id="path5119"
         style="opacity:1;fill:none;stroke:#757575;stroke-width:5;stroke-linecap:round;stroke-linejoin:miter;stroke-miterlimit:4;stroke-dasharray:none;stroke-opacity:1;paint-order:stroke fill markers"
         d="M 145.50402,258.1005 C 122.15378,194.19741 121.89429,193.48738 121.89429,193.48738"
         inkscape:connector-curvature="0" />
      <path
         inkscape:transform-center-y="82.635914"
         inkscape:transform-center-x="-14.570944"
         id="path5121"
         style="opacity:1;fill:none;stroke:#7c7c7c;stroke-width:5;stroke-linecap:round;stroke-linejoin:miter;stroke-miterlimit:4;stroke-dasharray:none;stroke-opacity:1;paint-order:stroke fill markers"
         d="M 125.58649,263.44523 C 113.68765,196.45824 113.5554,195.71394 113.5554,195.71394"
         inkscape:connector-curvature="0" />
      <path
         inkscape:transform-center-y="83.910704"
         inkscape:transform-center-x="1.0650235e-06"
         id="path5123"
         style="opacity:1;fill:none;stroke:#828282;stroke-width:5;stroke-linecap:round;stroke-linejoin:miter;stroke-miterlimit:4;stroke-dasharray:none;stroke-opacity:1;paint-order:stroke fill markers"
         d="m 105.04345,265.25011 c -0.0859,-68.03551 -0.0869,-68.79147 -0.0869,-68.79147"
         inkscape:connector-curvature="0" />
      <path
         inkscape:transform-center-y="82.635914"
         inkscape:transform-center-x="14.57094"
         id="path5125"
         style="opacity:1;fill:none;stroke:#898989;stroke-width:5;stroke-linecap:round;stroke-linejoin:miter;stroke-miterlimit:4;stroke-dasharray:none;stroke-opacity:1;paint-order:stroke fill markers"
         d="M 84.499094,263.46032 C 96.228742,196.4435 96.359028,195.69885 96.359028,195.69885"
         inkscape:connector-curvature="0" />
      <path
         inkscape:transform-center-y="78.850269"
         inkscape:transform-center-x="28.699151"
         id="path5127"
         style="opacity:1;fill:none;stroke:#909090;stroke-width:5;stroke-linecap:round;stroke-linejoin:miter;stroke-miterlimit:4;stroke-dasharray:none;stroke-opacity:1;paint-order:stroke fill markers"
         d="M 64.577645,258.13022 C 87.766442,194.16837 88.024056,193.45766 88.024056,193.45766"
         inkscape:connector-curvature="0" />
      <path
         inkscape:transform-center-y="72.668805"
         inkscape:transform-center-x="41.955352"
         id="path5129"
         style="opacity:1;fill:none;stroke:#979797;stroke-width:5;stroke-linecap:round;stroke-linejoin:miter;stroke-miterlimit:4;stroke-dasharray:none;stroke-opacity:1;paint-order:stroke fill markers"
         d="m 45.884409,249.42178 c 33.943366,-58.96343 34.32048,-59.61861 34.32048,-59.61861"
         inkscape:connector-curvature="0" />
      <path
         inkscape:transform-center-y="64.279329"
         inkscape:transform-center-x="53.936761"
         id="path5131"
         style="opacity:1;fill:none;stroke:#9e9e9e;stroke-width:5;stroke-linecap:round;stroke-linejoin:miter;stroke-miterlimit:4;stroke-dasharray:none;stroke-opacity:1;paint-order:stroke fill markers"
         d="M 28.98737,237.59959 C 72.653954,185.42615 73.13911,184.84641 73.13911,184.84641"
         inkscape:connector-curvature="0" />
      <path
         inkscape:transform-center-y="53.936759"
         inkscape:transform-center-x="64.27933"
         id="path5133"
         style="opacity:1;fill:none;stroke:#a5a5a5;stroke-width:5;stroke-linecap:round;stroke-linejoin:miter;stroke-miterlimit:4;stroke-dasharray:none;stroke-opacity:1;paint-order:stroke fill markers"
         d="M 14.399936,223.02287 C 66.462951,179.22468 67.041407,178.73799 67.041407,178.73799"
         inkscape:connector-curvature="0" />
      <path
         inkscape:transform-center-y="41.955354"
         inkscape:transform-center-x="72.668802"
         id="path5135"
         style="opacity:1;fill:none;stroke:#acacac;stroke-width:5;stroke-linecap:round;stroke-linejoin:miter;stroke-miterlimit:4;stroke-dasharray:none;stroke-opacity:1;paint-order:stroke fill markers"
         d="M 2.5653402,206.13452 C 61.442876,172.04237 62.097057,171.66353 62.097057,171.66353"
         inkscape:connector-curvature="0" />
      <path
         inkscape:transform-center-y="28.699154"
         inkscape:transform-center-x="78.850271"
         id="path5137"
         style="opacity:1;fill:none;stroke:#b3b3b3;stroke-width:5;stroke-linecap:round;stroke-linejoin:miter;stroke-miterlimit:4;stroke-dasharray:none;stroke-opacity:1;paint-order:stroke fill markers"
         d="M -6.1568307,187.44769 C 57.746263,164.09745 58.456291,163.83796 58.456291,163.83796"
         inkscape:connector-curvature="0" />
      <path
         inkscape:transform-center-y="14.570944"
         inkscape:transform-center-x="82.635914"
         id="path5139"
         style="opacity:1;fill:none;stroke:#bababa;stroke-width:5;stroke-linecap:round;stroke-linejoin:miter;stroke-miterlimit:4;stroke-dasharray:none;stroke-opacity:1;paint-order:stroke fill markers"
         d="m -11.501558,167.53016 c 66.986989,-11.89884 67.73129,-12.03109 67.73129,-12.03109"
         inkscape:connector-curvature="0" />
      <path
         inkscape:transform-center-x="83.910706"
         id="path5141"
         style="opacity:1;fill:none;stroke:#c0c0c0;stroke-width:5;stroke-linecap:round;stroke-linejoin:miter;stroke-miterlimit:4;stroke-dasharray:none;stroke-opacity:1;paint-order:stroke fill markers"
         d="m -13.306443,146.98712 c 68.035517,-0.0859 68.791477,-0.0869 68.791477,-0.0869"
         inkscape:connector-curvature="0" />
      <path
         inkscape:transform-center-y="-14.57094"
         inkscape:transform-center-x="82.635914"
         id="path5143"
         style="opacity:1;fill:none;stroke:#c7c7c7;stroke-width:5;stroke-linecap:round;stroke-linejoin:miter;stroke-miterlimit:4;stroke-dasharray:none;stroke-opacity:1;paint-order:stroke fill markers"
         d="m -11.516648,126.44276 c 67.016821,11.72965 67.76147,11.85994 67.76147,11.85994"
         inkscape:connector-curvature="0" />
      <path
         inkscape:transform-center-y="-28.699151"
         inkscape:transform-center-x="78.850272"
         id="path5145"
         style="opacity:1;fill:none;stroke:#cecece;stroke-width:5;stroke-linecap:round;stroke-linejoin:miter;stroke-miterlimit:4;stroke-dasharray:none;stroke-opacity:1;paint-order:stroke fill markers"
         d="m -6.186553,106.52131 c 63.961853,23.1888 64.672565,23.44642 64.672565,23.44642"
         inkscape:connector-curvature="0" />
      <path
         inkscape:transform-center-y="-41.955351"
         inkscape:transform-center-x="72.668803"
         id="path5147"
         style="opacity:1;fill:none;stroke:#d5d5d5;stroke-width:5;stroke-linecap:round;stroke-linejoin:miter;stroke-miterlimit:4;stroke-dasharray:none;stroke-opacity:1;paint-order:stroke fill markers"
         d="M 2.5218892,87.828078 C 61.485325,121.77144 62.140506,122.14856 62.140506,122.14856"
         inkscape:connector-curvature="0" />
      <path
         inkscape:transform-center-y="-53.936761"
         inkscape:transform-center-x="64.279331"
         id="path5149"
         style="opacity:1;fill:none;stroke:#dcdcdc;stroke-width:5;stroke-linecap:round;stroke-linejoin:miter;stroke-miterlimit:4;stroke-dasharray:none;stroke-opacity:1;paint-order:stroke fill markers"
         d="M 14.344077,70.931039 C 66.517522,114.59762 67.097264,115.08278 67.097264,115.08278"
         inkscape:connector-curvature="0" />
      <path
         inkscape:transform-center-y="-64.279328"
         inkscape:transform-center-x="53.936763"
         id="path5151"
         style="opacity:1;fill:none;stroke:#e3e3e3;stroke-width:5;stroke-linecap:round;stroke-linejoin:miter;stroke-miterlimit:4;stroke-dasharray:none;stroke-opacity:1;paint-order:stroke fill markers"
         d="M 28.920799,56.343606 C 72.71899,108.40662 73.205677,108.98508 73.205677,108.98508"
         inkscape:connector-curvature="0" />
      <path
         inkscape:transform-center-y="-72.6688"
         inkscape:transform-center-x="41.955354"
         id="path5153"
         style="opacity:1;fill:none;stroke:#eaeaea;stroke-width:5;stroke-linecap:round;stroke-linejoin:miter;stroke-miterlimit:4;stroke-dasharray:none;stroke-opacity:1;paint-order:stroke fill markers"
         d="m 45.809149,44.50901 c 34.09215,58.87754 34.470996,59.53172 34.470996,59.53172"
         inkscape:connector-curvature="0" />
      <path
         inkscape:transform-center-y="-78.850271"
         inkscape:transform-center-x="28.699153"
         id="path5155"
         style="opacity:1;fill:none;stroke:#f1f1f1;stroke-width:5;stroke-linecap:round;stroke-linejoin:miter;stroke-miterlimit:4;stroke-dasharray:none;stroke-opacity:1;paint-order:stroke fill markers"
         d="m 64.495983,35.786839 c 23.350237,63.903093 23.60973,64.613121 23.60973,64.613121"
         inkscape:connector-curvature="0" />
      <path
         inkscape:transform-center-y="-82.635914"
         inkscape:transform-center-x="14.570942"
         id="path5157"
         style="opacity:1;fill:none;stroke:#f8f8f8;stroke-width:5;stroke-linecap:round;stroke-linejoin:miter;stroke-miterlimit:4;stroke-dasharray:none;stroke-opacity:1;paint-order:stroke fill markers"
         d="M 84.413512,30.442112 C 96.31235,97.4291 96.444606,98.173402 96.444606,98.173402"
         inkscape:connector-curvature="0" />
    </g>
    <path
       inkscape:connector-curvature="0"
       d="m -2.3373706,235.02539 c -0.2966456,-1.34935 -1.1185157,-2.52178 -2.2793497,-3.26156 -2.695e-4,-1.5e-4 -5.512e-4,-3.1e-4 -8.328e-4,-4.8e-4 -1.1606551,-0.73938 -2.5681221,-0.99057 -3.917169,-0.69405 -3.149e-4,9e-5 -6.298e-4,1.7e-4 -9.634e-4,2.7e-4 -9.3e-6,-1e-5 -1.87e-5,-2e-5 -2.64e-5,-1e-5 -4.03e-5,-3e-5 -7.8e-5,-6e-5 -1.167e-4,-8e-5 -2.8031964,0.61942 -4.5738394,3.39375 -3.9549884,6.19718 8.6e-5,3.2e-4 1.69e-4,6.3e-4 2.02e-4,7.6e-4 -5e-6,1e-5 -1.1e-5,1e-5 -1.5e-5,2e-5 4.2e-5,1.7e-4 8.6e-5,3.3e-4 1.32e-4,4.8e-4 0.310342,1.39846 1.156677,2.54256 2.279368,3.26034 1.32e-4,7e-5 2.66e-4,1.5e-4 4e-4,2.3e-4 1.1227758,0.71764 2.5185638,1.00403 3.9172073,0.69405 3.67e-5,-1e-5 6.47e-5,-2e-5 9.37e-5,-3e-5 3.87e-5,2e-5 7.73e-5,5e-5 1.16e-4,7e-5 6.25e-4,-1.7e-4 0.00126,-3.4e-4 0.00172,-1.6e-4 1.3455581,-0.2976 2.5179498,-1.11726 3.2594747,-2.27888 2.12e-5,-4e-5 3.54e-5,-6e-5 5.66e-5,-1e-4 3.86e-5,-1e-5 8.69e-5,-2e-5 1.281e-4,-2e-5 3.156e-4,-5.6e-4 5.021e-4,-8.7e-4 7.071e-4,-0.001 0.7410203,-1.16189 0.9904415,-2.57047 0.693386,-3.91621 0,0 0,0 0,0 0,0 0,0 0,0"
       style="opacity:1;fill:#000000;fill-opacity:1;stroke:none;stroke-width:2.86500001;stroke-linecap:round;stroke-linejoin:bevel;stroke-miterlimit:4;stroke-dasharray:none;paint-order:stroke fill markers"
       id="path6876"
       inkscape:transform-center-x="-5.5978811"
       inkscape:transform-center-y="-19.864687" />
    <path
       inkscape:connector-curvature="0"
       d="m -13.026225,238.33995 c -0.867132,-0.94967 -2.07531,-1.51227 -3.355375,-1.56835 -3e-6,0 -1.4e-5,0 -1.7e-5,0 -2.83e-4,0 -5.8e-4,0 -8.76e-4,0 -2.8e-5,0 -5.6e-5,0 -9.2e-5,-1e-5 -1.279705,-0.0558 -2.531154,0.39674 -3.480614,1.26361 -6e-6,0 -1.1e-5,1e-5 -1.6e-5,1e-5 -2.1e-4,2.1e-4 -4.19e-4,4.2e-4 -6.35e-4,6.5e-4 0,0 -1e-6,0 -1e-6,0 0,0 -1e-6,10e-6 -1e-6,10e-6 -1.2e-5,-10e-6 -2.4e-5,-10e-6 -2.9e-5,0 -4.1e-5,-10e-6 -8.2e-5,-10e-6 -1.23e-4,-10e-6 -2.2e-5,2e-5 -4.4e-5,5e-5 -6.6e-5,7e-5 -1.971349,1.80396 -2.107463,4.86441 -0.303877,6.83626 7e-6,0 1.4e-5,1e-5 1.4e-5,1e-5 2.13e-4,2.1e-4 4.18e-4,4.2e-4 5.02e-4,5e-4 0,0 0,0 0,0 0,0 7e-6,1e-5 7e-6,1e-5 2e-6,10e-6 -2e-6,10e-6 1e-6,3e-5 1.04e-4,1e-4 2.18e-4,2.2e-4 3.19e-4,3.1e-4 2.1e-5,2e-5 4.1e-5,5e-5 6.1e-5,7e-5 0.901024,0.98284 2.115712,1.51119 3.354769,1.5673 2e-6,0 4e-6,0 6e-6,0 1.34e-4,-10e-6 2.75e-4,-10e-6 4.16e-4,-10e-6 2.7e-5,0 6.2e-5,10e-6 8.9e-5,10e-6 1.239049,0.0559 2.497471,-0.36283 3.480648,-1.26363 1e-6,0 2e-6,0 2e-6,0 0,0 1e-6,0 1e-6,0 2.5e-5,-3e-5 4.3e-5,-4e-5 6.3e-5,-6e-5 10e-6,-1e-5 2e-5,-2e-5 3.3e-5,-2e-5 3.5e-5,-1e-5 7.7e-5,-1e-5 1.18e-4,-1e-5 4.16e-4,-4.1e-4 8.49e-4,-8.5e-4 0.0012,-8.7e-4 2.1e-5,-3e-5 4.2e-5,-5e-5 6.3e-5,-7e-5 0.946151,-0.8661 1.509709,-2.07248 1.566834,-3.35396 0,0 10e-7,0 10e-7,0 10e-7,0 10e-7,0 2e-6,0 0,-2e-5 -3e-6,-3e-5 8e-6,-4e-5 -2e-6,-4e-5 -4e-6,-7e-5 -6e-6,-1.1e-4 2.6e-5,-2e-5 5.8e-5,-5e-5 9.1e-5,-7e-5 0,-5.8e-4 4e-6,-9.1e-4 0,-0.001 1.7e-5,-3e-4 2.9e-5,-6.1e-4 3.9e-5,-9.2e-4 0.05634,-1.28117 -0.398158,-2.53236 -1.263734,-3.4787 0,0 0,0 0,0 0,0 0,0 0,0"
       style="opacity:1;fill:#000000;fill-opacity:1;stroke:none;stroke-width:2.86500001;stroke-linecap:round;stroke-linejoin:bevel;stroke-miterlimit:4;stroke-dasharray:none;paint-order:stroke fill markers"
       id="path7125"
       inkscape:transform-center-x="-14.780183"
       inkscape:transform-center-y="-14.405589" />
    <path
       inkscape:connector-curvature="0"
       d="m -21.213352,248.31626 c -1.161751,-0.25971 -2.37659,-0.0448 -3.377004,0.59229 -1.1e-5,1e-5 -2.3e-5,2e-5 -3.4e-5,3e-5 -2.09e-4,1.4e-4 -4.29e-4,2.9e-4 -6.39e-4,4.5e-4 -5.6e-5,3e-5 -1.02e-4,6e-5 -1.48e-4,9e-5 -0.999969,0.63713 -1.708591,1.64473 -1.968262,2.80613 -3e-6,2e-5 -5e-6,3e-5 -8e-6,5e-5 -4.6e-5,2.6e-4 -9.2e-5,5.2e-4 -1.32e-4,8e-4 0,0 0,0 0,10e-6 -10e-6,-10e-6 -10e-6,0 -1.1e-5,0 -1.1e-5,0 -2.1e-5,1e-5 -2.3e-5,1e-5 -3.3e-5,2e-5 -5.8e-5,4e-5 -9.2e-5,6e-5 -10e-6,6e-5 -2.1e-5,1.2e-4 -4.1e-5,1.8e-4 -0.536939,2.41455 0.984772,4.80741 3.399305,5.34499 10e-6,0 2e-5,0 3e-5,10e-6 2.66e-4,4e-5 5.22e-4,9e-5 6.3e-4,1.1e-4 0,0 0,0 0,0 10e-6,0 10e-6,0 2e-5,0 9e-6,1e-5 8e-6,1e-5 1.6e-5,2e-5 1.38e-4,3e-5 2.66e-4,5e-5 4.05e-4,7e-5 5.8e-5,1e-5 1.17e-4,3e-5 1.76e-4,4e-5 1.205023,0.26682 2.406579,0.0225 3.375873,-0.59279 1.1e-5,0 1.2e-5,-1e-5 2.2e-5,-1e-5 9.5e-5,-7e-5 1.99e-4,-1.5e-4 3.03e-4,-2.2e-4 4.6e-5,-3e-5 9.2e-5,-6e-5 1.38e-4,-9e-5 0.9692,-0.61547 1.701056,-1.60113 1.968278,-2.80617 0,0 1e-6,0 1e-6,0 10e-6,0 10e-6,0 10e-6,0 6e-6,-3e-5 10e-6,-6e-5 1.4e-5,-8e-5 5e-6,-3e-5 10e-6,-6e-5 2.3e-5,-7e-5 3.4e-5,-2e-5 5.8e-5,-4e-5 8.3e-5,-7e-5 9.1e-5,-5.2e-4 1.91e-4,-0.001 4.79e-4,-0.001 10e-6,-6e-5 3e-5,-1.2e-4 4e-5,-1.8e-4 0.257485,-1.15908 0.04435,-2.37301 -0.592717,-3.37502 0,-1e-5 1e-6,-1e-5 1e-6,-1e-5 0,0 0,0 1e-6,0 -1.7e-5,-3e-5 -2.5e-5,-4e-5 -3.9e-5,-7e-5 -1.5e-5,-3e-5 -3.2e-5,-5e-5 -4.8e-5,-8e-5 6e-6,-3e-5 1.3e-5,-7e-5 2.9e-5,-1e-4 -3.11e-4,-4.3e-4 -4.71e-4,-6.7e-4 -6.66e-4,-9.5e-4 -1.52e-4,-2.3e-4 -2.94e-4,-4.6e-4 -4.46e-4,-6.9e-4 -0.637514,-1.0014 -1.646467,-1.70884 -2.805279,-1.96685 0,0 0,0 0,0 0,0 0,0 0,0"
       style="opacity:1;fill:#000000;fill-opacity:1;stroke:none;stroke-width:2.86500001;stroke-linecap:round;stroke-linejoin:bevel;stroke-miterlimit:4;stroke-dasharray:none;paint-order:stroke fill markers"
       id="path7127"
       inkscape:transform-center-x="-20.370396"
       inkscape:transform-center-y="-3.3231199" />
    <path
       inkscape:connector-curvature="0"
       d="m -21.98219,261.16567 c -1.012238,0.41719 -1.814124,1.21993 -2.231731,2.22767 -2e-6,2e-5 -1.4e-5,4e-5 -1.7e-5,6e-5 -7.7e-5,2.1e-4 -1.61e-4,4.4e-4 -2.44e-4,6.6e-4 -3e-5,8e-5 -5.9e-5,1.6e-4 -9.7e-5,2.4e-4 -0.417218,1.00749 -0.419539,2.14037 -0.0025,3.15231 9e-6,2e-5 1.8e-5,3e-5 2.8e-5,6e-5 10e-5,2.1e-4 2e-4,4.3e-4 3.16e-4,6.5e-4 0,0 1e-6,0 1e-6,0 0,0 -8e-6,10e-6 -7e-6,10e-6 -6e-6,1e-5 -4e-6,1e-5 -2e-6,2e-5 -1.8e-5,3e-5 -3.5e-5,7e-5 -4.4e-5,1e-4 3.9e-5,8e-5 6.8e-5,1.6e-4 1.07e-4,2.5e-4 0.869245,2.10226 3.277932,3.10222 5.380548,2.23351 1.8e-5,-10e-6 3.6e-5,-2e-5 4.5e-5,-2e-5 2.18e-4,-10e-5 4.26e-4,-2e-4 5.17e-4,-2.4e-4 0,0 1e-6,0 1e-6,0 9e-6,-1e-5 1.8e-5,-1e-5 2.7e-5,-1e-5 1.1e-5,0 1.3e-5,0 1.5e-5,1e-5 1.19e-4,-6e-5 2.28e-4,-1.1e-4 3.35e-4,-1.6e-4 8.3e-5,-4e-5 1.66e-4,-7e-5 2.5e-4,-1.1e-4 1.048555,-0.43466 1.824876,-1.25255 2.230526,-2.22741 -3e-6,-10e-6 2e-6,-2e-5 8e-6,-3e-5 3.1e-5,-1e-4 6.9e-5,-2.1e-4 1.08e-4,-3.1e-4 3.1e-5,-8e-5 7e-5,-1.6e-4 10e-5,-2.4e-4 0.405462,-0.97494 0.436851,-2.10355 0.0025,-3.15234 -10e-7,0 -2e-6,-10e-6 -3e-6,-10e-6 -10e-7,0 -2e-6,0 7e-6,-1e-5 -1.2e-5,-2e-5 -2.1e-5,-4e-5 -3e-5,-6e-5 -1.8e-5,-4e-5 -3.6e-5,-8e-5 -2.9e-5,-1.1e-4 8e-6,-3e-5 1.7e-5,-6e-5 2.5e-5,-9e-5 -1.99e-4,-4.2e-4 -4e-4,-8.6e-4 -3.17e-4,-0.001 -2.7e-5,-9e-5 -6.5e-5,-1.7e-4 -1.02e-4,-2.5e-4 -0.417447,-1.00903 -1.218401,-1.8111 -2.226911,-2.22992 -1e-6,0 -2e-6,0 -2e-6,-1e-5 -2e-6,0 -3e-6,0 -4e-6,0 -4e-5,-2e-5 -6.5e-5,-3e-5 -1.02e-4,-6e-5 -2.7e-5,-1e-5 -4.2e-5,-2e-5 -7.9e-5,-2e-5 -1.2e-5,-3e-5 -2.8e-5,-6e-5 -3.1e-5,-1e-4 -4.37e-4,-1.5e-4 -6.89e-4,-2.4e-4 -9.69e-4,-3.5e-4 -2.21e-4,-9e-5 -4.52e-4,-1.8e-4 -6.73e-4,-2.8e-4 -1.008568,-0.41814 -2.141898,-0.41886 -3.151029,-0.002 0,0 0,0 0,0 0,0 0,0 0,0"
       style="opacity:1;fill:#000000;fill-opacity:1;stroke:none;stroke-width:2.86500001;stroke-linecap:round;stroke-linejoin:bevel;stroke-miterlimit:4;stroke-dasharray:none;paint-order:stroke fill markers"
       id="path7129"
       inkscape:transform-center-x="-18.590987"
       inkscape:transform-center-y="8.9624606" />
    <path
       inkscape:connector-curvature="0"
       d="m -16.418483,270.77698 c -0.60971,0.79169 -0.877208,1.79214 -0.747409,2.77925 10e-6,2e-5 9e-6,6e-5 2e-5,8e-5 3.4e-5,1.9e-4 6.8e-5,4e-4 1.01e-4,6.1e-4 1.9e-5,1.1e-4 3.2e-5,2.3e-4 4.5e-5,3.5e-4 0.13002,0.98668 0.645168,1.88315 1.436557,2.49269 2.4e-5,2e-5 4.7e-5,3e-5 7.2e-5,5e-5 1.69e-4,1.2e-4 3.4e-4,2.4e-4 5.26e-4,3.6e-4 1e-6,0 2e-6,0 2e-6,0 3e-6,0 -2e-6,1e-5 1e-6,1e-5 -2e-6,10e-6 2e-6,10e-6 6e-6,2e-5 -10e-7,3e-5 4e-6,6e-5 9e-6,9e-5 10e-5,7e-5 1.94e-4,1.5e-4 2.93e-4,2.2e-4 1.646436,1.26491 4.006588,0.95608 5.272081,-0.69007 1.8e-5,-2e-5 3.5e-5,-5e-5 4e-5,-6e-5 1.21e-4,-1.7e-4 2.36e-4,-3.3e-4 2.87e-4,-4.1e-4 1e-6,0 2e-6,0 2e-6,0 6e-6,0 1.7e-5,-2e-5 2.3e-5,-3e-5 10e-6,0 1.3e-5,0 1.6e-5,0 6.5e-5,-9e-5 1.28e-4,-1.8e-4 1.83e-4,-2.6e-4 7.3e-5,-10e-5 1.46e-4,-1.9e-4 2.24e-4,-3e-4 0.6303845,-0.82205 0.8707439,-1.82276 0.7464996,-2.7784 -1.7e-6,-1e-5 -4.1e-6,-3e-5 -5.8e-6,-4e-5 -2.29e-5,-9e-5 -4.01e-5,-1.9e-4 -5.65e-5,-2.8e-4 -1.06e-5,-1.2e-4 -2.78e-5,-2.3e-4 -4.42e-5,-3.4e-4 -0.1244475,-0.95561 -0.6146721,-1.86198 -1.4365731,-2.49273 -3e-6,0 -5e-6,0 -7e-6,-10e-6 -2e-6,0 -5e-6,0 -1e-6,-1e-5 -2e-5,-10e-6 -3.5e-5,-2e-5 -5e-5,-3e-5 -4.7e-5,-4e-5 -9.3e-5,-7e-5 -1.1e-4,-10e-5 -6e-6,-3e-5 -1.1e-5,-6e-5 -1.6e-5,-9e-5 -3.37e-4,-2.4e-4 -6.78e-4,-4.7e-4 -7.97e-4,-7.8e-4 -9.1e-5,-7e-5 -1.86e-4,-1.4e-4 -2.77e-4,-2.2e-4 -0.790401,-0.60703 -1.789501,-0.87544 -2.777746,-0.74625 -2e-6,-1e-5 -4e-6,-1e-5 -5e-6,-1e-5 -4e-6,0 -7e-6,0 -10e-6,-10e-6 -5.5e-5,2e-5 -9e-5,3e-5 -1.52e-4,10e-6 -2.7e-5,0 -4.2e-5,1e-5 -6.9e-5,1e-5 -2.2e-5,-1e-5 -4.8e-5,-3e-5 -6.8e-5,-5e-5 -4.02e-4,8e-5 -6.29e-4,1.1e-4 -8.84e-4,1.5e-4 -2.14e-4,4e-5 -4.24e-4,6e-5 -6.39e-4,9e-5 -0.988019,0.12974 -1.884172,0.64637 -2.49156,1.43644 0,0 0,0 0,0 0,0 0,0 0,0"
       style="opacity:1;fill:#000000;fill-opacity:1;stroke:none;stroke-width:2.86500001;stroke-linecap:round;stroke-linejoin:bevel;stroke-miterlimit:4;stroke-dasharray:none;paint-order:stroke fill markers"
       id="path7131"
       inkscape:transform-center-x="-11.62061"
       inkscape:transform-center-y="17.057177" />
    <path
       inkscape:connector-curvature="0"
       d="m -4.9495578,276.49781 c -0.04101,0.90275 0.279771,1.78264 0.88796,2.44657 2.5e-5,2e-5 4.9e-5,5e-5 7.4e-5,7e-5 1.2e-4,1.2e-4 2.45e-4,2.4e-4 3.71e-4,3.7e-4 9.8e-5,1.1e-4 1.97e-4,2.1e-4 2.96e-4,3.2e-4 0.608122,0.66345 1.454723,1.06031 2.35712,1.10134 3.6e-5,0 7.1e-5,0 1.09e-4,0 1.78e-4,0 3.56e-4,0 5.45e-4,0 10e-7,0 2e-6,0 3e-6,0 3e-6,0 6e-6,1e-5 1e-5,1e-5 4e-6,10e-6 8e-6,10e-6 1.2e-5,10e-6 1.7e-5,2e-5 3.4e-5,4e-5 5.1e-5,6e-5 1.53e-4,0 3.05e-4,10e-6 4.57e-4,2e-5 1.875757,0.083 3.4638959,-1.37006 3.5474949,-3.24592 0,-4e-5 0,-8e-5 0,-9e-5 0,-1.8e-4 0,-3.5e-4 0,-4.3e-4 1e-6,0 2e-6,0 2e-6,0 1e-6,-10e-6 1e-6,-4e-5 0,-5e-5 4e-6,-1e-5 8e-6,-1e-5 1.2e-5,-1e-5 10e-7,-9e-5 10e-7,-1.9e-4 -2e-6,-2.7e-4 7e-6,-1.6e-4 1.3e-5,-3.1e-4 2e-5,-4.6e-4 0.04054,-0.93593 -0.30048,-1.80188 -0.8881979,-2.44535 -1.2e-5,-10e-6 -2.4e-5,-2e-5 -3.6e-5,-3e-5 -5.9e-5,-6e-5 -1.19e-4,-1.2e-4 -1.79e-4,-1.8e-4 -9.5e-5,-1e-4 -1.9e-4,-2.1e-4 -2.86e-4,-3.1e-4 -0.587876,-0.64331 -1.421149,-1.06043 -2.357154,-1.10136 -4e-6,0 -7e-6,0 -1.1e-5,0 -3e-6,0 -7e-6,0 -10e-6,-10e-6 -2.1e-5,0 -3.6e-5,0 -5.3e-5,0 -7e-5,0 -1.41e-4,0 -1.85e-4,-3e-5 -1.7e-5,-10e-6 -3.5e-5,-3e-5 -5.2e-5,-5e-5 -3.53e-4,0 -7.09e-4,0 -9.27e-4,-1.5e-4 -1.46e-4,-1e-5 -2.92e-4,-2e-5 -4.39e-4,-2e-5 -0.900367,-0.0396 -1.779684,0.27974 -2.444736,0.88803 -3e-6,0 -5e-6,0 -8e-6,0 -5e-6,0 -9e-6,0 -1.4e-5,0 -4.9e-5,5e-5 -7.7e-5,8e-5 -1.52e-4,1.1e-4 -1.7e-5,2e-5 -2.7e-5,3e-5 -4.4e-5,5e-5 -2.2e-5,0 -4.9e-5,0 -7.1e-5,-10e-6 -2.45e-4,2.5e-4 -3.87e-4,3.9e-4 -5.45e-4,5.5e-4 -1.36e-4,1.2e-4 -2.71e-4,2.5e-4 -4.06e-4,3.7e-4 -0.664642,0.60862 -1.06054,1.45619 -1.100674,2.35655 0,0 0,0 0,0 0,0 0,0 0,0"
       style="opacity:1;fill:#000000;fill-opacity:1;stroke:none;stroke-width:2.86500001;stroke-linecap:round;stroke-linejoin:bevel;stroke-miterlimit:4;stroke-dasharray:none;paint-order:stroke fill markers"
       id="path7133"
       inkscape:transform-center-x="0.26458334"
       inkscape:transform-center-y="20.637511" />
    <path
       inkscape:connector-curvature="0"
       d="m 7.6707732,274.39674 c 0.432991,0.68232 1.119282,1.16232 1.905322,1.3367 4.1e-5,1e-5 8.3e-5,2e-5 1.24e-4,3e-5 1.39e-4,2e-5 2.88e-4,5e-5 4.31e-4,7e-5 1.72e-4,4e-5 3.43e-4,8e-5 5.14e-4,1.2e-4 0.7857108,0.17403 1.6093618,0.0305 2.2913888,-0.40228 3.4e-5,-2e-5 7e-5,-5e-5 1.07e-4,-7e-5 1.21e-4,-9e-5 2.42e-4,-1.7e-4 3.67e-4,-2.7e-4 0,0 10e-7,0 2e-6,-10e-6 9e-6,10e-6 1.2e-5,10e-6 2.1e-5,10e-6 3e-6,0 1.1e-5,1e-5 1.4e-5,1e-5 2.3e-5,0 4e-5,10e-6 5.8e-5,0 1.55e-4,-9e-5 3.11e-4,-1.9e-4 4.66e-4,-2.8e-4 1.416474,-0.90137 1.834494,-2.78024 0.933601,-4.19718 -2.3e-5,-3e-5 -4.6e-5,-6e-5 -5.7e-5,-8e-5 -8.7e-5,-1.2e-4 -1.73e-4,-2.4e-4 -2.01e-4,-2.8e-4 1e-6,-1e-5 1e-6,-1e-5 2e-6,-1e-5 -1.7e-5,-2e-5 -2.8e-5,-4e-5 -4e-5,-5e-5 3e-6,-1e-5 5e-6,-1e-5 2e-6,-2e-5 -4.5e-5,-6e-5 -8.6e-5,-1.2e-4 -1.33e-4,-1.8e-4 -9.7e-5,-1.6e-4 -1.93e-4,-3.1e-4 -2.91e-4,-4.6e-4 -0.450359,-0.70631 -1.144287,-1.16569 -1.904795,-1.33557 -2.2e-5,-1e-5 -4e-5,-1e-5 -6.3e-5,-2e-5 -6.4e-5,0 -1.33e-4,-10e-6 -2.02e-4,-3e-5 -1.69e-4,-4e-5 -3.31e-4,-7e-5 -5e-4,-1.1e-4 -0.760556,-0.16967 -1.5848328,-0.0478 -2.2914208,0.40229 -4e-6,0 -7e-6,0 -10e-6,10e-6 -9e-6,-10e-6 -1.3e-5,-10e-6 -1.6e-5,-10e-6 -1.4e-5,10e-6 -2.5e-5,2e-5 -3.6e-5,3e-5 -6.9e-5,5e-5 -1.39e-4,1e-4 -2.05e-4,9e-5 -2.3e-5,0 -4.1e-5,0 -5.9e-5,0 -2.4e-4,1.6e-4 -4.84e-4,3.4e-4 -7.13e-4,3.2e-4 -1.43e-4,1.1e-4 -2.93e-4,2e-4 -4.42e-4,2.9e-4 -0.679799,0.43279 -1.160061,1.11771 -1.335214,1.90436 2e-6,1e-5 5e-6,2e-5 3e-6,2e-5 -5e-6,0 -10e-6,1e-5 -1.5e-5,1e-5 -1.4e-5,8e-5 -2.3e-5,1.2e-4 -7.4e-5,2.1e-4 -5e-6,2e-5 -8e-6,3e-5 -1.3e-5,4e-5 -1.4e-5,2e-5 -3.3e-5,3e-5 -4.8e-5,4e-5 -4.7e-5,2.9e-4 -8.1e-5,4.5e-4 -1.15e-4,6.3e-4 -2.9e-5,1.5e-4 -6.3e-5,3e-4 -9.9e-5,4.5e-4 -0.174704,0.78673 -0.02998,1.61067 0.40244,2.29079 0,0 0,0 0,0 0,0 0,0 0,0"
       style="opacity:1;fill:#000000;fill-opacity:1;stroke:none;stroke-width:2.86500001;stroke-linecap:round;stroke-linejoin:bevel;stroke-miterlimit:4;stroke-dasharray:none;paint-order:stroke fill markers"
       id="path7135"
       inkscape:transform-center-x="12.054225"
       inkscape:transform-center-y="16.752934" />
    <path
       inkscape:connector-curvature="0"
       d="m 16.638061,265.29774 c 0.657812,0.27384 1.39625,0.27345 2.052173,0.002 5e-5,-2e-5 9e-5,-4e-5 1.39e-4,-6e-5 1.03e-4,-5e-5 2.06e-4,-1e-4 3.1e-4,-1.5e-4 1.89e-4,-8e-5 3.77e-4,-1.6e-4 5.65e-4,-2.4e-4 0.655449,-0.27168 1.177702,-0.79187 1.451413,-1.44933 1.7e-5,-5e-5 3.4e-5,-1e-4 5.2e-5,-1.5e-4 4.1e-5,-1.1e-4 8.1e-5,-2.2e-4 1.25e-4,-3.4e-4 0,0 0,0 10e-7,0 1.1e-5,0 1.3e-5,-10e-6 2.4e-5,-10e-6 0,0 1.1e-5,0 1.2e-5,0 1.3e-5,-1e-5 2.6e-5,-2e-5 4e-5,-2e-5 8.2e-5,-2e-4 1.64e-4,-4e-4 2.46e-4,-5.9e-4 0.567069,-1.36738 -0.08118,-2.93573 -1.448413,-3.5035 -4.7e-5,-2e-5 -9.4e-5,-4e-5 -1.13e-4,-4e-5 -1.13e-4,-4e-5 -2.26e-4,-8e-5 -2.63e-4,-10e-5 0,0 10e-7,0 10e-7,0 -2.8e-5,-1e-5 -5.6e-5,-2e-5 -7.5e-5,-3e-5 1e-6,0 2e-6,0 -7e-6,-1e-5 -5.6e-5,-2e-5 -1.12e-4,-4e-5 -1.7e-4,-6e-5 -1.93e-4,-8e-5 -3.88e-4,-1.6e-4 -5.91e-4,-2.4e-4 -0.682436,-0.28233 -1.415908,-0.26315 -2.051077,-0.001 -2.4e-5,1e-5 -3.9e-5,2e-5 -6.4e-5,3e-5 -5.1e-5,3e-5 -1.02e-4,5e-5 -1.53e-4,7e-5 -1.78e-4,8e-5 -3.64e-4,1.6e-4 -5.42e-4,2.3e-4 -0.635077,0.26212 -1.168735,0.76698 -1.451443,1.44936 -2e-6,10e-6 -3e-6,10e-6 -5e-6,2e-5 -1.1e-5,0 -1.3e-5,0 -1.4e-5,10e-6 -5e-6,1e-5 -9e-6,2e-5 -1.2e-5,3e-5 -3.4e-5,9e-5 -6.8e-5,1.9e-4 -1.36e-4,2.3e-4 -1.3e-5,0 -2.7e-5,10e-6 -4e-5,2e-5 -8e-5,2.2e-4 -1.62e-4,4.4e-4 -3.15e-4,5.4e-4 -7.9e-5,1.9e-4 -1.49e-4,3.8e-4 -2.28e-4,5.7e-4 -0.272092,0.65635 -0.272531,1.39388 -0.0012,2.05059 8e-6,10e-6 1.6e-5,10e-6 1.5e-5,2e-5 -3e-6,0 -5e-6,10e-6 -7e-6,2e-5 4.2e-5,8e-5 5.7e-5,1.3e-4 6.8e-5,2.5e-4 6e-6,10e-6 1.3e-5,2e-5 1.8e-5,3e-5 -5e-6,2e-5 -1.1e-5,3e-5 -2.5e-5,5e-5 1.04e-4,2.1e-4 1.56e-4,3.3e-4 2.23e-4,4.6e-4 4.4e-5,1.2e-4 8.9e-5,2.3e-4 1.42e-4,3.4e-4 0.271694,0.65661 0.79293,1.17853 1.449223,1.45108 0,0 0,0 0,0 0,0 0,0 0,0"
       style="opacity:1;fill:#000000;fill-opacity:1;stroke:none;stroke-width:2.86500001;stroke-linecap:round;stroke-linejoin:bevel;stroke-miterlimit:4;stroke-dasharray:none;paint-order:stroke fill markers"
       id="path7137"
       inkscape:transform-center-x="19.483762"
       inkscape:transform-center-y="6.809921" />
    <path
       inkscape:connector-curvature="0"
       d="m 18.76193,254.46951 c 0.611821,-0.0794 1.165373,-0.39944 1.539647,-0.88705 3.3e-5,-5e-5 6.5e-5,-9e-5 9.8e-5,-1.3e-4 4.8e-5,-8e-5 9.8e-5,-1.4e-4 1.43e-4,-2.3e-4 1.51e-4,-1.8e-4 2.92e-4,-3.6e-4 4.31e-4,-5.5e-4 0.373802,-0.48746 0.540171,-1.10359 0.460789,-1.71502 -8e-6,-5e-5 -1.8e-5,-1.1e-4 -3e-5,-1.7e-4 -1.4e-5,-9e-5 -3e-5,-1.8e-4 -4.6e-5,-2.7e-4 -2e-6,-1e-5 -2e-6,-1e-5 -2e-6,-1e-5 10e-6,0 8e-6,-1e-5 1.8e-5,-1e-5 -2e-6,-1e-5 8e-6,-1e-5 8e-6,-1e-5 7e-6,-2e-5 6e-6,-3e-5 1.4e-5,-4e-5 -3.2e-5,-2.4e-4 -6.4e-5,-4.8e-4 -9.7e-5,-7.3e-4 -0.166798,-1.27074 -1.331864,-2.16604 -2.602849,-1.99987 -5.9e-5,0 -1.18e-4,2e-5 -1.38e-4,2e-5 -8.9e-5,2e-5 -1.76e-4,3e-5 -2.06e-4,4e-5 -2e-6,-1e-5 -2e-6,-1e-5 -2e-6,-1e-5 -3e-5,0 -7e-5,0 -8.9e-5,1e-5 0,0 0,0 -10e-6,1e-5 -4e-5,0 -8.8e-5,1e-5 -1.28e-4,2e-5 -2.38e-4,3e-5 -4.86e-4,6e-5 -7.24e-4,9e-5 -0.633897,0.0838 -1.175516,0.41568 -1.538384,0.88701 -2.8e-5,2e-5 -3.4e-5,4e-5 -4.9e-5,7e-5 -2.5e-5,3e-5 -5e-5,6e-5 -7.4e-5,1e-4 -1.41e-4,1.8e-4 -2.71e-4,3.6e-4 -4.12e-4,5.4e-4 -0.36267,0.47147 -0.544227,1.08104 -0.460803,1.71506 0,0 2e-6,1e-5 2e-6,1e-5 -9e-6,1e-5 -7e-6,2e-5 -7e-6,2e-5 2e-6,1e-5 3e-6,2e-5 5e-6,3e-5 2e-5,1.1e-4 3.8e-5,2.2e-4 1e-6,2.9e-4 -7e-6,2e-5 -1.5e-5,3e-5 -2.4e-5,5e-5 3.2e-5,1.7e-4 6.1e-5,3.4e-4 1e-6,4.6e-4 3.2e-5,2.4e-4 6.2e-5,4.6e-4 9.2e-5,6.9e-4 0.08022,0.60989 0.39912,1.16308 0.886827,1.53802 10e-6,0 2e-5,0 2.2e-5,1e-5 2e-6,1e-5 2e-6,1e-5 4e-6,2e-5 9.2e-5,6e-5 1.39e-4,1e-4 2.08e-4,2e-4 1.2e-5,1e-5 2.4e-5,2e-5 2.6e-5,3e-5 10e-7,1e-5 2e-6,2e-5 4e-6,3e-5 1.49e-4,1e-4 2.23e-4,1.7e-4 3.14e-4,2.2e-4 8.1e-5,6e-5 1.53e-4,1.2e-4 2.23e-4,1.8e-4 0.488,0.37475 1.104827,0.54047 1.714965,0.46071 0,0 0,0 0,0 0,0 0,0 0,0"
       style="opacity:1;fill:#000000;fill-opacity:1;stroke:none;stroke-width:2.86500001;stroke-linecap:round;stroke-linejoin:bevel;stroke-miterlimit:4;stroke-dasharray:none;paint-order:stroke fill markers"
       id="path7139"
       inkscape:transform-center-x="20.277714"
       inkscape:transform-center-y="-3.8445007" />
    <path
       inkscape:connector-curvature="0"
       d="m 15.015076,244.10114 c 0.414187,-0.31666 0.684107,-0.78475 0.751991,-1.29977 3e-6,-6e-5 1.3e-5,-1.2e-4 1.4e-5,-1.8e-4 5e-6,-6e-5 9e-6,-1.2e-4 2.1e-5,-1.8e-4 3.1e-5,-2.6e-4 6.3e-5,-5.2e-4 1.01e-4,-7.8e-4 0.06753,-0.51464 -0.07104,-1.03577 -0.387459,-1.44967 -4.2e-5,-5e-5 -8.3e-5,-1e-4 -1.26e-4,-1.5e-4 -3.8e-5,-5e-5 -7.6e-5,-9e-5 -1.17e-4,-1.4e-4 -10e-7,0 -2e-6,-1e-5 -3e-6,-1e-5 -4e-6,0 0,-1e-5 4e-6,-2e-5 -2e-6,0 -2e-6,-1e-5 -3e-6,-1e-5 4e-6,-1e-5 8e-6,-2e-5 5e-6,-2e-5 -1.69e-4,-2.2e-4 -3.3e-4,-4.4e-4 -4.98e-4,-6.6e-4 -0.659087,-0.85936 -1.889925,-1.02227 -2.749843,-0.36367 -5.4e-5,5e-5 -1.08e-4,9e-5 -1.23e-4,1.1e-4 -4.6e-5,3e-5 -9.2e-5,7e-5 -1.07e-4,9e-5 -10e-7,-10e-6 -3e-6,-10e-6 -3e-6,-10e-6 -2.3e-5,2e-5 -6.2e-5,5e-5 -7.6e-5,7e-5 -2e-6,0 -2e-6,-1e-5 -3e-6,-1e-5 -2.4e-5,2e-5 -5.4e-5,5e-5 -6.9e-5,6e-5 -2.22e-4,1.7e-4 -4.36e-4,3.4e-4 -6.51e-4,5e-4 -0.428419,0.32916 -0.684518,0.80087 -0.75093,1.29908 -2e-6,3e-5 -3e-6,6e-5 -5e-6,9e-5 -2e-6,3e-5 -5e-6,6e-5 -7e-6,9e-5 -3.6e-5,2.5e-4 -7.1e-5,5e-4 -1.06e-4,7.6e-4 -0.06614,0.49823 0.05855,1.02099 0.387465,1.44971 4e-6,0 8e-6,1e-5 1.2e-5,1e-5 4e-6,10e-6 8e-6,10e-6 4e-6,2e-5 4e-6,1e-5 8e-6,1e-5 1.1e-5,2e-5 8.2e-5,9e-5 1.64e-4,1.9e-4 1.69e-4,2.9e-4 3e-6,0 0,1e-5 -5e-6,2e-5 7.6e-5,9e-5 1.53e-4,1.9e-4 1.61e-4,2.7e-4 1.61e-4,2.1e-4 3.22e-4,4.2e-4 4.84e-4,6.3e-4 0.316395,0.41238 0.783488,0.68241 1.298785,0.75074 1.1e-5,0 2.1e-5,-1e-5 2.4e-5,0 6e-6,0 1.1e-5,1e-5 1.7e-5,2e-5 1.26e-4,1e-5 1.96e-4,1e-5 3.21e-4,8e-5 1.1e-5,0 1.4e-5,0 2.5e-5,0 5e-6,1e-5 1.1e-5,1e-5 1.5e-5,2e-5 1.14e-4,1e-5 1.83e-4,2e-5 2.55e-4,2e-5 6e-5,1e-5 1.19e-4,2e-5 1.79e-4,3e-5 0.515519,0.0681 1.03699,-0.0713 1.449835,-0.38746 0,0 0,0 0,0 0,0 0,0 0,0"
       style="opacity:1;fill:#000000;fill-opacity:1;stroke:none;stroke-width:2.86500001;stroke-linecap:round;stroke-linejoin:bevel;stroke-miterlimit:4;stroke-dasharray:none;paint-order:stroke fill markers"
       id="path7141"
       inkscape:transform-center-x="15.638941"
       inkscape:transform-center-y="-13.468294" />
  </g>
</svg>
