<?xml version="1.0" encoding="UTF-8" standalone="no"?>
<svg
   xmlns:dc="http://purl.org/dc/elements/1.1/"
   xmlns:cc="http://creativecommons.org/ns#"
   xmlns:rdf="http://www.w3.org/1999/02/22-rdf-syntax-ns#"
   xmlns:svg="http://www.w3.org/2000/svg"
   xmlns="http://www.w3.org/2000/svg"
   xmlns:xlink="http://www.w3.org/1999/xlink"
   xmlns:sodipodi="http://sodipodi.sourceforge.net/DTD/sodipodi-0.dtd"
   xmlns:inkscape="http://www.inkscape.org/namespaces/inkscape"
   height="170.27911"
   width="246.40392"
   version="1.0"
   viewBox="-2100 -1470 1437.3562 993.29483"
   id="svg114"
   sodipodi:docname="Flag_of_Brazil.svg"
   inkscape:version="0.92.4 5da689c313, 2019-01-14">
  <metadata
     id="metadata118">
    <rdf:RDF>
      <cc:Work
         rdf:about="">
        <dc:format>image/svg+xml</dc:format>
        <dc:type
           rdf:resource="http://purl.org/dc/dcmitype/StillImage" />
      </cc:Work>
    </rdf:RDF>
  </metadata>
  <sodipodi:namedview
     pagecolor="#ffffff"
     bordercolor="#666666"
     borderopacity="1"
     objecttolerance="10"
     gridtolerance="10"
     guidetolerance="10"
     inkscape:pageopacity="0"
     inkscape:pageshadow="2"
     inkscape:window-width="1366"
     inkscape:window-height="674"
     id="namedview116"
     showgrid="false"
     inkscape:zoom="1.355288"
     inkscape:cx="88.426745"
     inkscape:cy="122.18232"
     inkscape:window-x="0"
     inkscape:window-y="0"
     inkscape:window-maximized="1"
     inkscape:current-layer="svg114" />
  <defs
     id="defs42">
    <path
       id="D"
       d="m -31.5,0 h 33 a 30,30 0 0 0 30,-30 v -10 a 30,30 0 0 0 -30,-30 h -33 z m 13,-13 h 19 a 19,19 0 0 0 19,-19 v -6 a 19,19 0 0 0 -19,-19 h -19 z"
       inkscape:connector-curvature="0"
       style="fill-rule:evenodd" />
    <path
       id="E"
       transform="translate(-31.5)"
       d="M 0,0 H 63 V -13 H 12 V -31 H 52 V -43 H 12 V -57 H 60 V -70 H 0 Z"
       inkscape:connector-curvature="0" />
    <path
       id="e"
       d="m -26.25,0 h 52.5 v -12 h -40.5 v -16 h 33 v -12 h -33 V -51 H 25 v -12 h -51.25 z"
       inkscape:connector-curvature="0" />
    <g
       id="G">
      <clipPath
         id="gcut">
        <path
           d="m -31.5,0 v -70 h 63 V 0 Z M 0,-47 v 12 h 31.5 v -12 z"
           id="path5"
           inkscape:connector-curvature="0" />
      </clipPath>
      <use
         xlink:href="#O"
         clip-path="url(#gcut)"
         id="use8"
         x="0"
         y="0"
         width="100%"
         height="100%" />
      <rect
         y="-35"
         x="5"
         height="10"
         width="26.5"
         id="rect10" />
      <rect
         y="-35"
         x="21.5"
         height="35"
         width="10"
         id="rect12" />
    </g>
    <path
       id="M"
       d="m -31.5,0 h 12 v -48 l 14,48 h 11 l 14,-48 V 0 h 12 V -70 H 14 L 0,-22 -14,-70 h -17.5 z"
       inkscape:connector-curvature="0" />
    <path
       id="O"
       d="M 0,0 A 31.5,35 0 0 0 0,-70 31.5,35 0 0 0 0,0 m 0,-13 a 18.5,22 0 0 0 0,-44 18.5,22 0 0 0 0,44"
       inkscape:connector-curvature="0"
       style="fill-rule:evenodd" />
    <path
       id="P"
       d="m -31.5,0 h 13 v -26 h 28 a 22,22 0 0 0 0,-44 h -40 z m 13,-39 h 27 a 9,9 0 0 0 0,-18 h -27 z"
       inkscape:connector-curvature="0"
       style="fill-rule:evenodd" />
    <g
       id="R">
      <use
         xlink:href="#P"
         id="use18"
         x="0"
         y="0"
         width="100%"
         height="100%" />
      <path
         d="m 28,0 c 0,-10 0,-32 -15,-32 H -6 c 22,0 22,22 22,32"
         id="path20"
         inkscape:connector-curvature="0" />
    </g>
    <path
       id="S"
       d="m -15.75,-22 c 0,7 6.75,10.5 16.75,10.5 10,0 14.74,-3.25 14.75,-7.75 C 15.75,-33.5 -31,-24.5 -30.75,-49.5 -30.5,-71 -6,-70 3,-70 c 9,0 26,4 25.75,21.25 H 13.5 c 0,-7.5 -7,-10.25 -15,-10.25 -7.75,0 -13.25,1.25 -13.25,8.5 -0.25,11.75 46.25,4 46.25,28.75 C 31.5,-3.5 13.5,0 0,0 -11.5,0 -31.55,-4.5 -31.5,-22 Z"
       inkscape:connector-curvature="0" />
    <g
       id="star"
       style="fill:#ffffff">
      <g
         id="c">
        <path
           id="t"
           transform="rotate(18,0,-1)"
           d="M 0,-1 V 0 H 0.5"
           inkscape:connector-curvature="0" />
        <use
           xlink:href="#t"
           transform="scale(-1,1)"
           id="use25"
           x="0"
           y="0"
           width="100%"
           height="100%" />
      </g>
      <use
         xlink:href="#c"
         transform="rotate(72)"
         id="use28"
         x="0"
         y="0"
         width="100%"
         height="100%" />
      <use
         xlink:href="#c"
         transform="rotate(-72)"
         id="use30"
         x="0"
         y="0"
         width="100%"
         height="100%" />
      <use
         xlink:href="#c"
         transform="rotate(144)"
         id="use32"
         x="0"
         y="0"
         width="100%"
         height="100%" />
      <use
         xlink:href="#c"
         transform="rotate(-144)"
         id="use34"
         x="0"
         y="0"
         width="100%"
         height="100%" />
    </g>
    <use
       id="star1"
       xlink:href="#star"
       transform="scale(31.5)"
       x="0"
       y="0"
       width="100%"
       height="100%" />
    <use
       id="star2"
       xlink:href="#star"
       transform="scale(26.25)"
       x="0"
       y="0"
       width="100%"
       height="100%" />
    <use
       id="star3"
       xlink:href="#star"
       transform="scale(21)"
       x="0"
       y="0"
       width="100%"
       height="100%" />
    <use
       id="star4"
       xlink:href="#star"
       transform="scale(15)"
       x="0"
       y="0"
       width="100%"
       height="100%" />
    <use
       id="star5"
       xlink:href="#star"
       transform="scale(10.5)"
       x="0"
       y="0"
       width="100%"
       height="100%" />
  </defs>
  <clipPath
     id="band">
    <circle
       r="735"
       id="circle50"
       cx="0"
       cy="0" />
  </clipPath>
  <g
     id="g4873"
     inkscape:export-xdpi="96"
     inkscape:export-ydpi="96"
     transform="matrix(1.9198136,0,0,1.9198136,1933.556,1347.0621)"
     style="stroke-width:0.52088392">
    <rect
       y="-1467.3623"
       x="-2101.0144"
       height="517.3913"
       width="748.69568"
       id="rect4822"
       style="fill:#008000;fill-opacity:1;stroke:none;stroke-width:15.19244766;stroke-linecap:round;stroke-linejoin:bevel;stroke-miterlimit:4;stroke-dasharray:none;stroke-opacity:1;paint-order:stroke fill markers" />
    <g
       style="stroke-width:2.92997193"
       transform="matrix(0.17777778,0,0,0.17777778,-1726.6667,-1208.6667)"
       id="g4904">
      <rect
         style="fill:#009b3a;stroke-width:16.48109245"
         y="-50%"
         x="-50%"
         height="100%"
         width="100%"
         id="rect44" />
      <path
         style="fill:#fedf00;stroke-width:16.48109245"
         inkscape:connector-curvature="0"
         d="M -1743,0 0,1113 1743,0 0,-1113 Z"
         id="path46" />
      <circle
         style="fill:#002776;stroke-width:16.48109245"
         cy="0"
         cx="0"
         r="735"
         id="circle48" />
      <path
         style="fill:#ffffff;stroke-width:16.48109245"
         inkscape:connector-curvature="0"
         d="m -2205,1470 a 1785,1785 0 0 1 3570,0 h -105 a 1680,1680 0 1 0 -3360,0 z"
         clip-path="url(#band)"
         id="path53" />
      <g
         style="fill:#009b3a;stroke-width:16.48109245"
         transform="translate(-420,1470)"
         id="g85">
        <use
           style="stroke-width:2.92997193"
           height="100%"
           width="100%"
           x="0"
           y="-1697.5"
           xlink:href="#O"
           transform="rotate(-7)"
           id="use55" />
        <use
           style="stroke-width:2.92997193"
           height="100%"
           width="100%"
           x="0"
           y="-1697.5"
           xlink:href="#R"
           transform="rotate(-4)"
           id="use57" />
        <use
           style="stroke-width:2.92997193"
           height="100%"
           width="100%"
           x="0"
           y="-1697.5"
           xlink:href="#D"
           transform="rotate(-1)"
           id="use59" />
        <use
           style="stroke-width:2.92997193"
           height="100%"
           width="100%"
           x="0"
           y="-1697.5"
           xlink:href="#E"
           transform="rotate(2)"
           id="use61" />
        <use
           style="stroke-width:2.92997193"
           height="100%"
           width="100%"
           x="0"
           y="-1697.5"
           xlink:href="#M"
           transform="rotate(5)"
           id="use63" />
        <use
           style="stroke-width:2.92997193"
           height="100%"
           width="100%"
           x="0"
           y="-1697.5"
           xlink:href="#e"
           transform="rotate(9.75)"
           id="use65" />
        <use
           style="stroke-width:2.92997193"
           height="100%"
           width="100%"
           x="0"
           y="-1697.5"
           xlink:href="#P"
           transform="rotate(14.5)"
           id="use67" />
        <use
           style="stroke-width:2.92997193"
           height="100%"
           width="100%"
           x="0"
           y="-1697.5"
           xlink:href="#R"
           transform="rotate(17.5)"
           id="use69" />
        <use
           style="stroke-width:2.92997193"
           height="100%"
           width="100%"
           x="0"
           y="-1697.5"
           xlink:href="#O"
           transform="rotate(20.5)"
           id="use71" />
        <use
           style="stroke-width:2.92997193"
           height="100%"
           width="100%"
           x="0"
           y="-1697.5"
           xlink:href="#G"
           transform="rotate(23.5)"
           id="use73" />
        <use
           style="stroke-width:2.92997193"
           height="100%"
           width="100%"
           x="0"
           y="-1697.5"
           xlink:href="#R"
           transform="rotate(26.5)"
           id="use75" />
        <use
           style="stroke-width:2.92997193"
           height="100%"
           width="100%"
           x="0"
           y="-1697.5"
           xlink:href="#E"
           transform="rotate(29.5)"
           id="use77" />
        <use
           style="stroke-width:2.92997193"
           height="100%"
           width="100%"
           x="0"
           y="-1697.5"
           xlink:href="#S"
           transform="rotate(32.5)"
           id="use79" />
        <use
           style="stroke-width:2.92997193"
           height="100%"
           width="100%"
           x="0"
           y="-1697.5"
           xlink:href="#S"
           transform="rotate(35.5)"
           id="use81" />
        <use
           style="stroke-width:2.92997193"
           height="100%"
           width="100%"
           x="0"
           y="-1697.5"
           xlink:href="#O"
           transform="rotate(38.5)"
           id="use83" />
      </g>
      <use
         style="stroke-width:2.92997193"
         height="100%"
         width="100%"
         id="αCMi"
         y="-132"
         x="-600"
         xlink:href="#star1" />
      <use
         style="stroke-width:2.92997193"
         height="100%"
         width="100%"
         id="αCMa"
         y="177"
         x="-535"
         xlink:href="#star1" />
      <use
         style="stroke-width:2.92997193"
         height="100%"
         width="100%"
         id="βCMa"
         y="243"
         x="-625"
         xlink:href="#star2" />
      <use
         style="stroke-width:2.92997193"
         height="100%"
         width="100%"
         id="γCMa"
         y="132"
         x="-463"
         xlink:href="#star4" />
      <use
         style="stroke-width:2.92997193"
         height="100%"
         width="100%"
         id="δCMa"
         y="250"
         x="-382"
         xlink:href="#star2" />
      <use
         style="stroke-width:2.92997193"
         height="100%"
         width="100%"
         id="εCMa"
         y="323"
         x="-404"
         xlink:href="#star3" />
      <use
         style="stroke-width:2.92997193"
         height="100%"
         width="100%"
         id="αVir"
         y="-228"
         x="228"
         xlink:href="#star1" />
      <use
         style="stroke-width:2.92997193"
         height="100%"
         width="100%"
         id="αSco"
         y="258"
         x="515"
         xlink:href="#star1" />
      <use
         style="stroke-width:2.92997193"
         height="100%"
         width="100%"
         id="βSco"
         y="265"
         x="617"
         xlink:href="#star3" />
      <use
         style="stroke-width:2.92997193"
         height="100%"
         width="100%"
         id="εSco"
         y="323"
         x="545"
         xlink:href="#star2" />
      <use
         style="stroke-width:2.92997193"
         height="100%"
         width="100%"
         id="θSco"
         y="477"
         x="368"
         xlink:href="#star2" />
      <use
         style="stroke-width:2.92997193"
         height="100%"
         width="100%"
         id="ιSco"
         y="551"
         x="367"
         xlink:href="#star3" />
      <use
         style="stroke-width:2.92997193"
         height="100%"
         width="100%"
         id="κSco"
         y="419"
         x="441"
         xlink:href="#star3" />
      <use
         style="stroke-width:2.92997193"
         height="100%"
         width="100%"
         id="λSco"
         y="382"
         x="500"
         xlink:href="#star2" />
      <use
         style="stroke-width:2.92997193"
         height="100%"
         width="100%"
         id="μSco"
         y="405"
         x="365"
         xlink:href="#star3" />
      <use
         style="stroke-width:2.92997193"
         height="100%"
         width="100%"
         id="αHya"
         y="30"
         x="-280"
         xlink:href="#star2" />
      <use
         style="stroke-width:2.92997193"
         height="100%"
         width="100%"
         id="γHya"
         y="-37"
         x="200"
         xlink:href="#star3" />
      <use
         style="stroke-width:2.92997193"
         height="100%"
         width="100%"
         x="0"
         id="αCru"
         y="330"
         xlink:href="#star1" />
      <use
         style="stroke-width:2.92997193"
         height="100%"
         width="100%"
         id="βCru"
         y="184"
         x="85"
         xlink:href="#star2" />
      <use
         style="stroke-width:2.92997193"
         height="100%"
         width="100%"
         x="0"
         id="γCru"
         y="118"
         xlink:href="#star2" />
      <use
         style="stroke-width:2.92997193"
         height="100%"
         width="100%"
         id="δCru"
         y="184"
         x="-74"
         xlink:href="#star3" />
      <use
         style="stroke-width:2.92997193"
         height="100%"
         width="100%"
         id="εCru"
         y="235"
         x="-37"
         xlink:href="#star4" />
      <use
         style="stroke-width:2.92997193"
         height="100%"
         width="100%"
         id="αTrA"
         y="495"
         x="220"
         xlink:href="#star2" />
      <use
         style="stroke-width:2.92997193"
         height="100%"
         width="100%"
         id="βTrA"
         y="430"
         x="283"
         xlink:href="#star3" />
      <use
         style="stroke-width:2.92997193"
         height="100%"
         width="100%"
         id="γTrA"
         y="412"
         x="162"
         xlink:href="#star3" />
      <use
         style="stroke-width:2.92997193"
         height="100%"
         width="100%"
         id="αCar"
         y="390"
         x="-295"
         xlink:href="#star1" />
      <use
         style="stroke-width:2.92997193"
         height="100%"
         width="100%"
         x="0"
         id="σOct"
         y="575"
         xlink:href="#star5" />
    </g>
  </g>
</svg>
