<?xml version="1.0" encoding="UTF-8" standalone="no"?>
<svg
   xmlns:dc="http://purl.org/dc/elements/1.1/"
   xmlns:cc="http://creativecommons.org/ns#"
   xmlns:rdf="http://www.w3.org/1999/02/22-rdf-syntax-ns#"
   xmlns:svg="http://www.w3.org/2000/svg"
   xmlns="http://www.w3.org/2000/svg"
   xmlns:xlink="http://www.w3.org/1999/xlink"
   xmlns:sodipodi="http://sodipodi.sourceforge.net/DTD/sodipodi-0.dtd"
   xmlns:inkscape="http://www.inkscape.org/namespaces/inkscape"
   height="89.599998"
   width="128"
   version="1.0"
   viewBox="-2100 -1470 746.66667 522.66666"
   id="svg114"
   sodipodi:docname="Flag_of_Brazil.svg"
   inkscape:version="0.92.4 5da689c313, 2019-01-14">
  <metadata
     id="metadata118">
    <rdf:RDF>
      <cc:Work
         rdf:about="">
        <dc:format>image/svg+xml</dc:format>
        <dc:type
           rdf:resource="http://purl.org/dc/dcmitype/StillImage" />
      </cc:Work>
    </rdf:RDF>
  </metadata>
  <sodipodi:namedview
     pagecolor="#ffffff"
     bordercolor="#666666"
     borderopacity="1"
     objecttolerance="10"
     gridtolerance="10"
     guidetolerance="10"
     inkscape:pageopacity="0"
     inkscape:pageshadow="2"
     inkscape:window-width="1366"
     inkscape:window-height="674"
     id="namedview116"
     showgrid="false"
     inkscape:zoom="0.11979167"
     inkscape:cx="1574.4467"
     inkscape:cy="1187.6939"
     inkscape:window-x="0"
     inkscape:window-y="0"
     inkscape:window-maximized="1"
     inkscape:current-layer="svg114" />
  <defs
     id="defs42">
    <path
       id="D"
       d="m -31.5,0 h 33 a 30,30 0 0 0 30,-30 v -10 a 30,30 0 0 0 -30,-30 h -33 z m 13,-13 h 19 a 19,19 0 0 0 19,-19 v -6 a 19,19 0 0 0 -19,-19 h -19 z"
       inkscape:connector-curvature="0"
       style="fill-rule:evenodd" />
    <path
       id="E"
       transform="translate(-31.5)"
       d="M 0,0 H 63 V -13 H 12 V -31 H 52 V -43 H 12 V -57 H 60 V -70 H 0 Z"
       inkscape:connector-curvature="0" />
    <path
       id="e"
       d="m -26.25,0 h 52.5 v -12 h -40.5 v -16 h 33 v -12 h -33 V -51 H 25 v -12 h -51.25 z"
       inkscape:connector-curvature="0" />
    <g
       id="G">
      <clipPath
         id="gcut">
        <path
           d="m -31.5,0 v -70 h 63 V 0 Z M 0,-47 v 12 h 31.5 v -12 z"
           id="path5"
           inkscape:connector-curvature="0" />
      </clipPath>
      <use
         xlink:href="#O"
         clip-path="url(#gcut)"
         id="use8"
         x="0"
         y="0"
         width="100%"
         height="100%" />
      <rect
         y="-35"
         x="5"
         height="10"
         width="26.5"
         id="rect10" />
      <rect
         y="-35"
         x="21.5"
         height="35"
         width="10"
         id="rect12" />
    </g>
    <path
       id="M"
       d="m -31.5,0 h 12 v -48 l 14,48 h 11 l 14,-48 V 0 h 12 V -70 H 14 L 0,-22 -14,-70 h -17.5 z"
       inkscape:connector-curvature="0" />
    <path
       id="O"
       d="M 0,0 A 31.5,35 0 0 0 0,-70 31.5,35 0 0 0 0,0 m 0,-13 a 18.5,22 0 0 0 0,-44 18.5,22 0 0 0 0,44"
       inkscape:connector-curvature="0"
       style="fill-rule:evenodd" />
    <path
       id="P"
       d="m -31.5,0 h 13 v -26 h 28 a 22,22 0 0 0 0,-44 h -40 z m 13,-39 h 27 a 9,9 0 0 0 0,-18 h -27 z"
       inkscape:connector-curvature="0"
       style="fill-rule:evenodd" />
    <g
       id="R">
      <use
         xlink:href="#P"
         id="use18"
         x="0"
         y="0"
         width="100%"
         height="100%" />
      <path
         d="m 28,0 c 0,-10 0,-32 -15,-32 H -6 c 22,0 22,22 22,32"
         id="path20"
         inkscape:connector-curvature="0" />
    </g>
    <path
       id="S"
       d="m -15.75,-22 c 0,7 6.75,10.5 16.75,10.5 10,0 14.74,-3.25 14.75,-7.75 C 15.75,-33.5 -31,-24.5 -30.75,-49.5 -30.5,-71 -6,-70 3,-70 c 9,0 26,4 25.75,21.25 H 13.5 c 0,-7.5 -7,-10.25 -15,-10.25 -7.75,0 -13.25,1.25 -13.25,8.5 -0.25,11.75 46.25,4 46.25,28.75 C 31.5,-3.5 13.5,0 0,0 -11.5,0 -31.55,-4.5 -31.5,-22 Z"
       inkscape:connector-curvature="0" />
    <g
       id="star"
       style="fill:#ffffff">
      <g
         id="c">
        <path
           id="t"
           transform="rotate(18,0,-1)"
           d="M 0,-1 V 0 H 0.5"
           inkscape:connector-curvature="0" />
        <use
           xlink:href="#t"
           transform="scale(-1,1)"
           id="use25"
           x="0"
           y="0"
           width="100%"
           height="100%" />
      </g>
      <use
         xlink:href="#c"
         transform="rotate(72)"
         id="use28"
         x="0"
         y="0"
         width="100%"
         height="100%" />
      <use
         xlink:href="#c"
         transform="rotate(-72)"
         id="use30"
         x="0"
         y="0"
         width="100%"
         height="100%" />
      <use
         xlink:href="#c"
         transform="rotate(144)"
         id="use32"
         x="0"
         y="0"
         width="100%"
         height="100%" />
      <use
         xlink:href="#c"
         transform="rotate(-144)"
         id="use34"
         x="0"
         y="0"
         width="100%"
         height="100%" />
    </g>
    <use
       id="star1"
       xlink:href="#star"
       transform="scale(31.5)"
       x="0"
       y="0"
       width="100%"
       height="100%" />
    <use
       id="star2"
       xlink:href="#star"
       transform="scale(26.25)"
       x="0"
       y="0"
       width="100%"
       height="100%" />
    <use
       id="star3"
       xlink:href="#star"
       transform="scale(21)"
       x="0"
       y="0"
       width="100%"
       height="100%" />
    <use
       id="star4"
       xlink:href="#star"
       transform="scale(15)"
       x="0"
       y="0"
       width="100%"
       height="100%" />
    <use
       id="star5"
       xlink:href="#star"
       transform="scale(10.5)"
       x="0"
       y="0"
       width="100%"
       height="100%" />
  </defs>
  <clipPath
     id="band">
    <circle
       r="735"
       id="circle50"
       cx="0"
       cy="0" />
  </clipPath>
  <g
     id="g4904"
     transform="matrix(0.17777778,0,0,0.17777778,-1726.6667,-1208.6667)"
     style="stroke-width:5.625">
    <rect
       id="rect44"
       width="100%"
       height="100%"
       x="-50%"
       y="-50%"
       style="fill:#009b3a;stroke-width:31.640625" />
    <path
       id="path46"
       d="M -1743,0 0,1113 1743,0 0,-1113 Z"
       inkscape:connector-curvature="0"
       style="fill:#fedf00;stroke-width:31.640625" />
    <circle
       id="circle48"
       r="735"
       cx="0"
       cy="0"
       style="fill:#002776;stroke-width:31.640625" />
    <path
       id="path53"
       clip-path="url(#band)"
       d="m -2205,1470 a 1785,1785 0 0 1 3570,0 h -105 a 1680,1680 0 1 0 -3360,0 z"
       inkscape:connector-curvature="0"
       style="fill:#ffffff;stroke-width:31.640625" />
    <g
       id="g85"
       transform="translate(-420,1470)"
       style="fill:#009b3a;stroke-width:31.640625">
      <use
         id="use55"
         transform="rotate(-7)"
         xlink:href="#O"
         y="-1697.5"
         x="0"
         width="100%"
         height="100%"
         style="stroke-width:5.625" />
      <use
         id="use57"
         transform="rotate(-4)"
         xlink:href="#R"
         y="-1697.5"
         x="0"
         width="100%"
         height="100%"
         style="stroke-width:5.625" />
      <use
         id="use59"
         transform="rotate(-1)"
         xlink:href="#D"
         y="-1697.5"
         x="0"
         width="100%"
         height="100%"
         style="stroke-width:5.625" />
      <use
         id="use61"
         transform="rotate(2)"
         xlink:href="#E"
         y="-1697.5"
         x="0"
         width="100%"
         height="100%"
         style="stroke-width:5.625" />
      <use
         id="use63"
         transform="rotate(5)"
         xlink:href="#M"
         y="-1697.5"
         x="0"
         width="100%"
         height="100%"
         style="stroke-width:5.625" />
      <use
         id="use65"
         transform="rotate(9.75)"
         xlink:href="#e"
         y="-1697.5"
         x="0"
         width="100%"
         height="100%"
         style="stroke-width:5.625" />
      <use
         id="use67"
         transform="rotate(14.5)"
         xlink:href="#P"
         y="-1697.5"
         x="0"
         width="100%"
         height="100%"
         style="stroke-width:5.625" />
      <use
         id="use69"
         transform="rotate(17.5)"
         xlink:href="#R"
         y="-1697.5"
         x="0"
         width="100%"
         height="100%"
         style="stroke-width:5.625" />
      <use
         id="use71"
         transform="rotate(20.5)"
         xlink:href="#O"
         y="-1697.5"
         x="0"
         width="100%"
         height="100%"
         style="stroke-width:5.625" />
      <use
         id="use73"
         transform="rotate(23.5)"
         xlink:href="#G"
         y="-1697.5"
         x="0"
         width="100%"
         height="100%"
         style="stroke-width:5.625" />
      <use
         id="use75"
         transform="rotate(26.5)"
         xlink:href="#R"
         y="-1697.5"
         x="0"
         width="100%"
         height="100%"
         style="stroke-width:5.625" />
      <use
         id="use77"
         transform="rotate(29.5)"
         xlink:href="#E"
         y="-1697.5"
         x="0"
         width="100%"
         height="100%"
         style="stroke-width:5.625" />
      <use
         id="use79"
         transform="rotate(32.5)"
         xlink:href="#S"
         y="-1697.5"
         x="0"
         width="100%"
         height="100%"
         style="stroke-width:5.625" />
      <use
         id="use81"
         transform="rotate(35.5)"
         xlink:href="#S"
         y="-1697.5"
         x="0"
         width="100%"
         height="100%"
         style="stroke-width:5.625" />
      <use
         id="use83"
         transform="rotate(38.5)"
         xlink:href="#O"
         y="-1697.5"
         x="0"
         width="100%"
         height="100%"
         style="stroke-width:5.625" />
    </g>
    <use
       xlink:href="#star1"
       x="-600"
       y="-132"
       id="αCMi"
       width="100%"
       height="100%"
       style="stroke-width:5.625" />
    <use
       xlink:href="#star1"
       x="-535"
       y="177"
       id="αCMa"
       width="100%"
       height="100%"
       style="stroke-width:5.625" />
    <use
       xlink:href="#star2"
       x="-625"
       y="243"
       id="βCMa"
       width="100%"
       height="100%"
       style="stroke-width:5.625" />
    <use
       xlink:href="#star4"
       x="-463"
       y="132"
       id="γCMa"
       width="100%"
       height="100%"
       style="stroke-width:5.625" />
    <use
       xlink:href="#star2"
       x="-382"
       y="250"
       id="δCMa"
       width="100%"
       height="100%"
       style="stroke-width:5.625" />
    <use
       xlink:href="#star3"
       x="-404"
       y="323"
       id="εCMa"
       width="100%"
       height="100%"
       style="stroke-width:5.625" />
    <use
       xlink:href="#star1"
       x="228"
       y="-228"
       id="αVir"
       width="100%"
       height="100%"
       style="stroke-width:5.625" />
    <use
       xlink:href="#star1"
       x="515"
       y="258"
       id="αSco"
       width="100%"
       height="100%"
       style="stroke-width:5.625" />
    <use
       xlink:href="#star3"
       x="617"
       y="265"
       id="βSco"
       width="100%"
       height="100%"
       style="stroke-width:5.625" />
    <use
       xlink:href="#star2"
       x="545"
       y="323"
       id="εSco"
       width="100%"
       height="100%"
       style="stroke-width:5.625" />
    <use
       xlink:href="#star2"
       x="368"
       y="477"
       id="θSco"
       width="100%"
       height="100%"
       style="stroke-width:5.625" />
    <use
       xlink:href="#star3"
       x="367"
       y="551"
       id="ιSco"
       width="100%"
       height="100%"
       style="stroke-width:5.625" />
    <use
       xlink:href="#star3"
       x="441"
       y="419"
       id="κSco"
       width="100%"
       height="100%"
       style="stroke-width:5.625" />
    <use
       xlink:href="#star2"
       x="500"
       y="382"
       id="λSco"
       width="100%"
       height="100%"
       style="stroke-width:5.625" />
    <use
       xlink:href="#star3"
       x="365"
       y="405"
       id="μSco"
       width="100%"
       height="100%"
       style="stroke-width:5.625" />
    <use
       xlink:href="#star2"
       x="-280"
       y="30"
       id="αHya"
       width="100%"
       height="100%"
       style="stroke-width:5.625" />
    <use
       xlink:href="#star3"
       x="200"
       y="-37"
       id="γHya"
       width="100%"
       height="100%"
       style="stroke-width:5.625" />
    <use
       xlink:href="#star1"
       y="330"
       id="αCru"
       x="0"
       width="100%"
       height="100%"
       style="stroke-width:5.625" />
    <use
       xlink:href="#star2"
       x="85"
       y="184"
       id="βCru"
       width="100%"
       height="100%"
       style="stroke-width:5.625" />
    <use
       xlink:href="#star2"
       y="118"
       id="γCru"
       x="0"
       width="100%"
       height="100%"
       style="stroke-width:5.625" />
    <use
       xlink:href="#star3"
       x="-74"
       y="184"
       id="δCru"
       width="100%"
       height="100%"
       style="stroke-width:5.625" />
    <use
       xlink:href="#star4"
       x="-37"
       y="235"
       id="εCru"
       width="100%"
       height="100%"
       style="stroke-width:5.625" />
    <use
       xlink:href="#star2"
       x="220"
       y="495"
       id="αTrA"
       width="100%"
       height="100%"
       style="stroke-width:5.625" />
    <use
       xlink:href="#star3"
       x="283"
       y="430"
       id="βTrA"
       width="100%"
       height="100%"
       style="stroke-width:5.625" />
    <use
       xlink:href="#star3"
       x="162"
       y="412"
       id="γTrA"
       width="100%"
       height="100%"
       style="stroke-width:5.625" />
    <use
       xlink:href="#star1"
       x="-295"
       y="390"
       id="αCar"
       width="100%"
       height="100%"
       style="stroke-width:5.625" />
    <use
       xlink:href="#star5"
       y="575"
       id="σOct"
       x="0"
       width="100%"
       height="100%"
       style="stroke-width:5.625" />
  </g>
</svg>
